%TF.GenerationSoftware,KiCad,Pcbnew,8.0.7*%
%TF.CreationDate,2025-01-30T19:22:21+01:00*%
%TF.ProjectId,CM5_MINIMA_2,434d355f-4d49-44e4-994d-415f322e6b69,2*%
%TF.SameCoordinates,Original*%
%TF.FileFunction,Paste,Top*%
%TF.FilePolarity,Positive*%
%FSLAX46Y46*%
G04 Gerber Fmt 4.6, Leading zero omitted, Abs format (unit mm)*
G04 Created by KiCad (PCBNEW 8.0.7) date 2025-01-30 19:22:21*
%MOMM*%
%LPD*%
G01*
G04 APERTURE LIST*
G04 Aperture macros list*
%AMRoundRect*
0 Rectangle with rounded corners*
0 $1 Rounding radius*
0 $2 $3 $4 $5 $6 $7 $8 $9 X,Y pos of 4 corners*
0 Add a 4 corners polygon primitive as box body*
4,1,4,$2,$3,$4,$5,$6,$7,$8,$9,$2,$3,0*
0 Add four circle primitives for the rounded corners*
1,1,$1+$1,$2,$3*
1,1,$1+$1,$4,$5*
1,1,$1+$1,$6,$7*
1,1,$1+$1,$8,$9*
0 Add four rect primitives between the rounded corners*
20,1,$1+$1,$2,$3,$4,$5,0*
20,1,$1+$1,$4,$5,$6,$7,0*
20,1,$1+$1,$6,$7,$8,$9,0*
20,1,$1+$1,$8,$9,$2,$3,0*%
G04 Aperture macros list end*
%ADD10R,1.200000X0.700000*%
%ADD11R,0.950000X1.300000*%
%ADD12R,1.000000X1.500000*%
%ADD13RoundRect,0.150000X0.512500X0.150000X-0.512500X0.150000X-0.512500X-0.150000X0.512500X-0.150000X0*%
%ADD14RoundRect,0.135000X0.135000X0.185000X-0.135000X0.185000X-0.135000X-0.185000X0.135000X-0.185000X0*%
%ADD15RoundRect,0.150000X0.150000X0.625000X-0.150000X0.625000X-0.150000X-0.625000X0.150000X-0.625000X0*%
%ADD16RoundRect,0.250000X0.350000X0.650000X-0.350000X0.650000X-0.350000X-0.650000X0.350000X-0.650000X0*%
%ADD17RoundRect,0.250000X-0.250000X-0.475000X0.250000X-0.475000X0.250000X0.475000X-0.250000X0.475000X0*%
%ADD18R,0.650000X0.850000*%
%ADD19R,0.300000X0.500000*%
%ADD20RoundRect,0.135000X-0.185000X0.135000X-0.185000X-0.135000X0.185000X-0.135000X0.185000X0.135000X0*%
%ADD21RoundRect,0.250000X0.250000X0.475000X-0.250000X0.475000X-0.250000X-0.475000X0.250000X-0.475000X0*%
%ADD22RoundRect,0.140000X0.170000X-0.140000X0.170000X0.140000X-0.170000X0.140000X-0.170000X-0.140000X0*%
%ADD23R,0.250000X0.680000*%
%ADD24RoundRect,0.075000X0.200000X-0.075000X0.200000X0.075000X-0.200000X0.075000X-0.200000X-0.075000X0*%
%ADD25R,0.800000X0.700000*%
%ADD26RoundRect,0.135000X-0.135000X-0.185000X0.135000X-0.185000X0.135000X0.185000X-0.135000X0.185000X0*%
%ADD27RoundRect,0.500000X0.900000X-0.500000X0.900000X0.500000X-0.900000X0.500000X-0.900000X-0.500000X0*%
%ADD28R,1.200000X1.400000*%
%ADD29RoundRect,0.250000X0.475000X-0.250000X0.475000X0.250000X-0.475000X0.250000X-0.475000X-0.250000X0*%
%ADD30RoundRect,0.100000X0.225000X0.100000X-0.225000X0.100000X-0.225000X-0.100000X0.225000X-0.100000X0*%
%ADD31RoundRect,0.125000X0.425000X-0.125000X0.425000X0.125000X-0.425000X0.125000X-0.425000X-0.125000X0*%
%ADD32RoundRect,0.250000X0.600000X-0.350000X0.600000X0.350000X-0.600000X0.350000X-0.600000X-0.350000X0*%
%ADD33RoundRect,0.140000X-0.140000X-0.170000X0.140000X-0.170000X0.140000X0.170000X-0.140000X0.170000X0*%
%ADD34RoundRect,0.135000X0.185000X-0.135000X0.185000X0.135000X-0.185000X0.135000X-0.185000X-0.135000X0*%
%ADD35RoundRect,0.087500X0.087500X-0.187500X0.087500X0.187500X-0.087500X0.187500X-0.087500X-0.187500X0*%
%ADD36RoundRect,0.125000X0.575000X-0.125000X0.575000X0.125000X-0.575000X0.125000X-0.575000X-0.125000X0*%
%ADD37RoundRect,0.087500X-0.087500X0.187500X-0.087500X-0.187500X0.087500X-0.187500X0.087500X0.187500X0*%
%ADD38R,0.400000X1.100000*%
%ADD39R,0.300000X1.550000*%
%ADD40R,1.200000X2.750000*%
%ADD41R,3.000000X0.710000*%
%ADD42R,3.000000X1.400000*%
%ADD43RoundRect,0.140000X-0.170000X0.140000X-0.170000X-0.140000X0.170000X-0.140000X0.170000X0.140000X0*%
%ADD44R,0.300000X2.600000*%
%ADD45RoundRect,0.140000X0.140000X0.170000X-0.140000X0.170000X-0.140000X-0.170000X0.140000X-0.170000X0*%
%ADD46RoundRect,0.125000X-0.125000X0.175000X-0.125000X-0.175000X0.125000X-0.175000X0.125000X0.175000X0*%
%ADD47RoundRect,0.125000X0.125000X-0.175000X0.125000X0.175000X-0.125000X0.175000X-0.125000X-0.175000X0*%
%ADD48R,0.700000X0.800000*%
%ADD49R,1.300000X0.300000*%
%ADD50R,2.200000X1.800000*%
G04 APERTURE END LIST*
D10*
%TO.C,SW501*%
X51350000Y16240000D03*
X51350000Y12960000D03*
D11*
X51225000Y14590000D03*
D12*
X53350000Y16590000D03*
X53350000Y12590000D03*
%TD*%
D13*
%TO.C,U405*%
X15427500Y12910000D03*
X15427500Y13860000D03*
X15427500Y14810000D03*
X13152500Y14810000D03*
X13152500Y12910000D03*
%TD*%
D14*
%TO.C,R704*%
X43760000Y8990000D03*
X42740000Y8990000D03*
%TD*%
D15*
%TO.C,J502*%
X49590000Y9855000D03*
X48590000Y9855000D03*
X47590000Y9855000D03*
X46590000Y9855000D03*
D16*
X50890000Y7330000D03*
X45290000Y7330000D03*
%TD*%
D17*
%TO.C,C705*%
X40775000Y13675000D03*
X42675000Y13675000D03*
%TD*%
D18*
%TO.C,U702*%
X41337500Y9750000D03*
X40462500Y9750000D03*
D19*
X41650000Y10650000D03*
X41150000Y10650000D03*
X40650000Y10650000D03*
X40150000Y10650000D03*
X40150000Y8850000D03*
X40650000Y8850000D03*
X41150000Y8850000D03*
X41650000Y8850000D03*
%TD*%
D20*
%TO.C,R606*%
X52140000Y23890000D03*
X52140000Y24910000D03*
%TD*%
%TO.C,R103*%
X47790000Y17040000D03*
X47790000Y16020000D03*
%TD*%
D21*
%TO.C,C708*%
X36350000Y17550000D03*
X34450000Y17550000D03*
%TD*%
D22*
%TO.C,C502*%
X16800000Y12720000D03*
X16800000Y13680000D03*
%TD*%
D23*
%TO.C,D401*%
X22050000Y14190000D03*
X21550000Y14190000D03*
X21050000Y14190000D03*
X20550000Y14190000D03*
X20050000Y14190000D03*
X20050000Y13330000D03*
X20550000Y13330000D03*
X21050000Y13330000D03*
X21550000Y13330000D03*
X22050000Y13330000D03*
%TD*%
D13*
%TO.C,U701*%
X9357500Y12900000D03*
X9357500Y13850000D03*
X9357500Y14800000D03*
X7082500Y14800000D03*
X7082500Y13850000D03*
X7082500Y12900000D03*
%TD*%
D24*
%TO.C,U401*%
X23610000Y40925000D03*
X23610000Y41425000D03*
X23610000Y41925000D03*
X23610000Y42425000D03*
X23610000Y42925000D03*
X22840000Y42925000D03*
X22840000Y42425000D03*
X22840000Y41925000D03*
X22840000Y41425000D03*
X22840000Y40925000D03*
%TD*%
D20*
%TO.C,R101*%
X10950000Y11660000D03*
X10950000Y10640000D03*
%TD*%
%TO.C,R402*%
X21575000Y51535000D03*
X21575000Y50515000D03*
%TD*%
%TO.C,R102*%
X46850000Y17040000D03*
X46850000Y16020000D03*
%TD*%
D14*
%TO.C,R401*%
X22610000Y38300000D03*
X21590000Y38300000D03*
%TD*%
D25*
%TO.C,D702*%
X19560000Y56200000D03*
X21360000Y56200000D03*
%TD*%
D20*
%TO.C,R105*%
X31510000Y44510000D03*
X31510000Y43490000D03*
%TD*%
%TO.C,R106*%
X30560000Y44510000D03*
X30560000Y43490000D03*
%TD*%
D26*
%TO.C,R403*%
X5590000Y55200000D03*
X6610000Y55200000D03*
%TD*%
D27*
%TO.C,L701*%
X36325000Y8800000D03*
X36325000Y13300000D03*
%TD*%
D28*
%TO.C,U703*%
X44950000Y43875000D03*
X44950000Y46075000D03*
X43250000Y46075000D03*
X43250000Y43875000D03*
%TD*%
D17*
%TO.C,C704*%
X40775000Y15650000D03*
X42675000Y15650000D03*
%TD*%
D20*
%TO.C,R707*%
X23460000Y55980000D03*
X23460000Y54960000D03*
%TD*%
D21*
%TO.C,C709*%
X36350000Y15575000D03*
X34450000Y15575000D03*
%TD*%
D29*
%TO.C,C701*%
X11250000Y12900000D03*
X11250000Y14800000D03*
%TD*%
D26*
%TO.C,R706*%
X42765000Y12025000D03*
X43785000Y12025000D03*
%TD*%
D15*
%TO.C,J601*%
X31100000Y18100000D03*
X30100000Y18100000D03*
X29100000Y18100000D03*
X28100000Y18100000D03*
D16*
X32400000Y15575000D03*
X26800000Y15575000D03*
%TD*%
D17*
%TO.C,C703*%
X6830000Y10880000D03*
X8730000Y10880000D03*
%TD*%
D30*
%TO.C,U602*%
X50210000Y20470000D03*
X50210000Y21770000D03*
X52110000Y21770000D03*
X52110000Y21120000D03*
X52110000Y20470000D03*
%TD*%
D31*
%TO.C,J503*%
X14980000Y22310000D03*
X14980000Y23110000D03*
X14980000Y23910000D03*
X14980000Y24710000D03*
X14980000Y25510000D03*
X14980000Y26310000D03*
X14980000Y27110000D03*
X14980000Y27910000D03*
X14980000Y28710000D03*
X14980000Y29510000D03*
D32*
X13580000Y21010000D03*
X13580000Y30810000D03*
%TD*%
D22*
%TO.C,C602*%
X5450000Y4970000D03*
X5450000Y5930000D03*
%TD*%
D33*
%TO.C,C401*%
X22495000Y48075000D03*
X23455000Y48075000D03*
%TD*%
D34*
%TO.C,R702*%
X6200000Y22600001D03*
X6200000Y23619999D03*
%TD*%
%TO.C,R705*%
X42775000Y10120000D03*
X42775000Y11140000D03*
%TD*%
D35*
%TO.C,U601*%
X6700000Y4425000D03*
X7700000Y4425000D03*
D36*
X7200000Y5450000D03*
D37*
X6700000Y6475000D03*
X7700000Y6475000D03*
%TD*%
D38*
%TO.C,J101*%
X10400000Y29550000D03*
X9600000Y29550000D03*
X8900000Y29550000D03*
X8200000Y29550000D03*
X7500000Y29550000D03*
X6800000Y29550000D03*
X6100000Y29550000D03*
X5300000Y29550000D03*
X5300000Y31250000D03*
X6100000Y31250000D03*
X6800000Y31250000D03*
X7500000Y31250000D03*
X8200000Y31250000D03*
X8900000Y31250000D03*
X9600000Y31250000D03*
X10400000Y31250000D03*
%TD*%
D26*
%TO.C,R501*%
X46940000Y12600000D03*
X47960000Y12600000D03*
%TD*%
D39*
%TO.C,J701*%
X26050000Y55650000D03*
X26300000Y48100000D03*
X26550000Y55650000D03*
X26800000Y48100000D03*
X27050000Y55650000D03*
X27300000Y48100000D03*
X27550000Y55650000D03*
X27800000Y48100000D03*
X28050000Y55650000D03*
X28300000Y48100000D03*
X28550000Y55650000D03*
X28800000Y48100000D03*
X29050000Y55650000D03*
X29300000Y48100000D03*
X29550000Y55650000D03*
X29800000Y48100000D03*
X30050000Y55650000D03*
X30300000Y48100000D03*
X30550000Y55650000D03*
X30800000Y48100000D03*
X31050000Y55650000D03*
X31300000Y48100000D03*
X31550000Y55650000D03*
X31800000Y48100000D03*
X32050000Y55650000D03*
X32300000Y48100000D03*
X32550000Y55650000D03*
X32800000Y48100000D03*
X33050000Y55650000D03*
X33300000Y48100000D03*
X33550000Y55650000D03*
X33800000Y48100000D03*
X34050000Y55650000D03*
X34300000Y48100000D03*
X34550000Y55650000D03*
X34800000Y48100000D03*
X35050000Y55650000D03*
X35300000Y48100000D03*
X35550000Y55650000D03*
X35800000Y48100000D03*
X36050000Y55650000D03*
X36300000Y48100000D03*
X36550000Y55650000D03*
X36800000Y48100000D03*
X37050000Y55650000D03*
X37300000Y48100000D03*
X37550000Y55650000D03*
X37800000Y48100000D03*
X38050000Y55650000D03*
X38300000Y48100000D03*
X38550000Y55650000D03*
X38800000Y48100000D03*
X39050000Y55650000D03*
X39300000Y48100000D03*
X39550000Y55650000D03*
X39800000Y48100000D03*
X40050000Y55650000D03*
X40300000Y48100000D03*
X42550000Y55650000D03*
X42800000Y48100000D03*
X43050000Y55650000D03*
X43300000Y48100000D03*
X43550000Y55650000D03*
X43800000Y48100000D03*
X44050000Y55650000D03*
X44300000Y48100000D03*
X44550000Y55650000D03*
D40*
X24950000Y54875000D03*
X45650000Y54875000D03*
%TD*%
D41*
%TO.C,T401*%
X19270000Y38350000D03*
X19270000Y39370000D03*
X19270000Y40390000D03*
X19270000Y41410000D03*
X19270000Y42430000D03*
X19270000Y43450000D03*
X19270000Y44470000D03*
X19270000Y45490000D03*
X19270000Y46510000D03*
X19270000Y47530000D03*
X19270000Y48550000D03*
X19270000Y49570000D03*
X19270000Y50590000D03*
X19270000Y51610000D03*
D42*
X5570000Y36255000D03*
X5570000Y53705000D03*
%TD*%
D29*
%TO.C,C711*%
X23050000Y49300000D03*
X23050000Y51200000D03*
%TD*%
D24*
%TO.C,U402*%
X23520000Y45112500D03*
X23520000Y45612500D03*
X23520000Y46112500D03*
X23520000Y46612500D03*
X23520000Y47112500D03*
X22750000Y47112500D03*
X22750000Y46612500D03*
X22750000Y46112500D03*
X22750000Y45612500D03*
X22750000Y45112500D03*
%TD*%
D22*
%TO.C,C712*%
X46300000Y44740000D03*
X46300000Y45700000D03*
%TD*%
D43*
%TO.C,C501*%
X11900000Y11630000D03*
X11900000Y10670000D03*
%TD*%
D44*
%TO.C,J501*%
X25300000Y10230000D03*
X24800000Y10230000D03*
X24300000Y10230000D03*
X23800000Y10230000D03*
X23300000Y10230000D03*
X22800000Y10230000D03*
X22300000Y10230000D03*
X21800000Y10230000D03*
X21300000Y10230000D03*
X20800000Y10230000D03*
X20300000Y10230000D03*
X19800000Y10230000D03*
X19300000Y10230000D03*
X18800000Y10230000D03*
X18300000Y10230000D03*
X17800000Y10230000D03*
X17300000Y10230000D03*
X16800000Y10230000D03*
X16300000Y10230000D03*
%TD*%
D17*
%TO.C,C710*%
X49600000Y46875000D03*
X47700000Y46875000D03*
%TD*%
D23*
%TO.C,D402*%
X25050000Y14190000D03*
X24550000Y14190000D03*
X24050000Y14190000D03*
X23550000Y14190000D03*
X23050000Y14190000D03*
X23050000Y13330000D03*
X23550000Y13330000D03*
X24050000Y13330000D03*
X24550000Y13330000D03*
X25050000Y13330000D03*
%TD*%
D20*
%TO.C,R701*%
X9950000Y11660000D03*
X9950000Y10640000D03*
%TD*%
D45*
%TO.C,C706*%
X40730000Y11700000D03*
X39770000Y11700000D03*
%TD*%
D46*
%TO.C,D101*%
X8350000Y27390000D03*
X7350000Y27390000D03*
X7850000Y26090000D03*
%TD*%
D33*
%TO.C,C102*%
X9550000Y33950000D03*
X10510000Y33950000D03*
%TD*%
D45*
%TO.C,C101*%
X6180000Y33950000D03*
X5220000Y33950000D03*
%TD*%
D38*
%TO.C,USB701*%
X10400000Y18000000D03*
X9600000Y18000000D03*
X8900000Y18000000D03*
X8200000Y18000000D03*
X7500000Y18000000D03*
X6800000Y18000000D03*
X6100000Y18000000D03*
X5300000Y18000000D03*
X5300000Y19700000D03*
X6100000Y19700000D03*
X6800000Y19700000D03*
X7500000Y19700000D03*
X8200000Y19700000D03*
X8900000Y19700000D03*
X9600000Y19700000D03*
X10400000Y19700000D03*
%TD*%
D47*
%TO.C,D701*%
X7350000Y22200000D03*
X8350000Y22200000D03*
X7850000Y23499999D03*
%TD*%
D29*
%TO.C,C601*%
X45480000Y11910000D03*
X45480000Y13810000D03*
%TD*%
D34*
%TO.C,R703*%
X9480000Y22610001D03*
X9480000Y23629999D03*
%TD*%
D22*
%TO.C,C707*%
X43730000Y10150000D03*
X43730000Y11110000D03*
%TD*%
D48*
%TO.C,D605*%
X53640000Y20580000D03*
X53640000Y22380000D03*
%TD*%
D47*
%TO.C,D502*%
X49525000Y13000000D03*
X50025000Y11700000D03*
X49025000Y11700000D03*
%TD*%
D49*
%TO.C,J802*%
X47850000Y39725000D03*
X47850000Y39225000D03*
X47850000Y38725000D03*
X47850000Y38225000D03*
X47850000Y37725000D03*
X47850000Y37225000D03*
X47850000Y36725000D03*
X47850000Y36225000D03*
X47850000Y35725000D03*
X47850000Y35225000D03*
X47850000Y34725000D03*
X47850000Y34225000D03*
X47850000Y33725000D03*
X47850000Y33225000D03*
X47850000Y32725000D03*
X47850000Y32225000D03*
X47850000Y31725000D03*
X47850000Y31225000D03*
X47850000Y30725000D03*
X47850000Y30225000D03*
X47850000Y29725000D03*
X47850000Y29225000D03*
D50*
X51100000Y27325000D03*
X51100000Y41625000D03*
%TD*%
D26*
%TO.C,R502*%
X46940000Y11650000D03*
X47960000Y11650000D03*
%TD*%
D48*
%TO.C,D606*%
X53640000Y23520000D03*
X53640000Y25320000D03*
%TD*%
D14*
%TO.C,R605*%
X49980000Y23010000D03*
X51000000Y23010000D03*
%TD*%
M02*
