%TF.GenerationSoftware,KiCad,Pcbnew,8.0.7*%
%TF.CreationDate,2025-02-13T17:26:50+01:00*%
%TF.ProjectId,CM5_MINIMA_2,434d355f-4d49-44e4-994d-415f322e6b69,2*%
%TF.SameCoordinates,Original*%
%TF.FileFunction,Copper,L5,Inr*%
%TF.FilePolarity,Positive*%
%FSLAX46Y46*%
G04 Gerber Fmt 4.6, Leading zero omitted, Abs format (unit mm)*
G04 Created by KiCad (PCBNEW 8.0.7) date 2025-02-13 17:26:50*
%MOMM*%
%LPD*%
G01*
G04 APERTURE LIST*
%TA.AperFunction,ComponentPad*%
%ADD10C,5.800000*%
%TD*%
%TA.AperFunction,ComponentPad*%
%ADD11C,2.600000*%
%TD*%
%TA.AperFunction,ComponentPad*%
%ADD12C,0.800000*%
%TD*%
%TA.AperFunction,ComponentPad*%
%ADD13O,1.800000X0.860000*%
%TD*%
%TA.AperFunction,ComponentPad*%
%ADD14C,1.000000*%
%TD*%
%TA.AperFunction,ComponentPad*%
%ADD15O,1.500000X3.300000*%
%TD*%
%TA.AperFunction,ComponentPad*%
%ADD16O,1.500000X2.300000*%
%TD*%
%TA.AperFunction,ComponentPad*%
%ADD17C,1.200000*%
%TD*%
%TA.AperFunction,ComponentPad*%
%ADD18C,0.900000*%
%TD*%
%TA.AperFunction,ViaPad*%
%ADD19C,0.450000*%
%TD*%
G04 APERTURE END LIST*
D10*
%TO.N,N/C*%
%TO.C,M701*%
X35310000Y22160000D03*
%TD*%
D11*
%TO.N,GND*%
%TO.C,H101*%
X2450000Y24100000D03*
%TD*%
D12*
%TO.N,*%
%TO.C,J101*%
X11430000Y30400000D03*
X4270000Y30400000D03*
D13*
%TO.N,GND*%
X10900000Y28370000D03*
X10900000Y32430000D03*
X4800000Y28370000D03*
X4800000Y32430000D03*
%TD*%
D14*
%TO.N,GND*%
%TO.C,TP105*%
X11130000Y22530000D03*
%TD*%
D15*
%TO.N,GND*%
%TO.C,J501*%
X28050000Y9500000D03*
X13550000Y9500000D03*
D16*
X13550000Y3540000D03*
X28050000Y3540000D03*
%TD*%
D12*
%TO.N,*%
%TO.C,USB701*%
X11430000Y18850000D03*
X4270000Y18850000D03*
D13*
%TO.N,GND*%
X10900000Y16820000D03*
X10900000Y20880000D03*
X4800000Y16820000D03*
X4800000Y20880000D03*
%TD*%
D17*
%TO.N,GND*%
%TO.C,SW501*%
X52750000Y16740000D03*
X52750000Y12440000D03*
%TD*%
D14*
%TO.N,GND*%
%TO.C,TP104*%
X52490000Y54890000D03*
%TD*%
%TO.N,GND*%
%TO.C,TP106*%
X42750000Y21200000D03*
%TD*%
D18*
%TO.N,*%
%TO.C,SW101*%
X52440000Y9720000D03*
X52440000Y6720000D03*
%TD*%
D19*
%TO.N,GND*%
X30250000Y26440000D03*
X7850000Y24210000D03*
X32540000Y54420000D03*
X46860000Y39790000D03*
X7300000Y55200000D03*
X27090000Y35340000D03*
X26680000Y32670000D03*
X49170000Y8150000D03*
X43490000Y50140000D03*
X8560500Y33180000D03*
X39940000Y49400000D03*
X7820000Y25370000D03*
X13080000Y25190000D03*
X10170000Y13820000D03*
X11100000Y17900000D03*
X49560000Y14290000D03*
X38915000Y29360000D03*
X25040053Y40473670D03*
X30910000Y15470000D03*
X4650000Y19800000D03*
X26120000Y44290000D03*
X31050000Y5150000D03*
X24800000Y11940000D03*
X33560000Y17370000D03*
X21470000Y41920000D03*
X28040000Y54360000D03*
X25370000Y44350000D03*
X19530000Y8050000D03*
X49490000Y17790000D03*
X52120000Y26069998D03*
X29110000Y19320000D03*
X53507714Y19393035D03*
X25980000Y36350000D03*
X29140000Y13670000D03*
X29760000Y32040000D03*
X33050000Y28600000D03*
X30005000Y39390000D03*
X30940000Y13785000D03*
X45055000Y21570000D03*
X32260000Y6660000D03*
X51930000Y32370000D03*
X39770000Y16190000D03*
X32190000Y27860000D03*
X16250000Y21830000D03*
X21050000Y12790000D03*
X51910000Y28630000D03*
X31050000Y900000D03*
X32055000Y40290585D03*
X23462232Y21668615D03*
X49010000Y21990000D03*
X23910000Y44280000D03*
X25240000Y35510000D03*
X13070000Y29760000D03*
X4510000Y33640000D03*
X29640000Y33020000D03*
X19260000Y7440000D03*
X44170000Y6610000D03*
X37480000Y49360000D03*
X30025000Y40305415D03*
X31230000Y30510000D03*
X47870000Y8650000D03*
X31040000Y40280000D03*
X52640000Y31350000D03*
X17520000Y49560000D03*
X49070000Y33690000D03*
X46820000Y30670000D03*
X14150000Y13850000D03*
X18660000Y35900000D03*
X31020000Y39420000D03*
X39490000Y10650000D03*
X23230000Y43980000D03*
X46460000Y35230000D03*
X44120000Y13310000D03*
X24050000Y12770000D03*
X24810000Y8590000D03*
X12420000Y32180000D03*
X43550000Y13690000D03*
X4600000Y31350000D03*
X10530000Y27500000D03*
X15340000Y16620000D03*
X16130000Y7460000D03*
X48960000Y38030000D03*
X14810000Y21705000D03*
X49700000Y24900000D03*
X52400000Y29410000D03*
X41510000Y6630000D03*
X46090000Y47080000D03*
X16820000Y14380000D03*
X38050000Y17310000D03*
X25120000Y47640000D03*
X14690000Y15730000D03*
X17900000Y36810000D03*
X23999945Y43492045D03*
X46670000Y24390000D03*
X23300000Y8590000D03*
X32849147Y29674321D03*
X28590000Y34060000D03*
X2150000Y54550000D03*
X46250000Y6000000D03*
X25740000Y33810000D03*
X25790000Y6990000D03*
X28800000Y32150000D03*
X26520000Y34550000D03*
X23990000Y47700000D03*
X30860000Y31010000D03*
X43330000Y16910000D03*
X28930000Y31190000D03*
X15910000Y26330000D03*
X49550000Y15160000D03*
X9100000Y9700000D03*
X21466457Y46110958D03*
X15980000Y30320000D03*
X7090000Y33130000D03*
X13160000Y17990000D03*
X26320000Y23290000D03*
X51025000Y37425000D03*
X48440000Y11020000D03*
X48920000Y36990000D03*
X22840000Y26090000D03*
X20300000Y11950000D03*
X48750000Y23720000D03*
X26250000Y54390000D03*
X18309997Y56200000D03*
X24750000Y22860000D03*
X43780000Y12810000D03*
X21820000Y8630000D03*
X27590000Y33560000D03*
X9920000Y9710000D03*
X4600000Y29450000D03*
X49930000Y30110000D03*
X22310000Y55610000D03*
X4650000Y17900000D03*
X28420000Y24750000D03*
X17000000Y52200000D03*
X13130000Y16800000D03*
X16220000Y16690000D03*
X31050000Y3050000D03*
X14713995Y32976004D03*
X21110000Y26150000D03*
X13060000Y28900000D03*
X13200000Y22800000D03*
X17310000Y11830000D03*
X43790000Y16030000D03*
X33580000Y16770000D03*
X19530000Y26150000D03*
X40560000Y55630000D03*
X16270000Y15580000D03*
X35320000Y6695000D03*
X48930000Y28900000D03*
X9482596Y5805000D03*
X47420000Y13210000D03*
X6650000Y3700000D03*
X46360000Y36740000D03*
X34145870Y29095594D03*
X23973726Y40376183D03*
X20710000Y33830000D03*
X11100000Y31350000D03*
X50430000Y46860000D03*
X32070000Y39420000D03*
X46280000Y46420000D03*
X37090000Y54520000D03*
X9200000Y11700000D03*
X6700000Y7000000D03*
X11100000Y19800000D03*
X23300000Y11950000D03*
X6890000Y15560000D03*
X43800000Y54420000D03*
X22320000Y39980000D03*
X13500000Y55000000D03*
X10960000Y15680000D03*
X50810000Y12240000D03*
X38040000Y51200000D03*
X45940000Y32170000D03*
X31420000Y27180000D03*
X11200000Y33800000D03*
X49020000Y32010000D03*
X24986325Y43395166D03*
X38540000Y6650000D03*
X28050000Y6600000D03*
X44500000Y31000000D03*
X53730000Y27840000D03*
X1800000Y35650000D03*
X16890000Y8540000D03*
X38970000Y11700000D03*
X43120000Y29420000D03*
X16010000Y23095000D03*
X33120000Y30350000D03*
X17690000Y7050000D03*
X6840000Y21530000D03*
X26380000Y50550000D03*
X32010000Y31340000D03*
X17730000Y16360000D03*
X16730000Y35350000D03*
X25025629Y41888245D03*
X48923266Y19923266D03*
X39490000Y10030000D03*
X29970000Y30210000D03*
X29500000Y50820000D03*
X22210000Y52210000D03*
X8920000Y21590000D03*
X5650000Y6550000D03*
X15310000Y33850000D03*
X42190000Y29410000D03*
X21800000Y11930000D03*
X45160000Y32100000D03*
X29180000Y15800000D03*
X13070000Y26410000D03*
X44370000Y54420000D03*
%TO.N,Net-(T401-SHIELD1)*%
X3675000Y36050000D03*
X3575000Y54025000D03*
%TO.N,/CM5/ETH_PI.TRD3_P*%
X24516770Y46512500D03*
%TO.N,/CM5/ETH_PI.TRD0_P*%
X24490000Y40820000D03*
%TO.N,/CM5/ETH_PI.TRD1_P*%
X24452021Y42325000D03*
%TO.N,/CM5/ETH_PI.TRD2_P*%
X24503854Y45012500D03*
%TO.N,/CM5/nLED_ACTIVITY*%
X52130000Y23330000D03*
%TO.N,/CM5/nRPIBOOT*%
X49770000Y15710000D03*
X52010000Y8130000D03*
%TO.N,/CM5/GPIO_VREF*%
X46040000Y17070000D03*
%TO.N,/CM5/EEPROM_nWP*%
X48920000Y31290000D03*
X51950000Y33020000D03*
%TO.N,/CM5/PI_nLED_PWR*%
X52830000Y19440000D03*
%TO.N,/CM5/nLED_SPEED_100_1000*%
X51980000Y31600000D03*
X21600000Y52080000D03*
%TO.N,/SCL*%
X48950000Y8870000D03*
X27440000Y6050000D03*
X48925000Y19175000D03*
%TO.N,/SDA*%
X50225000Y13100000D03*
X26530000Y7000000D03*
X49575000Y18450000D03*
X48130000Y13110000D03*
X49640000Y10920000D03*
%TO.N,/CM5/GPIO5*%
X31600000Y39910000D03*
%TO.N,+3V3_PI*%
X46810000Y10950000D03*
X9990000Y5390000D03*
X46526815Y18258185D03*
X42500000Y18256371D03*
X47275000Y18325000D03*
X21975000Y39425000D03*
X5482109Y4410903D03*
X46600000Y22430000D03*
X23880000Y22450000D03*
X46600000Y21840000D03*
%TO.N,Net-(D702-K)*%
X18890000Y56200000D03*
X22690000Y56090000D03*
%TO.N,/CM5/CAM_GPIO0*%
X43750000Y21840000D03*
%TO.N,/CM5/PWR_BUT*%
X49450000Y17150000D03*
X52250000Y15600000D03*
%TO.N,/CM5/VBUS_EN*%
X20219615Y33520283D03*
X8150000Y14725000D03*
%TO.N,/CM5/PWM*%
X43300000Y30120000D03*
X50270000Y31160000D03*
%TO.N,/CM5/TACHO*%
X44685000Y31645000D03*
%TO.N,/CM5/CAM_GPIO1*%
X44590000Y22280000D03*
%TO.N,/USB_C.D_P*%
X17979959Y36072910D03*
X7548000Y32579587D03*
%TO.N,/CC2*%
X6764066Y32121560D03*
X47760000Y14300000D03*
%TO.N,/USB_C.D_N*%
X7500000Y28700000D03*
X17552865Y35645816D03*
X8152000Y32579587D03*
%TO.N,/CC1*%
X8900000Y28750000D03*
X49380000Y16400000D03*
%TO.N,+5V*%
X31690000Y17200000D03*
X12280000Y12910000D03*
X51700000Y17800000D03*
X50300000Y19100000D03*
X12872500Y14100000D03*
X53070000Y23270000D03*
X6175000Y28575000D03*
X51700000Y19450000D03*
X53630000Y19960000D03*
X9525000Y32275000D03*
X6100000Y32475000D03*
X10060000Y23630000D03*
X51700000Y18900000D03*
X31100000Y17200000D03*
X9500000Y28250000D03*
X40750000Y17310000D03*
X40445356Y16688826D03*
X6210000Y24130000D03*
X6275000Y28025000D03*
X6180000Y33050000D03*
X11870000Y25480000D03*
X51700000Y18350000D03*
X41070000Y16710000D03*
X50300000Y19675000D03*
X12872500Y13550000D03*
%TO.N,VBUS_USB2.0*%
X6550000Y16200000D03*
X6100000Y20500000D03*
%TO.N,+1V8*%
X47360000Y17600000D03*
%TO.N,/CM5/ETH_nLED_ACTIVITY*%
X49325000Y32650000D03*
X22600000Y38900000D03*
%TO.N,/CM5/ETH_PI.TRD0_N*%
X24490000Y41520000D03*
%TO.N,/CM5/ETH_PI.TRD2_N*%
X24503854Y45712500D03*
%TO.N,/CM5/ETH_PI.TRD1_N*%
X24452021Y43025000D03*
%TO.N,/CM5/ETH_PI.TRD3_N*%
X24516770Y47212500D03*
%TO.N,M2_3V3*%
X40550000Y29360000D03*
X43170000Y49400000D03*
X46950000Y47175000D03*
X47250000Y45200000D03*
X30040000Y50005000D03*
X39770000Y29360000D03*
X41280000Y29370000D03*
X43240000Y10115000D03*
X26986178Y50005000D03*
X29060000Y50005000D03*
X37400000Y17280000D03*
X43800000Y49340000D03*
X45225000Y47725000D03*
X46950000Y46575000D03*
X44920000Y48380000D03*
%TO.N,/USB/CC1*%
X8900000Y16700000D03*
X9490000Y21960000D03*
%TO.N,/CM5/USB2P.D_P*%
X7548000Y21400000D03*
%TO.N,/CM5/USB2P.D_N*%
X8152000Y21400000D03*
X7500000Y17200000D03*
%TO.N,/CM5/PCIE_PI.TX_N*%
X16013547Y31116453D03*
%TO.N,/CM5/PCIE_PI.nWAKE*%
X39310000Y49710000D03*
%TO.N,/CM5/PCIE_PI.nCLKREQ*%
X37880000Y50570000D03*
%TO.N,/CM5/PCIE_PI.PWR_EN*%
X44760000Y10070000D03*
X20310000Y26230000D03*
X15730000Y34500000D03*
%TO.N,/CM5/PCIE_PI.RX_N*%
X15834144Y32761133D03*
%TO.N,/CM5/PCIE_PI.CLK_P*%
X41050000Y54122000D03*
%TO.N,/CM5/PCIE_PI.RX_P*%
X15407050Y33188227D03*
%TO.N,/CM5/PCIE_PI.TX_P*%
X15586453Y31543547D03*
%TO.N,/CM5/PCIE_PI.CLK_N*%
X41050000Y53518000D03*
%TO.N,/CM5/PCIE_PI.nRST*%
X38230000Y49310000D03*
%TO.N,/CM5/DPHY0_P.D0_P*%
X26407488Y35192512D03*
%TO.N,/CM5/DPHY0_P.C_P*%
X28922789Y32859226D03*
%TO.N,/CM5/DPHY0_P.D1_P*%
X26907488Y33402512D03*
%TO.N,/CM5/DPHY0_P.D2_P*%
X30107437Y30864849D03*
%TO.N,/CM5/DPHY0_P.D3_N*%
X31912512Y30647488D03*
%TO.N,/CM5/DPHY0_P.D3_P*%
X32407488Y30152512D03*
%TO.N,/CM5/DPHY0_P.D0_N*%
X25912512Y35687488D03*
%TO.N,/CM5/DPHY0_P.D2_N*%
X29612461Y31359825D03*
%TO.N,/CM5/DPHY0_P.C_N*%
X28427813Y33354202D03*
%TO.N,/CM5/DPHY0_P.D1_N*%
X26412512Y33897488D03*
%TO.N,/CM5/HDMI_PI.CK_P*%
X14770701Y17750000D03*
%TO.N,/CM5/HDMI_PI.CK_N*%
X14770701Y17050000D03*
%TO.N,/CM5/HDMI_PI.D0_N*%
X15850000Y18250000D03*
%TO.N,/CM5/HDMI_PI.SCL*%
X18640000Y7420000D03*
%TO.N,/CM5/HDMI_PI.D2_P*%
X15795809Y21350000D03*
%TO.N,/CM5/HDMI_PI.D0_P*%
X15850000Y18950000D03*
%TO.N,/CM5/HDMI_PI.D1_N*%
X14962002Y19450000D03*
%TO.N,/CM5/HDMI_PI.HOTPLUG*%
X17195816Y7506836D03*
%TO.N,/CM5/HDMI_PI.D1_P*%
X14962002Y20150000D03*
%TO.N,/CM5/HDMI_PI.D2_N*%
X15795809Y20650000D03*
%TO.N,/CM5/HDMI_PI.SDA*%
X17800000Y7970000D03*
%TO.N,/CM5/HDMI_PI.CEC*%
X19300000Y8600000D03*
%TO.N,/CM5/MOSI_GPIO20*%
X50360000Y29600000D03*
X32210000Y28570000D03*
%TO.N,/CM5/MISO_GPIO19*%
X49310000Y30010000D03*
X33800000Y28630000D03*
%TO.N,/CM5/SCLK_GPIO21*%
X32200000Y27250000D03*
X51975000Y30000000D03*
%TO.N,/CM5/BL_GPIO18*%
X50310000Y25200000D03*
X23290000Y25620000D03*
%TO.N,/CM5/RST_GPIO27*%
X27790000Y24490000D03*
X46460000Y24960000D03*
%TO.N,/CM5/DC_GPI25*%
X26610000Y23880000D03*
X48680000Y24410000D03*
%TO.N,/CM5/GPIO4*%
X30460000Y39890000D03*
%TO.N,/CM5/CS_GPIO24*%
X30700000Y26900000D03*
X51760000Y25590000D03*
%TD*%
%TA.AperFunction,Conductor*%
%TO.N,GND*%
G36*
X18728429Y56647826D02*
G01*
X18750103Y56595500D01*
X18728429Y56543174D01*
X18709699Y56529567D01*
X18671640Y56510175D01*
X18666533Y56507572D01*
X18582428Y56423467D01*
X18528426Y56317484D01*
X18528426Y56317483D01*
X18509819Y56200000D01*
X18528426Y56082518D01*
X18528426Y56082517D01*
X18530952Y56077560D01*
X18582427Y55976535D01*
X18666535Y55892427D01*
X18772518Y55838426D01*
X18890000Y55819819D01*
X19007482Y55838426D01*
X19113465Y55892427D01*
X19197573Y55976535D01*
X19251574Y56082518D01*
X19252759Y56090000D01*
X22309819Y56090000D01*
X22328426Y55972518D01*
X22328426Y55972517D01*
X22355941Y55918516D01*
X22382427Y55866535D01*
X22466535Y55782427D01*
X22572518Y55728426D01*
X22690000Y55709819D01*
X22807482Y55728426D01*
X22913465Y55782427D01*
X22997573Y55866535D01*
X23051574Y55972518D01*
X23070181Y56090000D01*
X23051574Y56207482D01*
X22997573Y56313465D01*
X22913465Y56397573D01*
X22861484Y56424059D01*
X22807483Y56451574D01*
X22690000Y56470181D01*
X22572517Y56451574D01*
X22572516Y56451574D01*
X22466533Y56397572D01*
X22382428Y56313467D01*
X22328426Y56207484D01*
X22328426Y56207483D01*
X22309819Y56090000D01*
X19252759Y56090000D01*
X19270181Y56200000D01*
X19251574Y56317482D01*
X19197573Y56423465D01*
X19113465Y56507573D01*
X19070300Y56529567D01*
X19033519Y56572633D01*
X19037963Y56629096D01*
X19081030Y56665878D01*
X19103897Y56669500D01*
X50535680Y56669500D01*
X50535684Y56669499D01*
X50599757Y56669500D01*
X50603387Y56669411D01*
X50622963Y56668450D01*
X50940973Y56652829D01*
X50948173Y56652120D01*
X51280709Y56602795D01*
X51287824Y56601379D01*
X51613922Y56519698D01*
X51620836Y56517601D01*
X51937358Y56404349D01*
X51944066Y56401570D01*
X52121855Y56317484D01*
X52247958Y56257843D01*
X52254335Y56254435D01*
X52542690Y56081604D01*
X52548722Y56077573D01*
X52818727Y55877326D01*
X52824341Y55872719D01*
X53073423Y55646966D01*
X53078550Y55641839D01*
X53304307Y55392756D01*
X53308907Y55387151D01*
X53509154Y55117149D01*
X53513189Y55111111D01*
X53686013Y54822773D01*
X53689436Y54816368D01*
X53833159Y54512493D01*
X53835938Y54505784D01*
X53949186Y54189278D01*
X53951294Y54182329D01*
X54032974Y53856250D01*
X54034391Y53849127D01*
X54083715Y53516611D01*
X54084427Y53509384D01*
X54100984Y53172362D01*
X54101073Y53168731D01*
X54101073Y20170810D01*
X54079399Y20118484D01*
X54027073Y20096810D01*
X53974747Y20118484D01*
X53961139Y20137214D01*
X53937573Y20183465D01*
X53853465Y20267573D01*
X53801484Y20294059D01*
X53747483Y20321574D01*
X53630000Y20340181D01*
X53512517Y20321574D01*
X53512516Y20321574D01*
X53406533Y20267572D01*
X53322428Y20183467D01*
X53268426Y20077484D01*
X53268426Y20077483D01*
X53249819Y19960000D01*
X53268426Y19842518D01*
X53268426Y19842517D01*
X53274712Y19830181D01*
X53322427Y19736535D01*
X53406535Y19652427D01*
X53512518Y19598426D01*
X53630000Y19579819D01*
X53747482Y19598426D01*
X53853465Y19652427D01*
X53937573Y19736535D01*
X53961139Y19782787D01*
X54004206Y19819569D01*
X54060668Y19815125D01*
X54097451Y19772058D01*
X54101073Y19749191D01*
X54101073Y4031820D01*
X54100984Y4028189D01*
X54084400Y3690619D01*
X54083688Y3683392D01*
X54034363Y3350877D01*
X54032946Y3343755D01*
X53951270Y3017682D01*
X53949162Y3010732D01*
X53835913Y2694227D01*
X53833134Y2687518D01*
X53689412Y2383645D01*
X53685989Y2377240D01*
X53513167Y2088905D01*
X53509132Y2082867D01*
X53308890Y1812873D01*
X53304283Y1807259D01*
X53078529Y1558180D01*
X53073394Y1553046D01*
X52824334Y1327312D01*
X52818720Y1322704D01*
X52548702Y1122447D01*
X52542664Y1118413D01*
X52254344Y945602D01*
X52247940Y942179D01*
X51944057Y798456D01*
X51937348Y795677D01*
X51620849Y682433D01*
X51613899Y680325D01*
X51287821Y598648D01*
X51280698Y597231D01*
X50948185Y547910D01*
X50940958Y547198D01*
X50602840Y530590D01*
X50599210Y530501D01*
X50531155Y530501D01*
X50531139Y530500D01*
X50135321Y530500D01*
X50082995Y552174D01*
X50061321Y604500D01*
X50082995Y656826D01*
X50110881Y674347D01*
X50119208Y677261D01*
X50119212Y677264D01*
X50119215Y677264D01*
X50427910Y825924D01*
X50718018Y1008211D01*
X50985893Y1221834D01*
X51228166Y1464107D01*
X51441789Y1731982D01*
X51624076Y2022090D01*
X51772736Y2330785D01*
X51772736Y2330788D01*
X51772739Y2330792D01*
X51853177Y2560675D01*
X51885897Y2654183D01*
X51962139Y2988217D01*
X52000500Y3328688D01*
X52000500Y3671312D01*
X51962139Y4011783D01*
X51913445Y4225124D01*
X51885898Y4345813D01*
X51885892Y4345831D01*
X51772739Y4669209D01*
X51723968Y4770483D01*
X51624076Y4977910D01*
X51441789Y5268018D01*
X51228166Y5535893D01*
X50985893Y5778166D01*
X50718018Y5991789D01*
X50427910Y6174076D01*
X50343502Y6214725D01*
X50119208Y6322740D01*
X49795830Y6435893D01*
X49795812Y6435899D01*
X49461786Y6512139D01*
X49315866Y6528580D01*
X49121312Y6550500D01*
X48778688Y6550500D01*
X48608452Y6531320D01*
X48438213Y6512139D01*
X48104187Y6435899D01*
X48104169Y6435893D01*
X47780791Y6322740D01*
X47472091Y6174077D01*
X47181981Y5991789D01*
X46914103Y5778163D01*
X46671837Y5535897D01*
X46458211Y5268019D01*
X46275923Y4977909D01*
X46127260Y4669209D01*
X46014107Y4345831D01*
X46014101Y4345813D01*
X45946145Y4048077D01*
X45913370Y4001886D01*
X45857533Y3992399D01*
X45811342Y4025174D01*
X45800000Y4064544D01*
X45800000Y6350000D01*
X31350000Y6350000D01*
X31350000Y604500D01*
X31328326Y552174D01*
X31276000Y530500D01*
X4051819Y530500D01*
X4048188Y530589D01*
X3710617Y547173D01*
X3703390Y547885D01*
X3370873Y597210D01*
X3363751Y598627D01*
X3051191Y676919D01*
X3037677Y680304D01*
X3030728Y682411D01*
X2714221Y795660D01*
X2707512Y798439D01*
X2403637Y942161D01*
X2397232Y945584D01*
X2108896Y1118406D01*
X2102858Y1122441D01*
X1832857Y1322688D01*
X1827244Y1327295D01*
X1578173Y1553039D01*
X1573038Y1558174D01*
X1526447Y1609579D01*
X1347294Y1807245D01*
X1342687Y1812858D01*
X1142440Y2082859D01*
X1138405Y2088897D01*
X1119999Y2119606D01*
X965579Y2377241D01*
X962160Y2383638D01*
X952164Y2404772D01*
X818436Y2687518D01*
X815659Y2694222D01*
X805302Y2723168D01*
X702406Y3010742D01*
X700306Y3017665D01*
X618625Y3343755D01*
X617209Y3350874D01*
X610082Y3398922D01*
X567882Y3683406D01*
X567173Y3690604D01*
X550588Y4028202D01*
X550500Y4031824D01*
X551482Y5657486D01*
X2564869Y5657486D01*
X2564869Y5248693D01*
X2603780Y4841770D01*
X2603782Y4841753D01*
X2665929Y4519738D01*
X2681246Y4440376D01*
X2783270Y4093402D01*
X2796567Y4048179D01*
X2948687Y3668758D01*
X2948692Y3668749D01*
X3136225Y3305546D01*
X3136229Y3305539D01*
X3136235Y3305528D01*
X3254304Y3122114D01*
X3321529Y3017682D01*
X3357503Y2961799D01*
X3610483Y2640691D01*
X3881160Y2357384D01*
X3892887Y2345110D01*
X3892890Y2345108D01*
X4202115Y2077774D01*
X4202119Y2077771D01*
X4202123Y2077768D01*
X4535411Y1841065D01*
X4724953Y1731982D01*
X4889719Y1637157D01*
X5063348Y1558180D01*
X5261820Y1467902D01*
X5261825Y1467901D01*
X5261828Y1467899D01*
X5648330Y1334836D01*
X5648345Y1334831D01*
X6045780Y1239153D01*
X6450519Y1181738D01*
X6858884Y1163107D01*
X7267169Y1183429D01*
X7671665Y1242520D01*
X8068701Y1339843D01*
X8454672Y1474514D01*
X8826072Y1645311D01*
X9179529Y1850682D01*
X9511834Y2088764D01*
X9819969Y2357393D01*
X9914912Y2457583D01*
X9925178Y2466182D01*
X9927558Y2468242D01*
X9927563Y2468244D01*
X9965274Y2510673D01*
X9966861Y2512401D01*
X10005884Y2553584D01*
X10005886Y2553590D01*
X10007909Y2556377D01*
X10015398Y2567060D01*
X10035024Y2589148D01*
X10133825Y2753464D01*
X10200669Y2933167D01*
X10233268Y3122108D01*
X10230506Y3313821D01*
X10192478Y3501745D01*
X10163919Y3572238D01*
X10120488Y3679443D01*
X10120486Y3679448D01*
X10016993Y3840850D01*
X9918158Y3945792D01*
X9885546Y3980420D01*
X9885543Y3980422D01*
X9885540Y3980426D01*
X9822127Y4026672D01*
X12670000Y4026672D01*
X12670000Y3618500D01*
X13100000Y3618500D01*
X13100000Y3461500D01*
X12670000Y3461500D01*
X12670000Y3053329D01*
X12703816Y2883320D01*
X12703818Y2883313D01*
X12770152Y2723168D01*
X12866458Y2579034D01*
X12989033Y2456459D01*
X13133167Y2360153D01*
X13293312Y2293819D01*
X13293319Y2293817D01*
X13463329Y2260000D01*
X13471500Y2260000D01*
X13471500Y2695160D01*
X13490756Y2690000D01*
X13609244Y2690000D01*
X13628500Y2695160D01*
X13628500Y2260000D01*
X13636671Y2260000D01*
X13806680Y2293817D01*
X13806687Y2293819D01*
X13966832Y2360153D01*
X14110966Y2456459D01*
X14110968Y2456460D01*
X14233540Y2579032D01*
X14233541Y2579034D01*
X14329847Y2723168D01*
X14396181Y2883313D01*
X14396183Y2883320D01*
X14430000Y3053329D01*
X14430000Y3461500D01*
X14000000Y3461500D01*
X14000000Y3618500D01*
X14430000Y3618500D01*
X14430000Y4026672D01*
X27170000Y4026672D01*
X27170000Y3618500D01*
X27600000Y3618500D01*
X27600000Y3461500D01*
X27170000Y3461500D01*
X27170000Y3053329D01*
X27203816Y2883320D01*
X27203818Y2883313D01*
X27270152Y2723168D01*
X27366458Y2579034D01*
X27489033Y2456459D01*
X27633167Y2360153D01*
X27793312Y2293819D01*
X27793319Y2293817D01*
X27963329Y2260000D01*
X27971500Y2260000D01*
X27971500Y2695160D01*
X27990756Y2690000D01*
X28109244Y2690000D01*
X28128500Y2695160D01*
X28128500Y2260000D01*
X28136671Y2260000D01*
X28306680Y2293817D01*
X28306687Y2293819D01*
X28466832Y2360153D01*
X28610966Y2456459D01*
X28610968Y2456460D01*
X28733540Y2579032D01*
X28733541Y2579034D01*
X28829847Y2723168D01*
X28896181Y2883313D01*
X28896183Y2883320D01*
X28930000Y3053329D01*
X28930000Y3461500D01*
X28500000Y3461500D01*
X28500000Y3618500D01*
X28930000Y3618500D01*
X28930000Y4026672D01*
X28896183Y4196681D01*
X28896181Y4196688D01*
X28829847Y4356833D01*
X28733541Y4500967D01*
X28610966Y4623542D01*
X28466832Y4719848D01*
X28306687Y4786182D01*
X28306680Y4786184D01*
X28136671Y4820000D01*
X28128500Y4820000D01*
X28128500Y4384841D01*
X28109244Y4390000D01*
X27990756Y4390000D01*
X27971500Y4384841D01*
X27971500Y4820000D01*
X27963329Y4820000D01*
X27793319Y4786184D01*
X27793312Y4786182D01*
X27633167Y4719848D01*
X27489033Y4623542D01*
X27489032Y4623540D01*
X27366460Y4500968D01*
X27366458Y4500967D01*
X27270152Y4356833D01*
X27203818Y4196688D01*
X27203816Y4196681D01*
X27170000Y4026672D01*
X14430000Y4026672D01*
X14396183Y4196681D01*
X14396181Y4196688D01*
X14329847Y4356833D01*
X14233541Y4500967D01*
X14110966Y4623542D01*
X13966832Y4719848D01*
X13806687Y4786182D01*
X13806680Y4786184D01*
X13636671Y4820000D01*
X13628500Y4820000D01*
X13628500Y4384841D01*
X13609244Y4390000D01*
X13490756Y4390000D01*
X13471500Y4384841D01*
X13471500Y4820000D01*
X13463329Y4820000D01*
X13293319Y4786184D01*
X13293312Y4786182D01*
X13133167Y4719848D01*
X12989033Y4623542D01*
X12989032Y4623540D01*
X12866460Y4500968D01*
X12866458Y4500967D01*
X12770152Y4356833D01*
X12703818Y4196688D01*
X12703816Y4196681D01*
X12670000Y4026672D01*
X9822127Y4026672D01*
X9820047Y4028189D01*
X9730629Y4093400D01*
X9730625Y4093402D01*
X9557558Y4175907D01*
X9557555Y4175908D01*
X9372247Y4225124D01*
X9181044Y4239364D01*
X9181042Y4239364D01*
X9181040Y4239364D01*
X9181035Y4239364D01*
X8990497Y4218142D01*
X8990486Y4218140D01*
X8807103Y4162180D01*
X8807102Y4162179D01*
X8637168Y4073401D01*
X8486486Y3954832D01*
X8446150Y3908758D01*
X8438435Y3901150D01*
X8235448Y3728388D01*
X8227497Y3722490D01*
X7993729Y3572238D01*
X7985062Y3567455D01*
X7733339Y3449755D01*
X7724111Y3446171D01*
X7458925Y3363122D01*
X7449301Y3360802D01*
X7175407Y3313893D01*
X7165559Y3312878D01*
X6887848Y3302949D01*
X6877954Y3303258D01*
X6601408Y3330484D01*
X6591642Y3332111D01*
X6321207Y3396007D01*
X6311747Y3398922D01*
X6052250Y3498347D01*
X6043263Y3502500D01*
X5799369Y3635667D01*
X5791021Y3640979D01*
X5567082Y3805510D01*
X5559514Y3811892D01*
X5460648Y3907286D01*
X5438042Y3959217D01*
X5458777Y4011921D01*
X5500452Y4033628D01*
X5599591Y4049329D01*
X5705574Y4103330D01*
X5789682Y4187438D01*
X5843683Y4293421D01*
X5862290Y4410903D01*
X5843683Y4528385D01*
X5789682Y4634368D01*
X5705574Y4718476D01*
X5641363Y4751193D01*
X5599592Y4772477D01*
X5482109Y4791084D01*
X5364626Y4772477D01*
X5364625Y4772477D01*
X5258642Y4718475D01*
X5174536Y4634369D01*
X5132605Y4552076D01*
X5089537Y4515293D01*
X5033075Y4519738D01*
X4998560Y4556744D01*
X4919944Y4741843D01*
X4916692Y4751193D01*
X4843173Y5019172D01*
X4841198Y5028872D01*
X4833985Y5082427D01*
X4804103Y5304288D01*
X4803442Y5314139D01*
X4803442Y5390000D01*
X9609819Y5390000D01*
X9628426Y5272518D01*
X9628426Y5272517D01*
X9640565Y5248693D01*
X9682427Y5166535D01*
X9766535Y5082427D01*
X9872518Y5028426D01*
X9990000Y5009819D01*
X10107482Y5028426D01*
X10213465Y5082427D01*
X10297573Y5166535D01*
X10351574Y5272518D01*
X10370181Y5390000D01*
X10351574Y5507482D01*
X10297573Y5613465D01*
X10213465Y5697573D01*
X10161484Y5724059D01*
X10107483Y5751574D01*
X9990000Y5770181D01*
X9872517Y5751574D01*
X9872516Y5751574D01*
X9766533Y5697572D01*
X9682428Y5613467D01*
X9628426Y5507484D01*
X9628426Y5507483D01*
X9609819Y5390000D01*
X4803442Y5390000D01*
X4803442Y5592035D01*
X4804104Y5601911D01*
X4813250Y5669820D01*
X4841194Y5877316D01*
X4843169Y5887014D01*
X4855653Y5932517D01*
X4887883Y6050000D01*
X27059819Y6050000D01*
X27078426Y5932518D01*
X27078426Y5932517D01*
X27105941Y5878516D01*
X27132427Y5826535D01*
X27216535Y5742427D01*
X27322518Y5688426D01*
X27440000Y5669819D01*
X27557482Y5688426D01*
X27663465Y5742427D01*
X27747573Y5826535D01*
X27801574Y5932518D01*
X27820181Y6050000D01*
X27801574Y6167482D01*
X27747573Y6273465D01*
X27663465Y6357573D01*
X27611484Y6384059D01*
X27557483Y6411574D01*
X27440000Y6430181D01*
X27322517Y6411574D01*
X27322516Y6411574D01*
X27216533Y6357572D01*
X27132428Y6273467D01*
X27078426Y6167484D01*
X27078426Y6167483D01*
X27059819Y6050000D01*
X4887883Y6050000D01*
X4916688Y6154998D01*
X4919934Y6164332D01*
X5028578Y6420138D01*
X5033032Y6428935D01*
X5174848Y6667950D01*
X5180437Y6676076D01*
X5352884Y6894017D01*
X5359513Y6901331D01*
X5559503Y7094300D01*
X5567060Y7100673D01*
X5791011Y7265216D01*
X5799345Y7270520D01*
X6043264Y7403703D01*
X6052234Y7407847D01*
X6311728Y7507274D01*
X6321181Y7510188D01*
X6591643Y7574090D01*
X6601375Y7575712D01*
X6877942Y7602944D01*
X6887830Y7603252D01*
X7165557Y7593323D01*
X7175380Y7592311D01*
X7449295Y7545402D01*
X7458903Y7543085D01*
X7724107Y7460032D01*
X7733315Y7456456D01*
X7985058Y7338749D01*
X7993707Y7333976D01*
X8227487Y7183720D01*
X8235427Y7177830D01*
X8306334Y7117483D01*
X8438423Y7005063D01*
X8446141Y6997452D01*
X8486464Y6951389D01*
X8637135Y6832822D01*
X8637141Y6832818D01*
X8730446Y6784069D01*
X8807078Y6744031D01*
X8913497Y6711555D01*
X8990462Y6688066D01*
X8990464Y6688066D01*
X8990466Y6688065D01*
X9181024Y6666837D01*
X9372232Y6681074D01*
X9557546Y6730288D01*
X9730623Y6812796D01*
X9885540Y6925774D01*
X9955446Y7000000D01*
X26149819Y7000000D01*
X26168426Y6882518D01*
X26168426Y6882517D01*
X26193747Y6832822D01*
X26222427Y6776535D01*
X26306535Y6692427D01*
X26412518Y6638426D01*
X26530000Y6619819D01*
X26647482Y6638426D01*
X26753465Y6692427D01*
X26837573Y6776535D01*
X26841411Y6784068D01*
X51789500Y6784068D01*
X51789500Y6655933D01*
X51814497Y6530261D01*
X51814498Y6530258D01*
X51855951Y6430181D01*
X51863535Y6411873D01*
X51934724Y6305331D01*
X52025331Y6214724D01*
X52131873Y6143535D01*
X52250256Y6094499D01*
X52250258Y6094499D01*
X52250260Y6094498D01*
X52292903Y6086016D01*
X52375931Y6069500D01*
X52375933Y6069500D01*
X52504067Y6069500D01*
X52504069Y6069500D01*
X52629744Y6094499D01*
X52748127Y6143535D01*
X52854669Y6214724D01*
X52945276Y6305331D01*
X53016465Y6411873D01*
X53065501Y6530256D01*
X53090500Y6655931D01*
X53090500Y6784069D01*
X53065501Y6909744D01*
X53016465Y7028127D01*
X52945276Y7134669D01*
X52854669Y7225276D01*
X52748127Y7296465D01*
X52748124Y7296467D01*
X52748123Y7296467D01*
X52629742Y7345502D01*
X52629739Y7345503D01*
X52539696Y7363414D01*
X52504069Y7370500D01*
X52375931Y7370500D01*
X52344726Y7364293D01*
X52250260Y7345503D01*
X52250257Y7345502D01*
X52131876Y7296467D01*
X52025331Y7225277D01*
X52025330Y7225275D01*
X51934725Y7134670D01*
X51934723Y7134669D01*
X51863533Y7028124D01*
X51814498Y6909743D01*
X51814497Y6909740D01*
X51789500Y6784068D01*
X26841411Y6784068D01*
X26891574Y6882518D01*
X26910181Y7000000D01*
X26891574Y7117482D01*
X26837573Y7223465D01*
X26753465Y7307573D01*
X26679027Y7345501D01*
X26647483Y7361574D01*
X26530000Y7380181D01*
X26412517Y7361574D01*
X26412516Y7361574D01*
X26306533Y7307572D01*
X26222428Y7223467D01*
X26168426Y7117484D01*
X26168426Y7117483D01*
X26149819Y7000000D01*
X9955446Y7000000D01*
X10016996Y7065354D01*
X10120490Y7226761D01*
X10192482Y7404469D01*
X10213195Y7506836D01*
X16815635Y7506836D01*
X16834242Y7389354D01*
X16834242Y7389353D01*
X16861757Y7335352D01*
X16888243Y7283371D01*
X16972351Y7199263D01*
X17078334Y7145262D01*
X17195816Y7126655D01*
X17313298Y7145262D01*
X17419281Y7199263D01*
X17503389Y7283371D01*
X17557390Y7389354D01*
X17562244Y7420000D01*
X18259819Y7420000D01*
X18278426Y7302518D01*
X18278426Y7302517D01*
X18281509Y7296467D01*
X18332427Y7196535D01*
X18416535Y7112427D01*
X18522518Y7058426D01*
X18640000Y7039819D01*
X18757482Y7058426D01*
X18863465Y7112427D01*
X18947573Y7196535D01*
X19001574Y7302518D01*
X19020181Y7420000D01*
X19001574Y7537482D01*
X18947573Y7643465D01*
X18863465Y7727573D01*
X18811484Y7754059D01*
X18757483Y7781574D01*
X18640000Y7800181D01*
X18522517Y7781574D01*
X18522516Y7781574D01*
X18416533Y7727572D01*
X18332428Y7643467D01*
X18278426Y7537484D01*
X18278426Y7537483D01*
X18259819Y7420000D01*
X17562244Y7420000D01*
X17575997Y7506836D01*
X17571862Y7532940D01*
X17585083Y7588010D01*
X17633373Y7617604D01*
X17678547Y7610450D01*
X17682518Y7608426D01*
X17800000Y7589819D01*
X17917482Y7608426D01*
X18023465Y7662427D01*
X18107573Y7746535D01*
X18161574Y7852518D01*
X18180181Y7970000D01*
X18161574Y8087482D01*
X18107573Y8193465D01*
X18023465Y8277573D01*
X17971484Y8304059D01*
X17917483Y8331574D01*
X17800000Y8350181D01*
X17682517Y8331574D01*
X17682516Y8331574D01*
X17576533Y8277572D01*
X17492428Y8193467D01*
X17438426Y8087484D01*
X17438426Y8087483D01*
X17419819Y7970000D01*
X17423953Y7943898D01*
X17410731Y7888826D01*
X17362440Y7859233D01*
X17317270Y7866387D01*
X17313300Y7868410D01*
X17195816Y7887017D01*
X17078333Y7868410D01*
X17078332Y7868410D01*
X16972349Y7814408D01*
X16888244Y7730303D01*
X16834242Y7624320D01*
X16834242Y7624319D01*
X16815635Y7506836D01*
X10213195Y7506836D01*
X10230508Y7592398D01*
X10233040Y7768427D01*
X10233266Y7784108D01*
X10233265Y7784109D01*
X10233266Y7784116D01*
X10200661Y7973060D01*
X10133810Y8152766D01*
X10035001Y8317083D01*
X10022126Y8331574D01*
X10015433Y8339107D01*
X10007564Y8350327D01*
X10005884Y8352643D01*
X10005883Y8352646D01*
X10005880Y8352649D01*
X10005878Y8352652D01*
X9966851Y8393839D01*
X9965281Y8395549D01*
X9927548Y8437997D01*
X9927547Y8437998D01*
X9927545Y8438000D01*
X9925606Y8439678D01*
X9914834Y8448700D01*
X9819953Y8548823D01*
X9805919Y8561058D01*
X9511821Y8817447D01*
X9511818Y8817449D01*
X9511816Y8817451D01*
X9179509Y9055530D01*
X9179501Y9055536D01*
X8826054Y9260898D01*
X8826051Y9260900D01*
X8655255Y9339444D01*
X8454649Y9431696D01*
X8068680Y9566364D01*
X7671643Y9663684D01*
X7267150Y9722773D01*
X7063003Y9732933D01*
X6858861Y9743093D01*
X6858858Y9743093D01*
X6858857Y9743093D01*
X6450498Y9724461D01*
X6045773Y9667046D01*
X6045764Y9667044D01*
X6045758Y9667043D01*
X5883840Y9628063D01*
X5648311Y9571361D01*
X5261807Y9438293D01*
X5261796Y9438288D01*
X4889699Y9269033D01*
X4535386Y9065119D01*
X4202107Y8828421D01*
X3892853Y8561058D01*
X3892848Y8561054D01*
X3610478Y8265504D01*
X3610475Y8265501D01*
X3357486Y7944379D01*
X3192024Y7687337D01*
X3136223Y7600652D01*
X3087783Y7506835D01*
X2948679Y7237425D01*
X2948673Y7237413D01*
X2796563Y6858009D01*
X2796558Y6857995D01*
X2681239Y6465794D01*
X2603777Y6064418D01*
X2603776Y6064416D01*
X2564869Y5657486D01*
X551482Y5657486D01*
X554397Y10486672D01*
X12670000Y10486672D01*
X12670000Y9578500D01*
X13100000Y9578500D01*
X13100000Y9421500D01*
X12670000Y9421500D01*
X12670000Y8513329D01*
X12703816Y8343320D01*
X12703818Y8343313D01*
X12770152Y8183168D01*
X12866458Y8039034D01*
X12989033Y7916459D01*
X13133167Y7820153D01*
X13293312Y7753819D01*
X13293319Y7753817D01*
X13463329Y7720000D01*
X13471500Y7720000D01*
X13471500Y8155160D01*
X13490756Y8150000D01*
X13609244Y8150000D01*
X13628500Y8155160D01*
X13628500Y7720000D01*
X13636671Y7720000D01*
X13806680Y7753817D01*
X13806687Y7753819D01*
X13966832Y7820153D01*
X14110966Y7916459D01*
X14110968Y7916460D01*
X14233540Y8039032D01*
X14233541Y8039034D01*
X14329847Y8183168D01*
X14396181Y8343313D01*
X14396183Y8343320D01*
X14430000Y8513329D01*
X14430000Y8600000D01*
X18919819Y8600000D01*
X18938426Y8482518D01*
X18938426Y8482517D01*
X18961327Y8437573D01*
X18992427Y8376535D01*
X19076535Y8292427D01*
X19182518Y8238426D01*
X19300000Y8219819D01*
X19417482Y8238426D01*
X19523465Y8292427D01*
X19607573Y8376535D01*
X19661574Y8482518D01*
X19680181Y8600000D01*
X19661574Y8717482D01*
X19607573Y8823465D01*
X19523465Y8907573D01*
X19471484Y8934059D01*
X19417483Y8961574D01*
X19300000Y8980181D01*
X19182517Y8961574D01*
X19182516Y8961574D01*
X19076533Y8907572D01*
X18992428Y8823467D01*
X18938426Y8717484D01*
X18938426Y8717483D01*
X18919819Y8600000D01*
X14430000Y8600000D01*
X14430000Y9421500D01*
X14000000Y9421500D01*
X14000000Y9578500D01*
X14430000Y9578500D01*
X14430000Y10486672D01*
X27170000Y10486672D01*
X27170000Y9578500D01*
X27600000Y9578500D01*
X27600000Y9421500D01*
X27170000Y9421500D01*
X27170000Y8513329D01*
X27203816Y8343320D01*
X27203818Y8343313D01*
X27270152Y8183168D01*
X27366458Y8039034D01*
X27489033Y7916459D01*
X27633167Y7820153D01*
X27793312Y7753819D01*
X27793319Y7753817D01*
X27963329Y7720000D01*
X27971500Y7720000D01*
X27971500Y8155160D01*
X27990756Y8150000D01*
X28109244Y8150000D01*
X28128500Y8155160D01*
X28128500Y7720000D01*
X28136671Y7720000D01*
X28306680Y7753817D01*
X28306687Y7753819D01*
X28466832Y7820153D01*
X28610966Y7916459D01*
X28610968Y7916460D01*
X28733540Y8039032D01*
X28733541Y8039034D01*
X28794322Y8130000D01*
X51629819Y8130000D01*
X51648426Y8012518D01*
X51648426Y8012517D01*
X51668531Y7973060D01*
X51702427Y7906535D01*
X51786535Y7822427D01*
X51892518Y7768426D01*
X52010000Y7749819D01*
X52127482Y7768426D01*
X52233465Y7822427D01*
X52317573Y7906535D01*
X52371574Y8012518D01*
X52390181Y8130000D01*
X52371574Y8247482D01*
X52317573Y8353465D01*
X52233465Y8437573D01*
X52181484Y8464059D01*
X52127483Y8491574D01*
X52010000Y8510181D01*
X51892517Y8491574D01*
X51892516Y8491574D01*
X51786533Y8437572D01*
X51702428Y8353467D01*
X51648426Y8247484D01*
X51648426Y8247483D01*
X51629819Y8130000D01*
X28794322Y8130000D01*
X28829847Y8183168D01*
X28896181Y8343313D01*
X28896183Y8343320D01*
X28930000Y8513329D01*
X28930000Y8870000D01*
X48569819Y8870000D01*
X48588426Y8752518D01*
X48588426Y8752517D01*
X48598672Y8732409D01*
X48642427Y8646535D01*
X48726535Y8562427D01*
X48832518Y8508426D01*
X48950000Y8489819D01*
X49067482Y8508426D01*
X49173465Y8562427D01*
X49257573Y8646535D01*
X49311574Y8752518D01*
X49330181Y8870000D01*
X49311574Y8987482D01*
X49257573Y9093465D01*
X49173465Y9177573D01*
X49100550Y9214725D01*
X49067483Y9231574D01*
X48950000Y9250181D01*
X48832517Y9231574D01*
X48832516Y9231574D01*
X48726533Y9177572D01*
X48642428Y9093467D01*
X48588426Y8987484D01*
X48588426Y8987483D01*
X48569819Y8870000D01*
X28930000Y8870000D01*
X28930000Y9421500D01*
X28500000Y9421500D01*
X28500000Y9578500D01*
X28930000Y9578500D01*
X28930000Y10115000D01*
X42859819Y10115000D01*
X42878426Y9997518D01*
X42878426Y9997517D01*
X42905941Y9943516D01*
X42932427Y9891535D01*
X43016535Y9807427D01*
X43122518Y9753426D01*
X43240000Y9734819D01*
X43357482Y9753426D01*
X43463465Y9807427D01*
X43547573Y9891535D01*
X43601574Y9997518D01*
X43613054Y10070000D01*
X44329196Y10070000D01*
X44350280Y9936874D01*
X44411471Y9816781D01*
X44411472Y9816780D01*
X44506780Y9721472D01*
X44626873Y9660282D01*
X44626873Y9660281D01*
X44645075Y9657399D01*
X44760000Y9639196D01*
X44893126Y9660281D01*
X45013220Y9721472D01*
X45075816Y9784068D01*
X51789500Y9784068D01*
X51789500Y9655933D01*
X51814497Y9530261D01*
X51814498Y9530258D01*
X51852593Y9438288D01*
X51863535Y9411873D01*
X51934724Y9305331D01*
X52025331Y9214724D01*
X52131873Y9143535D01*
X52250256Y9094499D01*
X52250258Y9094499D01*
X52250260Y9094498D01*
X52292903Y9086016D01*
X52375931Y9069500D01*
X52375933Y9069500D01*
X52504067Y9069500D01*
X52504069Y9069500D01*
X52629744Y9094499D01*
X52748127Y9143535D01*
X52854669Y9214724D01*
X52945276Y9305331D01*
X53016465Y9411873D01*
X53065501Y9530256D01*
X53090500Y9655931D01*
X53090500Y9784069D01*
X53065501Y9909744D01*
X53016465Y10028127D01*
X52945276Y10134669D01*
X52854669Y10225276D01*
X52843884Y10232482D01*
X52819473Y10248793D01*
X52748127Y10296465D01*
X52748124Y10296467D01*
X52748123Y10296467D01*
X52629742Y10345502D01*
X52629739Y10345503D01*
X52539696Y10363414D01*
X52504069Y10370500D01*
X52375931Y10370500D01*
X52344726Y10364293D01*
X52250260Y10345503D01*
X52250257Y10345502D01*
X52131876Y10296467D01*
X52025331Y10225277D01*
X52025330Y10225275D01*
X51934725Y10134670D01*
X51934723Y10134669D01*
X51863533Y10028124D01*
X51814498Y9909743D01*
X51814497Y9909740D01*
X51789500Y9784068D01*
X45075816Y9784068D01*
X45108528Y9816780D01*
X45169719Y9936874D01*
X45190804Y10070000D01*
X45169719Y10203126D01*
X45169719Y10203127D01*
X45108528Y10323220D01*
X45013219Y10418529D01*
X44893126Y10479719D01*
X44893126Y10479720D01*
X44760000Y10500804D01*
X44626873Y10479720D01*
X44626873Y10479719D01*
X44506780Y10418529D01*
X44411471Y10323220D01*
X44350281Y10203127D01*
X44350280Y10203127D01*
X44329196Y10070000D01*
X43613054Y10070000D01*
X43620181Y10115000D01*
X43601574Y10232482D01*
X43547573Y10338465D01*
X43463465Y10422573D01*
X43391494Y10459244D01*
X43357483Y10476574D01*
X43240000Y10495181D01*
X43122517Y10476574D01*
X43122516Y10476574D01*
X43016533Y10422572D01*
X42932428Y10338467D01*
X42878426Y10232484D01*
X42878426Y10232483D01*
X42859819Y10115000D01*
X28930000Y10115000D01*
X28930000Y10486672D01*
X28896183Y10656681D01*
X28896181Y10656688D01*
X28829847Y10816833D01*
X28740869Y10950000D01*
X46429819Y10950000D01*
X46448426Y10832518D01*
X46448426Y10832517D01*
X46455144Y10819333D01*
X46502427Y10726535D01*
X46586535Y10642427D01*
X46692518Y10588426D01*
X46810000Y10569819D01*
X46927482Y10588426D01*
X47033465Y10642427D01*
X47117573Y10726535D01*
X47171574Y10832518D01*
X47185430Y10920000D01*
X49259819Y10920000D01*
X49278426Y10802518D01*
X49278426Y10802517D01*
X49300044Y10760090D01*
X49332427Y10696535D01*
X49416535Y10612427D01*
X49522518Y10558426D01*
X49640000Y10539819D01*
X49757482Y10558426D01*
X49863465Y10612427D01*
X49947573Y10696535D01*
X50001574Y10802518D01*
X50020181Y10920000D01*
X50001574Y11037482D01*
X49947573Y11143465D01*
X49863465Y11227573D01*
X49804587Y11257573D01*
X49757483Y11281574D01*
X49640000Y11300181D01*
X49522517Y11281574D01*
X49522516Y11281574D01*
X49416533Y11227572D01*
X49332428Y11143467D01*
X49278426Y11037484D01*
X49278426Y11037483D01*
X49259819Y10920000D01*
X47185430Y10920000D01*
X47190181Y10950000D01*
X47171574Y11067482D01*
X47117573Y11173465D01*
X47033465Y11257573D01*
X46981484Y11284059D01*
X46927483Y11311574D01*
X46810000Y11330181D01*
X46692517Y11311574D01*
X46692516Y11311574D01*
X46586533Y11257572D01*
X46502428Y11173467D01*
X46448426Y11067484D01*
X46448426Y11067483D01*
X46429819Y10950000D01*
X28740869Y10950000D01*
X28733541Y10960967D01*
X28610966Y11083542D01*
X28466832Y11179848D01*
X28306687Y11246182D01*
X28306680Y11246184D01*
X28136671Y11280000D01*
X28128500Y11280000D01*
X28128500Y10844841D01*
X28109244Y10850000D01*
X27990756Y10850000D01*
X27971500Y10844841D01*
X27971500Y11280000D01*
X27963329Y11280000D01*
X27793319Y11246184D01*
X27793312Y11246182D01*
X27633167Y11179848D01*
X27489033Y11083542D01*
X27489032Y11083540D01*
X27366460Y10960968D01*
X27366458Y10960967D01*
X27270152Y10816833D01*
X27203818Y10656688D01*
X27203816Y10656681D01*
X27170000Y10486672D01*
X14430000Y10486672D01*
X14396183Y10656681D01*
X14396181Y10656688D01*
X14329847Y10816833D01*
X14233541Y10960967D01*
X14110966Y11083542D01*
X13966832Y11179848D01*
X13806687Y11246182D01*
X13806680Y11246184D01*
X13636671Y11280000D01*
X13628500Y11280000D01*
X13628500Y10844841D01*
X13609244Y10850000D01*
X13490756Y10850000D01*
X13471500Y10844841D01*
X13471500Y11280000D01*
X13463329Y11280000D01*
X13293319Y11246184D01*
X13293312Y11246182D01*
X13133167Y11179848D01*
X12989033Y11083542D01*
X12989032Y11083540D01*
X12866460Y10960968D01*
X12866458Y10960967D01*
X12770152Y10816833D01*
X12703818Y10656688D01*
X12703816Y10656681D01*
X12670000Y10486672D01*
X554397Y10486672D01*
X555576Y12440000D01*
X52015381Y12440000D01*
X52033799Y12276533D01*
X52033801Y12276524D01*
X52088129Y12121266D01*
X52088130Y12121264D01*
X52175650Y11981976D01*
X52175649Y11981976D01*
X52178304Y11979322D01*
X52379933Y12180952D01*
X52389901Y12163686D01*
X52473686Y12079901D01*
X52490948Y12069935D01*
X52289320Y11868306D01*
X52291975Y11865651D01*
X52431263Y11778131D01*
X52431265Y11778130D01*
X52586523Y11723802D01*
X52586532Y11723800D01*
X52750000Y11705382D01*
X52913467Y11723800D01*
X52913476Y11723802D01*
X53068734Y11778130D01*
X53068736Y11778131D01*
X53208027Y11865653D01*
X53208031Y11865656D01*
X53210679Y11868305D01*
X53210678Y11868306D01*
X53009050Y12069934D01*
X53026314Y12079901D01*
X53110099Y12163686D01*
X53120066Y12180950D01*
X53321695Y11979321D01*
X53324344Y11981969D01*
X53324347Y11981973D01*
X53411869Y12121264D01*
X53411870Y12121266D01*
X53466198Y12276524D01*
X53466200Y12276533D01*
X53484618Y12440000D01*
X53466200Y12603468D01*
X53466198Y12603477D01*
X53411870Y12758735D01*
X53411869Y12758737D01*
X53324349Y12898025D01*
X53324350Y12898025D01*
X53321694Y12900680D01*
X53120065Y12699052D01*
X53110099Y12716314D01*
X53026314Y12800099D01*
X53009049Y12810067D01*
X53210679Y13011696D01*
X53208024Y13014350D01*
X53068736Y13101870D01*
X53068734Y13101871D01*
X52913476Y13156199D01*
X52913467Y13156201D01*
X52750000Y13174619D01*
X52586532Y13156201D01*
X52586523Y13156199D01*
X52431265Y13101871D01*
X52431260Y13101869D01*
X52291976Y13014350D01*
X52291967Y13014343D01*
X52289320Y13011697D01*
X52289320Y13011696D01*
X52490949Y12810067D01*
X52473686Y12800099D01*
X52389901Y12716314D01*
X52379933Y12699051D01*
X52178304Y12900680D01*
X52178303Y12900680D01*
X52175657Y12898033D01*
X52175650Y12898024D01*
X52088131Y12758740D01*
X52088129Y12758735D01*
X52033801Y12603477D01*
X52033799Y12603468D01*
X52015381Y12440000D01*
X555576Y12440000D01*
X555860Y12910000D01*
X11899819Y12910000D01*
X11918426Y12792518D01*
X11918426Y12792517D01*
X11918471Y12792429D01*
X11972427Y12686535D01*
X12056535Y12602427D01*
X12162518Y12548426D01*
X12280000Y12529819D01*
X12397482Y12548426D01*
X12503465Y12602427D01*
X12587573Y12686535D01*
X12641574Y12792518D01*
X12660181Y12910000D01*
X12641574Y13027482D01*
X12599528Y13110000D01*
X47749819Y13110000D01*
X47768426Y12992518D01*
X47768426Y12992517D01*
X47795941Y12938516D01*
X47822427Y12886535D01*
X47906535Y12802427D01*
X48012518Y12748426D01*
X48130000Y12729819D01*
X48247482Y12748426D01*
X48353465Y12802427D01*
X48437573Y12886535D01*
X48491574Y12992518D01*
X48508597Y13100000D01*
X49844819Y13100000D01*
X49863426Y12982518D01*
X49863426Y12982517D01*
X49890941Y12928516D01*
X49917427Y12876535D01*
X50001535Y12792427D01*
X50107518Y12738426D01*
X50225000Y12719819D01*
X50342482Y12738426D01*
X50448465Y12792427D01*
X50532573Y12876535D01*
X50586574Y12982518D01*
X50605181Y13100000D01*
X50586574Y13217482D01*
X50532573Y13323465D01*
X50448465Y13407573D01*
X50396484Y13434059D01*
X50342483Y13461574D01*
X50225000Y13480181D01*
X50107517Y13461574D01*
X50107516Y13461574D01*
X50001533Y13407572D01*
X49917428Y13323467D01*
X49863426Y13217484D01*
X49863426Y13217483D01*
X49844819Y13100000D01*
X48508597Y13100000D01*
X48510181Y13110000D01*
X48491574Y13227482D01*
X48437573Y13333465D01*
X48353465Y13417573D01*
X48301484Y13444059D01*
X48247483Y13471574D01*
X48130000Y13490181D01*
X48012517Y13471574D01*
X48012516Y13471574D01*
X47906533Y13417572D01*
X47822428Y13333467D01*
X47768426Y13227484D01*
X47768426Y13227483D01*
X47749819Y13110000D01*
X12599528Y13110000D01*
X12594428Y13120010D01*
X12589984Y13176469D01*
X12626767Y13219537D01*
X12683229Y13223982D01*
X12693959Y13219537D01*
X12755018Y13188426D01*
X12872500Y13169819D01*
X12989982Y13188426D01*
X13095965Y13242427D01*
X13180073Y13326535D01*
X13234074Y13432518D01*
X13252681Y13550000D01*
X13234074Y13667482D01*
X13180073Y13773465D01*
X13180072Y13773466D01*
X13180071Y13773468D01*
X13176647Y13778181D01*
X13178135Y13779263D01*
X13159190Y13825000D01*
X13178135Y13870738D01*
X13176647Y13871819D01*
X13180071Y13876533D01*
X13180073Y13876535D01*
X13234074Y13982518D01*
X13252681Y14100000D01*
X13234074Y14217482D01*
X13192029Y14300000D01*
X47379819Y14300000D01*
X47398426Y14182518D01*
X47398426Y14182517D01*
X47425941Y14128516D01*
X47452427Y14076535D01*
X47536535Y13992427D01*
X47642518Y13938426D01*
X47760000Y13919819D01*
X47877482Y13938426D01*
X47983465Y13992427D01*
X48067573Y14076535D01*
X48121574Y14182518D01*
X48140181Y14300000D01*
X48121574Y14417482D01*
X48067573Y14523465D01*
X47983465Y14607573D01*
X47931484Y14634059D01*
X47877483Y14661574D01*
X47760000Y14680181D01*
X47642517Y14661574D01*
X47642516Y14661574D01*
X47536533Y14607572D01*
X47452428Y14523467D01*
X47398426Y14417484D01*
X47398426Y14417483D01*
X47379819Y14300000D01*
X13192029Y14300000D01*
X13180073Y14323465D01*
X13095965Y14407573D01*
X13043984Y14434059D01*
X12989983Y14461574D01*
X12872500Y14480181D01*
X12755017Y14461574D01*
X12755016Y14461574D01*
X12649033Y14407572D01*
X12564928Y14323467D01*
X12510926Y14217484D01*
X12510926Y14217483D01*
X12492319Y14100000D01*
X12510926Y13982518D01*
X12510926Y13982517D01*
X12564928Y13876533D01*
X12568353Y13871819D01*
X12566864Y13870738D01*
X12585810Y13825000D01*
X12566864Y13779263D01*
X12568353Y13778181D01*
X12564928Y13773468D01*
X12510926Y13667484D01*
X12510926Y13667483D01*
X12492319Y13550000D01*
X12510926Y13432518D01*
X12510926Y13432517D01*
X12530810Y13393492D01*
X12558070Y13339993D01*
X12562514Y13283531D01*
X12525732Y13240464D01*
X12469269Y13236020D01*
X12458541Y13240464D01*
X12397487Y13271573D01*
X12397482Y13271574D01*
X12280000Y13290181D01*
X12162517Y13271574D01*
X12162516Y13271574D01*
X12056533Y13217572D01*
X11972428Y13133467D01*
X11918426Y13027484D01*
X11918426Y13027483D01*
X11899819Y12910000D01*
X555860Y12910000D01*
X556956Y14725000D01*
X7769819Y14725000D01*
X7788426Y14607518D01*
X7788426Y14607517D01*
X7815941Y14553516D01*
X7842427Y14501535D01*
X7926535Y14417427D01*
X8032518Y14363426D01*
X8150000Y14344819D01*
X8267482Y14363426D01*
X8373465Y14417427D01*
X8457573Y14501535D01*
X8511574Y14607518D01*
X8530181Y14725000D01*
X8511574Y14842482D01*
X8457573Y14948465D01*
X8373465Y15032573D01*
X8321484Y15059059D01*
X8267483Y15086574D01*
X8150000Y15105181D01*
X8032517Y15086574D01*
X8032516Y15086574D01*
X7926533Y15032572D01*
X7842428Y14948467D01*
X7788426Y14842484D01*
X7788426Y14842483D01*
X7769819Y14725000D01*
X556956Y14725000D01*
X557847Y16200000D01*
X6169819Y16200000D01*
X6188426Y16082518D01*
X6188426Y16082517D01*
X6208867Y16042400D01*
X6242427Y15976535D01*
X6326535Y15892427D01*
X6432518Y15838426D01*
X6550000Y15819819D01*
X6667482Y15838426D01*
X6773465Y15892427D01*
X6857573Y15976535D01*
X6911574Y16082518D01*
X6930181Y16200000D01*
X6911574Y16317482D01*
X6857573Y16423465D01*
X6773465Y16507573D01*
X6721484Y16534059D01*
X6667483Y16561574D01*
X6550000Y16580181D01*
X6432517Y16561574D01*
X6432516Y16561574D01*
X6326533Y16507572D01*
X6242428Y16423467D01*
X6188426Y16317484D01*
X6188426Y16317483D01*
X6169819Y16200000D01*
X557847Y16200000D01*
X558269Y16898501D01*
X3771278Y16898501D01*
X3771279Y16898500D01*
X4111918Y16898500D01*
X4100001Y16869730D01*
X4100001Y16770270D01*
X4111918Y16741500D01*
X3771278Y16741500D01*
X3808161Y16603852D01*
X3808163Y16603847D01*
X3881886Y16476156D01*
X3986155Y16371887D01*
X4113846Y16298164D01*
X4113851Y16298162D01*
X4256272Y16260001D01*
X4256273Y16260000D01*
X4721500Y16260000D01*
X4721500Y16569988D01*
X4878500Y16569988D01*
X4878500Y16260000D01*
X5343727Y16260000D01*
X5343727Y16260001D01*
X5486148Y16298162D01*
X5486153Y16298164D01*
X5613844Y16371887D01*
X5718113Y16476156D01*
X5791836Y16603847D01*
X5791838Y16603852D01*
X5817601Y16700000D01*
X8519819Y16700000D01*
X8538426Y16582518D01*
X8538426Y16582517D01*
X8541475Y16576534D01*
X8592427Y16476535D01*
X8676535Y16392427D01*
X8782518Y16338426D01*
X8900000Y16319819D01*
X9017482Y16338426D01*
X9123465Y16392427D01*
X9207573Y16476535D01*
X9261574Y16582518D01*
X9280181Y16700000D01*
X9261574Y16817482D01*
X9220293Y16898501D01*
X9871278Y16898501D01*
X9871279Y16898500D01*
X10211918Y16898500D01*
X10200001Y16869730D01*
X10200001Y16770270D01*
X10211918Y16741500D01*
X9871278Y16741500D01*
X9908161Y16603852D01*
X9908163Y16603847D01*
X9981886Y16476156D01*
X10086155Y16371887D01*
X10213846Y16298164D01*
X10213851Y16298162D01*
X10356272Y16260001D01*
X10356273Y16260000D01*
X10821500Y16260000D01*
X10821500Y16569988D01*
X10978500Y16569988D01*
X10978500Y16260000D01*
X11443727Y16260000D01*
X11443727Y16260001D01*
X11586148Y16298162D01*
X11586153Y16298164D01*
X11713844Y16371887D01*
X11818113Y16476156D01*
X11891836Y16603847D01*
X11891838Y16603852D01*
X11928721Y16741500D01*
X11588082Y16741500D01*
X11599999Y16770270D01*
X11599999Y16869730D01*
X11588082Y16898500D01*
X11928721Y16898500D01*
X11928721Y16898501D01*
X11891838Y17036149D01*
X11891836Y17036154D01*
X11818113Y17163845D01*
X11713844Y17268114D01*
X11586153Y17341837D01*
X11586148Y17341839D01*
X11443727Y17380000D01*
X10978500Y17380000D01*
X10978500Y17070012D01*
X10821500Y17070012D01*
X10821500Y17380000D01*
X10356273Y17380000D01*
X10213851Y17341839D01*
X10213846Y17341837D01*
X10086155Y17268114D01*
X9981886Y17163845D01*
X9908163Y17036154D01*
X9908161Y17036149D01*
X9871278Y16898501D01*
X9220293Y16898501D01*
X9207573Y16923465D01*
X9123465Y17007573D01*
X9067372Y17036154D01*
X9017483Y17061574D01*
X8900000Y17080181D01*
X8782517Y17061574D01*
X8782516Y17061574D01*
X8676533Y17007572D01*
X8592428Y16923467D01*
X8538426Y16817484D01*
X8538426Y16817483D01*
X8519819Y16700000D01*
X5817601Y16700000D01*
X5828721Y16741500D01*
X5488082Y16741500D01*
X5499999Y16770270D01*
X5499999Y16869730D01*
X5488082Y16898500D01*
X5828721Y16898500D01*
X5828721Y16898501D01*
X5791838Y17036149D01*
X5791836Y17036154D01*
X5718113Y17163845D01*
X5681958Y17200000D01*
X7069196Y17200000D01*
X7090280Y17066874D01*
X7151471Y16946781D01*
X7151472Y16946780D01*
X7246780Y16851472D01*
X7366873Y16790282D01*
X7366873Y16790281D01*
X7378586Y16788426D01*
X7500000Y16769196D01*
X7633126Y16790281D01*
X7753220Y16851472D01*
X7848528Y16946780D01*
X7909719Y17066874D01*
X7930804Y17200000D01*
X7909719Y17333126D01*
X7909719Y17333127D01*
X7848528Y17453220D01*
X7753219Y17548529D01*
X7633126Y17609719D01*
X7633126Y17609720D01*
X7500000Y17630804D01*
X7366873Y17609720D01*
X7366873Y17609719D01*
X7246780Y17548529D01*
X7151471Y17453220D01*
X7090281Y17333127D01*
X7090280Y17333127D01*
X7069196Y17200000D01*
X5681958Y17200000D01*
X5613844Y17268114D01*
X5486153Y17341837D01*
X5486148Y17341839D01*
X5343727Y17380000D01*
X4878500Y17380000D01*
X4878500Y17070012D01*
X4721500Y17070012D01*
X4721500Y17380000D01*
X4256273Y17380000D01*
X4113851Y17341839D01*
X4113846Y17341837D01*
X3986155Y17268114D01*
X3881886Y17163845D01*
X3808163Y17036154D01*
X3808161Y17036149D01*
X3771278Y16898501D01*
X558269Y16898501D01*
X558783Y17750000D01*
X14339897Y17750000D01*
X14360981Y17616874D01*
X14422172Y17496781D01*
X14466627Y17452326D01*
X14488301Y17400000D01*
X14466627Y17347674D01*
X14422173Y17303221D01*
X14422172Y17303220D01*
X14360982Y17183127D01*
X14360981Y17183127D01*
X14339897Y17050000D01*
X14360981Y16916874D01*
X14420917Y16799245D01*
X14422173Y16796780D01*
X14517481Y16701472D01*
X14637574Y16640282D01*
X14637574Y16640281D01*
X14655776Y16637399D01*
X14770701Y16619196D01*
X14903827Y16640281D01*
X14999102Y16688826D01*
X40065175Y16688826D01*
X40083782Y16571344D01*
X40083782Y16571343D01*
X40086351Y16566302D01*
X40137783Y16465361D01*
X40221891Y16381253D01*
X40327874Y16327252D01*
X40445356Y16308645D01*
X40562838Y16327252D01*
X40668821Y16381253D01*
X40715939Y16428371D01*
X40768265Y16450045D01*
X40820591Y16428371D01*
X40846535Y16402427D01*
X40952518Y16348426D01*
X41070000Y16329819D01*
X41187482Y16348426D01*
X41288702Y16400000D01*
X48999819Y16400000D01*
X49018426Y16282518D01*
X49018426Y16282517D01*
X49029899Y16260001D01*
X49072427Y16176535D01*
X49156535Y16092427D01*
X49262518Y16038426D01*
X49380000Y16019819D01*
X49385670Y16019819D01*
X49437996Y15998145D01*
X49459670Y15945819D01*
X49451604Y15912225D01*
X49449234Y15907572D01*
X49408426Y15827484D01*
X49408426Y15827483D01*
X49389819Y15710000D01*
X49408426Y15592518D01*
X49408426Y15592517D01*
X49435941Y15538516D01*
X49462427Y15486535D01*
X49546535Y15402427D01*
X49652518Y15348426D01*
X49770000Y15329819D01*
X49887482Y15348426D01*
X49993465Y15402427D01*
X50077573Y15486535D01*
X50131574Y15592518D01*
X50132759Y15600000D01*
X51869819Y15600000D01*
X51888426Y15482518D01*
X51888426Y15482517D01*
X51915941Y15428516D01*
X51942427Y15376535D01*
X52026535Y15292427D01*
X52132518Y15238426D01*
X52250000Y15219819D01*
X52367482Y15238426D01*
X52473465Y15292427D01*
X52557573Y15376535D01*
X52611574Y15482518D01*
X52630181Y15600000D01*
X52611574Y15717482D01*
X52557573Y15823465D01*
X52473465Y15907573D01*
X52468757Y15910993D01*
X52470063Y15912792D01*
X52438553Y15949693D01*
X52443002Y16006155D01*
X52486073Y16042933D01*
X52533374Y16042400D01*
X52586524Y16023802D01*
X52586532Y16023800D01*
X52750000Y16005382D01*
X52913467Y16023800D01*
X52913476Y16023802D01*
X53068734Y16078130D01*
X53068736Y16078131D01*
X53208027Y16165653D01*
X53208031Y16165656D01*
X53210679Y16168305D01*
X53210678Y16168306D01*
X53009050Y16369934D01*
X53026314Y16379901D01*
X53110099Y16463686D01*
X53120066Y16480950D01*
X53321695Y16279321D01*
X53324344Y16281969D01*
X53324347Y16281973D01*
X53411869Y16421264D01*
X53411870Y16421266D01*
X53466198Y16576524D01*
X53466201Y16576534D01*
X53484618Y16740000D01*
X53466200Y16903468D01*
X53466198Y16903477D01*
X53411870Y17058735D01*
X53411869Y17058737D01*
X53324349Y17198025D01*
X53324350Y17198025D01*
X53321694Y17200680D01*
X53120065Y16999052D01*
X53110099Y17016314D01*
X53026314Y17100099D01*
X53009049Y17110067D01*
X53210679Y17311696D01*
X53208024Y17314350D01*
X53068736Y17401870D01*
X53068734Y17401871D01*
X52913476Y17456199D01*
X52913467Y17456201D01*
X52750000Y17474619D01*
X52586532Y17456201D01*
X52586523Y17456199D01*
X52431265Y17401871D01*
X52431260Y17401869D01*
X52291976Y17314350D01*
X52291967Y17314343D01*
X52289320Y17311697D01*
X52289320Y17311696D01*
X52490949Y17110067D01*
X52473686Y17100099D01*
X52389901Y17016314D01*
X52379933Y16999051D01*
X52178304Y17200680D01*
X52178303Y17200680D01*
X52175657Y17198033D01*
X52175650Y17198024D01*
X52088131Y17058740D01*
X52088129Y17058735D01*
X52033801Y16903477D01*
X52033799Y16903468D01*
X52015381Y16740000D01*
X52033799Y16576534D01*
X52033801Y16576524D01*
X52088129Y16421266D01*
X52088130Y16421264D01*
X52175650Y16281976D01*
X52175649Y16281976D01*
X52178304Y16279322D01*
X52379933Y16480952D01*
X52389901Y16463686D01*
X52473686Y16379901D01*
X52490948Y16369935D01*
X52289320Y16168306D01*
X52291975Y16165651D01*
X52394753Y16101071D01*
X52427528Y16054880D01*
X52418041Y15999043D01*
X52371850Y15966268D01*
X52343807Y15965324D01*
X52250000Y15980181D01*
X52132517Y15961574D01*
X52132516Y15961574D01*
X52026533Y15907572D01*
X51942428Y15823467D01*
X51888426Y15717484D01*
X51888426Y15717483D01*
X51869819Y15600000D01*
X50132759Y15600000D01*
X50150181Y15710000D01*
X50131574Y15827482D01*
X50077573Y15933465D01*
X49993465Y16017573D01*
X49920246Y16054880D01*
X49887483Y16071574D01*
X49770000Y16090181D01*
X49764330Y16090181D01*
X49712004Y16111855D01*
X49690330Y16164181D01*
X49698396Y16197777D01*
X49699529Y16200000D01*
X49741574Y16282518D01*
X49760181Y16400000D01*
X49741574Y16517482D01*
X49687573Y16623465D01*
X49609777Y16701261D01*
X49588103Y16753587D01*
X49609777Y16805913D01*
X49628500Y16819517D01*
X49673465Y16842427D01*
X49757573Y16926535D01*
X49811574Y17032518D01*
X49830181Y17150000D01*
X49811574Y17267482D01*
X49757573Y17373465D01*
X49673465Y17457573D01*
X49605060Y17492427D01*
X49567483Y17511574D01*
X49450000Y17530181D01*
X49332517Y17511574D01*
X49332516Y17511574D01*
X49226533Y17457572D01*
X49142428Y17373467D01*
X49088426Y17267484D01*
X49088426Y17267483D01*
X49069819Y17150000D01*
X49088426Y17032518D01*
X49088426Y17032517D01*
X49142428Y16926534D01*
X49220222Y16848740D01*
X49241896Y16796414D01*
X49220222Y16744088D01*
X49201492Y16730480D01*
X49156533Y16707572D01*
X49072428Y16623467D01*
X49018426Y16517484D01*
X49018426Y16517483D01*
X48999819Y16400000D01*
X41288702Y16400000D01*
X41293465Y16402427D01*
X41377573Y16486535D01*
X41431574Y16592518D01*
X41450181Y16710000D01*
X41431574Y16827482D01*
X41377573Y16933465D01*
X41293465Y17017573D01*
X41241484Y17044059D01*
X41190572Y17070000D01*
X45659819Y17070000D01*
X45678426Y16952518D01*
X45678426Y16952517D01*
X45698922Y16912293D01*
X45732427Y16846535D01*
X45816535Y16762427D01*
X45922518Y16708426D01*
X46040000Y16689819D01*
X46157482Y16708426D01*
X46263465Y16762427D01*
X46347573Y16846535D01*
X46401574Y16952518D01*
X46420181Y17070000D01*
X46401574Y17187482D01*
X46347573Y17293465D01*
X46263465Y17377573D01*
X46180551Y17419820D01*
X46157483Y17431574D01*
X46040000Y17450181D01*
X45922517Y17431574D01*
X45922516Y17431574D01*
X45816533Y17377572D01*
X45732428Y17293467D01*
X45678426Y17187484D01*
X45678426Y17187483D01*
X45659819Y17070000D01*
X41190572Y17070000D01*
X41187483Y17071574D01*
X41160816Y17075798D01*
X41112526Y17105392D01*
X41099305Y17160465D01*
X41106458Y17182479D01*
X41111574Y17192518D01*
X41130181Y17310000D01*
X41111574Y17427482D01*
X41057573Y17533465D01*
X40973465Y17617573D01*
X40921484Y17644059D01*
X40867483Y17671574D01*
X40750000Y17690181D01*
X40632517Y17671574D01*
X40632516Y17671574D01*
X40526533Y17617572D01*
X40442428Y17533467D01*
X40388426Y17427484D01*
X40388426Y17427483D01*
X40369819Y17310000D01*
X40388426Y17192518D01*
X40388426Y17192517D01*
X40404669Y17160639D01*
X40409113Y17104176D01*
X40372331Y17061109D01*
X40350312Y17053954D01*
X40327872Y17050400D01*
X40221889Y16996398D01*
X40137784Y16912293D01*
X40083782Y16806310D01*
X40083782Y16806309D01*
X40065175Y16688826D01*
X14999102Y16688826D01*
X15023921Y16701472D01*
X15119229Y16796780D01*
X15180420Y16916874D01*
X15201505Y17050000D01*
X15183302Y17164925D01*
X15180420Y17183127D01*
X15171823Y17200000D01*
X30719819Y17200000D01*
X30738426Y17082518D01*
X30738426Y17082517D01*
X30752980Y17053954D01*
X30792427Y16976535D01*
X30876535Y16892427D01*
X30982518Y16838426D01*
X31100000Y16819819D01*
X31217482Y16838426D01*
X31323465Y16892427D01*
X31342674Y16911636D01*
X31395000Y16933310D01*
X31447326Y16911636D01*
X31466535Y16892427D01*
X31572518Y16838426D01*
X31690000Y16819819D01*
X31807482Y16838426D01*
X31913465Y16892427D01*
X31997573Y16976535D01*
X32051574Y17082518D01*
X32070181Y17200000D01*
X32057510Y17280000D01*
X37019819Y17280000D01*
X37038426Y17162518D01*
X37038426Y17162517D01*
X37039383Y17160639D01*
X37092427Y17056535D01*
X37176535Y16972427D01*
X37282518Y16918426D01*
X37400000Y16899819D01*
X37517482Y16918426D01*
X37623465Y16972427D01*
X37707573Y17056535D01*
X37761574Y17162518D01*
X37780181Y17280000D01*
X37761574Y17397482D01*
X37707573Y17503465D01*
X37623465Y17587573D01*
X37564587Y17617573D01*
X37517483Y17641574D01*
X37400000Y17660181D01*
X37282517Y17641574D01*
X37282516Y17641574D01*
X37176533Y17587572D01*
X37092428Y17503467D01*
X37038426Y17397484D01*
X37038426Y17397483D01*
X37019819Y17280000D01*
X32057510Y17280000D01*
X32051574Y17317482D01*
X31997573Y17423465D01*
X31913465Y17507573D01*
X31861484Y17534059D01*
X31807483Y17561574D01*
X31690000Y17580181D01*
X31572517Y17561574D01*
X31572516Y17561574D01*
X31466533Y17507572D01*
X31447326Y17488364D01*
X31395000Y17466690D01*
X31342674Y17488364D01*
X31323466Y17507572D01*
X31323465Y17507573D01*
X31271484Y17534059D01*
X31217483Y17561574D01*
X31100000Y17580181D01*
X30982517Y17561574D01*
X30982516Y17561574D01*
X30876533Y17507572D01*
X30792428Y17423467D01*
X30738426Y17317484D01*
X30738426Y17317483D01*
X30719819Y17200000D01*
X15171823Y17200000D01*
X15119229Y17303220D01*
X15074775Y17347674D01*
X15053101Y17400000D01*
X15074775Y17452326D01*
X15089139Y17466690D01*
X15119229Y17496780D01*
X15180420Y17616874D01*
X15201505Y17750000D01*
X15180420Y17883126D01*
X15180420Y17883127D01*
X15119229Y18003220D01*
X15023920Y18098529D01*
X14903827Y18159719D01*
X14903827Y18159720D01*
X14770701Y18180804D01*
X14637574Y18159720D01*
X14637574Y18159719D01*
X14517481Y18098529D01*
X14422172Y18003220D01*
X14360982Y17883127D01*
X14360981Y17883127D01*
X14339897Y17750000D01*
X558783Y17750000D01*
X559495Y18929060D01*
X3669500Y18929060D01*
X3669500Y18770941D01*
X3710421Y18618221D01*
X3710422Y18618219D01*
X3710423Y18618216D01*
X3789480Y18481284D01*
X3901284Y18369480D01*
X4038216Y18290423D01*
X4190940Y18249501D01*
X4190941Y18249500D01*
X4190943Y18249500D01*
X4349059Y18249500D01*
X4349059Y18249501D01*
X4501784Y18290423D01*
X4638716Y18369480D01*
X4750520Y18481284D01*
X4829577Y18618216D01*
X4870499Y18770941D01*
X4870500Y18770941D01*
X4870500Y18929059D01*
X4870499Y18929060D01*
X10829500Y18929060D01*
X10829500Y18770941D01*
X10870421Y18618221D01*
X10870422Y18618219D01*
X10870423Y18618216D01*
X10949480Y18481284D01*
X11061284Y18369480D01*
X11198216Y18290423D01*
X11350940Y18249501D01*
X11350941Y18249500D01*
X11350943Y18249500D01*
X11509059Y18249500D01*
X11509059Y18249501D01*
X11661784Y18290423D01*
X11798716Y18369480D01*
X11910520Y18481284D01*
X11989577Y18618216D01*
X12030499Y18770941D01*
X12030500Y18770941D01*
X12030500Y18929059D01*
X12030499Y18929060D01*
X12024888Y18950000D01*
X15419196Y18950000D01*
X15440280Y18816874D01*
X15501471Y18696781D01*
X15545926Y18652326D01*
X15567600Y18600000D01*
X15545926Y18547674D01*
X15501472Y18503221D01*
X15501471Y18503220D01*
X15440281Y18383127D01*
X15440280Y18383127D01*
X15419196Y18250000D01*
X15440280Y18116874D01*
X15500903Y17997896D01*
X15501472Y17996780D01*
X15596780Y17901472D01*
X15716873Y17840282D01*
X15716873Y17840281D01*
X15735075Y17837399D01*
X15850000Y17819196D01*
X15983126Y17840281D01*
X16103220Y17901472D01*
X16198528Y17996780D01*
X16259719Y18116874D01*
X16280804Y18250000D01*
X16279795Y18256371D01*
X42119819Y18256371D01*
X42138426Y18138889D01*
X42138426Y18138888D01*
X42157459Y18101535D01*
X42192427Y18032906D01*
X42276535Y17948798D01*
X42382518Y17894797D01*
X42500000Y17876190D01*
X42617482Y17894797D01*
X42723465Y17948798D01*
X42807573Y18032906D01*
X42861574Y18138889D01*
X42880181Y18256371D01*
X42879894Y18258185D01*
X46146634Y18258185D01*
X46165241Y18140703D01*
X46165241Y18140702D01*
X46177382Y18116874D01*
X46219242Y18034720D01*
X46303350Y17950612D01*
X46409333Y17896611D01*
X46526815Y17878004D01*
X46644297Y17896611D01*
X46750280Y17950612D01*
X46834388Y18034720D01*
X46855607Y18076366D01*
X46898674Y18113147D01*
X46955137Y18108703D01*
X46973867Y18095095D01*
X47051535Y18017427D01*
X47089867Y17997896D01*
X47126649Y17954829D01*
X47122205Y17898366D01*
X47108597Y17879637D01*
X47052428Y17823468D01*
X46998426Y17717484D01*
X46998426Y17717483D01*
X46979819Y17600000D01*
X46998426Y17482518D01*
X46998426Y17482517D01*
X47020891Y17438427D01*
X47052427Y17376535D01*
X47136535Y17292427D01*
X47242518Y17238426D01*
X47360000Y17219819D01*
X47477482Y17238426D01*
X47583465Y17292427D01*
X47667573Y17376535D01*
X47721574Y17482518D01*
X47740181Y17600000D01*
X47721574Y17717482D01*
X47667573Y17823465D01*
X47583465Y17907573D01*
X47545132Y17927105D01*
X47508349Y17970173D01*
X47512794Y18026635D01*
X47526403Y18045365D01*
X47582571Y18101533D01*
X47582573Y18101535D01*
X47636574Y18207518D01*
X47655181Y18325000D01*
X47636574Y18442482D01*
X47632743Y18450000D01*
X49194819Y18450000D01*
X49213426Y18332518D01*
X49213426Y18332517D01*
X49234873Y18290425D01*
X49267427Y18226535D01*
X49351535Y18142427D01*
X49457518Y18088426D01*
X49575000Y18069819D01*
X49692482Y18088426D01*
X49798465Y18142427D01*
X49882573Y18226535D01*
X49936574Y18332518D01*
X49955181Y18450000D01*
X49936574Y18567482D01*
X49882573Y18673465D01*
X49798465Y18757573D01*
X49730060Y18792427D01*
X49692483Y18811574D01*
X49575000Y18830181D01*
X49457517Y18811574D01*
X49457516Y18811574D01*
X49351533Y18757572D01*
X49267428Y18673467D01*
X49213426Y18567484D01*
X49213426Y18567483D01*
X49194819Y18450000D01*
X47632743Y18450000D01*
X47582573Y18548465D01*
X47498465Y18632573D01*
X47423562Y18670738D01*
X47392483Y18686574D01*
X47275000Y18705181D01*
X47157517Y18686574D01*
X47157516Y18686574D01*
X47051533Y18632572D01*
X46967428Y18548467D01*
X46946208Y18506820D01*
X46903141Y18470038D01*
X46846678Y18474482D01*
X46827948Y18488090D01*
X46750281Y18565757D01*
X46750280Y18565758D01*
X46685965Y18598528D01*
X46644298Y18619759D01*
X46526815Y18638366D01*
X46409332Y18619759D01*
X46409331Y18619759D01*
X46303348Y18565757D01*
X46219243Y18481652D01*
X46165241Y18375669D01*
X46165241Y18375668D01*
X46146634Y18258185D01*
X42879894Y18258185D01*
X42861574Y18373853D01*
X42807573Y18479836D01*
X42723465Y18563944D01*
X42652701Y18600000D01*
X42617483Y18617945D01*
X42500000Y18636552D01*
X42382517Y18617945D01*
X42382516Y18617945D01*
X42276533Y18563943D01*
X42192428Y18479838D01*
X42138426Y18373855D01*
X42138426Y18373854D01*
X42119819Y18256371D01*
X16279795Y18256371D01*
X16259719Y18383126D01*
X16259719Y18383127D01*
X16198528Y18503220D01*
X16154074Y18547674D01*
X16132400Y18600000D01*
X16154074Y18652326D01*
X16175215Y18673467D01*
X16198528Y18696780D01*
X16259719Y18816874D01*
X16280804Y18950000D01*
X16262601Y19064925D01*
X16259719Y19083127D01*
X16198528Y19203220D01*
X16103219Y19298529D01*
X15983126Y19359719D01*
X15983126Y19359720D01*
X15850000Y19380804D01*
X15716873Y19359720D01*
X15716873Y19359719D01*
X15596780Y19298529D01*
X15501471Y19203220D01*
X15440281Y19083127D01*
X15440280Y19083127D01*
X15419196Y18950000D01*
X12024888Y18950000D01*
X11990476Y19078427D01*
X11989577Y19081784D01*
X11910520Y19218716D01*
X11798716Y19330520D01*
X11661784Y19409577D01*
X11661781Y19409578D01*
X11661779Y19409579D01*
X11509059Y19450500D01*
X11509057Y19450500D01*
X11350943Y19450500D01*
X11350941Y19450500D01*
X11198220Y19409579D01*
X11198214Y19409576D01*
X11061283Y19330520D01*
X10949480Y19218717D01*
X10870424Y19081786D01*
X10870421Y19081780D01*
X10829500Y18929060D01*
X4870499Y18929060D01*
X4830476Y19078427D01*
X4829577Y19081784D01*
X4750520Y19218716D01*
X4638716Y19330520D01*
X4501784Y19409577D01*
X4501781Y19409578D01*
X4501779Y19409579D01*
X4349059Y19450500D01*
X4349057Y19450500D01*
X4190943Y19450500D01*
X4190941Y19450500D01*
X4038220Y19409579D01*
X4038214Y19409576D01*
X3901283Y19330520D01*
X3789480Y19218717D01*
X3710424Y19081786D01*
X3710421Y19081780D01*
X3669500Y18929060D01*
X559495Y18929060D01*
X560720Y20958501D01*
X3771278Y20958501D01*
X3771279Y20958500D01*
X4111918Y20958500D01*
X4100001Y20929730D01*
X4100001Y20830270D01*
X4111918Y20801500D01*
X3771278Y20801500D01*
X3808161Y20663852D01*
X3808163Y20663847D01*
X3881886Y20536156D01*
X3986155Y20431887D01*
X4113846Y20358164D01*
X4113851Y20358162D01*
X4256272Y20320001D01*
X4256273Y20320000D01*
X4721500Y20320000D01*
X4721500Y20629988D01*
X4878500Y20629988D01*
X4878500Y20320000D01*
X5343727Y20320000D01*
X5343727Y20320001D01*
X5486148Y20358162D01*
X5486153Y20358164D01*
X5613845Y20431888D01*
X5617689Y20434837D01*
X5619131Y20432958D01*
X5664248Y20451663D01*
X5716581Y20430006D01*
X5737361Y20389242D01*
X5738426Y20382516D01*
X5761070Y20338076D01*
X5792427Y20276535D01*
X5876535Y20192427D01*
X5982518Y20138426D01*
X6100000Y20119819D01*
X6217482Y20138426D01*
X6240197Y20150000D01*
X14531198Y20150000D01*
X14552282Y20016874D01*
X14613473Y19896781D01*
X14657928Y19852326D01*
X14679602Y19800000D01*
X14657928Y19747674D01*
X14613474Y19703221D01*
X14613473Y19703220D01*
X14552283Y19583127D01*
X14552282Y19583127D01*
X14531198Y19450000D01*
X14552282Y19316874D01*
X14613473Y19196781D01*
X14613474Y19196780D01*
X14708782Y19101472D01*
X14828875Y19040282D01*
X14828875Y19040281D01*
X14847077Y19037399D01*
X14962002Y19019196D01*
X15095128Y19040281D01*
X15215222Y19101472D01*
X15310530Y19196780D01*
X15371721Y19316874D01*
X15392806Y19450000D01*
X15371721Y19583126D01*
X15371721Y19583127D01*
X15310530Y19703220D01*
X15266076Y19747674D01*
X15244402Y19800000D01*
X15266076Y19852326D01*
X15310530Y19896780D01*
X15371721Y20016874D01*
X15392806Y20150000D01*
X15371740Y20283005D01*
X15384962Y20338076D01*
X15433253Y20367669D01*
X15488325Y20354447D01*
X15497155Y20346906D01*
X15542589Y20301472D01*
X15662682Y20240282D01*
X15662682Y20240281D01*
X15680884Y20237399D01*
X15795809Y20219196D01*
X15928935Y20240281D01*
X16049029Y20301472D01*
X16144337Y20396780D01*
X16205528Y20516874D01*
X16226613Y20650000D01*
X16205528Y20783126D01*
X16205528Y20783127D01*
X16144337Y20903220D01*
X16099883Y20947674D01*
X16078209Y21000000D01*
X16099883Y21052326D01*
X16117157Y21069600D01*
X16144337Y21096780D01*
X16205528Y21216874D01*
X16226613Y21350000D01*
X16208410Y21464925D01*
X16205528Y21483127D01*
X16144337Y21603220D01*
X16049028Y21698529D01*
X15928935Y21759719D01*
X15928935Y21759720D01*
X15795809Y21780804D01*
X15662682Y21759720D01*
X15662682Y21759719D01*
X15542589Y21698529D01*
X15447280Y21603220D01*
X15386090Y21483127D01*
X15386089Y21483127D01*
X15365005Y21350000D01*
X15386089Y21216874D01*
X15447280Y21096781D01*
X15491735Y21052326D01*
X15513409Y21000000D01*
X15491735Y20947674D01*
X15447281Y20903221D01*
X15447280Y20903220D01*
X15386090Y20783127D01*
X15386089Y20783127D01*
X15365005Y20650000D01*
X15386070Y20516997D01*
X15372848Y20461925D01*
X15324557Y20432332D01*
X15269485Y20445554D01*
X15260655Y20453095D01*
X15215221Y20498529D01*
X15095128Y20559719D01*
X15095128Y20559720D01*
X14962002Y20580804D01*
X14828875Y20559720D01*
X14828875Y20559719D01*
X14708782Y20498529D01*
X14613473Y20403220D01*
X14552283Y20283127D01*
X14552282Y20283127D01*
X14531198Y20150000D01*
X6240197Y20150000D01*
X6323465Y20192427D01*
X6407573Y20276535D01*
X6461574Y20382518D01*
X6480181Y20500000D01*
X6461574Y20617482D01*
X6407573Y20723465D01*
X6323465Y20807573D01*
X6270891Y20834361D01*
X6217483Y20861574D01*
X6100000Y20880181D01*
X5982517Y20861574D01*
X5899258Y20819152D01*
X5898873Y20819122D01*
X5898109Y20818566D01*
X5880446Y20809566D01*
X5846850Y20801500D01*
X5488082Y20801500D01*
X5499999Y20830270D01*
X5499999Y20929730D01*
X5488082Y20958500D01*
X5828721Y20958500D01*
X5828721Y20958501D01*
X9871278Y20958501D01*
X9871279Y20958500D01*
X10211918Y20958500D01*
X10200001Y20929730D01*
X10200001Y20830270D01*
X10211918Y20801500D01*
X9871278Y20801500D01*
X9908161Y20663852D01*
X9908163Y20663847D01*
X9981886Y20536156D01*
X10086155Y20431887D01*
X10213846Y20358164D01*
X10213851Y20358162D01*
X10356272Y20320001D01*
X10356273Y20320000D01*
X10821500Y20320000D01*
X10821500Y20629988D01*
X10978500Y20629988D01*
X10978500Y20320000D01*
X11443727Y20320000D01*
X11443727Y20320001D01*
X11586148Y20358162D01*
X11586153Y20358164D01*
X11713844Y20431887D01*
X11818113Y20536156D01*
X11891836Y20663847D01*
X11891838Y20663852D01*
X11928721Y20801500D01*
X11588082Y20801500D01*
X11599999Y20830270D01*
X11599999Y20929730D01*
X11588082Y20958500D01*
X11928721Y20958500D01*
X11928721Y20958501D01*
X11891838Y21096149D01*
X11891836Y21096154D01*
X11818113Y21223845D01*
X11713844Y21328114D01*
X11586153Y21401837D01*
X11586148Y21401839D01*
X11443727Y21440000D01*
X10978500Y21440000D01*
X10978500Y21130012D01*
X10821500Y21130012D01*
X10821500Y21440000D01*
X10356273Y21440000D01*
X10213851Y21401839D01*
X10213846Y21401837D01*
X10086155Y21328114D01*
X9981886Y21223845D01*
X9908163Y21096154D01*
X9908161Y21096149D01*
X9871278Y20958501D01*
X5828721Y20958501D01*
X5791838Y21096149D01*
X5791836Y21096154D01*
X5718113Y21223845D01*
X5613844Y21328114D01*
X5489335Y21400000D01*
X7117196Y21400000D01*
X7138280Y21266874D01*
X7199471Y21146781D01*
X7199472Y21146780D01*
X7294780Y21051472D01*
X7414873Y20990282D01*
X7414873Y20990281D01*
X7428897Y20988060D01*
X7548000Y20969196D01*
X7681126Y20990281D01*
X7801220Y21051472D01*
X7801222Y21051475D01*
X7805936Y21054898D01*
X7807918Y21052170D01*
X7850000Y21069600D01*
X7892081Y21052170D01*
X7894064Y21054898D01*
X7898780Y21051472D01*
X8018873Y20990282D01*
X8018873Y20990281D01*
X8032897Y20988060D01*
X8152000Y20969196D01*
X8285126Y20990281D01*
X8405220Y21051472D01*
X8500528Y21146780D01*
X8561719Y21266874D01*
X8582804Y21400000D01*
X8561830Y21532427D01*
X8561719Y21533127D01*
X8500528Y21653220D01*
X8405219Y21748529D01*
X8285126Y21809719D01*
X8285126Y21809720D01*
X8152000Y21830804D01*
X8018873Y21809720D01*
X8018873Y21809719D01*
X7898780Y21748529D01*
X7894064Y21745102D01*
X7892081Y21747831D01*
X7850000Y21730400D01*
X7807918Y21747831D01*
X7805936Y21745102D01*
X7801219Y21748529D01*
X7681126Y21809719D01*
X7681126Y21809720D01*
X7548000Y21830804D01*
X7414873Y21809720D01*
X7414873Y21809719D01*
X7294780Y21748529D01*
X7199471Y21653220D01*
X7138281Y21533127D01*
X7138280Y21533127D01*
X7117196Y21400000D01*
X5489335Y21400000D01*
X5486153Y21401837D01*
X5486148Y21401839D01*
X5343727Y21440000D01*
X4878500Y21440000D01*
X4878500Y21130012D01*
X4721500Y21130012D01*
X4721500Y21440000D01*
X4256273Y21440000D01*
X4113851Y21401839D01*
X4113846Y21401837D01*
X3986155Y21328114D01*
X3881886Y21223845D01*
X3808163Y21096154D01*
X3808161Y21096149D01*
X3771278Y20958501D01*
X560720Y20958501D01*
X561325Y21960000D01*
X9109819Y21960000D01*
X9128426Y21842518D01*
X9128426Y21842517D01*
X9134804Y21830000D01*
X9182427Y21736535D01*
X9266535Y21652427D01*
X9372518Y21598426D01*
X9490000Y21579819D01*
X9607482Y21598426D01*
X9713465Y21652427D01*
X9797573Y21736535D01*
X9851574Y21842518D01*
X9870181Y21960000D01*
X9851574Y22077482D01*
X9797573Y22183465D01*
X9713465Y22267573D01*
X9661484Y22294059D01*
X9607483Y22321574D01*
X9490000Y22340181D01*
X9372517Y22321574D01*
X9372516Y22321574D01*
X9266533Y22267572D01*
X9182428Y22183467D01*
X9128426Y22077484D01*
X9128426Y22077483D01*
X9109819Y21960000D01*
X561325Y21960000D01*
X561669Y22530004D01*
X10495373Y22530004D01*
X10495373Y22529997D01*
X10513812Y22378129D01*
X10513814Y22378125D01*
X10568065Y22235075D01*
X10631768Y22142786D01*
X10906141Y22417160D01*
X10918060Y22388386D01*
X10988386Y22318060D01*
X11017158Y22306143D01*
X10742574Y22031559D01*
X10769486Y22007716D01*
X10769489Y22007714D01*
X10904956Y21936615D01*
X11053502Y21900001D01*
X11053508Y21900000D01*
X11206492Y21900000D01*
X11206497Y21900001D01*
X11355043Y21936615D01*
X11490510Y22007714D01*
X11517424Y22031559D01*
X11242841Y22306143D01*
X11271614Y22318060D01*
X11341940Y22388386D01*
X11353857Y22417159D01*
X11628230Y22142786D01*
X11691935Y22235078D01*
X11746185Y22378125D01*
X11746187Y22378129D01*
X11754914Y22450000D01*
X23499819Y22450000D01*
X23518426Y22332518D01*
X23518426Y22332517D01*
X23528617Y22312517D01*
X23572427Y22226535D01*
X23656535Y22142427D01*
X23762518Y22088426D01*
X23880000Y22069819D01*
X23997482Y22088426D01*
X24103465Y22142427D01*
X24121038Y22160000D01*
X32254693Y22160000D01*
X32273904Y21817912D01*
X32273906Y21817900D01*
X32331294Y21480135D01*
X32368786Y21350000D01*
X32426147Y21150896D01*
X32441730Y21113276D01*
X32557259Y20834361D01*
X32557270Y20834340D01*
X32709048Y20559719D01*
X32722998Y20534479D01*
X32921265Y20255047D01*
X32921270Y20255042D01*
X32921271Y20255040D01*
X33149568Y19999576D01*
X33149575Y19999569D01*
X33405039Y19771272D01*
X33405047Y19771265D01*
X33684479Y19572998D01*
X33750383Y19536574D01*
X33984339Y19407271D01*
X33984360Y19407260D01*
X34134835Y19344932D01*
X34300896Y19276147D01*
X34630130Y19181296D01*
X34630133Y19181296D01*
X34630135Y19181295D01*
X34630133Y19181295D01*
X34805990Y19151417D01*
X34967914Y19123904D01*
X35310000Y19104693D01*
X35652086Y19123904D01*
X35952815Y19175000D01*
X48544819Y19175000D01*
X48563426Y19057518D01*
X48563426Y19057517D01*
X48582952Y19019196D01*
X48617427Y18951535D01*
X48701535Y18867427D01*
X48807518Y18813426D01*
X48925000Y18794819D01*
X49042482Y18813426D01*
X49148465Y18867427D01*
X49232573Y18951535D01*
X49286574Y19057518D01*
X49305181Y19175000D01*
X49286574Y19292482D01*
X49232573Y19398465D01*
X49148465Y19482573D01*
X49096484Y19509059D01*
X49042483Y19536574D01*
X48925000Y19555181D01*
X48807517Y19536574D01*
X48807516Y19536574D01*
X48701533Y19482572D01*
X48617428Y19398467D01*
X48563426Y19292484D01*
X48563426Y19292483D01*
X48544819Y19175000D01*
X35952815Y19175000D01*
X35989865Y19181295D01*
X35989866Y19181296D01*
X35989870Y19181296D01*
X36319104Y19276147D01*
X36587934Y19387500D01*
X36635639Y19407260D01*
X36635641Y19407262D01*
X36635648Y19407264D01*
X36935521Y19572998D01*
X37079280Y19675000D01*
X49919819Y19675000D01*
X49938426Y19557518D01*
X49938426Y19557517D01*
X49949097Y19536574D01*
X49976612Y19482573D01*
X49992428Y19451534D01*
X50004136Y19439826D01*
X50025810Y19387500D01*
X50004136Y19335174D01*
X49992428Y19323467D01*
X49938426Y19217484D01*
X49938426Y19217483D01*
X49919819Y19100000D01*
X49938426Y18982518D01*
X49938426Y18982517D01*
X49954213Y18951534D01*
X49992427Y18876535D01*
X50076535Y18792427D01*
X50182518Y18738426D01*
X50300000Y18719819D01*
X50417482Y18738426D01*
X50523465Y18792427D01*
X50607573Y18876535D01*
X50661574Y18982518D01*
X50680181Y19100000D01*
X50661574Y19217482D01*
X50607573Y19323465D01*
X50595864Y19335174D01*
X50574190Y19387500D01*
X50595864Y19439826D01*
X50596038Y19440000D01*
X50606038Y19450000D01*
X51319819Y19450000D01*
X51338426Y19332518D01*
X51338426Y19332517D01*
X51392428Y19226533D01*
X51395853Y19221819D01*
X51394364Y19220738D01*
X51413310Y19175000D01*
X51394364Y19129263D01*
X51395853Y19128181D01*
X51392428Y19123468D01*
X51338426Y19017484D01*
X51338426Y19017483D01*
X51319819Y18900000D01*
X51338426Y18782518D01*
X51338426Y18782517D01*
X51392428Y18676533D01*
X51395853Y18671819D01*
X51394364Y18670738D01*
X51413310Y18625000D01*
X51394364Y18579263D01*
X51395853Y18578181D01*
X51392428Y18573468D01*
X51338426Y18467484D01*
X51338426Y18467483D01*
X51319819Y18350000D01*
X51338426Y18232518D01*
X51338426Y18232517D01*
X51392428Y18126533D01*
X51395853Y18121819D01*
X51394364Y18120738D01*
X51413310Y18075000D01*
X51394364Y18029263D01*
X51395853Y18028181D01*
X51392428Y18023468D01*
X51338426Y17917484D01*
X51338426Y17917483D01*
X51319819Y17800000D01*
X51338426Y17682518D01*
X51338426Y17682517D01*
X51344002Y17671574D01*
X51392427Y17576535D01*
X51476535Y17492427D01*
X51582518Y17438426D01*
X51700000Y17419819D01*
X51817482Y17438426D01*
X51923465Y17492427D01*
X52007573Y17576535D01*
X52061574Y17682518D01*
X52080181Y17800000D01*
X52061574Y17917482D01*
X52007573Y18023465D01*
X52007572Y18023466D01*
X52007571Y18023468D01*
X52004147Y18028181D01*
X52005635Y18029263D01*
X51986690Y18075000D01*
X52005635Y18120738D01*
X52004147Y18121819D01*
X52007571Y18126533D01*
X52007573Y18126535D01*
X52061574Y18232518D01*
X52080181Y18350000D01*
X52061574Y18467482D01*
X52007573Y18573465D01*
X52007572Y18573466D01*
X52007571Y18573468D01*
X52004147Y18578181D01*
X52005635Y18579263D01*
X51986690Y18625000D01*
X52005635Y18670738D01*
X52004147Y18671819D01*
X52007571Y18676533D01*
X52007573Y18676535D01*
X52061574Y18782518D01*
X52080181Y18900000D01*
X52061574Y19017482D01*
X52007573Y19123465D01*
X52007572Y19123466D01*
X52007571Y19123468D01*
X52004147Y19128181D01*
X52005635Y19129263D01*
X51986690Y19175000D01*
X52005635Y19220738D01*
X52004147Y19221819D01*
X52007571Y19226533D01*
X52007573Y19226535D01*
X52061574Y19332518D01*
X52078597Y19440000D01*
X52449819Y19440000D01*
X52468426Y19322518D01*
X52468426Y19322517D01*
X52483730Y19292482D01*
X52522427Y19216535D01*
X52606535Y19132427D01*
X52712518Y19078426D01*
X52830000Y19059819D01*
X52947482Y19078426D01*
X53053465Y19132427D01*
X53137573Y19216535D01*
X53191574Y19322518D01*
X53210181Y19440000D01*
X53191574Y19557482D01*
X53137573Y19663465D01*
X53053465Y19747573D01*
X52984356Y19782786D01*
X52947483Y19801574D01*
X52830000Y19820181D01*
X52712517Y19801574D01*
X52712516Y19801574D01*
X52606533Y19747572D01*
X52522428Y19663467D01*
X52468426Y19557484D01*
X52468426Y19557483D01*
X52449819Y19440000D01*
X52078597Y19440000D01*
X52080181Y19450000D01*
X52061574Y19567482D01*
X52007573Y19673465D01*
X51923465Y19757573D01*
X51854952Y19792482D01*
X51817483Y19811574D01*
X51700000Y19830181D01*
X51582517Y19811574D01*
X51582516Y19811574D01*
X51476533Y19757572D01*
X51392428Y19673467D01*
X51338426Y19567484D01*
X51338426Y19567483D01*
X51319819Y19450000D01*
X50606038Y19450000D01*
X50607573Y19451535D01*
X50661574Y19557518D01*
X50680181Y19675000D01*
X50661574Y19792482D01*
X50607573Y19898465D01*
X50523465Y19982573D01*
X50471484Y20009059D01*
X50417483Y20036574D01*
X50300000Y20055181D01*
X50182517Y20036574D01*
X50182516Y20036574D01*
X50076533Y19982572D01*
X49992428Y19898467D01*
X49938426Y19792484D01*
X49938426Y19792483D01*
X49919819Y19675000D01*
X37079280Y19675000D01*
X37214953Y19771265D01*
X37470428Y19999572D01*
X37698735Y20255047D01*
X37897002Y20534479D01*
X38062736Y20834352D01*
X38193853Y21150896D01*
X38208001Y21200004D01*
X42115373Y21200004D01*
X42115373Y21199997D01*
X42133812Y21048129D01*
X42133814Y21048125D01*
X42188065Y20905075D01*
X42251768Y20812786D01*
X42526141Y21087160D01*
X42538060Y21058386D01*
X42608386Y20988060D01*
X42637158Y20976143D01*
X42362574Y20701559D01*
X42389486Y20677716D01*
X42389489Y20677714D01*
X42524956Y20606615D01*
X42673502Y20570001D01*
X42673508Y20570000D01*
X42826492Y20570000D01*
X42826497Y20570001D01*
X42975043Y20606615D01*
X43110510Y20677714D01*
X43137424Y20701559D01*
X42862841Y20976143D01*
X42891614Y20988060D01*
X42961940Y21058386D01*
X42973857Y21087159D01*
X43248230Y20812786D01*
X43311935Y20905078D01*
X43366185Y21048125D01*
X43366187Y21048129D01*
X43384627Y21199997D01*
X43384627Y21200004D01*
X43366187Y21351872D01*
X43366185Y21351876D01*
X43311934Y21494926D01*
X43248231Y21587216D01*
X42973857Y21312843D01*
X42961940Y21341614D01*
X42891614Y21411940D01*
X42862840Y21423859D01*
X43137424Y21698442D01*
X43110513Y21722285D01*
X43110510Y21722287D01*
X42975043Y21793386D01*
X42826497Y21830000D01*
X42673502Y21830000D01*
X42524956Y21793386D01*
X42389490Y21722288D01*
X42362573Y21698443D01*
X42637158Y21423858D01*
X42608386Y21411940D01*
X42538060Y21341614D01*
X42526142Y21312842D01*
X42251767Y21587217D01*
X42188067Y21494930D01*
X42188066Y21494928D01*
X42133814Y21351876D01*
X42133812Y21351872D01*
X42115373Y21200004D01*
X38208001Y21200004D01*
X38288704Y21480130D01*
X38346096Y21817914D01*
X38347336Y21840000D01*
X43369819Y21840000D01*
X43388426Y21722518D01*
X43388426Y21722517D01*
X43400693Y21698443D01*
X43442427Y21616535D01*
X43526535Y21532427D01*
X43632518Y21478426D01*
X43750000Y21459819D01*
X43867482Y21478426D01*
X43973465Y21532427D01*
X44057573Y21616535D01*
X44111574Y21722518D01*
X44130181Y21840000D01*
X44111574Y21957482D01*
X44057573Y22063465D01*
X43973465Y22147573D01*
X43903019Y22183467D01*
X43867483Y22201574D01*
X43750000Y22220181D01*
X43632517Y22201574D01*
X43632516Y22201574D01*
X43526533Y22147572D01*
X43442428Y22063467D01*
X43388426Y21957484D01*
X43388426Y21957483D01*
X43369819Y21840000D01*
X38347336Y21840000D01*
X38365307Y22160000D01*
X38358568Y22280000D01*
X44209819Y22280000D01*
X44228426Y22162518D01*
X44228426Y22162517D01*
X44236041Y22147572D01*
X44282427Y22056535D01*
X44366535Y21972427D01*
X44472518Y21918426D01*
X44590000Y21899819D01*
X44707482Y21918426D01*
X44813465Y21972427D01*
X44897573Y22056535D01*
X44951574Y22162518D01*
X44970181Y22280000D01*
X44951574Y22397482D01*
X44935005Y22430000D01*
X46219819Y22430000D01*
X46238426Y22312518D01*
X46238426Y22312517D01*
X46254995Y22280000D01*
X46282236Y22226535D01*
X46292428Y22206534D01*
X46311636Y22187326D01*
X46333310Y22135000D01*
X46311636Y22082674D01*
X46292428Y22063467D01*
X46238426Y21957484D01*
X46238426Y21957483D01*
X46219819Y21840000D01*
X46238426Y21722518D01*
X46238426Y21722517D01*
X46250693Y21698443D01*
X46292427Y21616535D01*
X46376535Y21532427D01*
X46482518Y21478426D01*
X46600000Y21459819D01*
X46717482Y21478426D01*
X46823465Y21532427D01*
X46907573Y21616535D01*
X46961574Y21722518D01*
X46980181Y21840000D01*
X46961574Y21957482D01*
X46907573Y22063465D01*
X46888364Y22082674D01*
X46866690Y22135000D01*
X46888364Y22187326D01*
X46907573Y22206535D01*
X46961574Y22312518D01*
X46980181Y22430000D01*
X46961574Y22547482D01*
X46907573Y22653465D01*
X46823465Y22737573D01*
X46771484Y22764059D01*
X46717483Y22791574D01*
X46600000Y22810181D01*
X46482517Y22791574D01*
X46482516Y22791574D01*
X46376533Y22737572D01*
X46292428Y22653467D01*
X46238426Y22547484D01*
X46238426Y22547483D01*
X46219819Y22430000D01*
X44935005Y22430000D01*
X44897573Y22503465D01*
X44813465Y22587573D01*
X44761484Y22614059D01*
X44707483Y22641574D01*
X44590000Y22660181D01*
X44472517Y22641574D01*
X44472516Y22641574D01*
X44366533Y22587572D01*
X44282428Y22503467D01*
X44228426Y22397484D01*
X44228426Y22397483D01*
X44209819Y22280000D01*
X38358568Y22280000D01*
X38346096Y22502086D01*
X38302687Y22757573D01*
X38288705Y22839866D01*
X38274314Y22889819D01*
X38193853Y23169104D01*
X38127207Y23330000D01*
X51749819Y23330000D01*
X51768426Y23212518D01*
X51768426Y23212517D01*
X51795185Y23160000D01*
X51822427Y23106535D01*
X51906535Y23022427D01*
X52012518Y22968426D01*
X52130000Y22949819D01*
X52247482Y22968426D01*
X52353465Y23022427D01*
X52437573Y23106535D01*
X52491574Y23212518D01*
X52500678Y23270000D01*
X52689819Y23270000D01*
X52708426Y23152518D01*
X52708426Y23152517D01*
X52723269Y23123386D01*
X52762427Y23046535D01*
X52846535Y22962427D01*
X52952518Y22908426D01*
X53070000Y22889819D01*
X53187482Y22908426D01*
X53293465Y22962427D01*
X53377573Y23046535D01*
X53431574Y23152518D01*
X53450181Y23270000D01*
X53431574Y23387482D01*
X53377573Y23493465D01*
X53293465Y23577573D01*
X53241484Y23604059D01*
X53187483Y23631574D01*
X53070000Y23650181D01*
X52952517Y23631574D01*
X52952516Y23631574D01*
X52846533Y23577572D01*
X52762428Y23493467D01*
X52708426Y23387484D01*
X52708426Y23387483D01*
X52689819Y23270000D01*
X52500678Y23270000D01*
X52510181Y23330000D01*
X52491574Y23447482D01*
X52437573Y23553465D01*
X52353465Y23637573D01*
X52301484Y23664059D01*
X52247483Y23691574D01*
X52130000Y23710181D01*
X52012517Y23691574D01*
X52012516Y23691574D01*
X51906533Y23637572D01*
X51822428Y23553467D01*
X51768426Y23447484D01*
X51768426Y23447483D01*
X51749819Y23330000D01*
X38127207Y23330000D01*
X38125068Y23335165D01*
X38062740Y23485640D01*
X38062729Y23485661D01*
X37906450Y23768426D01*
X37897002Y23785521D01*
X37698735Y24064953D01*
X37667414Y24100001D01*
X37470431Y24320425D01*
X37470424Y24320432D01*
X37370198Y24410000D01*
X48299819Y24410000D01*
X48318426Y24292518D01*
X48318426Y24292517D01*
X48341372Y24247484D01*
X48372427Y24186535D01*
X48456535Y24102427D01*
X48562518Y24048426D01*
X48680000Y24029819D01*
X48797482Y24048426D01*
X48903465Y24102427D01*
X48987573Y24186535D01*
X49041574Y24292518D01*
X49060181Y24410000D01*
X49041574Y24527482D01*
X48987573Y24633465D01*
X48903465Y24717573D01*
X48845694Y24747009D01*
X48797483Y24771574D01*
X48680000Y24790181D01*
X48562517Y24771574D01*
X48562516Y24771574D01*
X48456533Y24717572D01*
X48372428Y24633467D01*
X48318426Y24527484D01*
X48318426Y24527483D01*
X48299819Y24410000D01*
X37370198Y24410000D01*
X37214960Y24548729D01*
X37214958Y24548730D01*
X37214953Y24548735D01*
X36935521Y24747002D01*
X36935511Y24747008D01*
X36935509Y24747009D01*
X36635660Y24912730D01*
X36635639Y24912741D01*
X36521545Y24960000D01*
X46079819Y24960000D01*
X46098426Y24842518D01*
X46098426Y24842517D01*
X46111631Y24816602D01*
X46152427Y24736535D01*
X46236535Y24652427D01*
X46342518Y24598426D01*
X46460000Y24579819D01*
X46577482Y24598426D01*
X46683465Y24652427D01*
X46767573Y24736535D01*
X46821574Y24842518D01*
X46840181Y24960000D01*
X46821574Y25077482D01*
X46767573Y25183465D01*
X46751038Y25200000D01*
X49929819Y25200000D01*
X49948426Y25082518D01*
X49948426Y25082517D01*
X49968127Y25043853D01*
X50002427Y24976535D01*
X50086535Y24892427D01*
X50192518Y24838426D01*
X50310000Y24819819D01*
X50427482Y24838426D01*
X50533465Y24892427D01*
X50617573Y24976535D01*
X50671574Y25082518D01*
X50690181Y25200000D01*
X50671574Y25317482D01*
X50617573Y25423465D01*
X50533465Y25507573D01*
X50481484Y25534059D01*
X50427483Y25561574D01*
X50310000Y25580181D01*
X50192517Y25561574D01*
X50192516Y25561574D01*
X50086533Y25507572D01*
X50002428Y25423467D01*
X49948426Y25317484D01*
X49948426Y25317483D01*
X49929819Y25200000D01*
X46751038Y25200000D01*
X46683465Y25267573D01*
X46617370Y25301250D01*
X46577483Y25321574D01*
X46460000Y25340181D01*
X46342517Y25321574D01*
X46342516Y25321574D01*
X46236533Y25267572D01*
X46152428Y25183467D01*
X46098426Y25077484D01*
X46098426Y25077483D01*
X46079819Y24960000D01*
X36521545Y24960000D01*
X36319106Y25043852D01*
X36319107Y25043852D01*
X36319104Y25043853D01*
X36118402Y25101675D01*
X35989864Y25138706D01*
X35989866Y25138706D01*
X35652100Y25196094D01*
X35652088Y25196096D01*
X35310000Y25215307D01*
X34967911Y25196096D01*
X34967899Y25196094D01*
X34630134Y25138706D01*
X34417624Y25077482D01*
X34336895Y25054224D01*
X34300893Y25043852D01*
X33984360Y24912741D01*
X33984339Y24912730D01*
X33684490Y24747009D01*
X33684484Y24747005D01*
X33684479Y24747002D01*
X33448856Y24579819D01*
X33405039Y24548729D01*
X33149575Y24320432D01*
X33149568Y24320425D01*
X32921271Y24064961D01*
X32921266Y24064955D01*
X32921265Y24064953D01*
X32722998Y23785521D01*
X32722996Y23785517D01*
X32722991Y23785510D01*
X32557270Y23485661D01*
X32557259Y23485640D01*
X32426148Y23169107D01*
X32331294Y22839866D01*
X32273906Y22502101D01*
X32273904Y22502089D01*
X32254693Y22160000D01*
X24121038Y22160000D01*
X24187573Y22226535D01*
X24241574Y22332518D01*
X24260181Y22450000D01*
X24241574Y22567482D01*
X24187573Y22673465D01*
X24103465Y22757573D01*
X24047760Y22785956D01*
X23997483Y22811574D01*
X23880000Y22830181D01*
X23762517Y22811574D01*
X23762516Y22811574D01*
X23656533Y22757572D01*
X23572428Y22673467D01*
X23518426Y22567484D01*
X23518426Y22567483D01*
X23499819Y22450000D01*
X11754914Y22450000D01*
X11764627Y22529997D01*
X11764627Y22530004D01*
X11746187Y22681872D01*
X11746185Y22681876D01*
X11691934Y22824926D01*
X11628231Y22917216D01*
X11353857Y22642843D01*
X11341940Y22671614D01*
X11271614Y22741940D01*
X11242840Y22753859D01*
X11517424Y23028442D01*
X11490513Y23052285D01*
X11490510Y23052287D01*
X11355043Y23123386D01*
X11206497Y23160000D01*
X11053502Y23160000D01*
X10904956Y23123386D01*
X10769490Y23052288D01*
X10742573Y23028443D01*
X11017158Y22753858D01*
X10988386Y22741940D01*
X10918060Y22671614D01*
X10906142Y22642842D01*
X10631767Y22917217D01*
X10568067Y22824930D01*
X10568066Y22824928D01*
X10513814Y22681876D01*
X10513812Y22681872D01*
X10495373Y22530004D01*
X561669Y22530004D01*
X562617Y24100004D01*
X1015099Y24100004D01*
X1015099Y24099997D01*
X1034667Y23863830D01*
X1092848Y23634082D01*
X1188042Y23417063D01*
X1317662Y23218664D01*
X1317665Y23218661D01*
X1384759Y23145778D01*
X1616673Y23377692D01*
X1727689Y23266676D01*
X1493438Y23032424D01*
X1665181Y22898751D01*
X1873607Y22785956D01*
X2097754Y22709007D01*
X2331510Y22670001D01*
X2331513Y22670000D01*
X2568487Y22670000D01*
X2568489Y22670001D01*
X2802245Y22709007D01*
X3026392Y22785956D01*
X3234817Y22898751D01*
X3406559Y23032425D01*
X3172309Y23266675D01*
X3283325Y23377691D01*
X3515239Y23145777D01*
X3515239Y23145778D01*
X3582333Y23218661D01*
X3582346Y23218678D01*
X3711957Y23417063D01*
X3805360Y23630000D01*
X9679819Y23630000D01*
X9698426Y23512518D01*
X9698426Y23512517D01*
X9704896Y23499820D01*
X9752427Y23406535D01*
X9836535Y23322427D01*
X9942518Y23268426D01*
X10060000Y23249819D01*
X10177482Y23268426D01*
X10283465Y23322427D01*
X10367573Y23406535D01*
X10421574Y23512518D01*
X10440181Y23630000D01*
X10421574Y23747482D01*
X10367573Y23853465D01*
X10341038Y23880000D01*
X26229819Y23880000D01*
X26248426Y23762518D01*
X26248426Y23762517D01*
X26256087Y23747482D01*
X26302427Y23656535D01*
X26386535Y23572427D01*
X26492518Y23518426D01*
X26610000Y23499819D01*
X26727482Y23518426D01*
X26833465Y23572427D01*
X26917573Y23656535D01*
X26971574Y23762518D01*
X26990181Y23880000D01*
X26971574Y23997482D01*
X26917573Y24103465D01*
X26833465Y24187573D01*
X26781484Y24214059D01*
X26727483Y24241574D01*
X26610000Y24260181D01*
X26492517Y24241574D01*
X26492516Y24241574D01*
X26386533Y24187572D01*
X26302428Y24103467D01*
X26248426Y23997484D01*
X26248426Y23997483D01*
X26229819Y23880000D01*
X10341038Y23880000D01*
X10283465Y23937573D01*
X10231484Y23964059D01*
X10177483Y23991574D01*
X10060000Y24010181D01*
X9942517Y23991574D01*
X9942516Y23991574D01*
X9836533Y23937572D01*
X9752428Y23853467D01*
X9698426Y23747484D01*
X9698426Y23747483D01*
X9679819Y23630000D01*
X3805360Y23630000D01*
X3807151Y23634082D01*
X3865332Y23863830D01*
X3884901Y24099997D01*
X3884901Y24100004D01*
X3882416Y24130000D01*
X5829819Y24130000D01*
X5848426Y24012518D01*
X5848426Y24012517D01*
X5856087Y23997482D01*
X5902427Y23906535D01*
X5986535Y23822427D01*
X6092518Y23768426D01*
X6210000Y23749819D01*
X6327482Y23768426D01*
X6433465Y23822427D01*
X6517573Y23906535D01*
X6571574Y24012518D01*
X6590181Y24130000D01*
X6571574Y24247482D01*
X6517573Y24353465D01*
X6433465Y24437573D01*
X6381484Y24464059D01*
X6330572Y24490000D01*
X27409819Y24490000D01*
X27428426Y24372518D01*
X27428426Y24372517D01*
X27436035Y24357584D01*
X27482427Y24266535D01*
X27566535Y24182427D01*
X27672518Y24128426D01*
X27790000Y24109819D01*
X27907482Y24128426D01*
X28013465Y24182427D01*
X28097573Y24266535D01*
X28151574Y24372518D01*
X28170181Y24490000D01*
X28151574Y24607482D01*
X28097573Y24713465D01*
X28013465Y24797573D01*
X27961484Y24824059D01*
X27907483Y24851574D01*
X27790000Y24870181D01*
X27672517Y24851574D01*
X27672516Y24851574D01*
X27566533Y24797572D01*
X27482428Y24713467D01*
X27428426Y24607484D01*
X27428426Y24607483D01*
X27409819Y24490000D01*
X6330572Y24490000D01*
X6327483Y24491574D01*
X6210000Y24510181D01*
X6092517Y24491574D01*
X6092516Y24491574D01*
X5986533Y24437572D01*
X5902428Y24353467D01*
X5848426Y24247484D01*
X5848426Y24247483D01*
X5829819Y24130000D01*
X3882416Y24130000D01*
X3865332Y24336171D01*
X3807151Y24565919D01*
X3711957Y24782938D01*
X3582337Y24981337D01*
X3582334Y24981340D01*
X3515239Y25054224D01*
X3283325Y24822310D01*
X3172308Y24933327D01*
X3406560Y25167578D01*
X3234818Y25301250D01*
X3026392Y25414045D01*
X2834270Y25480000D01*
X11489819Y25480000D01*
X11508426Y25362518D01*
X11508426Y25362517D01*
X11519807Y25340181D01*
X11562427Y25256535D01*
X11646535Y25172427D01*
X11752518Y25118426D01*
X11870000Y25099819D01*
X11987482Y25118426D01*
X12093465Y25172427D01*
X12177573Y25256535D01*
X12231574Y25362518D01*
X12250181Y25480000D01*
X12231574Y25597482D01*
X12220101Y25620000D01*
X22909819Y25620000D01*
X22928426Y25502518D01*
X22928426Y25502517D01*
X22939899Y25480000D01*
X22982427Y25396535D01*
X23066535Y25312427D01*
X23172518Y25258426D01*
X23290000Y25239819D01*
X23407482Y25258426D01*
X23513465Y25312427D01*
X23597573Y25396535D01*
X23651574Y25502518D01*
X23665430Y25590000D01*
X51379819Y25590000D01*
X51398426Y25472518D01*
X51398426Y25472517D01*
X51423419Y25423467D01*
X51452427Y25366535D01*
X51536535Y25282427D01*
X51642518Y25228426D01*
X51760000Y25209819D01*
X51877482Y25228426D01*
X51983465Y25282427D01*
X52067573Y25366535D01*
X52121574Y25472518D01*
X52140181Y25590000D01*
X52121574Y25707482D01*
X52067573Y25813465D01*
X51983465Y25897573D01*
X51924587Y25927573D01*
X51877483Y25951574D01*
X51760000Y25970181D01*
X51642517Y25951574D01*
X51642516Y25951574D01*
X51536533Y25897572D01*
X51452428Y25813467D01*
X51398426Y25707484D01*
X51398426Y25707483D01*
X51379819Y25590000D01*
X23665430Y25590000D01*
X23670181Y25620000D01*
X23651574Y25737482D01*
X23597573Y25843465D01*
X23513465Y25927573D01*
X23461484Y25954059D01*
X23407483Y25981574D01*
X23290000Y26000181D01*
X23172517Y25981574D01*
X23172516Y25981574D01*
X23066533Y25927572D01*
X22982428Y25843467D01*
X22928426Y25737484D01*
X22928426Y25737483D01*
X22909819Y25620000D01*
X12220101Y25620000D01*
X12177573Y25703465D01*
X12093465Y25787573D01*
X12029270Y25820282D01*
X11987483Y25841574D01*
X11870000Y25860181D01*
X11752517Y25841574D01*
X11752516Y25841574D01*
X11646533Y25787572D01*
X11562428Y25703467D01*
X11508426Y25597484D01*
X11508426Y25597483D01*
X11489819Y25480000D01*
X2834270Y25480000D01*
X2802245Y25490994D01*
X2568489Y25530000D01*
X2331510Y25530000D01*
X2097754Y25490994D01*
X1873607Y25414045D01*
X1665191Y25301255D01*
X1665181Y25301249D01*
X1493438Y25167578D01*
X1727690Y24933326D01*
X1616674Y24822310D01*
X1384759Y25054224D01*
X1317664Y24981340D01*
X1317662Y24981337D01*
X1188042Y24782938D01*
X1092848Y24565919D01*
X1034667Y24336171D01*
X1015099Y24100004D01*
X562617Y24100004D01*
X563903Y26230000D01*
X19879196Y26230000D01*
X19900280Y26096874D01*
X19959029Y25981574D01*
X19961472Y25976780D01*
X20056780Y25881472D01*
X20176873Y25820282D01*
X20176873Y25820281D01*
X20195075Y25817399D01*
X20310000Y25799196D01*
X20443126Y25820281D01*
X20563220Y25881472D01*
X20658528Y25976780D01*
X20719719Y26096874D01*
X20740804Y26230000D01*
X20719719Y26363126D01*
X20719719Y26363127D01*
X20658528Y26483220D01*
X20563219Y26578529D01*
X20443126Y26639719D01*
X20443126Y26639720D01*
X20310000Y26660804D01*
X20176873Y26639720D01*
X20176873Y26639719D01*
X20056780Y26578529D01*
X19961471Y26483220D01*
X19900281Y26363127D01*
X19900280Y26363127D01*
X19879196Y26230000D01*
X563903Y26230000D01*
X564308Y26900000D01*
X30319819Y26900000D01*
X30338426Y26782518D01*
X30338426Y26782517D01*
X30365941Y26728516D01*
X30392427Y26676535D01*
X30476535Y26592427D01*
X30582518Y26538426D01*
X30700000Y26519819D01*
X30817482Y26538426D01*
X30923465Y26592427D01*
X31007573Y26676535D01*
X31061574Y26782518D01*
X31080181Y26900000D01*
X31061574Y27017482D01*
X31007573Y27123465D01*
X30923465Y27207573D01*
X30871484Y27234059D01*
X30840198Y27250000D01*
X31819819Y27250000D01*
X31838426Y27132518D01*
X31838426Y27132517D01*
X31865941Y27078516D01*
X31892427Y27026535D01*
X31976535Y26942427D01*
X32082518Y26888426D01*
X32200000Y26869819D01*
X32317482Y26888426D01*
X32423465Y26942427D01*
X32507573Y27026535D01*
X32561574Y27132518D01*
X32580181Y27250000D01*
X32561574Y27367482D01*
X32507573Y27473465D01*
X32423465Y27557573D01*
X32371484Y27584059D01*
X32317483Y27611574D01*
X32200000Y27630181D01*
X32082517Y27611574D01*
X32082516Y27611574D01*
X31976533Y27557572D01*
X31892428Y27473467D01*
X31838426Y27367484D01*
X31838426Y27367483D01*
X31819819Y27250000D01*
X30840198Y27250000D01*
X30817483Y27261574D01*
X30700000Y27280181D01*
X30582517Y27261574D01*
X30582516Y27261574D01*
X30476533Y27207572D01*
X30392428Y27123467D01*
X30338426Y27017484D01*
X30338426Y27017483D01*
X30319819Y26900000D01*
X564308Y26900000D01*
X565243Y28448501D01*
X3771278Y28448501D01*
X3771279Y28448500D01*
X4111918Y28448500D01*
X4100001Y28419730D01*
X4100001Y28320270D01*
X4111918Y28291500D01*
X3771278Y28291500D01*
X3808161Y28153852D01*
X3808163Y28153847D01*
X3881886Y28026156D01*
X3986155Y27921887D01*
X4113846Y27848164D01*
X4113851Y27848162D01*
X4256272Y27810001D01*
X4256273Y27810000D01*
X4721500Y27810000D01*
X4721500Y28119988D01*
X4878500Y28119988D01*
X4878500Y27810000D01*
X5343727Y27810000D01*
X5343727Y27810001D01*
X5486148Y27848162D01*
X5486153Y27848164D01*
X5613844Y27921887D01*
X5718113Y28026156D01*
X5762237Y28102581D01*
X5807170Y28137059D01*
X5863323Y28129667D01*
X5897801Y28084734D01*
X5899412Y28054007D01*
X5894819Y28025003D01*
X5894819Y28025001D01*
X5913426Y27907518D01*
X5913426Y27907517D01*
X5940941Y27853516D01*
X5967427Y27801535D01*
X6051535Y27717427D01*
X6157518Y27663426D01*
X6275000Y27644819D01*
X6392482Y27663426D01*
X6498465Y27717427D01*
X6582573Y27801535D01*
X6636574Y27907518D01*
X6655181Y28025000D01*
X6636574Y28142482D01*
X6582573Y28248465D01*
X6519553Y28311485D01*
X6497879Y28363811D01*
X6505944Y28397404D01*
X6536574Y28457518D01*
X6555181Y28575000D01*
X6536574Y28692482D01*
X6532743Y28700000D01*
X7069196Y28700000D01*
X7090280Y28566874D01*
X7151471Y28446781D01*
X7151472Y28446780D01*
X7246780Y28351472D01*
X7366873Y28290282D01*
X7366873Y28290281D01*
X7385075Y28287399D01*
X7500000Y28269196D01*
X7633126Y28290281D01*
X7753220Y28351472D01*
X7848528Y28446780D01*
X7909719Y28566874D01*
X7930804Y28700000D01*
X7922885Y28750000D01*
X8519819Y28750000D01*
X8538426Y28632518D01*
X8538426Y28632517D01*
X8544798Y28620012D01*
X8592427Y28526535D01*
X8676535Y28442427D01*
X8782518Y28388426D01*
X8900000Y28369819D01*
X9017482Y28388426D01*
X9023244Y28391363D01*
X9079704Y28395810D01*
X9122775Y28359031D01*
X9129932Y28313854D01*
X9121787Y28262427D01*
X9119819Y28250000D01*
X9126404Y28208426D01*
X9138426Y28132518D01*
X9138426Y28132517D01*
X9156208Y28097618D01*
X9192427Y28026535D01*
X9276535Y27942427D01*
X9382518Y27888426D01*
X9500000Y27869819D01*
X9617482Y27888426D01*
X9723465Y27942427D01*
X9807573Y28026535D01*
X9827314Y28065281D01*
X9870379Y28102061D01*
X9926842Y28097618D01*
X9957333Y28068683D01*
X9981886Y28026156D01*
X10086155Y27921887D01*
X10213846Y27848164D01*
X10213851Y27848162D01*
X10356272Y27810001D01*
X10356273Y27810000D01*
X10821500Y27810000D01*
X10821500Y28119988D01*
X10978500Y28119988D01*
X10978500Y27810000D01*
X11443727Y27810000D01*
X11443727Y27810001D01*
X11586148Y27848162D01*
X11586153Y27848164D01*
X11713844Y27921887D01*
X11818113Y28026156D01*
X11891836Y28153847D01*
X11891838Y28153852D01*
X11928721Y28291500D01*
X11588082Y28291500D01*
X11599999Y28320270D01*
X11599999Y28419730D01*
X11588082Y28448500D01*
X11928721Y28448500D01*
X11928721Y28448501D01*
X11896165Y28570000D01*
X31829819Y28570000D01*
X31848426Y28452518D01*
X31848426Y28452517D01*
X31865132Y28419730D01*
X31902427Y28346535D01*
X31986535Y28262427D01*
X32092518Y28208426D01*
X32210000Y28189819D01*
X32327482Y28208426D01*
X32433465Y28262427D01*
X32517573Y28346535D01*
X32571574Y28452518D01*
X32590181Y28570000D01*
X32580678Y28630000D01*
X33419819Y28630000D01*
X33438426Y28512518D01*
X33438426Y28512517D01*
X33440434Y28508577D01*
X33492427Y28406535D01*
X33576535Y28322427D01*
X33682518Y28268426D01*
X33800000Y28249819D01*
X33917482Y28268426D01*
X34023465Y28322427D01*
X34107573Y28406535D01*
X34161574Y28512518D01*
X34180181Y28630000D01*
X34161574Y28747482D01*
X34107573Y28853465D01*
X34023465Y28937573D01*
X33940551Y28979820D01*
X33917483Y28991574D01*
X33800000Y29010181D01*
X33682517Y28991574D01*
X33682516Y28991574D01*
X33576533Y28937572D01*
X33492428Y28853467D01*
X33438426Y28747484D01*
X33438426Y28747483D01*
X33419819Y28630000D01*
X32580678Y28630000D01*
X32571574Y28687482D01*
X32517573Y28793465D01*
X32433465Y28877573D01*
X32381484Y28904059D01*
X32327483Y28931574D01*
X32210000Y28950181D01*
X32092517Y28931574D01*
X32092516Y28931574D01*
X31986533Y28877572D01*
X31902428Y28793467D01*
X31848426Y28687484D01*
X31848426Y28687483D01*
X31829819Y28570000D01*
X11896165Y28570000D01*
X11891838Y28586149D01*
X11891836Y28586154D01*
X11818113Y28713845D01*
X11713844Y28818114D01*
X11586153Y28891837D01*
X11586148Y28891839D01*
X11443727Y28930000D01*
X10978500Y28930000D01*
X10978500Y28620012D01*
X10821500Y28620012D01*
X10821500Y28930000D01*
X10356273Y28930000D01*
X10213851Y28891839D01*
X10213846Y28891837D01*
X10086155Y28818114D01*
X9981886Y28713845D01*
X9908163Y28586154D01*
X9908161Y28586149D01*
X9896265Y28541750D01*
X9861787Y28496817D01*
X9805634Y28489425D01*
X9772461Y28508577D01*
X9723466Y28557572D01*
X9723465Y28557573D01*
X9667372Y28586154D01*
X9617483Y28611574D01*
X9500000Y28630181D01*
X9382517Y28611574D01*
X9382514Y28611574D01*
X9376750Y28608636D01*
X9320287Y28604193D01*
X9277221Y28640977D01*
X9270067Y28686145D01*
X9280181Y28750000D01*
X9261574Y28867482D01*
X9207573Y28973465D01*
X9123465Y29057573D01*
X9071484Y29084059D01*
X9017483Y29111574D01*
X8900000Y29130181D01*
X8782517Y29111574D01*
X8782516Y29111574D01*
X8676533Y29057572D01*
X8592428Y28973467D01*
X8538426Y28867484D01*
X8538426Y28867483D01*
X8519819Y28750000D01*
X7922885Y28750000D01*
X7909719Y28833126D01*
X7909719Y28833127D01*
X7848528Y28953220D01*
X7753219Y29048529D01*
X7633126Y29109719D01*
X7633126Y29109720D01*
X7500000Y29130804D01*
X7366873Y29109720D01*
X7366873Y29109719D01*
X7246780Y29048529D01*
X7151471Y28953220D01*
X7090281Y28833127D01*
X7090280Y28833127D01*
X7069196Y28700000D01*
X6532743Y28700000D01*
X6482573Y28798465D01*
X6398465Y28882573D01*
X6346484Y28909059D01*
X6292483Y28936574D01*
X6175000Y28955181D01*
X6057517Y28936574D01*
X6057516Y28936574D01*
X5951533Y28882572D01*
X5867427Y28798466D01*
X5834704Y28734244D01*
X5791636Y28697461D01*
X5735174Y28701906D01*
X5716444Y28715514D01*
X5613844Y28818114D01*
X5486153Y28891837D01*
X5486148Y28891839D01*
X5343727Y28930000D01*
X4878500Y28930000D01*
X4878500Y28620012D01*
X4721500Y28620012D01*
X4721500Y28930000D01*
X4256273Y28930000D01*
X4113851Y28891839D01*
X4113846Y28891837D01*
X3986155Y28818114D01*
X3881886Y28713845D01*
X3808163Y28586154D01*
X3808161Y28586149D01*
X3771278Y28448501D01*
X565243Y28448501D01*
X565793Y29360000D01*
X39389819Y29360000D01*
X39408426Y29242518D01*
X39408426Y29242517D01*
X39427192Y29205687D01*
X39462427Y29136535D01*
X39546535Y29052427D01*
X39652518Y28998426D01*
X39770000Y28979819D01*
X39887482Y28998426D01*
X39993465Y29052427D01*
X40077573Y29136535D01*
X40094066Y29168906D01*
X40137133Y29205687D01*
X40193596Y29201243D01*
X40225933Y29168906D01*
X40242427Y29136535D01*
X40326535Y29052427D01*
X40432518Y28998426D01*
X40550000Y28979819D01*
X40667482Y28998426D01*
X40773465Y29052427D01*
X40857573Y29136535D01*
X40857579Y29136548D01*
X40859174Y29138742D01*
X40860740Y29139703D01*
X40861691Y29140653D01*
X40861919Y29140425D01*
X40907458Y29168345D01*
X40962534Y29155136D01*
X40971377Y29147585D01*
X40972427Y29146535D01*
X41056535Y29062427D01*
X41162518Y29008426D01*
X41280000Y28989819D01*
X41397482Y29008426D01*
X41503465Y29062427D01*
X41587573Y29146535D01*
X41641574Y29252518D01*
X41660181Y29370000D01*
X41641574Y29487482D01*
X41587573Y29593465D01*
X41581038Y29600000D01*
X49979819Y29600000D01*
X49998426Y29482518D01*
X49998426Y29482517D01*
X50000991Y29477483D01*
X50052427Y29376535D01*
X50136535Y29292427D01*
X50242518Y29238426D01*
X50360000Y29219819D01*
X50477482Y29238426D01*
X50583465Y29292427D01*
X50667573Y29376535D01*
X50721574Y29482518D01*
X50740181Y29600000D01*
X50721574Y29717482D01*
X50667573Y29823465D01*
X50583465Y29907573D01*
X50531484Y29934059D01*
X50477483Y29961574D01*
X50360000Y29980181D01*
X50242517Y29961574D01*
X50242516Y29961574D01*
X50136533Y29907572D01*
X50052428Y29823467D01*
X49998426Y29717484D01*
X49998426Y29717483D01*
X49979819Y29600000D01*
X41581038Y29600000D01*
X41503465Y29677573D01*
X41451484Y29704059D01*
X41397483Y29731574D01*
X41280000Y29750181D01*
X41162517Y29731574D01*
X41162516Y29731574D01*
X41056533Y29677572D01*
X40972427Y29593466D01*
X40970818Y29591250D01*
X40969252Y29590291D01*
X40968309Y29589347D01*
X40968082Y29589574D01*
X40922529Y29561654D01*
X40867456Y29574872D01*
X40858622Y29582416D01*
X40773466Y29667572D01*
X40773465Y29667573D01*
X40705060Y29702427D01*
X40667483Y29721574D01*
X40550000Y29740181D01*
X40432517Y29721574D01*
X40432516Y29721574D01*
X40326533Y29667572D01*
X40242427Y29583466D01*
X40225934Y29551096D01*
X40182866Y29514313D01*
X40126404Y29518758D01*
X40094066Y29551096D01*
X40077572Y29583466D01*
X39993466Y29667572D01*
X39993465Y29667573D01*
X39925060Y29702427D01*
X39887483Y29721574D01*
X39770000Y29740181D01*
X39652517Y29721574D01*
X39652516Y29721574D01*
X39546533Y29667572D01*
X39462428Y29583467D01*
X39408426Y29477484D01*
X39408426Y29477483D01*
X39389819Y29360000D01*
X565793Y29360000D01*
X566469Y30479060D01*
X3669500Y30479060D01*
X3669500Y30320941D01*
X3710421Y30168221D01*
X3710422Y30168219D01*
X3710423Y30168216D01*
X3789480Y30031284D01*
X3901284Y29919480D01*
X4038216Y29840423D01*
X4190940Y29799501D01*
X4190941Y29799500D01*
X4190943Y29799500D01*
X4349059Y29799500D01*
X4349059Y29799501D01*
X4501784Y29840423D01*
X4638716Y29919480D01*
X4750520Y30031284D01*
X4829577Y30168216D01*
X4870499Y30320941D01*
X4870500Y30320941D01*
X4870500Y30479059D01*
X4870499Y30479060D01*
X10829500Y30479060D01*
X10829500Y30320941D01*
X10870421Y30168221D01*
X10870422Y30168219D01*
X10870423Y30168216D01*
X10949480Y30031284D01*
X11061284Y29919480D01*
X11198216Y29840423D01*
X11350940Y29799501D01*
X11350941Y29799500D01*
X11350943Y29799500D01*
X11509059Y29799500D01*
X11509059Y29799501D01*
X11661784Y29840423D01*
X11798716Y29919480D01*
X11910520Y30031284D01*
X11989577Y30168216D01*
X12030499Y30320941D01*
X12030500Y30320941D01*
X12030500Y30479059D01*
X12030499Y30479060D01*
X12029825Y30481574D01*
X11989577Y30631784D01*
X11910520Y30768716D01*
X11798716Y30880520D01*
X11661784Y30959577D01*
X11661781Y30959578D01*
X11661779Y30959579D01*
X11509059Y31000500D01*
X11509057Y31000500D01*
X11350943Y31000500D01*
X11350941Y31000500D01*
X11198220Y30959579D01*
X11198214Y30959576D01*
X11061283Y30880520D01*
X10949480Y30768717D01*
X10870424Y30631786D01*
X10870421Y30631780D01*
X10829500Y30479060D01*
X4870499Y30479060D01*
X4869825Y30481574D01*
X4829577Y30631784D01*
X4750520Y30768716D01*
X4638716Y30880520D01*
X4501784Y30959577D01*
X4501781Y30959578D01*
X4501779Y30959579D01*
X4349059Y31000500D01*
X4349057Y31000500D01*
X4190943Y31000500D01*
X4190941Y31000500D01*
X4038220Y30959579D01*
X4038214Y30959576D01*
X3901283Y30880520D01*
X3789480Y30768717D01*
X3710424Y30631786D01*
X3710421Y30631780D01*
X3669500Y30479060D01*
X566469Y30479060D01*
X567112Y31543547D01*
X15155649Y31543547D01*
X15176733Y31410421D01*
X15237924Y31290328D01*
X15237925Y31290327D01*
X15333233Y31195019D01*
X15401962Y31160000D01*
X15453325Y31133829D01*
X15453326Y31133828D01*
X15472621Y31130773D01*
X15530147Y31121662D01*
X15578438Y31092070D01*
X15591660Y31060150D01*
X15603828Y30983327D01*
X15664195Y30864849D01*
X15665019Y30863233D01*
X15760327Y30767925D01*
X15880420Y30706735D01*
X15880420Y30706734D01*
X15898622Y30703852D01*
X16013547Y30685649D01*
X16146673Y30706734D01*
X16266767Y30767925D01*
X16362075Y30863233D01*
X16423266Y30983327D01*
X16444351Y31116453D01*
X16426148Y31231378D01*
X16423266Y31249580D01*
X16367093Y31359825D01*
X29181657Y31359825D01*
X29202741Y31226699D01*
X29263932Y31106606D01*
X29263933Y31106605D01*
X29359241Y31011297D01*
X29479335Y30950106D01*
X29612461Y30929021D01*
X29612462Y30929022D01*
X29614756Y30928658D01*
X29663047Y30899065D01*
X29676269Y30867145D01*
X29697717Y30731724D01*
X29697718Y30731723D01*
X29748641Y30631780D01*
X29758909Y30611629D01*
X29854217Y30516321D01*
X29974310Y30455131D01*
X29974310Y30455130D01*
X29992512Y30452248D01*
X30107437Y30434045D01*
X30240563Y30455130D01*
X30360657Y30516321D01*
X30455965Y30611629D01*
X30474236Y30647488D01*
X31481708Y30647488D01*
X31502792Y30514362D01*
X31563983Y30394269D01*
X31563984Y30394268D01*
X31659292Y30298960D01*
X31779386Y30237769D01*
X31912512Y30216684D01*
X31912513Y30216685D01*
X31914807Y30216321D01*
X31963098Y30186728D01*
X31976320Y30154808D01*
X31997768Y30019387D01*
X31997769Y30019386D01*
X32054740Y29907573D01*
X32058960Y29899292D01*
X32154268Y29803984D01*
X32274361Y29742794D01*
X32274361Y29742793D01*
X32292563Y29739911D01*
X32407488Y29721708D01*
X32540614Y29742793D01*
X32660708Y29803984D01*
X32756016Y29899292D01*
X32817207Y30019386D01*
X32833143Y30120000D01*
X42919819Y30120000D01*
X42938426Y30002518D01*
X42938426Y30002517D01*
X42949807Y29980181D01*
X42992427Y29896535D01*
X43076535Y29812427D01*
X43182518Y29758426D01*
X43300000Y29739819D01*
X43417482Y29758426D01*
X43523465Y29812427D01*
X43607573Y29896535D01*
X43661574Y30002518D01*
X43662759Y30010000D01*
X48929819Y30010000D01*
X48948426Y29892518D01*
X48948426Y29892517D01*
X48974969Y29840425D01*
X49002427Y29786535D01*
X49086535Y29702427D01*
X49192518Y29648426D01*
X49310000Y29629819D01*
X49427482Y29648426D01*
X49533465Y29702427D01*
X49617573Y29786535D01*
X49671574Y29892518D01*
X49688597Y30000000D01*
X51594819Y30000000D01*
X51613426Y29882518D01*
X51613426Y29882517D01*
X51634873Y29840425D01*
X51667427Y29776535D01*
X51751535Y29692427D01*
X51857518Y29638426D01*
X51975000Y29619819D01*
X52092482Y29638426D01*
X52198465Y29692427D01*
X52282573Y29776535D01*
X52336574Y29882518D01*
X52355181Y30000000D01*
X52336574Y30117482D01*
X52282573Y30223465D01*
X52198465Y30307573D01*
X52128019Y30343467D01*
X52092483Y30361574D01*
X51975000Y30380181D01*
X51857517Y30361574D01*
X51857516Y30361574D01*
X51751533Y30307572D01*
X51667428Y30223467D01*
X51613426Y30117484D01*
X51613426Y30117483D01*
X51594819Y30000000D01*
X49688597Y30000000D01*
X49690181Y30010000D01*
X49671574Y30127482D01*
X49617573Y30233465D01*
X49533465Y30317573D01*
X49481484Y30344059D01*
X49427483Y30371574D01*
X49310000Y30390181D01*
X49192517Y30371574D01*
X49192516Y30371574D01*
X49086533Y30317572D01*
X49002428Y30233467D01*
X48948426Y30127484D01*
X48948426Y30127483D01*
X48929819Y30010000D01*
X43662759Y30010000D01*
X43680181Y30120000D01*
X43661574Y30237482D01*
X43607573Y30343465D01*
X43523465Y30427573D01*
X43469379Y30455131D01*
X43417483Y30481574D01*
X43300000Y30500181D01*
X43182517Y30481574D01*
X43182516Y30481574D01*
X43076533Y30427572D01*
X42992428Y30343467D01*
X42938426Y30237484D01*
X42938426Y30237483D01*
X42919819Y30120000D01*
X32833143Y30120000D01*
X32838292Y30152512D01*
X32817207Y30285638D01*
X32817207Y30285639D01*
X32756016Y30405732D01*
X32660707Y30501041D01*
X32540614Y30562231D01*
X32540613Y30562232D01*
X32405192Y30583680D01*
X32356901Y30613273D01*
X32343679Y30645193D01*
X32343316Y30647488D01*
X32322231Y30780614D01*
X32261040Y30900708D01*
X32165732Y30996016D01*
X32165731Y30996017D01*
X32045638Y31057207D01*
X32045638Y31057208D01*
X31912512Y31078292D01*
X31779385Y31057208D01*
X31779385Y31057207D01*
X31659292Y30996017D01*
X31563983Y30900708D01*
X31502793Y30780615D01*
X31502792Y30780615D01*
X31481708Y30647488D01*
X30474236Y30647488D01*
X30517156Y30731723D01*
X30538241Y30864849D01*
X30517156Y30997975D01*
X30517156Y30997976D01*
X30455965Y31118069D01*
X30360656Y31213378D01*
X30240563Y31274568D01*
X30240562Y31274569D01*
X30105141Y31296017D01*
X30056850Y31325610D01*
X30043628Y31357530D01*
X30041705Y31369673D01*
X30022180Y31492951D01*
X29960989Y31613045D01*
X29929034Y31645000D01*
X44304819Y31645000D01*
X44323426Y31527518D01*
X44323426Y31527517D01*
X44330585Y31513467D01*
X44377427Y31421535D01*
X44461535Y31337427D01*
X44567518Y31283426D01*
X44685000Y31264819D01*
X44802482Y31283426D01*
X44815384Y31290000D01*
X48539819Y31290000D01*
X48558426Y31172518D01*
X48558426Y31172517D01*
X48584338Y31121662D01*
X48612427Y31066535D01*
X48696535Y30982427D01*
X48802518Y30928426D01*
X48920000Y30909819D01*
X49037482Y30928426D01*
X49143465Y30982427D01*
X49227573Y31066535D01*
X49275196Y31160000D01*
X49889819Y31160000D01*
X49908426Y31042518D01*
X49908426Y31042517D01*
X49924334Y31011297D01*
X49962427Y30936535D01*
X50046535Y30852427D01*
X50152518Y30798426D01*
X50270000Y30779819D01*
X50387482Y30798426D01*
X50493465Y30852427D01*
X50577573Y30936535D01*
X50631574Y31042518D01*
X50650181Y31160000D01*
X50631574Y31277482D01*
X50577573Y31383465D01*
X50493465Y31467573D01*
X50441484Y31494059D01*
X50387483Y31521574D01*
X50270000Y31540181D01*
X50152517Y31521574D01*
X50152516Y31521574D01*
X50046533Y31467572D01*
X49962428Y31383467D01*
X49908426Y31277484D01*
X49908426Y31277483D01*
X49889819Y31160000D01*
X49275196Y31160000D01*
X49281574Y31172518D01*
X49300181Y31290000D01*
X49281574Y31407482D01*
X49227573Y31513465D01*
X49143465Y31597573D01*
X49138702Y31600000D01*
X51599819Y31600000D01*
X51618426Y31482518D01*
X51618426Y31482517D01*
X51645941Y31428516D01*
X51672427Y31376535D01*
X51756535Y31292427D01*
X51862518Y31238426D01*
X51980000Y31219819D01*
X52097482Y31238426D01*
X52203465Y31292427D01*
X52287573Y31376535D01*
X52341574Y31482518D01*
X52360181Y31600000D01*
X52341574Y31717482D01*
X52287573Y31823465D01*
X52203465Y31907573D01*
X52151484Y31934059D01*
X52097483Y31961574D01*
X51980000Y31980181D01*
X51862517Y31961574D01*
X51862516Y31961574D01*
X51756533Y31907572D01*
X51672428Y31823467D01*
X51618426Y31717484D01*
X51618426Y31717483D01*
X51599819Y31600000D01*
X49138702Y31600000D01*
X49091484Y31624059D01*
X49037483Y31651574D01*
X48920000Y31670181D01*
X48802517Y31651574D01*
X48802516Y31651574D01*
X48696533Y31597572D01*
X48612428Y31513467D01*
X48558426Y31407484D01*
X48558426Y31407483D01*
X48539819Y31290000D01*
X44815384Y31290000D01*
X44908465Y31337427D01*
X44992573Y31421535D01*
X45046574Y31527518D01*
X45065181Y31645000D01*
X45046574Y31762482D01*
X44992573Y31868465D01*
X44908465Y31952573D01*
X44850933Y31981887D01*
X44802483Y32006574D01*
X44685000Y32025181D01*
X44567517Y32006574D01*
X44567516Y32006574D01*
X44461533Y31952572D01*
X44377428Y31868467D01*
X44323426Y31762484D01*
X44323426Y31762483D01*
X44304819Y31645000D01*
X29929034Y31645000D01*
X29865681Y31708353D01*
X29865680Y31708354D01*
X29745587Y31769544D01*
X29745587Y31769545D01*
X29612461Y31790629D01*
X29479334Y31769545D01*
X29479334Y31769544D01*
X29359241Y31708354D01*
X29263932Y31613045D01*
X29202742Y31492952D01*
X29202741Y31492952D01*
X29181657Y31359825D01*
X16367093Y31359825D01*
X16362075Y31369673D01*
X16266766Y31464982D01*
X16146673Y31526172D01*
X16069850Y31538340D01*
X16021559Y31567933D01*
X16008338Y31599854D01*
X15996172Y31676674D01*
X15996171Y31676675D01*
X15980030Y31708353D01*
X15934981Y31796767D01*
X15839673Y31892075D01*
X15839672Y31892076D01*
X15719579Y31953266D01*
X15719579Y31953267D01*
X15586453Y31974351D01*
X15453326Y31953267D01*
X15453326Y31953266D01*
X15333233Y31892076D01*
X15237924Y31796767D01*
X15176734Y31676674D01*
X15176733Y31676674D01*
X15155649Y31543547D01*
X567112Y31543547D01*
X567694Y32508501D01*
X3771278Y32508501D01*
X3771279Y32508500D01*
X4111918Y32508500D01*
X4100001Y32479730D01*
X4100001Y32380270D01*
X4111918Y32351500D01*
X3771278Y32351500D01*
X3808161Y32213852D01*
X3808163Y32213847D01*
X3881886Y32086156D01*
X3986155Y31981887D01*
X4113846Y31908164D01*
X4113851Y31908162D01*
X4256272Y31870001D01*
X4256273Y31870000D01*
X4721500Y31870000D01*
X4721500Y32179988D01*
X4878500Y32179988D01*
X4878500Y31870000D01*
X5343727Y31870000D01*
X5343727Y31870001D01*
X5486148Y31908162D01*
X5486153Y31908164D01*
X5613844Y31981887D01*
X5718114Y32086157D01*
X5757627Y32154596D01*
X5802560Y32189075D01*
X5858712Y32181683D01*
X5874039Y32169923D01*
X5876535Y32167427D01*
X5982518Y32113426D01*
X6100000Y32094819D01*
X6217482Y32113426D01*
X6281901Y32146250D01*
X6338361Y32150694D01*
X6381429Y32113911D01*
X6388584Y32091891D01*
X6402492Y32004078D01*
X6402492Y32004077D01*
X6424149Y31961574D01*
X6456493Y31898095D01*
X6540601Y31813987D01*
X6646584Y31759986D01*
X6764066Y31741379D01*
X6881548Y31759986D01*
X6987531Y31813987D01*
X7071639Y31898095D01*
X7125640Y32004078D01*
X7144247Y32121560D01*
X7130939Y32205584D01*
X7144161Y32260655D01*
X7192452Y32290248D01*
X7247524Y32277026D01*
X7256354Y32269485D01*
X7294780Y32231059D01*
X7414873Y32169869D01*
X7414873Y32169868D01*
X7430273Y32167429D01*
X7548000Y32148783D01*
X7681126Y32169868D01*
X7801220Y32231059D01*
X7801222Y32231062D01*
X7805936Y32234485D01*
X7807918Y32231757D01*
X7850000Y32249187D01*
X7892081Y32231757D01*
X7894064Y32234485D01*
X7898780Y32231059D01*
X8018873Y32169869D01*
X8018873Y32169868D01*
X8034273Y32167429D01*
X8152000Y32148783D01*
X8285126Y32169868D01*
X8405220Y32231059D01*
X8449161Y32275000D01*
X9144819Y32275000D01*
X9163426Y32157518D01*
X9163426Y32157517D01*
X9183455Y32118208D01*
X9217427Y32051535D01*
X9301535Y31967427D01*
X9407518Y31913426D01*
X9525000Y31894819D01*
X9642482Y31913426D01*
X9748465Y31967427D01*
X9832573Y32051535D01*
X9850067Y32085871D01*
X9893132Y32122651D01*
X9949595Y32118208D01*
X9980083Y32089277D01*
X9981882Y32086160D01*
X10086155Y31981887D01*
X10213846Y31908164D01*
X10213851Y31908162D01*
X10356272Y31870001D01*
X10356273Y31870000D01*
X10821500Y31870000D01*
X10821500Y32179988D01*
X10978500Y32179988D01*
X10978500Y31870000D01*
X11443727Y31870000D01*
X11443727Y31870001D01*
X11586148Y31908162D01*
X11586153Y31908164D01*
X11713844Y31981887D01*
X11818113Y32086156D01*
X11891836Y32213847D01*
X11891838Y32213852D01*
X11928721Y32351500D01*
X11588082Y32351500D01*
X11599999Y32380270D01*
X11599999Y32479730D01*
X11588082Y32508500D01*
X11928721Y32508500D01*
X11928721Y32508501D01*
X11891838Y32646149D01*
X11891836Y32646154D01*
X11818113Y32773845D01*
X11713844Y32878114D01*
X11586153Y32951837D01*
X11586148Y32951839D01*
X11443727Y32990000D01*
X10978500Y32990000D01*
X10978500Y32680012D01*
X10821500Y32680012D01*
X10821500Y32990000D01*
X10356273Y32990000D01*
X10213851Y32951839D01*
X10213846Y32951837D01*
X10086155Y32878114D01*
X9981886Y32773845D01*
X9908163Y32646154D01*
X9908162Y32646150D01*
X9894151Y32593863D01*
X9859672Y32548930D01*
X9803519Y32541539D01*
X9770347Y32560691D01*
X9748466Y32582572D01*
X9748465Y32582573D01*
X9659296Y32628007D01*
X9642483Y32636574D01*
X9525000Y32655181D01*
X9407517Y32636574D01*
X9407516Y32636574D01*
X9301533Y32582572D01*
X9217428Y32498467D01*
X9163426Y32392484D01*
X9163426Y32392483D01*
X9144819Y32275000D01*
X8449161Y32275000D01*
X8500528Y32326367D01*
X8561719Y32446461D01*
X8582804Y32579587D01*
X8561719Y32712713D01*
X8561719Y32712714D01*
X8500528Y32832807D01*
X8405219Y32928116D01*
X8285126Y32989306D01*
X8285126Y32989307D01*
X8152000Y33010391D01*
X8018873Y32989307D01*
X8018873Y32989306D01*
X7898780Y32928116D01*
X7894064Y32924689D01*
X7892081Y32927418D01*
X7850000Y32909987D01*
X7807918Y32927418D01*
X7805936Y32924689D01*
X7801219Y32928116D01*
X7681126Y32989306D01*
X7681126Y32989307D01*
X7548000Y33010391D01*
X7414873Y32989307D01*
X7414873Y32989306D01*
X7294780Y32928116D01*
X7199471Y32832807D01*
X7138281Y32712714D01*
X7138280Y32712714D01*
X7117196Y32579587D01*
X7134284Y32471697D01*
X7121062Y32416625D01*
X7072771Y32387032D01*
X7017699Y32400254D01*
X7008869Y32407795D01*
X6987532Y32429132D01*
X6987531Y32429133D01*
X6935550Y32455619D01*
X6881549Y32483134D01*
X6764066Y32501741D01*
X6646583Y32483134D01*
X6582165Y32450311D01*
X6525703Y32445868D01*
X6482635Y32482651D01*
X6475482Y32504668D01*
X6461574Y32592482D01*
X6461574Y32592483D01*
X6461573Y32592485D01*
X6415756Y32682405D01*
X6411312Y32738868D01*
X6429365Y32768327D01*
X6487571Y32826533D01*
X6487573Y32826535D01*
X6541574Y32932518D01*
X6560181Y33050000D01*
X6541574Y33167482D01*
X6531004Y33188227D01*
X14976246Y33188227D01*
X14997330Y33055101D01*
X15058521Y32935008D01*
X15058522Y32935007D01*
X15153830Y32839699D01*
X15258959Y32786133D01*
X15273922Y32778509D01*
X15273923Y32778508D01*
X15293218Y32775453D01*
X15350744Y32766342D01*
X15399035Y32736750D01*
X15412257Y32704830D01*
X15424425Y32628007D01*
X15485316Y32508500D01*
X15485616Y32507913D01*
X15580924Y32412605D01*
X15701017Y32351415D01*
X15701017Y32351414D01*
X15719219Y32348532D01*
X15834144Y32330329D01*
X15967270Y32351414D01*
X16087364Y32412605D01*
X16182672Y32507913D01*
X16243863Y32628007D01*
X16264948Y32761133D01*
X16246227Y32879335D01*
X16243863Y32894260D01*
X16182672Y33014353D01*
X16087363Y33109662D01*
X15967270Y33170852D01*
X15890447Y33183020D01*
X15842156Y33212613D01*
X15828935Y33244534D01*
X15816769Y33321354D01*
X15816768Y33321355D01*
X15801201Y33351907D01*
X15755578Y33441447D01*
X15676742Y33520283D01*
X19839434Y33520283D01*
X19858041Y33402801D01*
X19858041Y33402800D01*
X19881086Y33357573D01*
X19912042Y33296818D01*
X19996150Y33212710D01*
X20102133Y33158709D01*
X20219615Y33140102D01*
X20337097Y33158709D01*
X20443080Y33212710D01*
X20527188Y33296818D01*
X20581189Y33402801D01*
X20599796Y33520283D01*
X20581189Y33637765D01*
X20527188Y33743748D01*
X20443080Y33827856D01*
X20391099Y33854342D01*
X20337098Y33881857D01*
X20238405Y33897488D01*
X25981708Y33897488D01*
X26002792Y33764362D01*
X26063983Y33644269D01*
X26063984Y33644268D01*
X26159292Y33548960D01*
X26279386Y33487769D01*
X26412512Y33466684D01*
X26412513Y33466685D01*
X26414807Y33466321D01*
X26463098Y33436728D01*
X26476320Y33404808D01*
X26497768Y33269387D01*
X26497769Y33269386D01*
X26554161Y33158709D01*
X26558960Y33149292D01*
X26654268Y33053984D01*
X26774361Y32992794D01*
X26774361Y32992793D01*
X26777146Y32992352D01*
X26907488Y32971708D01*
X27040614Y32992793D01*
X27160708Y33053984D01*
X27256016Y33149292D01*
X27317207Y33269386D01*
X27330640Y33354202D01*
X27997009Y33354202D01*
X28018093Y33221076D01*
X28079284Y33100983D01*
X28079285Y33100982D01*
X28174593Y33005674D01*
X28294687Y32944483D01*
X28427813Y32923398D01*
X28427814Y32923399D01*
X28430108Y32923035D01*
X28478399Y32893442D01*
X28491621Y32861522D01*
X28513069Y32726101D01*
X28513070Y32726100D01*
X28558685Y32636574D01*
X28574261Y32606006D01*
X28669569Y32510698D01*
X28789662Y32449508D01*
X28789662Y32449507D01*
X28807864Y32446625D01*
X28922789Y32428422D01*
X29055915Y32449507D01*
X29176009Y32510698D01*
X29271317Y32606006D01*
X29293733Y32650000D01*
X48944819Y32650000D01*
X48963426Y32532518D01*
X48963426Y32532517D01*
X48980776Y32498467D01*
X49017427Y32426535D01*
X49101535Y32342427D01*
X49207518Y32288426D01*
X49325000Y32269819D01*
X49442482Y32288426D01*
X49548465Y32342427D01*
X49632573Y32426535D01*
X49686574Y32532518D01*
X49705181Y32650000D01*
X49686574Y32767482D01*
X49632573Y32873465D01*
X49548465Y32957573D01*
X49496484Y32984059D01*
X49442483Y33011574D01*
X49389282Y33020000D01*
X51569819Y33020000D01*
X51588426Y32902518D01*
X51588426Y32902517D01*
X51592634Y32894259D01*
X51642427Y32796535D01*
X51726535Y32712427D01*
X51832518Y32658426D01*
X51950000Y32639819D01*
X52067482Y32658426D01*
X52173465Y32712427D01*
X52257573Y32796535D01*
X52311574Y32902518D01*
X52330181Y33020000D01*
X52311574Y33137482D01*
X52257573Y33243465D01*
X52173465Y33327573D01*
X52114587Y33357573D01*
X52067483Y33381574D01*
X51950000Y33400181D01*
X51832517Y33381574D01*
X51832516Y33381574D01*
X51726533Y33327572D01*
X51642428Y33243467D01*
X51588426Y33137484D01*
X51588426Y33137483D01*
X51569819Y33020000D01*
X49389282Y33020000D01*
X49325000Y33030181D01*
X49207517Y33011574D01*
X49207516Y33011574D01*
X49101533Y32957572D01*
X49017428Y32873467D01*
X48963426Y32767484D01*
X48963426Y32767483D01*
X48944819Y32650000D01*
X29293733Y32650000D01*
X29332508Y32726100D01*
X29353593Y32859226D01*
X29335390Y32974151D01*
X29332508Y32992353D01*
X29271317Y33112446D01*
X29176008Y33207755D01*
X29055915Y33268945D01*
X29055914Y33268946D01*
X28920493Y33290394D01*
X28872202Y33319987D01*
X28858980Y33351907D01*
X28858083Y33357573D01*
X28837532Y33487328D01*
X28776341Y33607422D01*
X28681033Y33702730D01*
X28681032Y33702731D01*
X28560939Y33763921D01*
X28560939Y33763922D01*
X28427813Y33785006D01*
X28294686Y33763922D01*
X28294686Y33763921D01*
X28174593Y33702731D01*
X28079284Y33607422D01*
X28018094Y33487329D01*
X28018093Y33487329D01*
X27997009Y33354202D01*
X27330640Y33354202D01*
X27338292Y33402512D01*
X27317207Y33535638D01*
X27317207Y33535639D01*
X27256016Y33655732D01*
X27160707Y33751041D01*
X27040614Y33812231D01*
X27040613Y33812232D01*
X26905192Y33833680D01*
X26856901Y33863273D01*
X26843679Y33895193D01*
X26843316Y33897488D01*
X26822231Y34030614D01*
X26761040Y34150708D01*
X26665732Y34246016D01*
X26665731Y34246017D01*
X26545638Y34307207D01*
X26545638Y34307208D01*
X26412512Y34328292D01*
X26279385Y34307208D01*
X26279385Y34307207D01*
X26159292Y34246017D01*
X26063983Y34150708D01*
X26002793Y34030615D01*
X26002792Y34030615D01*
X25981708Y33897488D01*
X20238405Y33897488D01*
X20219615Y33900464D01*
X20102132Y33881857D01*
X20102131Y33881857D01*
X19996148Y33827855D01*
X19912043Y33743750D01*
X19858041Y33637767D01*
X19858041Y33637766D01*
X19839434Y33520283D01*
X15676742Y33520283D01*
X15660270Y33536755D01*
X15660269Y33536756D01*
X15540176Y33597946D01*
X15540176Y33597947D01*
X15407050Y33619031D01*
X15273923Y33597947D01*
X15273923Y33597946D01*
X15153830Y33536756D01*
X15058521Y33441447D01*
X14997331Y33321354D01*
X14997330Y33321354D01*
X14976246Y33188227D01*
X6531004Y33188227D01*
X6487573Y33273465D01*
X6403465Y33357573D01*
X6351484Y33384059D01*
X6297483Y33411574D01*
X6180000Y33430181D01*
X6062517Y33411574D01*
X6062516Y33411574D01*
X5956533Y33357572D01*
X5872428Y33273467D01*
X5818426Y33167484D01*
X5818426Y33167483D01*
X5799819Y33050000D01*
X5818426Y32932518D01*
X5818427Y32932514D01*
X5864243Y32842595D01*
X5868687Y32786133D01*
X5850635Y32756674D01*
X5841097Y32747136D01*
X5788771Y32725462D01*
X5736445Y32747136D01*
X5724685Y32762462D01*
X5718113Y32773845D01*
X5613844Y32878114D01*
X5486153Y32951837D01*
X5486148Y32951839D01*
X5343727Y32990000D01*
X4878500Y32990000D01*
X4878500Y32680012D01*
X4721500Y32680012D01*
X4721500Y32990000D01*
X4256273Y32990000D01*
X4113851Y32951839D01*
X4113846Y32951837D01*
X3986155Y32878114D01*
X3881886Y32773845D01*
X3808163Y32646154D01*
X3808161Y32646149D01*
X3771278Y32508501D01*
X567694Y32508501D01*
X568897Y34500000D01*
X15299196Y34500000D01*
X15320280Y34366874D01*
X15381471Y34246781D01*
X15381472Y34246780D01*
X15476780Y34151472D01*
X15596873Y34090282D01*
X15596873Y34090281D01*
X15615075Y34087399D01*
X15730000Y34069196D01*
X15863126Y34090281D01*
X15983220Y34151472D01*
X16078528Y34246780D01*
X16139719Y34366874D01*
X16160804Y34500000D01*
X16139719Y34633126D01*
X16139719Y34633127D01*
X16078528Y34753220D01*
X15983219Y34848529D01*
X15863126Y34909719D01*
X15863126Y34909720D01*
X15730000Y34930804D01*
X15596873Y34909720D01*
X15596873Y34909719D01*
X15476780Y34848529D01*
X15381471Y34753220D01*
X15320281Y34633127D01*
X15320280Y34633127D01*
X15299196Y34500000D01*
X568897Y34500000D01*
X569589Y35645816D01*
X17122061Y35645816D01*
X17143145Y35512690D01*
X17204336Y35392597D01*
X17204337Y35392596D01*
X17299645Y35297288D01*
X17419738Y35236098D01*
X17419738Y35236097D01*
X17437940Y35233215D01*
X17552865Y35215012D01*
X17685991Y35236097D01*
X17806085Y35297288D01*
X17901393Y35392596D01*
X17962584Y35512690D01*
X17974750Y35589513D01*
X18004342Y35637803D01*
X18036261Y35651024D01*
X18113085Y35663191D01*
X18160771Y35687488D01*
X25481708Y35687488D01*
X25502792Y35554362D01*
X25563983Y35434269D01*
X25563984Y35434268D01*
X25659292Y35338960D01*
X25779386Y35277769D01*
X25912512Y35256684D01*
X25912513Y35256685D01*
X25914807Y35256321D01*
X25963098Y35226728D01*
X25976320Y35194808D01*
X25997768Y35059387D01*
X25997769Y35059386D01*
X26058960Y34939292D01*
X26154268Y34843984D01*
X26274361Y34782794D01*
X26274361Y34782793D01*
X26292563Y34779911D01*
X26407488Y34761708D01*
X26540614Y34782793D01*
X26660708Y34843984D01*
X26756016Y34939292D01*
X26817207Y35059386D01*
X26838292Y35192512D01*
X26817207Y35325638D01*
X26817207Y35325639D01*
X26756016Y35445732D01*
X26660707Y35541041D01*
X26540614Y35602231D01*
X26540613Y35602232D01*
X26405192Y35623680D01*
X26356901Y35653273D01*
X26343679Y35685193D01*
X26343167Y35688427D01*
X26322231Y35820614D01*
X26261040Y35940708D01*
X26165732Y36036016D01*
X26165731Y36036017D01*
X26045638Y36097207D01*
X26045638Y36097208D01*
X25912512Y36118292D01*
X25779385Y36097208D01*
X25779385Y36097207D01*
X25659292Y36036017D01*
X25563983Y35940708D01*
X25502793Y35820615D01*
X25502792Y35820615D01*
X25481708Y35687488D01*
X18160771Y35687488D01*
X18233179Y35724382D01*
X18328487Y35819690D01*
X18389678Y35939784D01*
X18410763Y36072910D01*
X18389678Y36206036D01*
X18389678Y36206037D01*
X18328487Y36326130D01*
X18233178Y36421439D01*
X18113085Y36482629D01*
X18113085Y36482630D01*
X17979959Y36503714D01*
X17846832Y36482630D01*
X17846832Y36482629D01*
X17726739Y36421439D01*
X17631430Y36326130D01*
X17570240Y36206037D01*
X17558072Y36129215D01*
X17528478Y36080924D01*
X17496560Y36067703D01*
X17419738Y36055535D01*
X17299645Y35994345D01*
X17204336Y35899036D01*
X17143146Y35778943D01*
X17143145Y35778943D01*
X17122061Y35645816D01*
X569589Y35645816D01*
X569833Y36050000D01*
X3294819Y36050000D01*
X3313426Y35932518D01*
X3313426Y35932517D01*
X3330486Y35899036D01*
X3367427Y35826535D01*
X3451535Y35742427D01*
X3557518Y35688426D01*
X3675000Y35669819D01*
X3792482Y35688426D01*
X3898465Y35742427D01*
X3982573Y35826535D01*
X4036574Y35932518D01*
X4055181Y36050000D01*
X4036574Y36167482D01*
X3982573Y36273465D01*
X3898465Y36357573D01*
X3846484Y36384059D01*
X3792483Y36411574D01*
X3675000Y36430181D01*
X3557517Y36411574D01*
X3557516Y36411574D01*
X3451533Y36357572D01*
X3367428Y36273467D01*
X3313426Y36167484D01*
X3313426Y36167483D01*
X3294819Y36050000D01*
X569833Y36050000D01*
X570153Y36580546D01*
X591859Y36632857D01*
X644153Y36654500D01*
X4762920Y36654500D01*
X4815246Y36632826D01*
X4836920Y36580500D01*
X4836920Y36113786D01*
X6639632Y36113786D01*
X6639632Y36580500D01*
X6661306Y36632826D01*
X6713632Y36654500D01*
X10677315Y36654500D01*
X10677321Y36654500D01*
X10889771Y36685046D01*
X10889778Y36685048D01*
X11095706Y36745514D01*
X11095708Y36745515D01*
X11095712Y36745516D01*
X11290951Y36834679D01*
X11471514Y36950720D01*
X11633725Y37091276D01*
X11774281Y37253487D01*
X11890321Y37434050D01*
X11979484Y37629289D01*
X11982228Y37638632D01*
X12039952Y37835223D01*
X12039952Y37835224D01*
X12039954Y37835230D01*
X12070500Y38047681D01*
X12070500Y38154998D01*
X12070500Y38220891D01*
X12070500Y38220892D01*
X12070500Y39425000D01*
X21594819Y39425000D01*
X21613426Y39307518D01*
X21613426Y39307517D01*
X21627355Y39280181D01*
X21667427Y39201535D01*
X21751535Y39117427D01*
X21857518Y39063426D01*
X21975000Y39044819D01*
X22092482Y39063426D01*
X22129748Y39082415D01*
X22186209Y39086860D01*
X22229277Y39050078D01*
X22236433Y39004906D01*
X22219819Y38900002D01*
X22219819Y38900001D01*
X22238426Y38782518D01*
X22238426Y38782517D01*
X22265941Y38728516D01*
X22292427Y38676535D01*
X22376535Y38592427D01*
X22482518Y38538426D01*
X22600000Y38519819D01*
X22717482Y38538426D01*
X22823465Y38592427D01*
X22907573Y38676535D01*
X22961574Y38782518D01*
X22980181Y38900000D01*
X22961574Y39017482D01*
X22907573Y39123465D01*
X22823465Y39207573D01*
X22754748Y39242586D01*
X22717483Y39261574D01*
X22600000Y39280181D01*
X22482517Y39261574D01*
X22482513Y39261573D01*
X22445250Y39242586D01*
X22388788Y39238142D01*
X22345721Y39274925D01*
X22338566Y39320096D01*
X22355181Y39425000D01*
X22336574Y39542482D01*
X22282573Y39648465D01*
X22198465Y39732573D01*
X22146484Y39759059D01*
X22092483Y39786574D01*
X21975000Y39805181D01*
X21857517Y39786574D01*
X21857516Y39786574D01*
X21751533Y39732572D01*
X21667428Y39648467D01*
X21613426Y39542484D01*
X21613426Y39542483D01*
X21594819Y39425000D01*
X12070500Y39425000D01*
X12070500Y39890000D01*
X30079819Y39890000D01*
X30098426Y39772518D01*
X30098426Y39772517D01*
X30118779Y39732573D01*
X30152427Y39666535D01*
X30236535Y39582427D01*
X30342518Y39528426D01*
X30460000Y39509819D01*
X30577482Y39528426D01*
X30683465Y39582427D01*
X30767573Y39666535D01*
X30821574Y39772518D01*
X30840181Y39890000D01*
X30837013Y39910000D01*
X31219819Y39910000D01*
X31238426Y39792518D01*
X31238426Y39792517D01*
X31248617Y39772517D01*
X31292427Y39686535D01*
X31376535Y39602427D01*
X31482518Y39548426D01*
X31600000Y39529819D01*
X31717482Y39548426D01*
X31823465Y39602427D01*
X31907573Y39686535D01*
X31961574Y39792518D01*
X31980181Y39910000D01*
X31961574Y40027482D01*
X31907573Y40133465D01*
X31823465Y40217573D01*
X31771484Y40244059D01*
X31717483Y40271574D01*
X31600000Y40290181D01*
X31482517Y40271574D01*
X31482516Y40271574D01*
X31376533Y40217572D01*
X31292428Y40133467D01*
X31238426Y40027484D01*
X31238426Y40027483D01*
X31219819Y39910000D01*
X30837013Y39910000D01*
X30821574Y40007482D01*
X30767573Y40113465D01*
X30683465Y40197573D01*
X30631484Y40224059D01*
X30577483Y40251574D01*
X30460000Y40270181D01*
X30342517Y40251574D01*
X30342516Y40251574D01*
X30236533Y40197572D01*
X30152428Y40113467D01*
X30098426Y40007484D01*
X30098426Y40007483D01*
X30079819Y39890000D01*
X12070500Y39890000D01*
X12070500Y41568691D01*
X14869500Y41568691D01*
X14869500Y41391309D01*
X14880930Y41333844D01*
X14904104Y41217340D01*
X14904107Y41217330D01*
X14971985Y41053456D01*
X14971986Y41053454D01*
X14971987Y41053453D01*
X15070536Y40905965D01*
X15195965Y40780536D01*
X15343453Y40681987D01*
X15507334Y40614106D01*
X15681309Y40579500D01*
X15681311Y40579500D01*
X15858689Y40579500D01*
X15858691Y40579500D01*
X16032666Y40614106D01*
X16196547Y40681987D01*
X16344035Y40780536D01*
X16469464Y40905965D01*
X16568013Y41053453D01*
X16635894Y41217334D01*
X16670500Y41391309D01*
X16670500Y41568691D01*
X16635894Y41742666D01*
X16583761Y41868528D01*
X16568014Y41906545D01*
X16562955Y41914116D01*
X16469464Y42054035D01*
X16344035Y42179464D01*
X16325462Y42191874D01*
X16196544Y42278015D01*
X16032670Y42345893D01*
X16032660Y42345896D01*
X15916156Y42369070D01*
X15858691Y42380500D01*
X15681309Y42380500D01*
X15631989Y42370690D01*
X15507339Y42345896D01*
X15507329Y42345893D01*
X15343455Y42278015D01*
X15195968Y42179467D01*
X15070533Y42054032D01*
X14971985Y41906545D01*
X14904107Y41742671D01*
X14904104Y41742661D01*
X14886295Y41653127D01*
X14869500Y41568691D01*
X12070500Y41568691D01*
X12070500Y43025000D01*
X24021217Y43025000D01*
X24042301Y42891874D01*
X24103492Y42771781D01*
X24147947Y42727326D01*
X24169621Y42675000D01*
X24147947Y42622674D01*
X24103493Y42578221D01*
X24103492Y42578220D01*
X24042302Y42458127D01*
X24042301Y42458127D01*
X24021217Y42325000D01*
X24042301Y42191874D01*
X24103492Y42071781D01*
X24103493Y42071780D01*
X24198801Y41976472D01*
X24204717Y41973458D01*
X24241500Y41930395D01*
X24237059Y41873932D01*
X24223449Y41855198D01*
X24141471Y41773220D01*
X24080281Y41653127D01*
X24080280Y41653127D01*
X24059196Y41520000D01*
X24080280Y41386874D01*
X24141471Y41266781D01*
X24185926Y41222326D01*
X24207600Y41170000D01*
X24185926Y41117674D01*
X24141472Y41073221D01*
X24141471Y41073220D01*
X24080281Y40953127D01*
X24080280Y40953127D01*
X24059196Y40820000D01*
X24080280Y40686874D01*
X24141471Y40566781D01*
X24141472Y40566780D01*
X24236780Y40471472D01*
X24356873Y40410282D01*
X24356873Y40410281D01*
X24375075Y40407399D01*
X24490000Y40389196D01*
X24623126Y40410281D01*
X24743220Y40471472D01*
X24838528Y40566780D01*
X24899719Y40686874D01*
X24920804Y40820000D01*
X24899719Y40953126D01*
X24899719Y40953127D01*
X24838528Y41073220D01*
X24794074Y41117674D01*
X24772400Y41170000D01*
X24794074Y41222326D01*
X24838528Y41266780D01*
X24899719Y41386874D01*
X24920804Y41520000D01*
X24899719Y41653126D01*
X24899719Y41653127D01*
X24838528Y41773220D01*
X24743221Y41868527D01*
X24743220Y41868528D01*
X24737301Y41871544D01*
X24700519Y41914608D01*
X24704962Y41971071D01*
X24718568Y41989800D01*
X24800549Y42071780D01*
X24861740Y42191874D01*
X24882825Y42325000D01*
X24861740Y42458126D01*
X24861740Y42458127D01*
X24800549Y42578220D01*
X24756095Y42622674D01*
X24734421Y42675000D01*
X24756095Y42727326D01*
X24800549Y42771780D01*
X24861740Y42891874D01*
X24882825Y43025000D01*
X24861740Y43158126D01*
X24861740Y43158127D01*
X24800549Y43278220D01*
X24705240Y43373529D01*
X24585147Y43434719D01*
X24585147Y43434720D01*
X24452021Y43455804D01*
X24318894Y43434720D01*
X24318894Y43434719D01*
X24198801Y43373529D01*
X24103492Y43278220D01*
X24042302Y43158127D01*
X24042301Y43158127D01*
X24021217Y43025000D01*
X12070500Y43025000D01*
X12070500Y45712500D01*
X24073050Y45712500D01*
X24094134Y45579374D01*
X24155325Y45459281D01*
X24199780Y45414826D01*
X24221454Y45362500D01*
X24199780Y45310174D01*
X24155326Y45265721D01*
X24155325Y45265720D01*
X24094135Y45145627D01*
X24094134Y45145627D01*
X24073050Y45012500D01*
X24094134Y44879374D01*
X24155325Y44759281D01*
X24155326Y44759280D01*
X24250634Y44663972D01*
X24370727Y44602782D01*
X24370727Y44602781D01*
X24388929Y44599899D01*
X24503854Y44581696D01*
X24636980Y44602781D01*
X24757074Y44663972D01*
X24852382Y44759280D01*
X24913573Y44879374D01*
X24934658Y45012500D01*
X24913573Y45145626D01*
X24913573Y45145627D01*
X24885868Y45200000D01*
X46869819Y45200000D01*
X46888426Y45082518D01*
X46888426Y45082517D01*
X46915941Y45028516D01*
X46942427Y44976535D01*
X47026535Y44892427D01*
X47132518Y44838426D01*
X47250000Y44819819D01*
X47367482Y44838426D01*
X47473465Y44892427D01*
X47557573Y44976535D01*
X47611574Y45082518D01*
X47630181Y45200000D01*
X47611574Y45317482D01*
X47557573Y45423465D01*
X47473465Y45507573D01*
X47421484Y45534059D01*
X47367483Y45561574D01*
X47250000Y45580181D01*
X47132517Y45561574D01*
X47132516Y45561574D01*
X47026533Y45507572D01*
X46942428Y45423467D01*
X46888426Y45317484D01*
X46888426Y45317483D01*
X46869819Y45200000D01*
X24885868Y45200000D01*
X24852382Y45265720D01*
X24807928Y45310174D01*
X24786254Y45362500D01*
X24807928Y45414826D01*
X24816569Y45423467D01*
X24852382Y45459280D01*
X24913573Y45579374D01*
X24934658Y45712500D01*
X24913573Y45845626D01*
X24913573Y45845627D01*
X24852382Y45965720D01*
X24764150Y46053952D01*
X24742476Y46106278D01*
X24764150Y46158604D01*
X24767377Y46161360D01*
X24769987Y46163971D01*
X24769990Y46163972D01*
X24865298Y46259280D01*
X24926489Y46379374D01*
X24947574Y46512500D01*
X24926489Y46645626D01*
X24926489Y46645627D01*
X24865298Y46765720D01*
X24820844Y46810174D01*
X24799170Y46862500D01*
X24820844Y46914826D01*
X24833344Y46927326D01*
X24865298Y46959280D01*
X24926489Y47079374D01*
X24941635Y47175000D01*
X46569819Y47175000D01*
X46588426Y47057518D01*
X46588426Y47057517D01*
X46615941Y47003516D01*
X46638480Y46959281D01*
X46642428Y46951534D01*
X46666636Y46927326D01*
X46688310Y46875000D01*
X46666636Y46822674D01*
X46642428Y46798467D01*
X46588426Y46692484D01*
X46588426Y46692483D01*
X46569819Y46575000D01*
X46588426Y46457518D01*
X46588426Y46457517D01*
X46615941Y46403516D01*
X46642427Y46351535D01*
X46726535Y46267427D01*
X46832518Y46213426D01*
X46950000Y46194819D01*
X47067482Y46213426D01*
X47173465Y46267427D01*
X47257573Y46351535D01*
X47311574Y46457518D01*
X47330181Y46575000D01*
X47311574Y46692482D01*
X47257573Y46798465D01*
X47233364Y46822674D01*
X47211690Y46875000D01*
X47233364Y46927326D01*
X47257573Y46951535D01*
X47311574Y47057518D01*
X47330181Y47175000D01*
X47311574Y47292482D01*
X47257573Y47398465D01*
X47173465Y47482573D01*
X47121484Y47509059D01*
X47067483Y47536574D01*
X46950000Y47555181D01*
X46832517Y47536574D01*
X46832516Y47536574D01*
X46726533Y47482572D01*
X46642428Y47398467D01*
X46588426Y47292484D01*
X46588426Y47292483D01*
X46569819Y47175000D01*
X24941635Y47175000D01*
X24947574Y47212500D01*
X24926489Y47345626D01*
X24926489Y47345627D01*
X24865298Y47465720D01*
X24769989Y47561029D01*
X24649896Y47622219D01*
X24649896Y47622220D01*
X24516770Y47643304D01*
X24383643Y47622220D01*
X24383643Y47622219D01*
X24263550Y47561029D01*
X24168241Y47465720D01*
X24107051Y47345627D01*
X24107050Y47345627D01*
X24085966Y47212500D01*
X24107050Y47079374D01*
X24168241Y46959281D01*
X24212696Y46914826D01*
X24234370Y46862500D01*
X24212696Y46810174D01*
X24168242Y46765721D01*
X24168241Y46765720D01*
X24107051Y46645627D01*
X24107050Y46645627D01*
X24085966Y46512500D01*
X24107050Y46379374D01*
X24168241Y46259281D01*
X24256473Y46171049D01*
X24278147Y46118723D01*
X24256473Y46066397D01*
X24253248Y46063643D01*
X24155325Y45965720D01*
X24094135Y45845627D01*
X24094134Y45845627D01*
X24073050Y45712500D01*
X12070500Y45712500D01*
X12070500Y48568690D01*
X14869500Y48568690D01*
X14869500Y48391311D01*
X14904104Y48217340D01*
X14904107Y48217330D01*
X14971985Y48053456D01*
X14971986Y48053454D01*
X14971987Y48053453D01*
X15070536Y47905965D01*
X15195965Y47780536D01*
X15343453Y47681987D01*
X15507334Y47614106D01*
X15681309Y47579500D01*
X15681311Y47579500D01*
X15858689Y47579500D01*
X15858691Y47579500D01*
X16032666Y47614106D01*
X16196547Y47681987D01*
X16344035Y47780536D01*
X16469464Y47905965D01*
X16568013Y48053453D01*
X16635894Y48217334D01*
X16668250Y48380000D01*
X44539819Y48380000D01*
X44558426Y48262518D01*
X44558426Y48262517D01*
X44581445Y48217340D01*
X44612427Y48156535D01*
X44696535Y48072427D01*
X44774753Y48032573D01*
X44802516Y48018427D01*
X44802517Y48018426D01*
X44812918Y48016779D01*
X44841231Y48012295D01*
X44889523Y47982703D01*
X44902745Y47927631D01*
X44895591Y47905611D01*
X44863426Y47842483D01*
X44844819Y47725000D01*
X44863426Y47607518D01*
X44863426Y47607517D01*
X44877702Y47579500D01*
X44917427Y47501535D01*
X45001535Y47417427D01*
X45107518Y47363426D01*
X45225000Y47344819D01*
X45342482Y47363426D01*
X45448465Y47417427D01*
X45532573Y47501535D01*
X45586574Y47607518D01*
X45605181Y47725000D01*
X45586574Y47842482D01*
X45532573Y47948465D01*
X45448465Y48032573D01*
X45396484Y48059059D01*
X45342483Y48086574D01*
X45303767Y48092706D01*
X45255476Y48122299D01*
X45242254Y48177371D01*
X45249409Y48199391D01*
X45281574Y48262518D01*
X45300181Y48380000D01*
X45281574Y48497482D01*
X45227573Y48603465D01*
X45143465Y48687573D01*
X45091484Y48714059D01*
X45037483Y48741574D01*
X44920000Y48760181D01*
X44802517Y48741574D01*
X44802516Y48741574D01*
X44696533Y48687572D01*
X44612428Y48603467D01*
X44558426Y48497484D01*
X44558426Y48497483D01*
X44539819Y48380000D01*
X16668250Y48380000D01*
X16670500Y48391309D01*
X16670500Y48568691D01*
X16635894Y48742666D01*
X16579342Y48879197D01*
X16568014Y48906545D01*
X16532417Y48959819D01*
X16469464Y49054035D01*
X16344035Y49179464D01*
X16280624Y49221834D01*
X16196544Y49278015D01*
X16119324Y49310000D01*
X37799196Y49310000D01*
X37820280Y49176874D01*
X37881471Y49056781D01*
X37881472Y49056780D01*
X37976780Y48961472D01*
X38096873Y48900282D01*
X38096873Y48900281D01*
X38115075Y48897399D01*
X38230000Y48879196D01*
X38363126Y48900281D01*
X38483220Y48961472D01*
X38578528Y49056780D01*
X38639719Y49176874D01*
X38660804Y49310000D01*
X38639719Y49443126D01*
X38639719Y49443127D01*
X38578528Y49563220D01*
X38483219Y49658529D01*
X38382201Y49710000D01*
X38879196Y49710000D01*
X38900280Y49576874D01*
X38961114Y49457482D01*
X38961472Y49456780D01*
X39056780Y49361472D01*
X39176873Y49300282D01*
X39176873Y49300281D01*
X39195075Y49297399D01*
X39310000Y49279196D01*
X39443126Y49300281D01*
X39563220Y49361472D01*
X39601748Y49400000D01*
X42789819Y49400000D01*
X42808426Y49282518D01*
X42808426Y49282517D01*
X42810720Y49278015D01*
X42862427Y49176535D01*
X42946535Y49092427D01*
X43052518Y49038426D01*
X43170000Y49019819D01*
X43287482Y49038426D01*
X43393465Y49092427D01*
X43402672Y49101635D01*
X43454993Y49123311D01*
X43507321Y49101641D01*
X43576535Y49032427D01*
X43682518Y48978426D01*
X43800000Y48959819D01*
X43917482Y48978426D01*
X44023465Y49032427D01*
X44107573Y49116535D01*
X44161574Y49222518D01*
X44180181Y49340000D01*
X44161574Y49457482D01*
X44107573Y49563465D01*
X44023465Y49647573D01*
X43944592Y49687761D01*
X43917483Y49701574D01*
X43800000Y49720181D01*
X43682517Y49701574D01*
X43682513Y49701573D01*
X43576539Y49647577D01*
X43567324Y49638362D01*
X43514997Y49616690D01*
X43462674Y49638364D01*
X43393466Y49707572D01*
X43393465Y49707573D01*
X43341484Y49734059D01*
X43287483Y49761574D01*
X43170000Y49780181D01*
X43052517Y49761574D01*
X43052516Y49761574D01*
X42946533Y49707572D01*
X42862428Y49623467D01*
X42808426Y49517484D01*
X42808426Y49517483D01*
X42789819Y49400000D01*
X39601748Y49400000D01*
X39658528Y49456780D01*
X39719719Y49576874D01*
X39740804Y49710000D01*
X39719719Y49843126D01*
X39719719Y49843127D01*
X39658528Y49963220D01*
X39563219Y50058529D01*
X39443126Y50119719D01*
X39443126Y50119720D01*
X39310000Y50140804D01*
X39176873Y50119720D01*
X39176873Y50119719D01*
X39056780Y50058529D01*
X38961471Y49963220D01*
X38900281Y49843127D01*
X38900280Y49843127D01*
X38879196Y49710000D01*
X38382201Y49710000D01*
X38363126Y49719719D01*
X38363126Y49719720D01*
X38230000Y49740804D01*
X38096873Y49719720D01*
X38096873Y49719719D01*
X37976780Y49658529D01*
X37881471Y49563220D01*
X37820281Y49443127D01*
X37820280Y49443127D01*
X37799196Y49310000D01*
X16119324Y49310000D01*
X16032670Y49345893D01*
X16032660Y49345896D01*
X15916156Y49369070D01*
X15858691Y49380500D01*
X15681309Y49380500D01*
X15631989Y49370690D01*
X15507339Y49345896D01*
X15507329Y49345893D01*
X15343455Y49278015D01*
X15195968Y49179467D01*
X15070533Y49054032D01*
X14971985Y48906545D01*
X14904107Y48742671D01*
X14904104Y48742661D01*
X14869500Y48568690D01*
X12070500Y48568690D01*
X12070500Y50451380D01*
X24524500Y50451380D01*
X24524500Y50298621D01*
X24554300Y50148802D01*
X24554302Y50148795D01*
X24612760Y50007664D01*
X24693040Y49887517D01*
X24697630Y49880648D01*
X24805648Y49772630D01*
X24932663Y49687761D01*
X25073795Y49629302D01*
X25223620Y49599500D01*
X25223621Y49599500D01*
X25376379Y49599500D01*
X25376380Y49599500D01*
X25526205Y49629302D01*
X25667337Y49687761D01*
X25794352Y49772630D01*
X25902370Y49880648D01*
X25985460Y50005000D01*
X26605997Y50005000D01*
X26624604Y49887518D01*
X26624604Y49887517D01*
X26628102Y49880652D01*
X26678605Y49781535D01*
X26762713Y49697427D01*
X26868696Y49643426D01*
X26986178Y49624819D01*
X27103660Y49643426D01*
X27209643Y49697427D01*
X27293751Y49781535D01*
X27347752Y49887518D01*
X27366359Y50005000D01*
X28679819Y50005000D01*
X28698426Y49887518D01*
X28698426Y49887517D01*
X28701924Y49880652D01*
X28752427Y49781535D01*
X28836535Y49697427D01*
X28942518Y49643426D01*
X29060000Y49624819D01*
X29177482Y49643426D01*
X29283465Y49697427D01*
X29367573Y49781535D01*
X29421574Y49887518D01*
X29440181Y50005000D01*
X29659819Y50005000D01*
X29678426Y49887518D01*
X29678426Y49887517D01*
X29681924Y49880652D01*
X29732427Y49781535D01*
X29816535Y49697427D01*
X29922518Y49643426D01*
X30040000Y49624819D01*
X30157482Y49643426D01*
X30263465Y49697427D01*
X30347573Y49781535D01*
X30401574Y49887518D01*
X30420181Y50005000D01*
X30401574Y50122482D01*
X30347573Y50228465D01*
X30263465Y50312573D01*
X30211484Y50339059D01*
X30157483Y50366574D01*
X30040000Y50385181D01*
X29922517Y50366574D01*
X29922516Y50366574D01*
X29816533Y50312572D01*
X29732428Y50228467D01*
X29678426Y50122484D01*
X29678426Y50122483D01*
X29659819Y50005000D01*
X29440181Y50005000D01*
X29421574Y50122482D01*
X29367573Y50228465D01*
X29283465Y50312573D01*
X29231484Y50339059D01*
X29177483Y50366574D01*
X29060000Y50385181D01*
X28942517Y50366574D01*
X28942516Y50366574D01*
X28836533Y50312572D01*
X28752428Y50228467D01*
X28698426Y50122484D01*
X28698426Y50122483D01*
X28679819Y50005000D01*
X27366359Y50005000D01*
X27347752Y50122482D01*
X27293751Y50228465D01*
X27209643Y50312573D01*
X27157662Y50339059D01*
X27103661Y50366574D01*
X26986178Y50385181D01*
X26868695Y50366574D01*
X26868694Y50366574D01*
X26762711Y50312572D01*
X26678606Y50228467D01*
X26624604Y50122484D01*
X26624604Y50122483D01*
X26605997Y50005000D01*
X25985460Y50005000D01*
X25987239Y50007663D01*
X26045698Y50148795D01*
X26075500Y50298620D01*
X26075500Y50451380D01*
X26051905Y50570000D01*
X37449196Y50570000D01*
X37470280Y50436874D01*
X37524336Y50330785D01*
X37531472Y50316780D01*
X37626780Y50221472D01*
X37746873Y50160282D01*
X37746873Y50160281D01*
X37765075Y50157399D01*
X37880000Y50139196D01*
X38013126Y50160281D01*
X38133220Y50221472D01*
X38228528Y50316780D01*
X38289719Y50436874D01*
X38295916Y50476003D01*
X44274500Y50476003D01*
X44274500Y50273998D01*
X44313907Y50075880D01*
X44313909Y50075873D01*
X44391214Y49889244D01*
X44496292Y49731982D01*
X44503442Y49721282D01*
X44646282Y49578442D01*
X44814244Y49466214D01*
X45000873Y49388909D01*
X45198997Y49349500D01*
X45198998Y49349500D01*
X45401002Y49349500D01*
X45401003Y49349500D01*
X45599127Y49388909D01*
X45785756Y49466214D01*
X45953718Y49578442D01*
X46096558Y49721282D01*
X46208786Y49889244D01*
X46213807Y49901368D01*
X46253852Y49941417D01*
X46310489Y49941421D01*
X46344832Y49912423D01*
X46458211Y49731982D01*
X46671834Y49464107D01*
X46914107Y49221834D01*
X47181982Y49008211D01*
X47472090Y48825924D01*
X47723158Y48705016D01*
X47780791Y48677261D01*
X48071492Y48575542D01*
X48104183Y48564103D01*
X48438217Y48487861D01*
X48778688Y48449500D01*
X48778692Y48449500D01*
X49121308Y48449500D01*
X49121312Y48449500D01*
X49461783Y48487861D01*
X49795817Y48564103D01*
X49941463Y48615067D01*
X50119208Y48677261D01*
X50119212Y48677264D01*
X50119215Y48677264D01*
X50427910Y48825924D01*
X50718018Y49008211D01*
X50985893Y49221834D01*
X51228166Y49464107D01*
X51441789Y49731982D01*
X51624076Y50022090D01*
X51772736Y50330785D01*
X51772736Y50330788D01*
X51772739Y50330792D01*
X51867359Y50601205D01*
X51885897Y50654183D01*
X51962139Y50988217D01*
X52000500Y51328688D01*
X52000500Y51671312D01*
X51962139Y52011783D01*
X51895563Y52303467D01*
X51885898Y52345813D01*
X51885892Y52345831D01*
X51772739Y52669209D01*
X51624076Y52977909D01*
X51624076Y52977910D01*
X51441789Y53268018D01*
X51228166Y53535893D01*
X50985893Y53778166D01*
X50718018Y53991789D01*
X50427910Y54174076D01*
X50396343Y54189278D01*
X50119208Y54322740D01*
X49795830Y54435893D01*
X49795812Y54435899D01*
X49461786Y54512139D01*
X49315866Y54528580D01*
X49121312Y54550500D01*
X48778688Y54550500D01*
X48612007Y54531720D01*
X48438213Y54512139D01*
X48104187Y54435899D01*
X48104169Y54435893D01*
X47780791Y54322740D01*
X47472091Y54174077D01*
X47181981Y53991789D01*
X46914103Y53778163D01*
X46671837Y53535897D01*
X46458211Y53268019D01*
X46275923Y52977909D01*
X46127260Y52669209D01*
X46014107Y52345831D01*
X46014101Y52345813D01*
X45937861Y52011787D01*
X45921987Y51870892D01*
X45904809Y51718426D01*
X45899500Y51671309D01*
X45899500Y51346230D01*
X45877826Y51293904D01*
X45825500Y51272230D01*
X45789531Y51283135D01*
X45788964Y51282072D01*
X45785761Y51283784D01*
X45599127Y51361091D01*
X45599120Y51361093D01*
X45449862Y51390782D01*
X45401003Y51400500D01*
X45198997Y51400500D01*
X45159803Y51392704D01*
X45000879Y51361093D01*
X45000872Y51361091D01*
X44814243Y51283786D01*
X44646282Y51171559D01*
X44646281Y51171557D01*
X44503443Y51028719D01*
X44503441Y51028718D01*
X44391214Y50860757D01*
X44313909Y50674128D01*
X44313907Y50674121D01*
X44274500Y50476003D01*
X38295916Y50476003D01*
X38310804Y50570000D01*
X38289719Y50703126D01*
X38289719Y50703127D01*
X38228528Y50823220D01*
X38133219Y50918529D01*
X38013126Y50979719D01*
X38013126Y50979720D01*
X37880000Y51000804D01*
X37746873Y50979720D01*
X37746873Y50979719D01*
X37626780Y50918529D01*
X37531471Y50823220D01*
X37470281Y50703127D01*
X37470280Y50703127D01*
X37449196Y50570000D01*
X26051905Y50570000D01*
X26045698Y50601205D01*
X25987239Y50742337D01*
X25902370Y50869352D01*
X25794352Y50977370D01*
X25794348Y50977373D01*
X25667336Y51062240D01*
X25526205Y51120698D01*
X25526198Y51120700D01*
X25413328Y51143151D01*
X25376380Y51150500D01*
X25223620Y51150500D01*
X25193981Y51144605D01*
X25073801Y51120700D01*
X25073794Y51120698D01*
X24932663Y51062240D01*
X24805651Y50977373D01*
X24697627Y50869349D01*
X24612760Y50742337D01*
X24554302Y50601206D01*
X24554300Y50601199D01*
X24524500Y50451380D01*
X12070500Y50451380D01*
X12070500Y51870892D01*
X12070500Y51912318D01*
X12046391Y52080000D01*
X21219819Y52080000D01*
X21238426Y51962518D01*
X21238426Y51962517D01*
X21262052Y51916149D01*
X21292427Y51856535D01*
X21376535Y51772427D01*
X21482518Y51718426D01*
X21600000Y51699819D01*
X21717482Y51718426D01*
X21823465Y51772427D01*
X21907573Y51856535D01*
X21961574Y51962518D01*
X21980181Y52080000D01*
X21961574Y52197482D01*
X21907573Y52303465D01*
X21823465Y52387573D01*
X21771484Y52414059D01*
X21717483Y52441574D01*
X21600000Y52460181D01*
X21482517Y52441574D01*
X21482516Y52441574D01*
X21376533Y52387572D01*
X21292428Y52303467D01*
X21238426Y52197484D01*
X21238426Y52197483D01*
X21219819Y52080000D01*
X12046391Y52080000D01*
X12039954Y52124769D01*
X12019178Y52195525D01*
X11979486Y52330705D01*
X11979484Y52330710D01*
X11953516Y52387572D01*
X11890321Y52525950D01*
X11879442Y52542878D01*
X11774285Y52706507D01*
X11774284Y52706508D01*
X11774281Y52706513D01*
X11633724Y52868724D01*
X11471513Y53009281D01*
X11471508Y53009285D01*
X11471506Y53009286D01*
X11290956Y53125318D01*
X11290948Y53125322D01*
X11095709Y53214485D01*
X11095704Y53214487D01*
X10889776Y53274953D01*
X10889764Y53274955D01*
X10677322Y53305500D01*
X10677318Y53305500D01*
X10635892Y53305500D01*
X634882Y53305500D01*
X582556Y53327174D01*
X560882Y53379500D01*
X560971Y53383130D01*
X563238Y53429300D01*
X567173Y53509397D01*
X567882Y53516593D01*
X617209Y53849131D01*
X618626Y53856249D01*
X631468Y53907518D01*
X660895Y54025000D01*
X3194819Y54025000D01*
X3213426Y53907518D01*
X3213426Y53907517D01*
X3233163Y53868781D01*
X3267427Y53801535D01*
X3351535Y53717427D01*
X3457518Y53663426D01*
X3575000Y53644819D01*
X3692482Y53663426D01*
X3798465Y53717427D01*
X3882573Y53801535D01*
X3936574Y53907518D01*
X3955181Y54025000D01*
X3939818Y54122000D01*
X40619196Y54122000D01*
X40640280Y53988874D01*
X40701471Y53868781D01*
X40704898Y53864064D01*
X40702169Y53862082D01*
X40719600Y53820000D01*
X40702169Y53777919D01*
X40704898Y53775936D01*
X40701471Y53771220D01*
X40640281Y53651127D01*
X40640280Y53651127D01*
X40619196Y53518000D01*
X40640280Y53384874D01*
X40699822Y53268018D01*
X40701472Y53264780D01*
X40796780Y53169472D01*
X40916873Y53108282D01*
X40916873Y53108281D01*
X40935075Y53105399D01*
X41050000Y53087196D01*
X41183126Y53108281D01*
X41303220Y53169472D01*
X41398528Y53264780D01*
X41459719Y53384874D01*
X41480804Y53518000D01*
X41459719Y53651126D01*
X41459719Y53651127D01*
X41398528Y53771220D01*
X41395102Y53775936D01*
X41397830Y53777919D01*
X41380400Y53820000D01*
X41397830Y53862082D01*
X41395102Y53864064D01*
X41398525Y53868778D01*
X41398528Y53868780D01*
X41459719Y53988874D01*
X41480804Y54122000D01*
X41459719Y54255126D01*
X41459719Y54255127D01*
X41398528Y54375220D01*
X41303219Y54470529D01*
X41183126Y54531719D01*
X41183126Y54531720D01*
X41050000Y54552804D01*
X40916873Y54531720D01*
X40916873Y54531719D01*
X40796780Y54470529D01*
X40701471Y54375220D01*
X40640281Y54255127D01*
X40640280Y54255127D01*
X40619196Y54122000D01*
X3939818Y54122000D01*
X3936574Y54142482D01*
X3882573Y54248465D01*
X3798465Y54332573D01*
X3729493Y54367716D01*
X3692483Y54386574D01*
X3575000Y54405181D01*
X3457517Y54386574D01*
X3457516Y54386574D01*
X3351533Y54332572D01*
X3267428Y54248467D01*
X3213426Y54142484D01*
X3213426Y54142483D01*
X3194819Y54025000D01*
X660895Y54025000D01*
X700307Y54182342D01*
X702404Y54189253D01*
X815663Y54505790D01*
X818433Y54512478D01*
X962168Y54816379D01*
X965574Y54822752D01*
X1005883Y54890004D01*
X51855373Y54890004D01*
X51855373Y54889997D01*
X51873812Y54738129D01*
X51873814Y54738125D01*
X51928065Y54595075D01*
X51991768Y54502786D01*
X52266141Y54777160D01*
X52278060Y54748386D01*
X52348386Y54678060D01*
X52377158Y54666143D01*
X52102574Y54391559D01*
X52129486Y54367716D01*
X52129489Y54367714D01*
X52264956Y54296615D01*
X52413502Y54260001D01*
X52413508Y54260000D01*
X52566492Y54260000D01*
X52566497Y54260001D01*
X52715043Y54296615D01*
X52850510Y54367714D01*
X52877424Y54391559D01*
X52602841Y54666143D01*
X52631614Y54678060D01*
X52701940Y54748386D01*
X52713857Y54777159D01*
X52988230Y54502786D01*
X53051935Y54595078D01*
X53106185Y54738125D01*
X53106187Y54738129D01*
X53124627Y54889997D01*
X53124627Y54890004D01*
X53106187Y55041872D01*
X53106185Y55041876D01*
X53051934Y55184926D01*
X52988231Y55277216D01*
X52713857Y55002843D01*
X52701940Y55031614D01*
X52631614Y55101940D01*
X52602840Y55113859D01*
X52877424Y55388442D01*
X52850513Y55412285D01*
X52850510Y55412287D01*
X52715043Y55483386D01*
X52566497Y55520000D01*
X52413502Y55520000D01*
X52264956Y55483386D01*
X52129490Y55412288D01*
X52102573Y55388443D01*
X52377158Y55113858D01*
X52348386Y55101940D01*
X52278060Y55031614D01*
X52266142Y55002842D01*
X51991767Y55277217D01*
X51928067Y55184930D01*
X51928066Y55184928D01*
X51873814Y55041876D01*
X51873812Y55041872D01*
X51855373Y54890004D01*
X1005883Y54890004D01*
X1138410Y55111112D01*
X1142434Y55117134D01*
X1342690Y55387148D01*
X1347294Y55392756D01*
X1573050Y55641840D01*
X1578160Y55646950D01*
X1827248Y55872711D01*
X1832857Y55877313D01*
X1880087Y55912341D01*
X2102866Y56077566D01*
X2108888Y56081590D01*
X2397248Y56254426D01*
X2403621Y56257832D01*
X2707522Y56401567D01*
X2714210Y56404337D01*
X3030747Y56517596D01*
X3037658Y56519693D01*
X3363755Y56601375D01*
X3370869Y56602791D01*
X3703407Y56652118D01*
X3710601Y56652827D01*
X4048188Y56669412D01*
X4051819Y56669500D01*
X4115892Y56669500D01*
X18676103Y56669500D01*
X18728429Y56647826D01*
G37*
%TD.AperFunction*%
%TD*%
M02*
