%TF.GenerationSoftware,KiCad,Pcbnew,8.0.7*%
%TF.CreationDate,2025-01-30T17:12:35+01:00*%
%TF.ProjectId,CM5_MINIMA_2,434d355f-4d49-44e4-994d-415f322e6b69,2*%
%TF.SameCoordinates,Original*%
%TF.FileFunction,Legend,Bot*%
%TF.FilePolarity,Positive*%
%FSLAX46Y46*%
G04 Gerber Fmt 4.6, Leading zero omitted, Abs format (unit mm)*
G04 Created by KiCad (PCBNEW 8.0.7) date 2025-01-30 17:12:35*
%MOMM*%
%LPD*%
G01*
G04 APERTURE LIST*
G04 Aperture macros list*
%AMRoundRect*
0 Rectangle with rounded corners*
0 $1 Rounding radius*
0 $2 $3 $4 $5 $6 $7 $8 $9 X,Y pos of 4 corners*
0 Add a 4 corners polygon primitive as box body*
4,1,4,$2,$3,$4,$5,$6,$7,$8,$9,$2,$3,0*
0 Add four circle primitives for the rounded corners*
1,1,$1+$1,$2,$3*
1,1,$1+$1,$4,$5*
1,1,$1+$1,$6,$7*
1,1,$1+$1,$8,$9*
0 Add four rect primitives between the rounded corners*
20,1,$1+$1,$2,$3,$4,$5,0*
20,1,$1+$1,$4,$5,$6,$7,0*
20,1,$1+$1,$6,$7,$8,$9,0*
20,1,$1+$1,$8,$9,$2,$3,0*%
G04 Aperture macros list end*
%ADD10C,0.250000*%
%ADD11C,0.000000*%
%ADD12C,0.120000*%
%ADD13R,0.700000X0.600000*%
%ADD14R,0.700000X0.900000*%
%ADD15C,0.900000*%
%ADD16C,2.600000*%
%ADD17C,3.800000*%
%ADD18C,0.800000*%
%ADD19O,1.800000X0.860000*%
%ADD20C,1.150000*%
%ADD21C,1.650000*%
%ADD22C,6.200000*%
%ADD23C,1.400000*%
%ADD24C,1.000000*%
%ADD25O,1.500000X3.300000*%
%ADD26O,1.500000X2.300000*%
%ADD27C,6.100000*%
%ADD28R,0.700000X0.200000*%
%ADD29R,0.250000X0.680000*%
%ADD30RoundRect,0.250000X-1.025000X0.787500X-1.025000X-0.787500X1.025000X-0.787500X1.025000X0.787500X0*%
%ADD31RoundRect,0.135000X0.185000X-0.135000X0.185000X0.135000X-0.185000X0.135000X-0.185000X-0.135000X0*%
G04 APERTURE END LIST*
D10*
%TO.C,SW101*%
X54180000Y7440000D02*
X54180000Y12940000D01*
X55480000Y10140000D02*
X54180000Y10140000D01*
X54180000Y8940000D02*
X55480000Y8940000D01*
X55480000Y8940000D02*
X55480000Y10140000D01*
X54180000Y11690000D02*
X54180000Y11240000D01*
X53680000Y11690000D02*
X54180000Y11690000D01*
X53680000Y8690000D02*
X53680000Y11690000D01*
X54180000Y8690000D02*
X53680000Y8690000D01*
X54180000Y7440000D02*
X53510000Y7440000D01*
X51680000Y7440000D02*
X51680000Y8660000D01*
X52350000Y7440000D02*
X51680000Y7440000D01*
X51680000Y12940000D02*
X52350000Y12940000D01*
X51680000Y11720000D02*
X51680000Y12940000D01*
X53510000Y12940000D02*
X54180000Y12940000D01*
D11*
%TO.C,kibuzzard-67795592*%
G36*
X45531003Y11272060D02*
G01*
X45564622Y11193376D01*
X45533864Y11118984D01*
X45458757Y11088941D01*
X45305681Y11088941D01*
X45305681Y11297811D01*
X45460188Y11297811D01*
X45531003Y11272060D01*
G37*
G36*
X44667627Y11272060D02*
G01*
X44700531Y11193376D01*
X44669773Y11118984D01*
X44596096Y11088941D01*
X44441590Y11088941D01*
X44441590Y11297811D01*
X44598957Y11297811D01*
X44667627Y11272060D01*
G37*
G36*
X48695703Y11564442D02*
G01*
X48771346Y11510258D01*
X48822312Y11429249D01*
X48839301Y11330715D01*
X48822133Y11232897D01*
X48770631Y11151173D01*
X48695166Y11095916D01*
X48606110Y11077496D01*
X48515982Y11095916D01*
X48440159Y11151173D01*
X48388657Y11232897D01*
X48371489Y11330715D01*
X48388836Y11426567D01*
X48440874Y11508112D01*
X48516518Y11563906D01*
X48604680Y11582504D01*
X48695703Y11564442D01*
G37*
G36*
X47664229Y11564442D02*
G01*
X47739873Y11510258D01*
X47790838Y11429249D01*
X47807827Y11330715D01*
X47790660Y11232897D01*
X47739158Y11151173D01*
X47663693Y11095916D01*
X47574637Y11077496D01*
X47484508Y11095916D01*
X47408685Y11151173D01*
X47357183Y11232897D01*
X47340016Y11330715D01*
X47357362Y11426567D01*
X47409401Y11508112D01*
X47485045Y11563906D01*
X47573206Y11582504D01*
X47664229Y11564442D01*
G37*
G36*
X46716268Y11563906D02*
G01*
X46738442Y11556037D01*
X46759901Y11531717D01*
X46767770Y11486652D01*
X46749172Y11427282D01*
X46689086Y11413691D01*
X46670488Y11413691D01*
X46588943Y11388655D01*
X46564622Y11303534D01*
X46590374Y11221273D01*
X46677641Y11197668D01*
X46694808Y11197668D01*
X46729143Y11187654D01*
X46739158Y11143305D01*
X46724136Y11098956D01*
X46664766Y11087511D01*
X46491661Y11087511D01*
X46491661Y11565336D01*
X46696239Y11565336D01*
X46716268Y11563906D01*
G37*
G36*
X43959472Y12082742D02*
G01*
X44807827Y12082742D01*
X45174065Y12082742D01*
X46015266Y12082742D01*
X46360045Y12082742D01*
X47580359Y12082742D01*
X48611833Y12082742D01*
X49577498Y12082742D01*
X50015266Y12082742D01*
X50253702Y12082742D01*
X50755530Y11330000D01*
X50253702Y10577258D01*
X50015266Y10577258D01*
X43362906Y10577258D01*
X43124470Y10577258D01*
X43124470Y11696953D01*
X43362906Y11696953D01*
X43362906Y11226280D01*
X43365767Y11179070D01*
X43379358Y11141874D01*
X43418700Y11111116D01*
X43493092Y11101817D01*
X43560331Y11110401D01*
X43598957Y11134006D01*
X43614694Y11161187D01*
X43618986Y11190515D01*
X43695524Y11128999D01*
X43799243Y11101817D01*
X43884762Y11113103D01*
X43956293Y11146961D01*
X44013836Y11203391D01*
X44055959Y11277465D01*
X44081234Y11364255D01*
X44089658Y11463763D01*
X44089658Y11695522D01*
X44179787Y11695522D01*
X44179787Y10957325D01*
X44181933Y10909399D01*
X44195524Y10870057D01*
X44235581Y10837153D01*
X44311404Y10827139D01*
X44598957Y10827139D01*
X44657076Y10832861D01*
X44716983Y10850029D01*
X44776711Y10877926D01*
X44834293Y10915837D01*
X44885617Y10966445D01*
X44926568Y11032432D01*
X44953392Y11109864D01*
X44962333Y11194807D01*
X44948345Y11301944D01*
X44906381Y11394457D01*
X44836439Y11472346D01*
X44939444Y11609685D01*
X44973032Y11695522D01*
X45043879Y11695522D01*
X45043879Y10957325D01*
X45046024Y10909399D01*
X45059615Y10870057D01*
X45099673Y10837153D01*
X45175495Y10827139D01*
X45460188Y10827139D01*
X45518485Y10832861D01*
X45578929Y10850029D01*
X45639014Y10877926D01*
X45696239Y10915837D01*
X45747205Y10966445D01*
X45788514Y11032432D01*
X45815874Y11109864D01*
X45824994Y11194807D01*
X45816053Y11279392D01*
X45789229Y11355751D01*
X45748278Y11420665D01*
X45696954Y11470916D01*
X45639014Y11508827D01*
X45578213Y11536724D01*
X45517233Y11553891D01*
X45458757Y11559614D01*
X45305681Y11559614D01*
X45305681Y11696953D01*
X45885080Y11696953D01*
X45885080Y10957325D01*
X45887226Y10909399D01*
X45900817Y10870057D01*
X45940874Y10837153D01*
X46016697Y10827139D01*
X46091089Y10837153D01*
X46131146Y10870057D01*
X46144737Y10909399D01*
X46146883Y10958755D01*
X46146883Y11694092D01*
X46229859Y11694092D01*
X46229859Y10955894D01*
X46232004Y10907969D01*
X46245595Y10868627D01*
X46285653Y10835722D01*
X46361475Y10825708D01*
X46696239Y10825708D01*
X46776830Y10835802D01*
X46848838Y10866083D01*
X46912262Y10916552D01*
X46961539Y10980850D01*
X46991105Y11052620D01*
X47000960Y11131860D01*
X46989158Y11215551D01*
X46953750Y11292089D01*
X46978844Y11336438D01*
X47078213Y11336438D01*
X47087155Y11231824D01*
X47113979Y11135436D01*
X47158685Y11047275D01*
X47221275Y10967339D01*
X47296650Y10900994D01*
X47379715Y10853605D01*
X47470470Y10825172D01*
X47568914Y10815694D01*
X47669415Y10825038D01*
X47762047Y10853069D01*
X47846811Y10899787D01*
X47923707Y10965193D01*
X47987548Y11044101D01*
X48033149Y11131323D01*
X48060509Y11226862D01*
X48069630Y11330715D01*
X48069126Y11336438D01*
X48109687Y11336438D01*
X48118628Y11231824D01*
X48145452Y11135436D01*
X48190159Y11047275D01*
X48252748Y10967339D01*
X48328124Y10900994D01*
X48411189Y10853605D01*
X48501944Y10825172D01*
X48600388Y10815694D01*
X48700889Y10825038D01*
X48793521Y10853069D01*
X48878285Y10899787D01*
X48919019Y10934435D01*
X49142591Y10934435D01*
X49151175Y10872203D01*
X49179072Y10839299D01*
X49211976Y10827854D01*
X49252748Y10825708D01*
X49906540Y10825708D01*
X49947312Y10827854D01*
X49979501Y10839299D01*
X50006683Y10872918D01*
X50015266Y10935866D01*
X50006683Y10998813D01*
X49978786Y11032432D01*
X49945881Y11043877D01*
X49905109Y11046023D01*
X49707684Y11046023D01*
X49707684Y11701245D01*
X49705538Y11749170D01*
X49691947Y11787082D01*
X49651890Y11818555D01*
X49577498Y11828569D01*
X49503821Y11818555D01*
X49465195Y11786366D01*
X49452319Y11747740D01*
X49450173Y11699814D01*
X49450173Y11046023D01*
X49251318Y11046023D01*
X49210545Y11043877D01*
X49178356Y11032432D01*
X49151175Y10998813D01*
X49142591Y10934435D01*
X48919019Y10934435D01*
X48955180Y10965193D01*
X49019022Y11044101D01*
X49064622Y11131323D01*
X49091983Y11226862D01*
X49101103Y11330715D01*
X49092117Y11432781D01*
X49065159Y11527246D01*
X49020229Y11614111D01*
X48957326Y11693376D01*
X48881817Y11759408D01*
X48799065Y11806574D01*
X48709070Y11834873D01*
X48611833Y11844306D01*
X48511869Y11835007D01*
X48419415Y11807110D01*
X48334472Y11760615D01*
X48257040Y11695522D01*
X48192573Y11617285D01*
X48146525Y11531359D01*
X48118896Y11437743D01*
X48109687Y11336438D01*
X48069126Y11336438D01*
X48060644Y11432781D01*
X48033685Y11527246D01*
X47988755Y11614111D01*
X47925853Y11693376D01*
X47850343Y11759408D01*
X47767591Y11806574D01*
X47677596Y11834873D01*
X47580359Y11844306D01*
X47480395Y11835007D01*
X47387942Y11807110D01*
X47302999Y11760615D01*
X47225567Y11695522D01*
X47161100Y11617285D01*
X47115052Y11531359D01*
X47087423Y11437743D01*
X47078213Y11336438D01*
X46978844Y11336438D01*
X47010617Y11392589D01*
X47029572Y11502389D01*
X47018366Y11588385D01*
X46986654Y11665161D01*
X46934436Y11732718D01*
X46867913Y11785174D01*
X46793282Y11816648D01*
X46710545Y11827139D01*
X46360045Y11827139D01*
X46285653Y11817124D01*
X46245595Y11784220D01*
X46232004Y11744163D01*
X46229859Y11694092D01*
X46146883Y11694092D01*
X46146883Y11698383D01*
X46144737Y11747740D01*
X46131146Y11786366D01*
X46091089Y11818555D01*
X46015266Y11828569D01*
X45940874Y11818555D01*
X45900817Y11785651D01*
X45887226Y11746309D01*
X45885080Y11696953D01*
X45305681Y11696953D01*
X45303535Y11746309D01*
X45289944Y11784936D01*
X45249887Y11817124D01*
X45174065Y11827139D01*
X45099673Y11817124D01*
X45059615Y11784220D01*
X45046024Y11744878D01*
X45043879Y11695522D01*
X44973032Y11695522D01*
X44978070Y11708398D01*
X44909401Y11792804D01*
X44807827Y11832146D01*
X44727713Y11765622D01*
X44574637Y11558183D01*
X44441590Y11558183D01*
X44441590Y11696953D01*
X44439444Y11746309D01*
X44425853Y11784936D01*
X44385796Y11817124D01*
X44309973Y11827139D01*
X44235581Y11817124D01*
X44195524Y11784220D01*
X44181933Y11744878D01*
X44179787Y11695522D01*
X44089658Y11695522D01*
X44089658Y11698383D01*
X44087512Y11746309D01*
X44073921Y11784936D01*
X44034580Y11817124D01*
X43959472Y11827139D01*
X43883650Y11817124D01*
X43843592Y11784220D01*
X43830002Y11744878D01*
X43827856Y11696953D01*
X43827856Y11463763D01*
X43801389Y11387940D01*
X43726282Y11360758D01*
X43650459Y11388655D01*
X43621847Y11463763D01*
X43621847Y11698383D01*
X43619701Y11746309D01*
X43606110Y11784936D01*
X43566053Y11817124D01*
X43491661Y11827139D01*
X43417984Y11817124D01*
X43378643Y11784936D01*
X43365052Y11746309D01*
X43362906Y11696953D01*
X43124470Y11696953D01*
X43124470Y12082742D01*
X43362906Y12082742D01*
X43959472Y12082742D01*
G37*
D12*
%TO.C,Module301*%
X12450000Y51500000D02*
X12450000Y3500000D01*
X15950000Y0D02*
X48950000Y0D01*
X48010000Y36400000D02*
X50810000Y36400000D01*
X48010000Y35400000D02*
X48010000Y36400000D01*
X48010000Y14600000D02*
X48010000Y13600000D01*
X48010000Y13600000D02*
X50810000Y13600000D01*
X48950000Y55000000D02*
X15950000Y55000000D01*
X50810000Y35400000D02*
X50810000Y36400000D01*
X50810000Y14600000D02*
X50810000Y13600000D01*
X52450000Y3500000D02*
X52450000Y51500000D01*
X12450000Y51500000D02*
G75*
G02*
X15950000Y55000000I3500000J0D01*
G01*
X15950000Y0D02*
G75*
G02*
X12450000Y3500000I0J3500000D01*
G01*
X48950000Y55000000D02*
G75*
G02*
X52450000Y51500000I1J-3499999D01*
G01*
X52450000Y3500000D02*
G75*
G02*
X48950000Y0I-3499999J-1D01*
G01*
D10*
%TO.C,D403*%
X16310000Y6880000D02*
X16310000Y4840000D01*
X19030000Y6880000D02*
X16310000Y6880000D01*
X19030000Y6880000D02*
X19030000Y4840000D01*
X19030000Y4840000D02*
X16310000Y4840000D01*
X16710000Y7260000D02*
G75*
G02*
X16590000Y7260000I-60000J0D01*
G01*
X16590000Y7260000D02*
G75*
G02*
X16710000Y7260000I60000J0D01*
G01*
D12*
%TO.C,C702*%
X5590000Y20610000D02*
X5590000Y12550000D01*
X10110000Y20610000D02*
X5590000Y20610000D01*
X10110000Y12550000D02*
X10110000Y20610000D01*
%TO.C,R104*%
X53010000Y32713641D02*
X53010000Y32406359D01*
X53770000Y32713641D02*
X53770000Y32406359D01*
%TO.C,Module302*%
X12450000Y51500000D02*
X12450000Y3500000D01*
X14010000Y36400000D02*
X16890000Y36400000D01*
X14010000Y35400000D02*
X14010000Y36400000D01*
X14010000Y14600000D02*
X14010000Y13600000D01*
X14010000Y13600000D02*
X16890000Y13600000D01*
X15950000Y0D02*
X48950000Y0D01*
X16890000Y35400000D02*
X16890000Y36400000D01*
X16890000Y14600000D02*
X16890000Y13600000D01*
X48950000Y55000000D02*
X15950000Y55000000D01*
X52450000Y3500000D02*
X52450000Y51500000D01*
X12450000Y51500000D02*
G75*
G02*
X15950000Y55000000I3500000J0D01*
G01*
X15950000Y0D02*
G75*
G02*
X12450000Y3500000I0J3500000D01*
G01*
X48950000Y55000000D02*
G75*
G02*
X52450000Y51500000I1J-3499999D01*
G01*
X52450000Y3500000D02*
G75*
G02*
X48950000Y0I-3499999J-1D01*
G01*
D11*
%TO.C,kibuzzard-67758943*%
G36*
X2216524Y15005794D02*
G01*
X2261588Y14893133D01*
X2261588Y14663519D01*
X1948283Y14663519D01*
X1948283Y14895279D01*
X1986910Y15001502D01*
X2104936Y15051931D01*
X2216524Y15005794D01*
G37*
G36*
X2045655Y18438197D02*
G01*
X2168240Y18360944D01*
X2251127Y18247747D01*
X2278755Y18114163D01*
X2251127Y17978970D01*
X2168240Y17865236D01*
X2045655Y17787983D01*
X1898927Y17762232D01*
X1755150Y17788251D01*
X1632833Y17866309D01*
X1549142Y17979775D01*
X1521245Y18112017D01*
X1548337Y18248552D01*
X1629614Y18362017D01*
X1751127Y18438466D01*
X1898927Y18463948D01*
X2045655Y18438197D01*
G37*
G36*
X3212232Y21129185D02*
G01*
X3212232Y14270815D01*
X3212232Y13734335D01*
X587768Y13734335D01*
X587768Y14270815D01*
X587768Y14466094D01*
X1154292Y14466094D01*
X1169313Y14354506D01*
X1218670Y14294421D01*
X1277682Y14274034D01*
X1351717Y14270815D01*
X2459013Y14270815D01*
X2530901Y14274034D01*
X2589914Y14294421D01*
X2639270Y14354506D01*
X2654292Y14468240D01*
X2654292Y14895279D01*
X2645708Y14982725D01*
X2619957Y15073391D01*
X2578112Y15163519D01*
X2521245Y15249356D01*
X2445333Y15325805D01*
X2346352Y15387768D01*
X2230204Y15428809D01*
X2102790Y15442489D01*
X1975912Y15429077D01*
X1861373Y15388841D01*
X1764002Y15327414D01*
X1688627Y15250429D01*
X1631760Y15163519D01*
X1589914Y15072318D01*
X1564163Y14980848D01*
X1555579Y14893133D01*
X1555579Y14663519D01*
X1349571Y14663519D01*
X1275536Y14660300D01*
X1217597Y14639914D01*
X1169313Y14579828D01*
X1154292Y14466094D01*
X587768Y14466094D01*
X587768Y15727897D01*
X1152146Y15727897D01*
X1167167Y15616309D01*
X1216524Y15556223D01*
X1275536Y15535837D01*
X1349571Y15532618D01*
X2459013Y15532618D01*
X2530901Y15535837D01*
X2589914Y15556223D01*
X2639270Y15616309D01*
X2654292Y15730043D01*
X2639270Y15841631D01*
X2589914Y15901717D01*
X2530901Y15922103D01*
X2456867Y15925322D01*
X1347425Y15925322D01*
X1273391Y15922103D01*
X1215451Y15901717D01*
X1167167Y15841631D01*
X1152146Y15727897D01*
X587768Y15727897D01*
X587768Y16792275D01*
X1130687Y16792275D01*
X1137124Y16701341D01*
X1156438Y16604506D01*
X1191041Y16503112D01*
X1243348Y16398498D01*
X1310944Y16297908D01*
X1391416Y16208584D01*
X1490397Y16132135D01*
X1613519Y16070172D01*
X1755687Y16029131D01*
X1911803Y16015451D01*
X2062017Y16028863D01*
X2199356Y16069099D01*
X2318723Y16130258D01*
X2415021Y16206438D01*
X2493348Y16295762D01*
X2558798Y16396352D01*
X2609496Y16501502D01*
X2643562Y16604506D01*
X2662876Y16704024D01*
X2669313Y16798712D01*
X2655961Y16926514D01*
X2615904Y17058131D01*
X2549142Y17193562D01*
X2508369Y17251502D01*
X2463305Y17291202D01*
X2398927Y17311588D01*
X2278755Y17264378D01*
X2191845Y17183906D01*
X2162876Y17109871D01*
X2212232Y16993991D01*
X2221888Y16980043D01*
X2233691Y16961803D01*
X2245494Y16941416D01*
X2256223Y16912446D01*
X2264807Y16878112D01*
X2272318Y16835193D01*
X2274464Y16783691D01*
X2253004Y16661373D01*
X2189700Y16540129D01*
X2072747Y16444635D01*
X1992275Y16417275D01*
X1901073Y16408155D01*
X1783852Y16424517D01*
X1685408Y16473605D01*
X1610032Y16543079D01*
X1562017Y16620601D01*
X1527682Y16783691D01*
X1545386Y16896888D01*
X1598498Y17004721D01*
X1641416Y17112017D01*
X1610837Y17184979D01*
X1519099Y17262232D01*
X1394635Y17309442D01*
X1316309Y17279399D01*
X1250858Y17191416D01*
X1184096Y17064092D01*
X1144039Y16931044D01*
X1130687Y16792275D01*
X587768Y16792275D01*
X587768Y18122747D01*
X1128541Y18122747D01*
X1142489Y17972800D01*
X1184335Y17834120D01*
X1254077Y17706706D01*
X1351717Y17590558D01*
X1469072Y17493857D01*
X1597961Y17424785D01*
X1738385Y17383342D01*
X1890343Y17369528D01*
X2047264Y17382940D01*
X2191845Y17423176D01*
X2324088Y17490236D01*
X2443991Y17584120D01*
X2543509Y17697183D01*
X2614592Y17821781D01*
X2657242Y17957913D01*
X2671459Y18105579D01*
X2657444Y18256330D01*
X2615397Y18395279D01*
X2545319Y18522425D01*
X2447210Y18637768D01*
X2328849Y18733530D01*
X2198015Y18801931D01*
X2054708Y18842972D01*
X1898927Y18856652D01*
X1745829Y18843173D01*
X1604131Y18802736D01*
X1473833Y18735341D01*
X1354936Y18640987D01*
X1255888Y18527723D01*
X1185139Y18403594D01*
X1142690Y18268602D01*
X1128541Y18122747D01*
X587768Y18122747D01*
X587768Y19112017D01*
X587768Y19886695D01*
X1147854Y19886695D01*
X1147854Y19112017D01*
X1206867Y18974678D01*
X1347425Y18916738D01*
X1456330Y18936052D01*
X1555579Y18993991D01*
X1632028Y19068562D01*
X1711159Y19172103D01*
X1784925Y19285300D01*
X1845279Y19388841D01*
X1905365Y19481921D01*
X1978326Y19563734D01*
X2058798Y19620869D01*
X2141416Y19639914D01*
X2198283Y19632403D01*
X2254077Y19585193D01*
X2283047Y19476824D01*
X2238519Y19351288D01*
X2104936Y19309442D01*
X2036266Y19306223D01*
X1981545Y19285837D01*
X1936481Y19225751D01*
X1922532Y19112017D01*
X1937554Y19000429D01*
X1986910Y18940343D01*
X2045923Y18919957D01*
X2119957Y18916738D01*
X2257058Y18933906D01*
X2385098Y18985408D01*
X2504077Y19071245D01*
X2599452Y19184740D01*
X2656676Y19319218D01*
X2675751Y19474678D01*
X2657392Y19622747D01*
X2602313Y19755079D01*
X2510515Y19871674D01*
X2392489Y19962279D01*
X2258727Y20016643D01*
X2109227Y20034764D01*
X2000858Y20024303D01*
X1898927Y19992918D01*
X1807725Y19944367D01*
X1731545Y19882403D01*
X1618884Y19751502D01*
X1542704Y19622747D01*
X1542704Y19890987D01*
X1538412Y19965021D01*
X1516953Y20022961D01*
X1456867Y20071245D01*
X1343133Y20086266D01*
X1232618Y20071245D01*
X1173605Y20021888D01*
X1152146Y19960730D01*
X1147854Y19886695D01*
X587768Y19886695D01*
X587768Y20607725D01*
X1124249Y20607725D01*
X1133637Y20491845D01*
X1161803Y20384549D01*
X1235837Y20238627D01*
X1274464Y20193562D01*
X1405365Y20112017D01*
X1551288Y20191416D01*
X1624249Y20324464D01*
X1553433Y20470386D01*
X1519099Y20594850D01*
X1551288Y20697854D01*
X1641416Y20734335D01*
X1730472Y20695708D01*
X1765880Y20601288D01*
X1735837Y20517597D01*
X1684335Y20397425D01*
X1727253Y20257940D01*
X1791631Y20162446D01*
X1853863Y20135622D01*
X2463305Y20215021D01*
X2523391Y20225751D01*
X2582403Y20250429D01*
X2639270Y20310515D01*
X2658584Y20412446D01*
X2656438Y20903863D01*
X2652146Y20977897D01*
X2631760Y21035837D01*
X2571674Y21084120D01*
X2454721Y21099142D01*
X2347425Y21085193D01*
X2290558Y21039056D01*
X2271245Y20983262D01*
X2268026Y20914592D01*
X2268026Y20584120D01*
X2154292Y20569099D01*
X2158584Y20605579D01*
X2158584Y20616309D01*
X2141774Y20746733D01*
X2091345Y20866190D01*
X2007296Y20974678D01*
X1901073Y21060515D01*
X1784120Y21112017D01*
X1656438Y21129185D01*
X1514211Y21112494D01*
X1387959Y21062423D01*
X1277682Y20978970D01*
X1192442Y20870959D01*
X1141297Y20747210D01*
X1124249Y20607725D01*
X587768Y20607725D01*
X587768Y21129185D01*
X587768Y21665665D01*
X3212232Y21665665D01*
X3212232Y21129185D01*
G37*
%TD*%
%LPC*%
D13*
%TO.C,SW101*%
X51670000Y11190000D03*
X51670000Y9190000D03*
X51670000Y10190000D03*
D14*
X52930000Y7190000D03*
X52930000Y13190000D03*
D15*
X52860000Y11690000D03*
X52860000Y8690000D03*
%TD*%
D16*
%TO.C,H101*%
X2450000Y24100000D03*
D17*
X2450000Y24100000D03*
%TD*%
D18*
%TO.C,J101*%
X11430000Y30400000D03*
X4270000Y30400000D03*
D19*
X10900000Y28370000D03*
X10900000Y32430000D03*
X4800000Y28370000D03*
X4800000Y32430000D03*
%TD*%
D20*
%TO.C,J701*%
X25300000Y50375000D03*
D21*
X45300000Y50375000D03*
D22*
X35300000Y22125000D03*
%TD*%
D23*
%TO.C,T401*%
X15770000Y41480000D03*
X15770000Y48480000D03*
%TD*%
D24*
%TO.C,TP105*%
X11130000Y22530000D03*
%TD*%
D25*
%TO.C,J501*%
X28050000Y9500000D03*
X13550000Y9500000D03*
D26*
X13550000Y3540000D03*
X28050000Y3540000D03*
%TD*%
D18*
%TO.C,USB701*%
X11430000Y18850000D03*
X4270000Y18850000D03*
D19*
X10900000Y16820000D03*
X10900000Y20880000D03*
X4800000Y16820000D03*
X4800000Y20880000D03*
%TD*%
D24*
%TO.C,TP104*%
X52490000Y54890000D03*
%TD*%
%TO.C,TP106*%
X42750000Y21200000D03*
%TD*%
D27*
%TO.C,Module301*%
X48950000Y3500000D03*
X48950000Y51500000D03*
D28*
X50990000Y34800000D03*
X47910000Y34800000D03*
X50990000Y34400000D03*
X47910000Y34400000D03*
X50990000Y34000000D03*
X47910000Y34000000D03*
X50990000Y33600000D03*
X47910000Y33600000D03*
X50990000Y33200000D03*
X47910000Y33200000D03*
X50990000Y32800000D03*
X47910000Y32800000D03*
X50990000Y32400000D03*
X47910000Y32400000D03*
X50990000Y32000000D03*
X47910000Y32000000D03*
X50990000Y31600000D03*
X47910000Y31600000D03*
X50990000Y31200000D03*
X47910000Y31200000D03*
X50990000Y30800000D03*
X47910000Y30800000D03*
X50990000Y30400000D03*
X47910000Y30400000D03*
X50990000Y30000000D03*
X47910000Y30000000D03*
X50990000Y29600000D03*
X47910000Y29600000D03*
X50990000Y29200000D03*
X47910000Y29200000D03*
X50990000Y28800000D03*
X47910000Y28800000D03*
X50990000Y28400000D03*
X47910000Y28400000D03*
X50990000Y28000000D03*
X47910000Y28000000D03*
X50990000Y27600000D03*
X47910000Y27600000D03*
X50990000Y27200000D03*
X47910000Y27200000D03*
X50990000Y26800000D03*
X47910000Y26800000D03*
X50990000Y26400000D03*
X47910000Y26400000D03*
X50990000Y26000000D03*
X47910000Y26000000D03*
X50990000Y25600000D03*
X47910000Y25600000D03*
X50990000Y25200000D03*
X47910000Y25200000D03*
X50990000Y24800000D03*
X47910000Y24800000D03*
X50990000Y24400000D03*
X47910000Y24400000D03*
X50990000Y24000000D03*
X47910000Y24000000D03*
X50990000Y23600000D03*
X47910000Y23600000D03*
X50990000Y23200000D03*
X47910000Y23200000D03*
X50990000Y22800000D03*
X47910000Y22800000D03*
X50990000Y22400000D03*
X47910000Y22400000D03*
X50990000Y22000000D03*
X47910000Y22000000D03*
X50990000Y21600000D03*
X47910000Y21600000D03*
X50990000Y21200000D03*
X47910000Y21200000D03*
X50990000Y20800000D03*
X47910000Y20800000D03*
X50990000Y20400000D03*
X47910000Y20400000D03*
X50990000Y20000000D03*
X47910000Y20000000D03*
X50990000Y19600000D03*
X47910000Y19600000D03*
X50990000Y19200000D03*
X47910000Y19200000D03*
X50990000Y18800000D03*
X47910000Y18800000D03*
X50990000Y18400000D03*
X47910000Y18400000D03*
X50990000Y18000000D03*
X47910000Y18000000D03*
X50990000Y17600000D03*
X47910000Y17600000D03*
X50990000Y17200000D03*
X47910000Y17200000D03*
X50990000Y16800000D03*
X47910000Y16800000D03*
X50990000Y16400000D03*
X47910000Y16400000D03*
X50990000Y16000000D03*
X47910000Y16000000D03*
X50990000Y15600000D03*
X47910000Y15600000D03*
X50990000Y15200000D03*
X47910000Y15200000D03*
%TD*%
D29*
%TO.C,D403*%
X16670000Y6290000D03*
X17170000Y6290000D03*
X17670000Y6290000D03*
X18170000Y6290000D03*
X18670000Y6290000D03*
X18670000Y5430000D03*
X18170000Y5430000D03*
X17670000Y5430000D03*
X17170000Y5430000D03*
X16670000Y5430000D03*
%TD*%
D30*
%TO.C,C702*%
X7850000Y19312500D03*
X7850000Y13087500D03*
%TD*%
D31*
%TO.C,R104*%
X53390000Y32050000D03*
X53390000Y33070000D03*
%TD*%
D27*
%TO.C,Module302*%
X48950000Y3500000D03*
X48950000Y51500000D03*
D28*
X16990000Y34800000D03*
X13910000Y34800000D03*
X16990000Y34400000D03*
X13910000Y34400000D03*
X16990000Y34000000D03*
X13910000Y34000000D03*
X16990000Y33600000D03*
X13910000Y33600000D03*
X16990000Y33200000D03*
X13910000Y33200000D03*
X16990000Y32800000D03*
X13910000Y32800000D03*
X16990000Y32400000D03*
X13910000Y32400000D03*
X16990000Y32000000D03*
X13910000Y32000000D03*
X16990000Y31600000D03*
X13910000Y31600000D03*
X16990000Y31200000D03*
X13910000Y31200000D03*
X16990000Y30800000D03*
X13910000Y30800000D03*
X16990000Y30400000D03*
X13910000Y30400000D03*
X16990000Y30000000D03*
X13910000Y30000000D03*
X16990000Y29600000D03*
X13910000Y29600000D03*
X16990000Y29200000D03*
X13910000Y29200000D03*
X16990000Y28800000D03*
X13910000Y28800000D03*
X16990000Y28400000D03*
X13910000Y28400000D03*
X16990000Y28000000D03*
X13910000Y28000000D03*
X16990000Y27600000D03*
X13910000Y27600000D03*
X16990000Y27200000D03*
X13910000Y27200000D03*
X16990000Y26800000D03*
X13910000Y26800000D03*
X16990000Y26400000D03*
X13910000Y26400000D03*
X16990000Y26000000D03*
X13910000Y26000000D03*
X16990000Y25600000D03*
X13910000Y25600000D03*
X16990000Y25200000D03*
X13910000Y25200000D03*
X16990000Y24800000D03*
X13910000Y24800000D03*
X16990000Y24400000D03*
X13910000Y24400000D03*
X16990000Y24000000D03*
X13910000Y24000000D03*
X16990000Y23600000D03*
X13910000Y23600000D03*
X16990000Y23200000D03*
X13910000Y23200000D03*
X16990000Y22800000D03*
X13910000Y22800000D03*
X16990000Y22400000D03*
X13910000Y22400000D03*
X16990000Y22000000D03*
X13910000Y22000000D03*
X16990000Y21600000D03*
X13910000Y21600000D03*
X16990000Y21200000D03*
X13910000Y21200000D03*
X16990000Y20800000D03*
X13910000Y20800000D03*
X16990000Y20400000D03*
X13910000Y20400000D03*
X16990000Y20000000D03*
X13910000Y20000000D03*
X16990000Y19600000D03*
X13910000Y19600000D03*
X16990000Y19200000D03*
X13910000Y19200000D03*
X16990000Y18800000D03*
X13910000Y18800000D03*
X16990000Y18400000D03*
X13910000Y18400000D03*
X16990000Y18000000D03*
X13910000Y18000000D03*
X16990000Y17600000D03*
X13910000Y17600000D03*
X16990000Y17200000D03*
X13910000Y17200000D03*
X16990000Y16800000D03*
X13910000Y16800000D03*
X16990000Y16400000D03*
X13910000Y16400000D03*
X16990000Y16000000D03*
X13910000Y16000000D03*
X16990000Y15600000D03*
X13910000Y15600000D03*
X16990000Y15200000D03*
X13910000Y15200000D03*
%TD*%
%LPD*%
M02*
