%TF.GenerationSoftware,KiCad,Pcbnew,8.0.7*%
%TF.CreationDate,2025-01-30T17:12:34+01:00*%
%TF.ProjectId,CM5_MINIMA_2,434d355f-4d49-44e4-994d-415f322e6b69,2*%
%TF.SameCoordinates,Original*%
%TF.FileFunction,Copper,L5,Inr*%
%TF.FilePolarity,Positive*%
%FSLAX46Y46*%
G04 Gerber Fmt 4.6, Leading zero omitted, Abs format (unit mm)*
G04 Created by KiCad (PCBNEW 8.0.7) date 2025-01-30 17:12:34*
%MOMM*%
%LPD*%
G01*
G04 APERTURE LIST*
%TA.AperFunction,ComponentPad*%
%ADD10C,0.900000*%
%TD*%
%TA.AperFunction,ComponentPad*%
%ADD11C,2.600000*%
%TD*%
%TA.AperFunction,ComponentPad*%
%ADD12C,0.800000*%
%TD*%
%TA.AperFunction,ComponentPad*%
%ADD13O,1.800000X0.860000*%
%TD*%
%TA.AperFunction,ComponentPad*%
%ADD14C,5.800000*%
%TD*%
%TA.AperFunction,ComponentPad*%
%ADD15C,1.000000*%
%TD*%
%TA.AperFunction,ComponentPad*%
%ADD16O,1.500000X3.300000*%
%TD*%
%TA.AperFunction,ComponentPad*%
%ADD17O,1.500000X2.300000*%
%TD*%
%TA.AperFunction,ViaPad*%
%ADD18C,0.450000*%
%TD*%
G04 APERTURE END LIST*
D10*
%TO.N,*%
%TO.C,SW101*%
X52860000Y11690000D03*
X52860000Y8690000D03*
%TD*%
D11*
%TO.N,GND*%
%TO.C,H101*%
X2450000Y24100000D03*
%TD*%
D12*
%TO.N,*%
%TO.C,J101*%
X11430000Y30400000D03*
X4270000Y30400000D03*
D13*
%TO.N,GND*%
X10900000Y28370000D03*
X10900000Y32430000D03*
X4800000Y28370000D03*
X4800000Y32430000D03*
%TD*%
D14*
%TO.N,GND*%
%TO.C,J701*%
X35300000Y22125000D03*
%TD*%
D15*
%TO.N,GND*%
%TO.C,TP105*%
X11130000Y22530000D03*
%TD*%
D16*
%TO.N,GND*%
%TO.C,J501*%
X28050000Y9500000D03*
X13550000Y9500000D03*
D17*
X13550000Y3540000D03*
X28050000Y3540000D03*
%TD*%
D12*
%TO.N,*%
%TO.C,USB701*%
X11430000Y18850000D03*
X4270000Y18850000D03*
D13*
%TO.N,GND*%
X10900000Y16820000D03*
X10900000Y20880000D03*
X4800000Y16820000D03*
X4800000Y20880000D03*
%TD*%
D15*
%TO.N,GND*%
%TO.C,TP104*%
X52490000Y54890000D03*
%TD*%
%TO.N,GND*%
%TO.C,TP106*%
X42750000Y21200000D03*
%TD*%
D18*
%TO.N,/CM5/nRPIBOOT*%
X52530000Y10220000D03*
%TO.N,GND*%
X30250000Y26440000D03*
X7850000Y24210000D03*
X32540000Y54420000D03*
X46860000Y39790000D03*
X7300000Y55200000D03*
X26680000Y32670000D03*
X49170000Y8150000D03*
X43490000Y50140000D03*
X25200000Y35630000D03*
X53687379Y16515183D03*
X8560500Y33180000D03*
X39940000Y49400000D03*
X7820000Y25370000D03*
X26507643Y34625511D03*
X13080000Y25190000D03*
X10170000Y13820000D03*
X11100000Y17900000D03*
X49560000Y14290000D03*
X38915000Y29360000D03*
X24960000Y40440000D03*
X30910000Y15470000D03*
X4650000Y19800000D03*
X25140000Y46120000D03*
X31050000Y5150000D03*
X24800000Y11940000D03*
X33560000Y17370000D03*
X21470000Y41920000D03*
X28040000Y54360000D03*
X25140000Y44550000D03*
X19530000Y8050000D03*
X49490000Y17790000D03*
X29110000Y19320000D03*
X53507714Y19393035D03*
X29140000Y13670000D03*
X29760000Y32040000D03*
X33050000Y28600000D03*
X30005000Y39390000D03*
X30940000Y13785000D03*
X45055000Y21570000D03*
X32260000Y6660000D03*
X51930000Y32370000D03*
X39770000Y16190000D03*
X32190000Y27860000D03*
X16250000Y21830000D03*
X21050000Y12790000D03*
X51910000Y28630000D03*
X31050000Y900000D03*
X32055000Y40290585D03*
X23462232Y21668615D03*
X49010000Y21990000D03*
X23990000Y44520000D03*
X13070000Y29760000D03*
X4510000Y33640000D03*
X29640000Y33020000D03*
X19260000Y7440000D03*
X44350000Y6640000D03*
X37540000Y49360000D03*
X30025000Y40305415D03*
X31230000Y30510000D03*
X47870000Y8650000D03*
X31040000Y40280000D03*
X52640000Y31350000D03*
X17520000Y49560000D03*
X49070000Y33690000D03*
X46820000Y30670000D03*
X14150000Y13850000D03*
X31020000Y39420000D03*
X39490000Y10650000D03*
X23230000Y43980000D03*
X46460000Y35230000D03*
X44120000Y13310000D03*
X24050000Y12770000D03*
X24810000Y8590000D03*
X12420000Y32180000D03*
X43550000Y13690000D03*
X4600000Y31350000D03*
X10530000Y27500000D03*
X15340000Y16620000D03*
X16130000Y7460000D03*
X48880000Y38110000D03*
X14810000Y21705000D03*
X49700000Y24900000D03*
X52400000Y29410000D03*
X41510000Y6630000D03*
X46090000Y47080000D03*
X16820000Y14380000D03*
X38050000Y17310000D03*
X25120000Y47640000D03*
X14690000Y15730000D03*
X17900000Y36810000D03*
X24020000Y43500000D03*
X46670000Y24390000D03*
X23300000Y8590000D03*
X32849147Y29674321D03*
X28590000Y34060000D03*
X2150000Y54550000D03*
X46250000Y6000000D03*
X25740000Y33810000D03*
X25790000Y6990000D03*
X28800000Y32150000D03*
X23990000Y47700000D03*
X30860000Y31010000D03*
X43330000Y16910000D03*
X28930000Y31190000D03*
X15910000Y26330000D03*
X49680000Y15330000D03*
X9100000Y9700000D03*
X21466457Y46110958D03*
X15980000Y30320000D03*
X7090000Y33130000D03*
X13160000Y17990000D03*
X26320000Y23290000D03*
X25270000Y41920000D03*
X51025000Y37425000D03*
X48440000Y11020000D03*
X48920000Y36990000D03*
X22840000Y26090000D03*
X20300000Y11950000D03*
X48750000Y23720000D03*
X26250000Y54390000D03*
X18810000Y35900000D03*
X18309997Y56200000D03*
X24750000Y22860000D03*
X7870000Y35430000D03*
X43780000Y12810000D03*
X21820000Y8630000D03*
X27590000Y33560000D03*
X9920000Y9710000D03*
X4600000Y29450000D03*
X49930000Y30110000D03*
X22310000Y55610000D03*
X4650000Y17900000D03*
X28420000Y24750000D03*
X17000000Y52200000D03*
X13130000Y16800000D03*
X16220000Y16690000D03*
X31050000Y3050000D03*
X14759937Y33283360D03*
X21110000Y26150000D03*
X13060000Y28900000D03*
X13200000Y22800000D03*
X17310000Y11830000D03*
X43790000Y16030000D03*
X33580000Y16770000D03*
X19530000Y26150000D03*
X40560000Y55630000D03*
X16270000Y15580000D03*
X35320000Y6695000D03*
X48930000Y28900000D03*
X9482596Y5805000D03*
X47420000Y13210000D03*
X6650000Y3700000D03*
X46360000Y36740000D03*
X34145870Y29095594D03*
X24032256Y40398462D03*
X20710000Y33830000D03*
X11100000Y31350000D03*
X50430000Y46860000D03*
X32070000Y39420000D03*
X52340000Y15530000D03*
X46280000Y46420000D03*
X37090000Y54520000D03*
X9200000Y11700000D03*
X6700000Y7000000D03*
X11100000Y19800000D03*
X23300000Y11950000D03*
X6890000Y15560000D03*
X43800000Y54420000D03*
X22320000Y39980000D03*
X13500000Y55000000D03*
X10960000Y15680000D03*
X50890000Y13100000D03*
X38423324Y50888908D03*
X45940000Y32170000D03*
X31420000Y27180000D03*
X11200000Y33800000D03*
X49020000Y32010000D03*
X25002189Y43369759D03*
X38540000Y6650000D03*
X28050000Y6600000D03*
X44500000Y31000000D03*
X53730000Y27840000D03*
X1800000Y35650000D03*
X16890000Y8540000D03*
X38970000Y11700000D03*
X43120000Y29420000D03*
X16010000Y23095000D03*
X33120000Y30350000D03*
X17690000Y7050000D03*
X6816801Y21684179D03*
X26380000Y50550000D03*
X32010000Y31340000D03*
X17730000Y16360000D03*
X16730000Y35350000D03*
X48923266Y19923266D03*
X39490000Y10030000D03*
X29970000Y30210000D03*
X29500000Y50820000D03*
X22210000Y52210000D03*
X8888938Y21691637D03*
X5650000Y6550000D03*
X15310000Y33850000D03*
X42190000Y29410000D03*
X21800000Y11930000D03*
X27090000Y35340000D03*
X45160000Y32100000D03*
X25940000Y36440000D03*
X29180000Y15800000D03*
X13070000Y26410000D03*
X44370000Y54420000D03*
%TO.N,Net-(T401-SHIELD1)*%
X3675000Y36050000D03*
X3575000Y54025000D03*
%TO.N,/CM5/ETH_PI.TRD3_P*%
X24383749Y46574000D03*
%TO.N,/CM5/ETH_PI.TRD0_P*%
X24461583Y40886500D03*
%TO.N,/CM5/ETH_PI.TRD1_P*%
X24494787Y42386500D03*
%TO.N,/CM5/ETH_PI.TRD2_P*%
X24435825Y45074000D03*
%TO.N,/CM5/nLED_ACTIVITY*%
X52130000Y23330000D03*
%TO.N,/CM5/nRPIBOOT*%
X51900000Y16510000D03*
%TO.N,/CM5/GPIO_VREF*%
X46040000Y17070000D03*
%TO.N,/CM5/EEPROM_nWP*%
X48920000Y31290000D03*
X51950000Y33020000D03*
%TO.N,/CM5/PI_nLED_PWR*%
X52830000Y19440000D03*
%TO.N,/CM5/nLED_SPEED_100_1000*%
X51980000Y31600000D03*
X21600000Y52080000D03*
%TO.N,/SCL*%
X48950000Y8870000D03*
X27440000Y6050000D03*
X48925000Y19175000D03*
%TO.N,/SDA*%
X50225000Y13100000D03*
X26530000Y7000000D03*
X49575000Y18450000D03*
X48130000Y13110000D03*
X49975000Y10950000D03*
%TO.N,/CM5/GPIO5*%
X31600000Y39910000D03*
%TO.N,+3V3_PI*%
X46925000Y10950000D03*
X9990000Y5390000D03*
X46526815Y18258185D03*
X42500000Y18256371D03*
X47275000Y18325000D03*
X21975000Y39425000D03*
X5482109Y4410903D03*
X46600000Y22430000D03*
X23880000Y22450000D03*
X46600000Y21840000D03*
%TO.N,Net-(D702-K)*%
X18890000Y56200000D03*
X22690000Y56090000D03*
%TO.N,/CM5/CAM_GPIO0*%
X43750000Y21840000D03*
%TO.N,/CM5/PWR_BUT*%
X49450000Y17150000D03*
X53370000Y17025000D03*
%TO.N,/CM5/VBUS_EN*%
X20219615Y33520283D03*
X8150000Y14725000D03*
%TO.N,/CM5/PWM*%
X43300000Y30120000D03*
X50270000Y31160000D03*
%TO.N,/CM5/TACHO*%
X44685000Y31645000D03*
%TO.N,/CM5/CAM_GPIO1*%
X44590000Y22280000D03*
%TO.N,/USB_C.D_P*%
X7561500Y32608872D03*
X18050932Y36026382D03*
%TO.N,/CC2*%
X6764066Y32121560D03*
X47760000Y14300000D03*
%TO.N,/USB_C.D_N*%
X8138500Y32608872D03*
X7500000Y28700000D03*
X17642930Y35618380D03*
%TO.N,/CC1*%
X8900000Y28750000D03*
X49640000Y16080000D03*
%TO.N,+5V*%
X31690000Y17200000D03*
X12280000Y12910000D03*
X50300000Y19100000D03*
X12872500Y14100000D03*
X53070000Y23270000D03*
X6175000Y28575000D03*
X53630000Y19960000D03*
X9525000Y32275000D03*
X6100000Y32475000D03*
X10060000Y23630000D03*
X51700000Y18900000D03*
X31100000Y17200000D03*
X51700000Y17800000D03*
X9500000Y28250000D03*
X40750000Y17310000D03*
X40445356Y16688826D03*
X6210000Y24130000D03*
X6275000Y28025000D03*
X6180000Y33050000D03*
X11870000Y25480000D03*
X51700000Y18350000D03*
X41070000Y16710000D03*
X12872500Y13550000D03*
%TO.N,VBUS_USB2.0*%
X6550000Y16200000D03*
X6100000Y20500000D03*
%TO.N,+1V8*%
X47360000Y17600000D03*
%TO.N,/CM5/ETH_nLED_ACTIVITY*%
X49325000Y32650000D03*
X22600000Y38900000D03*
%TO.N,/CM5/ETH_PI.TRD0_N*%
X24461583Y41463500D03*
%TO.N,/CM5/ETH_PI.TRD2_N*%
X24435825Y45651000D03*
%TO.N,/CM5/ETH_PI.TRD1_N*%
X24494787Y42963500D03*
%TO.N,/CM5/ETH_PI.TRD3_N*%
X24383749Y47151000D03*
%TO.N,M2_3V3*%
X40550000Y29360000D03*
X43170000Y49400000D03*
X46950000Y47175000D03*
X47250000Y45200000D03*
X30040000Y50005000D03*
X39770000Y29360000D03*
X41280000Y29370000D03*
X43300000Y10110000D03*
X26986178Y50005000D03*
X29060000Y50005000D03*
X37400000Y17280000D03*
X43800000Y49340000D03*
X45225000Y47725000D03*
X46950000Y46575000D03*
X44920000Y48380000D03*
%TO.N,/USB/CC1*%
X8900000Y16700000D03*
X9490000Y21960000D03*
%TO.N,/CM5/USB2P.D_P*%
X7561500Y21300312D03*
%TO.N,/CM5/USB2P.D_N*%
X7500000Y17200000D03*
X8138500Y21300312D03*
%TO.N,/CM5/PCIE_PI.TX_N*%
X16054001Y31105999D03*
%TO.N,/CM5/PCIE_PI.nWAKE*%
X39271443Y49613161D03*
%TO.N,/CM5/PCIE_PI.nCLKREQ*%
X37880000Y50570000D03*
%TO.N,/CM5/PCIE_PI.PWR_EN*%
X44760000Y10070000D03*
X20310000Y26230000D03*
X15659178Y34405000D03*
%TO.N,/CM5/PCIE_PI.RX_N*%
X15789286Y32771284D03*
%TO.N,/CM5/PCIE_PI.CLK_P*%
X41070000Y54188500D03*
%TO.N,/CM5/PCIE_PI.RX_P*%
X15381284Y33179286D03*
%TO.N,/CM5/PCIE_PI.TX_P*%
X15645999Y31514001D03*
%TO.N,/CM5/PCIE_PI.CLK_N*%
X41070000Y53611500D03*
%TO.N,/CM5/PCIE_PI.nRST*%
X38217788Y49178836D03*
%TO.N,/CM5/DPHY0_P.D0_P*%
X26314001Y35245999D03*
%TO.N,/CM5/DPHY0_P.C_P*%
X28894001Y32935999D03*
%TO.N,/CM5/DPHY0_P.D1_P*%
X26854001Y33465999D03*
%TO.N,/CM5/DPHY0_P.D2_P*%
X30034001Y30885999D03*
%TO.N,/CM5/DPHY0_P.D3_N*%
X31915999Y30614001D03*
%TO.N,/CM5/DPHY0_P.D3_P*%
X32324001Y30205999D03*
%TO.N,/CM5/DPHY0_P.D0_N*%
X25905999Y35654001D03*
%TO.N,/CM5/DPHY0_P.D2_N*%
X29625999Y31294001D03*
%TO.N,/CM5/DPHY0_P.C_N*%
X28485999Y33344001D03*
%TO.N,/CM5/DPHY0_P.D1_N*%
X26445999Y33874001D03*
%TO.N,/CM5/HDMI_PI.CK_P*%
X14870000Y17688500D03*
%TO.N,/CM5/HDMI_PI.CK_N*%
X14870000Y17111500D03*
%TO.N,/CM5/HDMI_PI.D0_N*%
X15850000Y18321500D03*
%TO.N,/CM5/HDMI_PI.SCL*%
X18640000Y7420000D03*
%TO.N,/CM5/HDMI_PI.D2_P*%
X15830000Y21308500D03*
%TO.N,/CM5/HDMI_PI.D0_P*%
X15850000Y18898500D03*
%TO.N,/CM5/HDMI_PI.D1_N*%
X14930000Y19521500D03*
%TO.N,/CM5/HDMI_PI.HOTPLUG*%
X17195816Y7506836D03*
%TO.N,/CM5/HDMI_PI.D1_P*%
X14930000Y20098500D03*
%TO.N,/CM5/HDMI_PI.D2_N*%
X15830000Y20731500D03*
%TO.N,/CM5/HDMI_PI.SDA*%
X17800000Y7970000D03*
%TO.N,/CM5/HDMI_PI.CEC*%
X19300000Y8600000D03*
%TO.N,/CM5/MOSI_GPIO20*%
X50360000Y29600000D03*
X32210000Y28570000D03*
%TO.N,/CM5/MISO_GPIO19*%
X49310000Y30010000D03*
X33800000Y28630000D03*
%TO.N,/CM5/SCLK_GPIO21*%
X32200000Y27250000D03*
X51975000Y30000000D03*
%TO.N,/CM5/BL_GPIO18*%
X50310000Y25200000D03*
X23290000Y25620000D03*
%TO.N,/CM5/RST_GPIO27*%
X27790000Y24490000D03*
X46460000Y24960000D03*
%TO.N,/CM5/DC_GPI25*%
X26610000Y23880000D03*
X48680000Y24410000D03*
%TO.N,/CM5/GPIO4*%
X30460000Y39890000D03*
%TO.N,/CM5/CS_GPIO24*%
X30700000Y26900000D03*
X51760000Y25590000D03*
%TO.N,GND*%
X52120000Y26069998D03*
%TO.N,+5V*%
X51700000Y19450000D03*
X50300000Y19675000D03*
%TD*%
%TA.AperFunction,Conductor*%
%TO.N,GND*%
G36*
X18728429Y56647826D02*
G01*
X18750103Y56595500D01*
X18728429Y56543174D01*
X18709699Y56529567D01*
X18671640Y56510175D01*
X18666533Y56507572D01*
X18582428Y56423467D01*
X18528426Y56317484D01*
X18528426Y56317483D01*
X18509819Y56200000D01*
X18528426Y56082518D01*
X18528426Y56082517D01*
X18530952Y56077560D01*
X18582427Y55976535D01*
X18666535Y55892427D01*
X18772518Y55838426D01*
X18890000Y55819819D01*
X19007482Y55838426D01*
X19113465Y55892427D01*
X19197573Y55976535D01*
X19251574Y56082518D01*
X19252759Y56090000D01*
X22309819Y56090000D01*
X22328426Y55972518D01*
X22328426Y55972517D01*
X22355941Y55918516D01*
X22382427Y55866535D01*
X22466535Y55782427D01*
X22572518Y55728426D01*
X22690000Y55709819D01*
X22807482Y55728426D01*
X22913465Y55782427D01*
X22997573Y55866535D01*
X23051574Y55972518D01*
X23070181Y56090000D01*
X23051574Y56207482D01*
X22997573Y56313465D01*
X22913465Y56397573D01*
X22861484Y56424059D01*
X22807483Y56451574D01*
X22690000Y56470181D01*
X22572517Y56451574D01*
X22572516Y56451574D01*
X22466533Y56397572D01*
X22382428Y56313467D01*
X22328426Y56207484D01*
X22328426Y56207483D01*
X22309819Y56090000D01*
X19252759Y56090000D01*
X19270181Y56200000D01*
X19251574Y56317482D01*
X19197573Y56423465D01*
X19113465Y56507573D01*
X19070300Y56529567D01*
X19033519Y56572633D01*
X19037963Y56629096D01*
X19081030Y56665878D01*
X19103897Y56669500D01*
X50535680Y56669500D01*
X50535684Y56669499D01*
X50599757Y56669500D01*
X50603387Y56669411D01*
X50622963Y56668450D01*
X50940973Y56652829D01*
X50948173Y56652120D01*
X51280709Y56602795D01*
X51287824Y56601379D01*
X51613922Y56519698D01*
X51620836Y56517601D01*
X51937358Y56404349D01*
X51944066Y56401570D01*
X52121855Y56317484D01*
X52247958Y56257843D01*
X52254335Y56254435D01*
X52542690Y56081604D01*
X52548722Y56077573D01*
X52818727Y55877326D01*
X52824341Y55872719D01*
X53073423Y55646966D01*
X53078550Y55641839D01*
X53304307Y55392756D01*
X53308907Y55387151D01*
X53509154Y55117149D01*
X53513189Y55111111D01*
X53686013Y54822773D01*
X53689436Y54816368D01*
X53833159Y54512493D01*
X53835938Y54505784D01*
X53949186Y54189278D01*
X53951294Y54182329D01*
X54032974Y53856250D01*
X54034391Y53849127D01*
X54083715Y53516611D01*
X54084427Y53509384D01*
X54100984Y53172362D01*
X54101073Y53168731D01*
X54101073Y20170810D01*
X54079399Y20118484D01*
X54027073Y20096810D01*
X53974747Y20118484D01*
X53961139Y20137214D01*
X53937573Y20183465D01*
X53853465Y20267573D01*
X53801484Y20294059D01*
X53747483Y20321574D01*
X53630000Y20340181D01*
X53512517Y20321574D01*
X53512516Y20321574D01*
X53406533Y20267572D01*
X53322428Y20183467D01*
X53268426Y20077484D01*
X53268426Y20077483D01*
X53249819Y19960000D01*
X53268426Y19842518D01*
X53268426Y19842517D01*
X53273343Y19832867D01*
X53322427Y19736535D01*
X53406535Y19652427D01*
X53512518Y19598426D01*
X53630000Y19579819D01*
X53747482Y19598426D01*
X53853465Y19652427D01*
X53937573Y19736535D01*
X53961139Y19782787D01*
X54004206Y19819569D01*
X54060668Y19815125D01*
X54097451Y19772058D01*
X54101073Y19749191D01*
X54101073Y4031820D01*
X54100984Y4028189D01*
X54084400Y3690619D01*
X54083688Y3683392D01*
X54034363Y3350877D01*
X54032946Y3343755D01*
X53951270Y3017682D01*
X53949162Y3010732D01*
X53835913Y2694227D01*
X53833134Y2687518D01*
X53689412Y2383645D01*
X53685989Y2377240D01*
X53513167Y2088905D01*
X53509132Y2082867D01*
X53308890Y1812873D01*
X53304283Y1807259D01*
X53078529Y1558180D01*
X53073394Y1553046D01*
X52824334Y1327312D01*
X52818720Y1322704D01*
X52548702Y1122447D01*
X52542664Y1118413D01*
X52254344Y945602D01*
X52247940Y942179D01*
X51944057Y798456D01*
X51937348Y795677D01*
X51620849Y682433D01*
X51613899Y680325D01*
X51287821Y598648D01*
X51280698Y597231D01*
X50948185Y547910D01*
X50940958Y547198D01*
X50602840Y530590D01*
X50599210Y530501D01*
X50531155Y530501D01*
X50531139Y530500D01*
X50135321Y530500D01*
X50082995Y552174D01*
X50061321Y604500D01*
X50082995Y656826D01*
X50110881Y674347D01*
X50119208Y677261D01*
X50119212Y677264D01*
X50119215Y677264D01*
X50427910Y825924D01*
X50718018Y1008211D01*
X50985893Y1221834D01*
X51228166Y1464107D01*
X51441789Y1731982D01*
X51624076Y2022090D01*
X51772736Y2330785D01*
X51772736Y2330788D01*
X51772739Y2330792D01*
X51853177Y2560675D01*
X51885897Y2654183D01*
X51962139Y2988217D01*
X52000500Y3328688D01*
X52000500Y3671312D01*
X51962139Y4011783D01*
X51913445Y4225124D01*
X51885898Y4345813D01*
X51885892Y4345831D01*
X51772739Y4669209D01*
X51723968Y4770483D01*
X51624076Y4977910D01*
X51441789Y5268018D01*
X51228166Y5535893D01*
X50985893Y5778166D01*
X50718018Y5991789D01*
X50427910Y6174076D01*
X50427908Y6174077D01*
X50119208Y6322740D01*
X49795830Y6435893D01*
X49795812Y6435899D01*
X49461786Y6512139D01*
X49315866Y6528580D01*
X49121312Y6550500D01*
X48778688Y6550500D01*
X48608452Y6531320D01*
X48438213Y6512139D01*
X48104187Y6435899D01*
X48104169Y6435893D01*
X47780791Y6322740D01*
X47472091Y6174077D01*
X47181981Y5991789D01*
X46914103Y5778163D01*
X46671837Y5535897D01*
X46458211Y5268019D01*
X46275923Y4977909D01*
X46127260Y4669209D01*
X46014107Y4345831D01*
X46014101Y4345813D01*
X45946145Y4048077D01*
X45913370Y4001886D01*
X45857533Y3992399D01*
X45811342Y4025174D01*
X45800000Y4064544D01*
X45800000Y6350000D01*
X31350000Y6350000D01*
X31350000Y604500D01*
X31328326Y552174D01*
X31276000Y530500D01*
X4051819Y530500D01*
X4048188Y530589D01*
X3710617Y547173D01*
X3703390Y547885D01*
X3370873Y597210D01*
X3363751Y598627D01*
X3051191Y676919D01*
X3037677Y680304D01*
X3030728Y682411D01*
X2714221Y795660D01*
X2707512Y798439D01*
X2403637Y942161D01*
X2397232Y945584D01*
X2108896Y1118406D01*
X2102858Y1122441D01*
X1832857Y1322688D01*
X1827244Y1327295D01*
X1578173Y1553039D01*
X1573038Y1558174D01*
X1526447Y1609579D01*
X1347294Y1807245D01*
X1342687Y1812858D01*
X1142440Y2082859D01*
X1138405Y2088897D01*
X1119999Y2119606D01*
X965579Y2377241D01*
X962160Y2383638D01*
X952164Y2404772D01*
X818436Y2687518D01*
X815659Y2694222D01*
X805302Y2723168D01*
X702406Y3010742D01*
X700306Y3017665D01*
X618625Y3343755D01*
X617209Y3350874D01*
X610082Y3398922D01*
X567882Y3683406D01*
X567173Y3690604D01*
X550588Y4028202D01*
X550500Y4031824D01*
X551482Y5657486D01*
X2564869Y5657486D01*
X2564869Y5248693D01*
X2603780Y4841770D01*
X2603782Y4841753D01*
X2665929Y4519738D01*
X2681246Y4440376D01*
X2783270Y4093402D01*
X2796567Y4048179D01*
X2948687Y3668758D01*
X2948692Y3668749D01*
X3136225Y3305546D01*
X3136229Y3305539D01*
X3136235Y3305528D01*
X3254304Y3122114D01*
X3321529Y3017682D01*
X3357503Y2961799D01*
X3610483Y2640691D01*
X3881160Y2357384D01*
X3892887Y2345110D01*
X3892890Y2345108D01*
X4202115Y2077774D01*
X4202119Y2077771D01*
X4202123Y2077768D01*
X4535411Y1841065D01*
X4724953Y1731982D01*
X4889719Y1637157D01*
X5063348Y1558180D01*
X5261820Y1467902D01*
X5261825Y1467901D01*
X5261828Y1467899D01*
X5648330Y1334836D01*
X5648345Y1334831D01*
X6045780Y1239153D01*
X6450519Y1181738D01*
X6858884Y1163107D01*
X7267169Y1183429D01*
X7671665Y1242520D01*
X8068701Y1339843D01*
X8454672Y1474514D01*
X8826072Y1645311D01*
X9179529Y1850682D01*
X9511834Y2088764D01*
X9819969Y2357393D01*
X9914912Y2457583D01*
X9925178Y2466182D01*
X9927558Y2468242D01*
X9927563Y2468244D01*
X9965274Y2510673D01*
X9966861Y2512401D01*
X10005884Y2553584D01*
X10005886Y2553590D01*
X10007909Y2556377D01*
X10015398Y2567060D01*
X10035024Y2589148D01*
X10133825Y2753464D01*
X10200669Y2933167D01*
X10233268Y3122108D01*
X10230506Y3313821D01*
X10192478Y3501745D01*
X10163919Y3572238D01*
X10120488Y3679443D01*
X10120486Y3679448D01*
X10016993Y3840850D01*
X9918158Y3945792D01*
X9885546Y3980420D01*
X9885543Y3980422D01*
X9885540Y3980426D01*
X9822127Y4026672D01*
X12670000Y4026672D01*
X12670000Y3618500D01*
X13100000Y3618500D01*
X13100000Y3461500D01*
X12670000Y3461500D01*
X12670000Y3053329D01*
X12703816Y2883320D01*
X12703818Y2883313D01*
X12770152Y2723168D01*
X12866458Y2579034D01*
X12989033Y2456459D01*
X13133167Y2360153D01*
X13293312Y2293819D01*
X13293319Y2293817D01*
X13463329Y2260000D01*
X13471500Y2260000D01*
X13471500Y2695160D01*
X13490756Y2690000D01*
X13609244Y2690000D01*
X13628500Y2695160D01*
X13628500Y2260000D01*
X13636671Y2260000D01*
X13806680Y2293817D01*
X13806687Y2293819D01*
X13966832Y2360153D01*
X14110966Y2456459D01*
X14110968Y2456460D01*
X14233540Y2579032D01*
X14233541Y2579034D01*
X14329847Y2723168D01*
X14396181Y2883313D01*
X14396183Y2883320D01*
X14430000Y3053329D01*
X14430000Y3461500D01*
X14000000Y3461500D01*
X14000000Y3618500D01*
X14430000Y3618500D01*
X14430000Y4026672D01*
X27170000Y4026672D01*
X27170000Y3618500D01*
X27600000Y3618500D01*
X27600000Y3461500D01*
X27170000Y3461500D01*
X27170000Y3053329D01*
X27203816Y2883320D01*
X27203818Y2883313D01*
X27270152Y2723168D01*
X27366458Y2579034D01*
X27489033Y2456459D01*
X27633167Y2360153D01*
X27793312Y2293819D01*
X27793319Y2293817D01*
X27963329Y2260000D01*
X27971500Y2260000D01*
X27971500Y2695160D01*
X27990756Y2690000D01*
X28109244Y2690000D01*
X28128500Y2695160D01*
X28128500Y2260000D01*
X28136671Y2260000D01*
X28306680Y2293817D01*
X28306687Y2293819D01*
X28466832Y2360153D01*
X28610966Y2456459D01*
X28610968Y2456460D01*
X28733540Y2579032D01*
X28733541Y2579034D01*
X28829847Y2723168D01*
X28896181Y2883313D01*
X28896183Y2883320D01*
X28930000Y3053329D01*
X28930000Y3461500D01*
X28500000Y3461500D01*
X28500000Y3618500D01*
X28930000Y3618500D01*
X28930000Y4026672D01*
X28896183Y4196681D01*
X28896181Y4196688D01*
X28829847Y4356833D01*
X28733541Y4500967D01*
X28610966Y4623542D01*
X28466832Y4719848D01*
X28306687Y4786182D01*
X28306680Y4786184D01*
X28136671Y4820000D01*
X28128500Y4820000D01*
X28128500Y4384841D01*
X28109244Y4390000D01*
X27990756Y4390000D01*
X27971500Y4384841D01*
X27971500Y4820000D01*
X27963329Y4820000D01*
X27793319Y4786184D01*
X27793312Y4786182D01*
X27633167Y4719848D01*
X27489033Y4623542D01*
X27489032Y4623540D01*
X27366460Y4500968D01*
X27366458Y4500967D01*
X27270152Y4356833D01*
X27203818Y4196688D01*
X27203816Y4196681D01*
X27170000Y4026672D01*
X14430000Y4026672D01*
X14396183Y4196681D01*
X14396181Y4196688D01*
X14329847Y4356833D01*
X14233541Y4500967D01*
X14110966Y4623542D01*
X13966832Y4719848D01*
X13806687Y4786182D01*
X13806680Y4786184D01*
X13636671Y4820000D01*
X13628500Y4820000D01*
X13628500Y4384841D01*
X13609244Y4390000D01*
X13490756Y4390000D01*
X13471500Y4384841D01*
X13471500Y4820000D01*
X13463329Y4820000D01*
X13293319Y4786184D01*
X13293312Y4786182D01*
X13133167Y4719848D01*
X12989033Y4623542D01*
X12989032Y4623540D01*
X12866460Y4500968D01*
X12866458Y4500967D01*
X12770152Y4356833D01*
X12703818Y4196688D01*
X12703816Y4196681D01*
X12670000Y4026672D01*
X9822127Y4026672D01*
X9820047Y4028189D01*
X9730629Y4093400D01*
X9730625Y4093402D01*
X9557558Y4175907D01*
X9557555Y4175908D01*
X9372247Y4225124D01*
X9181044Y4239364D01*
X9181042Y4239364D01*
X9181040Y4239364D01*
X9181035Y4239364D01*
X8990497Y4218142D01*
X8990486Y4218140D01*
X8807103Y4162180D01*
X8807102Y4162179D01*
X8637168Y4073401D01*
X8486486Y3954832D01*
X8446150Y3908758D01*
X8438435Y3901150D01*
X8235448Y3728388D01*
X8227497Y3722490D01*
X7993729Y3572238D01*
X7985062Y3567455D01*
X7733339Y3449755D01*
X7724111Y3446171D01*
X7458925Y3363122D01*
X7449301Y3360802D01*
X7175407Y3313893D01*
X7165559Y3312878D01*
X6887848Y3302949D01*
X6877954Y3303258D01*
X6601408Y3330484D01*
X6591642Y3332111D01*
X6321207Y3396007D01*
X6311747Y3398922D01*
X6052250Y3498347D01*
X6043263Y3502500D01*
X5799369Y3635667D01*
X5791021Y3640979D01*
X5567082Y3805510D01*
X5559514Y3811892D01*
X5460648Y3907286D01*
X5438042Y3959217D01*
X5458777Y4011921D01*
X5500452Y4033628D01*
X5599591Y4049329D01*
X5705574Y4103330D01*
X5789682Y4187438D01*
X5843683Y4293421D01*
X5862290Y4410903D01*
X5843683Y4528385D01*
X5789682Y4634368D01*
X5705574Y4718476D01*
X5641363Y4751193D01*
X5599592Y4772477D01*
X5482109Y4791084D01*
X5364626Y4772477D01*
X5364625Y4772477D01*
X5258642Y4718475D01*
X5174536Y4634369D01*
X5132605Y4552076D01*
X5089537Y4515293D01*
X5033075Y4519738D01*
X4998560Y4556744D01*
X4919944Y4741843D01*
X4916692Y4751193D01*
X4843173Y5019172D01*
X4841198Y5028872D01*
X4833985Y5082427D01*
X4804103Y5304288D01*
X4803442Y5314139D01*
X4803442Y5390000D01*
X9609819Y5390000D01*
X9628426Y5272518D01*
X9628426Y5272517D01*
X9640565Y5248693D01*
X9682427Y5166535D01*
X9766535Y5082427D01*
X9872518Y5028426D01*
X9990000Y5009819D01*
X10107482Y5028426D01*
X10213465Y5082427D01*
X10297573Y5166535D01*
X10351574Y5272518D01*
X10370181Y5390000D01*
X10351574Y5507482D01*
X10297573Y5613465D01*
X10213465Y5697573D01*
X10161484Y5724059D01*
X10107483Y5751574D01*
X9990000Y5770181D01*
X9872517Y5751574D01*
X9872516Y5751574D01*
X9766533Y5697572D01*
X9682428Y5613467D01*
X9628426Y5507484D01*
X9628426Y5507483D01*
X9609819Y5390000D01*
X4803442Y5390000D01*
X4803442Y5592035D01*
X4804104Y5601911D01*
X4813250Y5669820D01*
X4841194Y5877316D01*
X4843169Y5887014D01*
X4855653Y5932517D01*
X4887883Y6050000D01*
X27059819Y6050000D01*
X27078426Y5932518D01*
X27078426Y5932517D01*
X27105941Y5878516D01*
X27132427Y5826535D01*
X27216535Y5742427D01*
X27322518Y5688426D01*
X27440000Y5669819D01*
X27557482Y5688426D01*
X27663465Y5742427D01*
X27747573Y5826535D01*
X27801574Y5932518D01*
X27820181Y6050000D01*
X27801574Y6167482D01*
X27747573Y6273465D01*
X27663465Y6357573D01*
X27611484Y6384059D01*
X27557483Y6411574D01*
X27440000Y6430181D01*
X27322517Y6411574D01*
X27322516Y6411574D01*
X27216533Y6357572D01*
X27132428Y6273467D01*
X27078426Y6167484D01*
X27078426Y6167483D01*
X27059819Y6050000D01*
X4887883Y6050000D01*
X4916688Y6154998D01*
X4919934Y6164332D01*
X5028578Y6420138D01*
X5033032Y6428935D01*
X5174848Y6667950D01*
X5180437Y6676076D01*
X5352884Y6894017D01*
X5359513Y6901331D01*
X5559503Y7094300D01*
X5567060Y7100673D01*
X5791011Y7265216D01*
X5799345Y7270520D01*
X6043264Y7403703D01*
X6052234Y7407847D01*
X6311728Y7507274D01*
X6321181Y7510188D01*
X6591643Y7574090D01*
X6601375Y7575712D01*
X6877942Y7602944D01*
X6887830Y7603252D01*
X7165557Y7593323D01*
X7175380Y7592311D01*
X7449295Y7545402D01*
X7458903Y7543085D01*
X7724107Y7460032D01*
X7733315Y7456456D01*
X7985058Y7338749D01*
X7993707Y7333976D01*
X8227487Y7183720D01*
X8235427Y7177830D01*
X8306334Y7117483D01*
X8438423Y7005063D01*
X8446141Y6997452D01*
X8486464Y6951389D01*
X8637135Y6832822D01*
X8637141Y6832818D01*
X8744866Y6776535D01*
X8807078Y6744031D01*
X8913497Y6711555D01*
X8990462Y6688066D01*
X8990464Y6688066D01*
X8990466Y6688065D01*
X9181024Y6666837D01*
X9372232Y6681074D01*
X9557546Y6730288D01*
X9730623Y6812796D01*
X9885540Y6925774D01*
X9955446Y7000000D01*
X26149819Y7000000D01*
X26168426Y6882518D01*
X26168426Y6882517D01*
X26193747Y6832822D01*
X26222427Y6776535D01*
X26306535Y6692427D01*
X26412518Y6638426D01*
X26530000Y6619819D01*
X26647482Y6638426D01*
X26753465Y6692427D01*
X26837573Y6776535D01*
X26891574Y6882518D01*
X26910181Y7000000D01*
X26891574Y7117482D01*
X26837573Y7223465D01*
X26753465Y7307573D01*
X26692269Y7338754D01*
X26647483Y7361574D01*
X26530000Y7380181D01*
X26412517Y7361574D01*
X26412516Y7361574D01*
X26306533Y7307572D01*
X26222428Y7223467D01*
X26168426Y7117484D01*
X26168426Y7117483D01*
X26149819Y7000000D01*
X9955446Y7000000D01*
X10016996Y7065354D01*
X10120490Y7226761D01*
X10192482Y7404469D01*
X10213195Y7506836D01*
X16815635Y7506836D01*
X16834242Y7389354D01*
X16834242Y7389353D01*
X16861757Y7335352D01*
X16888243Y7283371D01*
X16972351Y7199263D01*
X17078334Y7145262D01*
X17195816Y7126655D01*
X17313298Y7145262D01*
X17419281Y7199263D01*
X17503389Y7283371D01*
X17557390Y7389354D01*
X17562244Y7420000D01*
X18259819Y7420000D01*
X18278426Y7302518D01*
X18278426Y7302517D01*
X18288182Y7283371D01*
X18332427Y7196535D01*
X18416535Y7112427D01*
X18522518Y7058426D01*
X18640000Y7039819D01*
X18757482Y7058426D01*
X18863465Y7112427D01*
X18947573Y7196535D01*
X19001574Y7302518D01*
X19020181Y7420000D01*
X19001574Y7537482D01*
X18947573Y7643465D01*
X18863465Y7727573D01*
X18811484Y7754059D01*
X18757483Y7781574D01*
X18640000Y7800181D01*
X18522517Y7781574D01*
X18522516Y7781574D01*
X18416533Y7727572D01*
X18332428Y7643467D01*
X18278426Y7537484D01*
X18278426Y7537483D01*
X18259819Y7420000D01*
X17562244Y7420000D01*
X17575997Y7506836D01*
X17571862Y7532940D01*
X17585083Y7588010D01*
X17633373Y7617604D01*
X17678547Y7610450D01*
X17682518Y7608426D01*
X17800000Y7589819D01*
X17917482Y7608426D01*
X18023465Y7662427D01*
X18107573Y7746535D01*
X18161574Y7852518D01*
X18180181Y7970000D01*
X18161574Y8087482D01*
X18107573Y8193465D01*
X18023465Y8277573D01*
X17971484Y8304059D01*
X17917483Y8331574D01*
X17800000Y8350181D01*
X17682517Y8331574D01*
X17682516Y8331574D01*
X17576533Y8277572D01*
X17492428Y8193467D01*
X17438426Y8087484D01*
X17438426Y8087483D01*
X17419819Y7970000D01*
X17423953Y7943898D01*
X17410731Y7888826D01*
X17362440Y7859233D01*
X17317270Y7866387D01*
X17313300Y7868410D01*
X17195816Y7887017D01*
X17078333Y7868410D01*
X17078332Y7868410D01*
X16972349Y7814408D01*
X16888244Y7730303D01*
X16834242Y7624320D01*
X16834242Y7624319D01*
X16815635Y7506836D01*
X10213195Y7506836D01*
X10230508Y7592398D01*
X10232830Y7753819D01*
X10233266Y7784108D01*
X10233265Y7784109D01*
X10233266Y7784116D01*
X10200661Y7973060D01*
X10133810Y8152766D01*
X10035001Y8317083D01*
X10022126Y8331574D01*
X10015433Y8339107D01*
X10007564Y8350327D01*
X10005884Y8352643D01*
X10005883Y8352646D01*
X10005880Y8352649D01*
X10005878Y8352652D01*
X9966851Y8393839D01*
X9965281Y8395549D01*
X9927548Y8437997D01*
X9927547Y8437998D01*
X9927545Y8438000D01*
X9925606Y8439678D01*
X9914834Y8448700D01*
X9819953Y8548823D01*
X9805919Y8561058D01*
X9511821Y8817447D01*
X9511818Y8817449D01*
X9511816Y8817451D01*
X9274487Y8987484D01*
X9179501Y9055536D01*
X8826054Y9260898D01*
X8826051Y9260900D01*
X8652957Y9340500D01*
X8454649Y9431696D01*
X8068680Y9566364D01*
X7671643Y9663684D01*
X7267150Y9722773D01*
X7063003Y9732933D01*
X6858861Y9743093D01*
X6858858Y9743093D01*
X6858857Y9743093D01*
X6450498Y9724461D01*
X6045773Y9667046D01*
X6045764Y9667044D01*
X6045758Y9667043D01*
X5883840Y9628063D01*
X5648311Y9571361D01*
X5261807Y9438293D01*
X5261796Y9438288D01*
X4889699Y9269033D01*
X4535386Y9065119D01*
X4202107Y8828421D01*
X3892853Y8561058D01*
X3892848Y8561054D01*
X3610478Y8265504D01*
X3610475Y8265501D01*
X3357486Y7944379D01*
X3192024Y7687337D01*
X3136223Y7600652D01*
X3087783Y7506835D01*
X2948679Y7237425D01*
X2948673Y7237413D01*
X2796563Y6858009D01*
X2796558Y6857995D01*
X2681239Y6465794D01*
X2603777Y6064418D01*
X2603776Y6064416D01*
X2564869Y5657486D01*
X551482Y5657486D01*
X554397Y10486672D01*
X12670000Y10486672D01*
X12670000Y9578500D01*
X13100000Y9578500D01*
X13100000Y9421500D01*
X12670000Y9421500D01*
X12670000Y8513329D01*
X12703816Y8343320D01*
X12703818Y8343313D01*
X12770152Y8183168D01*
X12866458Y8039034D01*
X12989033Y7916459D01*
X13133167Y7820153D01*
X13293312Y7753819D01*
X13293319Y7753817D01*
X13463329Y7720000D01*
X13471500Y7720000D01*
X13471500Y8155160D01*
X13490756Y8150000D01*
X13609244Y8150000D01*
X13628500Y8155160D01*
X13628500Y7720000D01*
X13636671Y7720000D01*
X13806680Y7753817D01*
X13806687Y7753819D01*
X13966832Y7820153D01*
X14110966Y7916459D01*
X14110968Y7916460D01*
X14233540Y8039032D01*
X14233541Y8039034D01*
X14329847Y8183168D01*
X14396181Y8343313D01*
X14396183Y8343320D01*
X14430000Y8513329D01*
X14430000Y8600000D01*
X18919819Y8600000D01*
X18938426Y8482518D01*
X18938426Y8482517D01*
X18965941Y8428516D01*
X18992427Y8376535D01*
X19076535Y8292427D01*
X19182518Y8238426D01*
X19300000Y8219819D01*
X19417482Y8238426D01*
X19523465Y8292427D01*
X19607573Y8376535D01*
X19661574Y8482518D01*
X19680181Y8600000D01*
X19661574Y8717482D01*
X19607573Y8823465D01*
X19523465Y8907573D01*
X19471484Y8934059D01*
X19417483Y8961574D01*
X19300000Y8980181D01*
X19182517Y8961574D01*
X19182516Y8961574D01*
X19076533Y8907572D01*
X18992428Y8823467D01*
X18938426Y8717484D01*
X18938426Y8717483D01*
X18919819Y8600000D01*
X14430000Y8600000D01*
X14430000Y9421500D01*
X14000000Y9421500D01*
X14000000Y9578500D01*
X14430000Y9578500D01*
X14430000Y10486672D01*
X27170000Y10486672D01*
X27170000Y9578500D01*
X27600000Y9578500D01*
X27600000Y9421500D01*
X27170000Y9421500D01*
X27170000Y8513329D01*
X27203816Y8343320D01*
X27203818Y8343313D01*
X27270152Y8183168D01*
X27366458Y8039034D01*
X27489033Y7916459D01*
X27633167Y7820153D01*
X27793312Y7753819D01*
X27793319Y7753817D01*
X27963329Y7720000D01*
X27971500Y7720000D01*
X27971500Y8155160D01*
X27990756Y8150000D01*
X28109244Y8150000D01*
X28128500Y8155160D01*
X28128500Y7720000D01*
X28136671Y7720000D01*
X28306680Y7753817D01*
X28306687Y7753819D01*
X28466832Y7820153D01*
X28610966Y7916459D01*
X28610968Y7916460D01*
X28733540Y8039032D01*
X28733541Y8039034D01*
X28829847Y8183168D01*
X28896181Y8343313D01*
X28896183Y8343320D01*
X28930000Y8513329D01*
X28930000Y8870000D01*
X48569819Y8870000D01*
X48588426Y8752518D01*
X48588426Y8752517D01*
X48598672Y8732409D01*
X48642427Y8646535D01*
X48726535Y8562427D01*
X48832518Y8508426D01*
X48950000Y8489819D01*
X49067482Y8508426D01*
X49173465Y8562427D01*
X49257573Y8646535D01*
X49311574Y8752518D01*
X49311820Y8754069D01*
X52209500Y8754069D01*
X52209500Y8625931D01*
X52211185Y8617462D01*
X52234497Y8500261D01*
X52234498Y8500258D01*
X52278578Y8393839D01*
X52283535Y8381873D01*
X52317144Y8331574D01*
X52353226Y8277572D01*
X52354724Y8275331D01*
X52445331Y8184724D01*
X52551873Y8113535D01*
X52670256Y8064499D01*
X52670258Y8064499D01*
X52670260Y8064498D01*
X52712903Y8056016D01*
X52795931Y8039500D01*
X52795933Y8039500D01*
X52924067Y8039500D01*
X52924069Y8039500D01*
X53049744Y8064499D01*
X53168127Y8113535D01*
X53274669Y8184724D01*
X53365276Y8275331D01*
X53436465Y8381873D01*
X53485501Y8500256D01*
X53510500Y8625931D01*
X53510500Y8754069D01*
X53496696Y8823465D01*
X53485502Y8879740D01*
X53485501Y8879743D01*
X53473973Y8907573D01*
X53436465Y8998127D01*
X53365276Y9104669D01*
X53274669Y9195276D01*
X53168127Y9266465D01*
X53168124Y9266467D01*
X53168123Y9266467D01*
X53049742Y9315502D01*
X53049739Y9315503D01*
X52959696Y9333414D01*
X52924069Y9340500D01*
X52795931Y9340500D01*
X52764726Y9334293D01*
X52670260Y9315503D01*
X52670257Y9315502D01*
X52551876Y9266467D01*
X52445331Y9195277D01*
X52445330Y9195275D01*
X52354725Y9104670D01*
X52354723Y9104669D01*
X52283533Y8998124D01*
X52234498Y8879743D01*
X52234497Y8879740D01*
X52222107Y8817447D01*
X52209500Y8754069D01*
X49311820Y8754069D01*
X49330181Y8870000D01*
X49311574Y8987482D01*
X49257573Y9093465D01*
X49173465Y9177573D01*
X49121484Y9204059D01*
X49067483Y9231574D01*
X48950000Y9250181D01*
X48832517Y9231574D01*
X48832516Y9231574D01*
X48726533Y9177572D01*
X48642428Y9093467D01*
X48588426Y8987484D01*
X48588426Y8987483D01*
X48569819Y8870000D01*
X28930000Y8870000D01*
X28930000Y9421500D01*
X28500000Y9421500D01*
X28500000Y9578500D01*
X28930000Y9578500D01*
X28930000Y10110000D01*
X42919819Y10110000D01*
X42938426Y9992518D01*
X42938426Y9992517D01*
X42963589Y9943132D01*
X42992427Y9886535D01*
X43076535Y9802427D01*
X43182518Y9748426D01*
X43300000Y9729819D01*
X43417482Y9748426D01*
X43523465Y9802427D01*
X43607573Y9886535D01*
X43661574Y9992518D01*
X43673846Y10070000D01*
X44349445Y10070000D01*
X44369539Y9943132D01*
X44369540Y9943127D01*
X44427852Y9828684D01*
X44518683Y9737853D01*
X44633126Y9679541D01*
X44633129Y9679541D01*
X44633132Y9679539D01*
X44760000Y9659445D01*
X44886868Y9679539D01*
X44886871Y9679541D01*
X44886873Y9679541D01*
X45001316Y9737853D01*
X45001315Y9737853D01*
X45001318Y9737854D01*
X45092146Y9828682D01*
X45121623Y9886534D01*
X45150459Y9943127D01*
X45150459Y9943129D01*
X45150461Y9943132D01*
X45170555Y10070000D01*
X45150461Y10196868D01*
X45150459Y10196871D01*
X45150459Y10196874D01*
X45138676Y10220000D01*
X52149819Y10220000D01*
X52168426Y10102518D01*
X52168426Y10102517D01*
X52184995Y10070000D01*
X52222427Y9996535D01*
X52306535Y9912427D01*
X52412518Y9858426D01*
X52530000Y9839819D01*
X52647482Y9858426D01*
X52753465Y9912427D01*
X52837573Y9996535D01*
X52891574Y10102518D01*
X52910181Y10220000D01*
X52891574Y10337482D01*
X52837573Y10443465D01*
X52753465Y10527573D01*
X52670551Y10569820D01*
X52647483Y10581574D01*
X52530000Y10600181D01*
X52412517Y10581574D01*
X52412516Y10581574D01*
X52306533Y10527572D01*
X52222428Y10443467D01*
X52168426Y10337484D01*
X52168426Y10337483D01*
X52149819Y10220000D01*
X45138676Y10220000D01*
X45092147Y10311317D01*
X45001316Y10402148D01*
X44886873Y10460460D01*
X44886868Y10460461D01*
X44760000Y10480555D01*
X44633131Y10460461D01*
X44633126Y10460460D01*
X44518683Y10402148D01*
X44427852Y10311317D01*
X44369540Y10196874D01*
X44369539Y10196869D01*
X44349445Y10070000D01*
X43673846Y10070000D01*
X43680181Y10110000D01*
X43661574Y10227482D01*
X43607573Y10333465D01*
X43523465Y10417573D01*
X43471484Y10444059D01*
X43417483Y10471574D01*
X43300000Y10490181D01*
X43182517Y10471574D01*
X43182516Y10471574D01*
X43076533Y10417572D01*
X42992428Y10333467D01*
X42938426Y10227484D01*
X42938426Y10227483D01*
X42919819Y10110000D01*
X28930000Y10110000D01*
X28930000Y10486672D01*
X28896183Y10656681D01*
X28896181Y10656688D01*
X28829847Y10816833D01*
X28740869Y10950000D01*
X46544819Y10950000D01*
X46563426Y10832518D01*
X46563426Y10832517D01*
X46570144Y10819333D01*
X46617427Y10726535D01*
X46701535Y10642427D01*
X46807518Y10588426D01*
X46925000Y10569819D01*
X47042482Y10588426D01*
X47148465Y10642427D01*
X47232573Y10726535D01*
X47286574Y10832518D01*
X47305181Y10950000D01*
X49594819Y10950000D01*
X49613426Y10832518D01*
X49613426Y10832517D01*
X49620144Y10819333D01*
X49667427Y10726535D01*
X49751535Y10642427D01*
X49857518Y10588426D01*
X49975000Y10569819D01*
X50092482Y10588426D01*
X50198465Y10642427D01*
X50282573Y10726535D01*
X50336574Y10832518D01*
X50355181Y10950000D01*
X50336574Y11067482D01*
X50282573Y11173465D01*
X50198465Y11257573D01*
X50146484Y11284059D01*
X50092483Y11311574D01*
X49975000Y11330181D01*
X49857517Y11311574D01*
X49857516Y11311574D01*
X49751533Y11257572D01*
X49667428Y11173467D01*
X49613426Y11067484D01*
X49613426Y11067483D01*
X49594819Y10950000D01*
X47305181Y10950000D01*
X47286574Y11067482D01*
X47232573Y11173465D01*
X47148465Y11257573D01*
X47096484Y11284059D01*
X47042483Y11311574D01*
X46925000Y11330181D01*
X46807517Y11311574D01*
X46807516Y11311574D01*
X46701533Y11257572D01*
X46617428Y11173467D01*
X46563426Y11067484D01*
X46563426Y11067483D01*
X46544819Y10950000D01*
X28740869Y10950000D01*
X28733541Y10960967D01*
X28610966Y11083542D01*
X28466832Y11179848D01*
X28306687Y11246182D01*
X28306680Y11246184D01*
X28136671Y11280000D01*
X28128500Y11280000D01*
X28128500Y10844841D01*
X28109244Y10850000D01*
X27990756Y10850000D01*
X27971500Y10844841D01*
X27971500Y11280000D01*
X27963329Y11280000D01*
X27793319Y11246184D01*
X27793312Y11246182D01*
X27633167Y11179848D01*
X27489033Y11083542D01*
X27489032Y11083540D01*
X27366460Y10960968D01*
X27366458Y10960967D01*
X27270152Y10816833D01*
X27203818Y10656688D01*
X27203816Y10656681D01*
X27170000Y10486672D01*
X14430000Y10486672D01*
X14396183Y10656681D01*
X14396181Y10656688D01*
X14329847Y10816833D01*
X14233541Y10960967D01*
X14110966Y11083542D01*
X13966832Y11179848D01*
X13806687Y11246182D01*
X13806680Y11246184D01*
X13636671Y11280000D01*
X13628500Y11280000D01*
X13628500Y10844841D01*
X13609244Y10850000D01*
X13490756Y10850000D01*
X13471500Y10844841D01*
X13471500Y11280000D01*
X13463329Y11280000D01*
X13293319Y11246184D01*
X13293312Y11246182D01*
X13133167Y11179848D01*
X12989033Y11083542D01*
X12989032Y11083540D01*
X12866460Y10960968D01*
X12866458Y10960967D01*
X12770152Y10816833D01*
X12703818Y10656688D01*
X12703816Y10656681D01*
X12670000Y10486672D01*
X554397Y10486672D01*
X555162Y11754068D01*
X52209500Y11754068D01*
X52209500Y11625933D01*
X52234497Y11500261D01*
X52234498Y11500258D01*
X52234499Y11500256D01*
X52283535Y11381873D01*
X52354724Y11275331D01*
X52445331Y11184724D01*
X52551873Y11113535D01*
X52670256Y11064499D01*
X52670258Y11064499D01*
X52670260Y11064498D01*
X52712903Y11056016D01*
X52795931Y11039500D01*
X52795933Y11039500D01*
X52924067Y11039500D01*
X52924069Y11039500D01*
X53049744Y11064499D01*
X53168127Y11113535D01*
X53274669Y11184724D01*
X53365276Y11275331D01*
X53436465Y11381873D01*
X53485501Y11500256D01*
X53510500Y11625931D01*
X53510500Y11754069D01*
X53485501Y11879744D01*
X53436465Y11998127D01*
X53365276Y12104669D01*
X53274669Y12195276D01*
X53168127Y12266465D01*
X53168124Y12266467D01*
X53168123Y12266467D01*
X53049742Y12315502D01*
X53049739Y12315503D01*
X52959696Y12333414D01*
X52924069Y12340500D01*
X52795931Y12340500D01*
X52764726Y12334293D01*
X52670260Y12315503D01*
X52670257Y12315502D01*
X52551876Y12266467D01*
X52445331Y12195277D01*
X52445330Y12195275D01*
X52354725Y12104670D01*
X52354723Y12104669D01*
X52283533Y11998124D01*
X52234498Y11879743D01*
X52234497Y11879740D01*
X52209500Y11754068D01*
X555162Y11754068D01*
X555860Y12910000D01*
X11899819Y12910000D01*
X11918426Y12792518D01*
X11918426Y12792517D01*
X11918471Y12792429D01*
X11972427Y12686535D01*
X12056535Y12602427D01*
X12162518Y12548426D01*
X12280000Y12529819D01*
X12397482Y12548426D01*
X12503465Y12602427D01*
X12587573Y12686535D01*
X12641574Y12792518D01*
X12660181Y12910000D01*
X12641574Y13027482D01*
X12599528Y13110000D01*
X47749819Y13110000D01*
X47768426Y12992518D01*
X47768426Y12992517D01*
X47795941Y12938516D01*
X47822427Y12886535D01*
X47906535Y12802427D01*
X48012518Y12748426D01*
X48130000Y12729819D01*
X48247482Y12748426D01*
X48353465Y12802427D01*
X48437573Y12886535D01*
X48491574Y12992518D01*
X48508597Y13100000D01*
X49844819Y13100000D01*
X49863426Y12982518D01*
X49863426Y12982517D01*
X49890941Y12928516D01*
X49917427Y12876535D01*
X50001535Y12792427D01*
X50107518Y12738426D01*
X50225000Y12719819D01*
X50342482Y12738426D01*
X50448465Y12792427D01*
X50532573Y12876535D01*
X50586574Y12982518D01*
X50605181Y13100000D01*
X50586574Y13217482D01*
X50532573Y13323465D01*
X50448465Y13407573D01*
X50396484Y13434059D01*
X50342483Y13461574D01*
X50225000Y13480181D01*
X50107517Y13461574D01*
X50107516Y13461574D01*
X50001533Y13407572D01*
X49917428Y13323467D01*
X49863426Y13217484D01*
X49863426Y13217483D01*
X49844819Y13100000D01*
X48508597Y13100000D01*
X48510181Y13110000D01*
X48491574Y13227482D01*
X48437573Y13333465D01*
X48353465Y13417573D01*
X48301484Y13444059D01*
X48247483Y13471574D01*
X48130000Y13490181D01*
X48012517Y13471574D01*
X48012516Y13471574D01*
X47906533Y13417572D01*
X47822428Y13333467D01*
X47768426Y13227484D01*
X47768426Y13227483D01*
X47749819Y13110000D01*
X12599528Y13110000D01*
X12594428Y13120010D01*
X12589984Y13176469D01*
X12626767Y13219537D01*
X12683229Y13223982D01*
X12693959Y13219537D01*
X12755018Y13188426D01*
X12872500Y13169819D01*
X12989982Y13188426D01*
X13095965Y13242427D01*
X13180073Y13326535D01*
X13234074Y13432518D01*
X13252681Y13550000D01*
X13234074Y13667482D01*
X13180073Y13773465D01*
X13180072Y13773466D01*
X13180071Y13773468D01*
X13176647Y13778181D01*
X13178135Y13779263D01*
X13159190Y13825000D01*
X13178135Y13870738D01*
X13176647Y13871819D01*
X13180071Y13876533D01*
X13180073Y13876535D01*
X13234074Y13982518D01*
X13252681Y14100000D01*
X13234074Y14217482D01*
X13192029Y14300000D01*
X47379819Y14300000D01*
X47398426Y14182518D01*
X47398426Y14182517D01*
X47425941Y14128516D01*
X47452427Y14076535D01*
X47536535Y13992427D01*
X47642518Y13938426D01*
X47760000Y13919819D01*
X47877482Y13938426D01*
X47983465Y13992427D01*
X48067573Y14076535D01*
X48121574Y14182518D01*
X48140181Y14300000D01*
X48121574Y14417482D01*
X48067573Y14523465D01*
X47983465Y14607573D01*
X47931484Y14634059D01*
X47877483Y14661574D01*
X47760000Y14680181D01*
X47642517Y14661574D01*
X47642516Y14661574D01*
X47536533Y14607572D01*
X47452428Y14523467D01*
X47398426Y14417484D01*
X47398426Y14417483D01*
X47379819Y14300000D01*
X13192029Y14300000D01*
X13180073Y14323465D01*
X13095965Y14407573D01*
X13043984Y14434059D01*
X12989983Y14461574D01*
X12872500Y14480181D01*
X12755017Y14461574D01*
X12755016Y14461574D01*
X12649033Y14407572D01*
X12564928Y14323467D01*
X12510926Y14217484D01*
X12510926Y14217483D01*
X12492319Y14100000D01*
X12510926Y13982518D01*
X12510926Y13982517D01*
X12564928Y13876533D01*
X12568353Y13871819D01*
X12566864Y13870738D01*
X12585810Y13825000D01*
X12566864Y13779263D01*
X12568353Y13778181D01*
X12564928Y13773468D01*
X12510926Y13667484D01*
X12510926Y13667483D01*
X12492319Y13550000D01*
X12510926Y13432518D01*
X12510926Y13432517D01*
X12530810Y13393492D01*
X12558070Y13339993D01*
X12562514Y13283531D01*
X12525732Y13240464D01*
X12469269Y13236020D01*
X12458541Y13240464D01*
X12397487Y13271573D01*
X12397482Y13271574D01*
X12280000Y13290181D01*
X12162517Y13271574D01*
X12162516Y13271574D01*
X12056533Y13217572D01*
X11972428Y13133467D01*
X11918426Y13027484D01*
X11918426Y13027483D01*
X11899819Y12910000D01*
X555860Y12910000D01*
X556956Y14725000D01*
X7769819Y14725000D01*
X7788426Y14607518D01*
X7788426Y14607517D01*
X7815941Y14553516D01*
X7842427Y14501535D01*
X7926535Y14417427D01*
X8032518Y14363426D01*
X8150000Y14344819D01*
X8267482Y14363426D01*
X8373465Y14417427D01*
X8457573Y14501535D01*
X8511574Y14607518D01*
X8530181Y14725000D01*
X8511574Y14842482D01*
X8457573Y14948465D01*
X8373465Y15032573D01*
X8321484Y15059059D01*
X8267483Y15086574D01*
X8150000Y15105181D01*
X8032517Y15086574D01*
X8032516Y15086574D01*
X7926533Y15032572D01*
X7842428Y14948467D01*
X7788426Y14842484D01*
X7788426Y14842483D01*
X7769819Y14725000D01*
X556956Y14725000D01*
X557847Y16200000D01*
X6169819Y16200000D01*
X6188426Y16082518D01*
X6188426Y16082517D01*
X6215941Y16028516D01*
X6242427Y15976535D01*
X6326535Y15892427D01*
X6432518Y15838426D01*
X6550000Y15819819D01*
X6667482Y15838426D01*
X6773465Y15892427D01*
X6857573Y15976535D01*
X6910291Y16080000D01*
X49259819Y16080000D01*
X49278426Y15962518D01*
X49278426Y15962517D01*
X49305941Y15908516D01*
X49332427Y15856535D01*
X49416535Y15772427D01*
X49522518Y15718426D01*
X49640000Y15699819D01*
X49757482Y15718426D01*
X49863465Y15772427D01*
X49947573Y15856535D01*
X50001574Y15962518D01*
X50020181Y16080000D01*
X50001574Y16197482D01*
X49947573Y16303465D01*
X49863465Y16387573D01*
X49793019Y16423467D01*
X49757483Y16441574D01*
X49640000Y16460181D01*
X49522517Y16441574D01*
X49522516Y16441574D01*
X49416533Y16387572D01*
X49332428Y16303467D01*
X49278426Y16197484D01*
X49278426Y16197483D01*
X49259819Y16080000D01*
X6910291Y16080000D01*
X6911574Y16082518D01*
X6930181Y16200000D01*
X6911574Y16317482D01*
X6857573Y16423465D01*
X6773465Y16507573D01*
X6721484Y16534059D01*
X6667483Y16561574D01*
X6550000Y16580181D01*
X6432517Y16561574D01*
X6432516Y16561574D01*
X6326533Y16507572D01*
X6242428Y16423467D01*
X6188426Y16317484D01*
X6188426Y16317483D01*
X6169819Y16200000D01*
X557847Y16200000D01*
X558269Y16898501D01*
X3771278Y16898501D01*
X3771279Y16898500D01*
X4111918Y16898500D01*
X4100001Y16869730D01*
X4100001Y16770270D01*
X4111918Y16741500D01*
X3771278Y16741500D01*
X3808161Y16603852D01*
X3808163Y16603847D01*
X3881886Y16476156D01*
X3986155Y16371887D01*
X4113846Y16298164D01*
X4113851Y16298162D01*
X4256272Y16260001D01*
X4256273Y16260000D01*
X4721500Y16260000D01*
X4721500Y16569988D01*
X4878500Y16569988D01*
X4878500Y16260000D01*
X5343727Y16260000D01*
X5343727Y16260001D01*
X5486148Y16298162D01*
X5486153Y16298164D01*
X5613844Y16371887D01*
X5718113Y16476156D01*
X5791836Y16603847D01*
X5791838Y16603852D01*
X5817601Y16700000D01*
X8519819Y16700000D01*
X8538426Y16582518D01*
X8538426Y16582517D01*
X8544119Y16571344D01*
X8592427Y16476535D01*
X8676535Y16392427D01*
X8782518Y16338426D01*
X8900000Y16319819D01*
X9017482Y16338426D01*
X9123465Y16392427D01*
X9207573Y16476535D01*
X9261574Y16582518D01*
X9280181Y16700000D01*
X9261574Y16817482D01*
X9220293Y16898501D01*
X9871278Y16898501D01*
X9871279Y16898500D01*
X10211918Y16898500D01*
X10200001Y16869730D01*
X10200001Y16770270D01*
X10211918Y16741500D01*
X9871278Y16741500D01*
X9908161Y16603852D01*
X9908163Y16603847D01*
X9981886Y16476156D01*
X10086155Y16371887D01*
X10213846Y16298164D01*
X10213851Y16298162D01*
X10356272Y16260001D01*
X10356273Y16260000D01*
X10821500Y16260000D01*
X10821500Y16569988D01*
X10978500Y16569988D01*
X10978500Y16260000D01*
X11443727Y16260000D01*
X11443727Y16260001D01*
X11586148Y16298162D01*
X11586153Y16298164D01*
X11713844Y16371887D01*
X11818113Y16476156D01*
X11891836Y16603847D01*
X11891838Y16603852D01*
X11928721Y16741500D01*
X11588082Y16741500D01*
X11599999Y16770270D01*
X11599999Y16869730D01*
X11588082Y16898500D01*
X11928721Y16898500D01*
X11928721Y16898501D01*
X11891838Y17036149D01*
X11891836Y17036154D01*
X11818113Y17163845D01*
X11713844Y17268114D01*
X11586153Y17341837D01*
X11586148Y17341839D01*
X11443727Y17380000D01*
X10978500Y17380000D01*
X10978500Y17070012D01*
X10821500Y17070012D01*
X10821500Y17380000D01*
X10356273Y17380000D01*
X10213851Y17341839D01*
X10213846Y17341837D01*
X10086155Y17268114D01*
X9981886Y17163845D01*
X9908163Y17036154D01*
X9908161Y17036149D01*
X9871278Y16898501D01*
X9220293Y16898501D01*
X9207573Y16923465D01*
X9123465Y17007573D01*
X9067372Y17036154D01*
X9017483Y17061574D01*
X8900000Y17080181D01*
X8782517Y17061574D01*
X8782516Y17061574D01*
X8676533Y17007572D01*
X8592428Y16923467D01*
X8538426Y16817484D01*
X8538426Y16817483D01*
X8519819Y16700000D01*
X5817601Y16700000D01*
X5828721Y16741500D01*
X5488082Y16741500D01*
X5499999Y16770270D01*
X5499999Y16869730D01*
X5488082Y16898500D01*
X5828721Y16898500D01*
X5828721Y16898501D01*
X5791838Y17036149D01*
X5791836Y17036154D01*
X5718113Y17163845D01*
X5681958Y17200000D01*
X7089445Y17200000D01*
X7109539Y17073132D01*
X7109540Y17073127D01*
X7167852Y16958684D01*
X7258683Y16867853D01*
X7373126Y16809541D01*
X7373129Y16809541D01*
X7373132Y16809539D01*
X7500000Y16789445D01*
X7626868Y16809539D01*
X7626871Y16809541D01*
X7626873Y16809541D01*
X7741316Y16867853D01*
X7741315Y16867853D01*
X7741318Y16867854D01*
X7832146Y16958682D01*
X7862152Y17017572D01*
X7890459Y17073127D01*
X7890459Y17073129D01*
X7890461Y17073132D01*
X7910555Y17200000D01*
X7890461Y17326868D01*
X7890459Y17326871D01*
X7890459Y17326874D01*
X7832147Y17441317D01*
X7741316Y17532148D01*
X7626873Y17590460D01*
X7626868Y17590461D01*
X7500000Y17610555D01*
X7373131Y17590461D01*
X7373126Y17590460D01*
X7258683Y17532148D01*
X7167852Y17441317D01*
X7109540Y17326874D01*
X7109539Y17326869D01*
X7089445Y17200000D01*
X5681958Y17200000D01*
X5613844Y17268114D01*
X5486153Y17341837D01*
X5486148Y17341839D01*
X5343727Y17380000D01*
X4878500Y17380000D01*
X4878500Y17070012D01*
X4721500Y17070012D01*
X4721500Y17380000D01*
X4256273Y17380000D01*
X4113851Y17341839D01*
X4113846Y17341837D01*
X3986155Y17268114D01*
X3881886Y17163845D01*
X3808163Y17036154D01*
X3808161Y17036149D01*
X3771278Y16898501D01*
X558269Y16898501D01*
X558746Y17688500D01*
X14439196Y17688500D01*
X14460280Y17555377D01*
X14460280Y17555376D01*
X14460281Y17555374D01*
X14518396Y17441317D01*
X14522331Y17433595D01*
X14526774Y17377133D01*
X14522331Y17366405D01*
X14521472Y17364721D01*
X14521472Y17364720D01*
X14497404Y17317484D01*
X14460280Y17244624D01*
X14439196Y17111500D01*
X14460280Y16978374D01*
X14516594Y16867853D01*
X14521472Y16858280D01*
X14616780Y16762972D01*
X14736873Y16701782D01*
X14736873Y16701781D01*
X14755075Y16698899D01*
X14870000Y16680696D01*
X14921331Y16688826D01*
X40065175Y16688826D01*
X40083782Y16571344D01*
X40083782Y16571343D01*
X40088760Y16561574D01*
X40137783Y16465361D01*
X40221891Y16381253D01*
X40327874Y16327252D01*
X40445356Y16308645D01*
X40562838Y16327252D01*
X40668821Y16381253D01*
X40715939Y16428371D01*
X40768265Y16450045D01*
X40820591Y16428371D01*
X40846535Y16402427D01*
X40952518Y16348426D01*
X41070000Y16329819D01*
X41187482Y16348426D01*
X41293465Y16402427D01*
X41377573Y16486535D01*
X41389529Y16510000D01*
X51519819Y16510000D01*
X51538426Y16392518D01*
X51538426Y16392517D01*
X51548938Y16371887D01*
X51592427Y16286535D01*
X51676535Y16202427D01*
X51782518Y16148426D01*
X51900000Y16129819D01*
X52017482Y16148426D01*
X52123465Y16202427D01*
X52207573Y16286535D01*
X52261574Y16392518D01*
X52280181Y16510000D01*
X52261574Y16627482D01*
X52207573Y16733465D01*
X52123465Y16817573D01*
X52043573Y16858280D01*
X52017483Y16871574D01*
X51900000Y16890181D01*
X51782517Y16871574D01*
X51782516Y16871574D01*
X51676533Y16817572D01*
X51592428Y16733467D01*
X51538426Y16627484D01*
X51538426Y16627483D01*
X51519819Y16510000D01*
X41389529Y16510000D01*
X41431574Y16592518D01*
X41450181Y16710000D01*
X41431574Y16827482D01*
X41377573Y16933465D01*
X41293465Y17017573D01*
X41241484Y17044059D01*
X41190572Y17070000D01*
X45659819Y17070000D01*
X45678426Y16952518D01*
X45678426Y16952517D01*
X45698922Y16912293D01*
X45732427Y16846535D01*
X45816535Y16762427D01*
X45922518Y16708426D01*
X46040000Y16689819D01*
X46157482Y16708426D01*
X46263465Y16762427D01*
X46347573Y16846535D01*
X46401574Y16952518D01*
X46420181Y17070000D01*
X46407510Y17150000D01*
X49069819Y17150000D01*
X49088426Y17032518D01*
X49088426Y17032517D01*
X49106830Y16996398D01*
X49142427Y16926535D01*
X49226535Y16842427D01*
X49332518Y16788426D01*
X49450000Y16769819D01*
X49567482Y16788426D01*
X49673465Y16842427D01*
X49757573Y16926535D01*
X49807743Y17025000D01*
X52989819Y17025000D01*
X53008426Y16907518D01*
X53008426Y16907517D01*
X53026740Y16871574D01*
X53062427Y16801535D01*
X53146535Y16717427D01*
X53252518Y16663426D01*
X53370000Y16644819D01*
X53487482Y16663426D01*
X53593465Y16717427D01*
X53677573Y16801535D01*
X53731574Y16907518D01*
X53750181Y17025000D01*
X53731574Y17142482D01*
X53677573Y17248465D01*
X53593465Y17332573D01*
X53507185Y17376535D01*
X53487483Y17386574D01*
X53370000Y17405181D01*
X53252517Y17386574D01*
X53252516Y17386574D01*
X53146533Y17332572D01*
X53062428Y17248467D01*
X53008426Y17142484D01*
X53008426Y17142483D01*
X52989819Y17025000D01*
X49807743Y17025000D01*
X49811574Y17032518D01*
X49830181Y17150000D01*
X49811574Y17267482D01*
X49757573Y17373465D01*
X49673465Y17457573D01*
X49605060Y17492427D01*
X49567483Y17511574D01*
X49450000Y17530181D01*
X49332517Y17511574D01*
X49332516Y17511574D01*
X49226533Y17457572D01*
X49142428Y17373467D01*
X49088426Y17267484D01*
X49088426Y17267483D01*
X49069819Y17150000D01*
X46407510Y17150000D01*
X46401574Y17187482D01*
X46347573Y17293465D01*
X46263465Y17377573D01*
X46180551Y17419820D01*
X46157483Y17431574D01*
X46040000Y17450181D01*
X45922517Y17431574D01*
X45922516Y17431574D01*
X45816533Y17377572D01*
X45732428Y17293467D01*
X45678426Y17187484D01*
X45678426Y17187483D01*
X45659819Y17070000D01*
X41190572Y17070000D01*
X41187483Y17071574D01*
X41160816Y17075798D01*
X41112526Y17105392D01*
X41099305Y17160465D01*
X41106458Y17182479D01*
X41111574Y17192518D01*
X41130181Y17310000D01*
X41111574Y17427482D01*
X41057573Y17533465D01*
X40973465Y17617573D01*
X40921484Y17644059D01*
X40867483Y17671574D01*
X40750000Y17690181D01*
X40632517Y17671574D01*
X40632516Y17671574D01*
X40526533Y17617572D01*
X40442428Y17533467D01*
X40388426Y17427484D01*
X40388426Y17427483D01*
X40369819Y17310000D01*
X40388426Y17192518D01*
X40388426Y17192517D01*
X40404669Y17160639D01*
X40409113Y17104176D01*
X40372331Y17061109D01*
X40350312Y17053954D01*
X40327872Y17050400D01*
X40221889Y16996398D01*
X40137784Y16912293D01*
X40083782Y16806310D01*
X40083782Y16806309D01*
X40065175Y16688826D01*
X14921331Y16688826D01*
X15003126Y16701781D01*
X15123220Y16762972D01*
X15218528Y16858280D01*
X15279719Y16978374D01*
X15300804Y17111500D01*
X15286787Y17200000D01*
X30719819Y17200000D01*
X30738426Y17082518D01*
X30738426Y17082517D01*
X30752980Y17053954D01*
X30792427Y16976535D01*
X30876535Y16892427D01*
X30982518Y16838426D01*
X31100000Y16819819D01*
X31217482Y16838426D01*
X31323465Y16892427D01*
X31342674Y16911636D01*
X31395000Y16933310D01*
X31447326Y16911636D01*
X31466535Y16892427D01*
X31572518Y16838426D01*
X31690000Y16819819D01*
X31807482Y16838426D01*
X31913465Y16892427D01*
X31997573Y16976535D01*
X32051574Y17082518D01*
X32070181Y17200000D01*
X32057510Y17280000D01*
X37019819Y17280000D01*
X37038426Y17162518D01*
X37038426Y17162517D01*
X37039383Y17160639D01*
X37092427Y17056535D01*
X37176535Y16972427D01*
X37282518Y16918426D01*
X37400000Y16899819D01*
X37517482Y16918426D01*
X37623465Y16972427D01*
X37707573Y17056535D01*
X37761574Y17162518D01*
X37780181Y17280000D01*
X37761574Y17397482D01*
X37707573Y17503465D01*
X37623465Y17587573D01*
X37564587Y17617573D01*
X37517483Y17641574D01*
X37400000Y17660181D01*
X37282517Y17641574D01*
X37282516Y17641574D01*
X37176533Y17587572D01*
X37092428Y17503467D01*
X37038426Y17397484D01*
X37038426Y17397483D01*
X37019819Y17280000D01*
X32057510Y17280000D01*
X32051574Y17317482D01*
X31997573Y17423465D01*
X31913465Y17507573D01*
X31861484Y17534059D01*
X31807483Y17561574D01*
X31690000Y17580181D01*
X31572517Y17561574D01*
X31572516Y17561574D01*
X31466533Y17507572D01*
X31447326Y17488364D01*
X31395000Y17466690D01*
X31342674Y17488364D01*
X31323466Y17507572D01*
X31323465Y17507573D01*
X31271484Y17534059D01*
X31217483Y17561574D01*
X31100000Y17580181D01*
X30982517Y17561574D01*
X30982516Y17561574D01*
X30876533Y17507572D01*
X30792428Y17423467D01*
X30738426Y17317484D01*
X30738426Y17317483D01*
X30719819Y17200000D01*
X15286787Y17200000D01*
X15279719Y17244626D01*
X15218528Y17364720D01*
X15218526Y17364722D01*
X15217669Y17366404D01*
X15213225Y17422867D01*
X15217669Y17433596D01*
X15218526Y17435279D01*
X15218528Y17435280D01*
X15279719Y17555374D01*
X15300804Y17688500D01*
X15279719Y17821626D01*
X15279719Y17821627D01*
X15218528Y17941720D01*
X15123219Y18037029D01*
X15003126Y18098219D01*
X15003126Y18098220D01*
X14870000Y18119304D01*
X14736873Y18098220D01*
X14736873Y18098219D01*
X14616780Y18037029D01*
X14521471Y17941720D01*
X14460281Y17821627D01*
X14460280Y17821627D01*
X14439196Y17688500D01*
X558746Y17688500D01*
X559495Y18929060D01*
X3669500Y18929060D01*
X3669500Y18770941D01*
X3710421Y18618221D01*
X3710422Y18618219D01*
X3710423Y18618216D01*
X3789480Y18481284D01*
X3901284Y18369480D01*
X4038216Y18290423D01*
X4190940Y18249501D01*
X4190941Y18249500D01*
X4190943Y18249500D01*
X4349059Y18249500D01*
X4349059Y18249501D01*
X4501784Y18290423D01*
X4638716Y18369480D01*
X4750520Y18481284D01*
X4829577Y18618216D01*
X4870499Y18770941D01*
X4870500Y18770941D01*
X4870500Y18929059D01*
X4870499Y18929060D01*
X10829500Y18929060D01*
X10829500Y18770941D01*
X10870421Y18618221D01*
X10870422Y18618219D01*
X10870423Y18618216D01*
X10949480Y18481284D01*
X11061284Y18369480D01*
X11198216Y18290423D01*
X11350940Y18249501D01*
X11350941Y18249500D01*
X11350943Y18249500D01*
X11509059Y18249500D01*
X11509059Y18249501D01*
X11661784Y18290423D01*
X11798716Y18369480D01*
X11910520Y18481284D01*
X11989577Y18618216D01*
X12030499Y18770941D01*
X12030500Y18770941D01*
X12030500Y18898500D01*
X15419196Y18898500D01*
X15440280Y18765377D01*
X15440280Y18765376D01*
X15440281Y18765374D01*
X15501472Y18645280D01*
X15502331Y18643595D01*
X15506774Y18587133D01*
X15502331Y18576405D01*
X15501472Y18574721D01*
X15501472Y18574720D01*
X15440281Y18454626D01*
X15440280Y18454624D01*
X15419196Y18321500D01*
X15440280Y18188374D01*
X15501471Y18068281D01*
X15501472Y18068280D01*
X15596780Y17972972D01*
X15716873Y17911782D01*
X15716873Y17911781D01*
X15735075Y17908899D01*
X15850000Y17890696D01*
X15983126Y17911781D01*
X16103220Y17972972D01*
X16198528Y18068280D01*
X16259719Y18188374D01*
X16270489Y18256371D01*
X42119819Y18256371D01*
X42138426Y18138889D01*
X42138426Y18138888D01*
X42157459Y18101535D01*
X42192427Y18032906D01*
X42276535Y17948798D01*
X42382518Y17894797D01*
X42500000Y17876190D01*
X42617482Y17894797D01*
X42723465Y17948798D01*
X42807573Y18032906D01*
X42861574Y18138889D01*
X42880181Y18256371D01*
X42879894Y18258185D01*
X46146634Y18258185D01*
X46165241Y18140703D01*
X46165241Y18140702D01*
X46176144Y18119304D01*
X46219242Y18034720D01*
X46303350Y17950612D01*
X46409333Y17896611D01*
X46526815Y17878004D01*
X46644297Y17896611D01*
X46750280Y17950612D01*
X46834388Y18034720D01*
X46855607Y18076366D01*
X46898674Y18113147D01*
X46955137Y18108703D01*
X46973867Y18095095D01*
X47051535Y18017427D01*
X47089867Y17997896D01*
X47126649Y17954829D01*
X47122205Y17898366D01*
X47108597Y17879637D01*
X47052428Y17823468D01*
X46998426Y17717484D01*
X46998426Y17717483D01*
X46979819Y17600000D01*
X46998426Y17482518D01*
X46998426Y17482517D01*
X47019418Y17441318D01*
X47052427Y17376535D01*
X47136535Y17292427D01*
X47242518Y17238426D01*
X47360000Y17219819D01*
X47477482Y17238426D01*
X47583465Y17292427D01*
X47667573Y17376535D01*
X47721574Y17482518D01*
X47740181Y17600000D01*
X47721574Y17717482D01*
X47667573Y17823465D01*
X47583465Y17907573D01*
X47575206Y17911781D01*
X47545132Y17927105D01*
X47508349Y17970173D01*
X47512794Y18026635D01*
X47526403Y18045365D01*
X47582571Y18101533D01*
X47582573Y18101535D01*
X47636574Y18207518D01*
X47655181Y18325000D01*
X47636574Y18442482D01*
X47632743Y18450000D01*
X49194819Y18450000D01*
X49213426Y18332518D01*
X49213426Y18332517D01*
X49219040Y18321500D01*
X49267427Y18226535D01*
X49351535Y18142427D01*
X49457518Y18088426D01*
X49575000Y18069819D01*
X49692482Y18088426D01*
X49798465Y18142427D01*
X49882573Y18226535D01*
X49936574Y18332518D01*
X49955181Y18450000D01*
X49936574Y18567482D01*
X49882573Y18673465D01*
X49798465Y18757573D01*
X49730060Y18792427D01*
X49692483Y18811574D01*
X49575000Y18830181D01*
X49457517Y18811574D01*
X49457516Y18811574D01*
X49351533Y18757572D01*
X49267428Y18673467D01*
X49213426Y18567484D01*
X49213426Y18567483D01*
X49194819Y18450000D01*
X47632743Y18450000D01*
X47582573Y18548465D01*
X47498465Y18632573D01*
X47423562Y18670738D01*
X47392483Y18686574D01*
X47275000Y18705181D01*
X47157517Y18686574D01*
X47157516Y18686574D01*
X47051533Y18632572D01*
X46967428Y18548467D01*
X46946208Y18506820D01*
X46903141Y18470038D01*
X46846678Y18474482D01*
X46827948Y18488090D01*
X46750281Y18565757D01*
X46750280Y18565758D01*
X46698299Y18592244D01*
X46644298Y18619759D01*
X46526815Y18638366D01*
X46409332Y18619759D01*
X46409331Y18619759D01*
X46303348Y18565757D01*
X46219243Y18481652D01*
X46165241Y18375669D01*
X46165241Y18375668D01*
X46146634Y18258185D01*
X42879894Y18258185D01*
X42861574Y18373853D01*
X42807573Y18479836D01*
X42723465Y18563944D01*
X42671484Y18590430D01*
X42617483Y18617945D01*
X42500000Y18636552D01*
X42382517Y18617945D01*
X42382516Y18617945D01*
X42276533Y18563943D01*
X42192428Y18479838D01*
X42138426Y18373855D01*
X42138426Y18373854D01*
X42119819Y18256371D01*
X16270489Y18256371D01*
X16280804Y18321500D01*
X16259719Y18454626D01*
X16198528Y18574720D01*
X16198526Y18574722D01*
X16197669Y18576404D01*
X16193225Y18632867D01*
X16197669Y18643596D01*
X16198526Y18645279D01*
X16198528Y18645280D01*
X16259719Y18765374D01*
X16280804Y18898500D01*
X16259719Y19031626D01*
X16259719Y19031627D01*
X16198528Y19151720D01*
X16103219Y19247029D01*
X15983126Y19308219D01*
X15983126Y19308220D01*
X15850000Y19329304D01*
X15716873Y19308220D01*
X15716873Y19308219D01*
X15596780Y19247029D01*
X15501471Y19151720D01*
X15440281Y19031627D01*
X15440280Y19031627D01*
X15419196Y18898500D01*
X12030500Y18898500D01*
X12030500Y18929059D01*
X12030499Y18929060D01*
X12003016Y19031627D01*
X11989577Y19081784D01*
X11910520Y19218716D01*
X11798716Y19330520D01*
X11661784Y19409577D01*
X11661781Y19409578D01*
X11661779Y19409579D01*
X11509059Y19450500D01*
X11509057Y19450500D01*
X11350943Y19450500D01*
X11350941Y19450500D01*
X11198220Y19409579D01*
X11198214Y19409576D01*
X11061283Y19330520D01*
X10949480Y19218717D01*
X10870424Y19081786D01*
X10870421Y19081780D01*
X10829500Y18929060D01*
X4870499Y18929060D01*
X4843016Y19031627D01*
X4829577Y19081784D01*
X4750520Y19218716D01*
X4638716Y19330520D01*
X4501784Y19409577D01*
X4501781Y19409578D01*
X4501779Y19409579D01*
X4349059Y19450500D01*
X4349057Y19450500D01*
X4190943Y19450500D01*
X4190941Y19450500D01*
X4038220Y19409579D01*
X4038214Y19409576D01*
X3901283Y19330520D01*
X3789480Y19218717D01*
X3710424Y19081786D01*
X3710421Y19081780D01*
X3669500Y18929060D01*
X559495Y18929060D01*
X560201Y20098500D01*
X14499196Y20098500D01*
X14520280Y19965377D01*
X14520280Y19965376D01*
X14520281Y19965374D01*
X14539986Y19926701D01*
X14582331Y19843595D01*
X14586774Y19787133D01*
X14582331Y19776405D01*
X14581472Y19774721D01*
X14581472Y19774720D01*
X14530662Y19675000D01*
X14520280Y19654624D01*
X14499196Y19521500D01*
X14520280Y19388374D01*
X14569140Y19292482D01*
X14581472Y19268280D01*
X14676780Y19172972D01*
X14796873Y19111782D01*
X14796873Y19111781D01*
X14812469Y19109311D01*
X14930000Y19090696D01*
X15063126Y19111781D01*
X15183220Y19172972D01*
X15278528Y19268280D01*
X15339719Y19388374D01*
X15360804Y19521500D01*
X15339719Y19654626D01*
X15278528Y19774720D01*
X15278526Y19774722D01*
X15277669Y19776404D01*
X15273225Y19832867D01*
X15277669Y19843596D01*
X15278526Y19845279D01*
X15278528Y19845280D01*
X15339719Y19965374D01*
X15360804Y20098500D01*
X15339719Y20231626D01*
X15339719Y20231627D01*
X15278528Y20351720D01*
X15183219Y20447029D01*
X15063126Y20508219D01*
X15063126Y20508220D01*
X14930000Y20529304D01*
X14796873Y20508220D01*
X14796873Y20508219D01*
X14676780Y20447029D01*
X14581471Y20351720D01*
X14520281Y20231627D01*
X14520280Y20231627D01*
X14499196Y20098500D01*
X560201Y20098500D01*
X560720Y20958501D01*
X3771278Y20958501D01*
X3771279Y20958500D01*
X4111918Y20958500D01*
X4100001Y20929730D01*
X4100001Y20830270D01*
X4111918Y20801500D01*
X3771278Y20801500D01*
X3808161Y20663852D01*
X3808163Y20663847D01*
X3881886Y20536156D01*
X3986155Y20431887D01*
X4113846Y20358164D01*
X4113851Y20358162D01*
X4256272Y20320001D01*
X4256273Y20320000D01*
X4721500Y20320000D01*
X4721500Y20629988D01*
X4878500Y20629988D01*
X4878500Y20320000D01*
X5343727Y20320000D01*
X5343727Y20320001D01*
X5486148Y20358162D01*
X5486153Y20358164D01*
X5613845Y20431888D01*
X5617689Y20434837D01*
X5619131Y20432958D01*
X5664248Y20451663D01*
X5716581Y20430006D01*
X5737361Y20389242D01*
X5738426Y20382516D01*
X5769373Y20321781D01*
X5792427Y20276535D01*
X5876535Y20192427D01*
X5982518Y20138426D01*
X6100000Y20119819D01*
X6217482Y20138426D01*
X6323465Y20192427D01*
X6407573Y20276535D01*
X6461574Y20382518D01*
X6480181Y20500000D01*
X6461574Y20617482D01*
X6407573Y20723465D01*
X6323465Y20807573D01*
X6271484Y20834059D01*
X6217483Y20861574D01*
X6100000Y20880181D01*
X5982517Y20861574D01*
X5899258Y20819152D01*
X5898873Y20819122D01*
X5898109Y20818566D01*
X5880446Y20809566D01*
X5846850Y20801500D01*
X5488082Y20801500D01*
X5499999Y20830270D01*
X5499999Y20929730D01*
X5488082Y20958500D01*
X5828721Y20958500D01*
X5828721Y20958501D01*
X5791838Y21096149D01*
X5791836Y21096154D01*
X5718113Y21223845D01*
X5641646Y21300312D01*
X7150945Y21300312D01*
X7171039Y21173444D01*
X7171040Y21173439D01*
X7229352Y21058996D01*
X7320183Y20968165D01*
X7434626Y20909853D01*
X7434629Y20909853D01*
X7434632Y20909851D01*
X7561500Y20889757D01*
X7688368Y20909851D01*
X7688371Y20909853D01*
X7688373Y20909853D01*
X7802812Y20968163D01*
X7802811Y20968163D01*
X7802818Y20968166D01*
X7802822Y20968171D01*
X7806502Y20970843D01*
X7861573Y20984066D01*
X7893498Y20970843D01*
X7897179Y20968169D01*
X7897182Y20968166D01*
X7897184Y20968165D01*
X7897187Y20968163D01*
X8011626Y20909853D01*
X8011629Y20909853D01*
X8011632Y20909851D01*
X8138500Y20889757D01*
X8265368Y20909851D01*
X8265371Y20909853D01*
X8265373Y20909853D01*
X8360849Y20958501D01*
X9871278Y20958501D01*
X9871279Y20958500D01*
X10211918Y20958500D01*
X10200001Y20929730D01*
X10200001Y20830270D01*
X10211918Y20801500D01*
X9871278Y20801500D01*
X9908161Y20663852D01*
X9908163Y20663847D01*
X9981886Y20536156D01*
X10086155Y20431887D01*
X10213846Y20358164D01*
X10213851Y20358162D01*
X10356272Y20320001D01*
X10356273Y20320000D01*
X10821500Y20320000D01*
X10821500Y20629988D01*
X10978500Y20629988D01*
X10978500Y20320000D01*
X11443727Y20320000D01*
X11443727Y20320001D01*
X11586148Y20358162D01*
X11586153Y20358164D01*
X11713844Y20431887D01*
X11818113Y20536156D01*
X11891836Y20663847D01*
X11891838Y20663852D01*
X11928721Y20801500D01*
X11588082Y20801500D01*
X11599999Y20830270D01*
X11599999Y20929730D01*
X11588082Y20958500D01*
X11928721Y20958500D01*
X11928721Y20958501D01*
X11891838Y21096149D01*
X11891836Y21096154D01*
X11818113Y21223845D01*
X11733458Y21308500D01*
X15399196Y21308500D01*
X15420280Y21175377D01*
X15420280Y21175376D01*
X15420281Y21175374D01*
X15481472Y21055280D01*
X15482331Y21053595D01*
X15486774Y20997133D01*
X15482331Y20986405D01*
X15481472Y20984721D01*
X15481472Y20984720D01*
X15433086Y20889757D01*
X15420280Y20864624D01*
X15399196Y20731500D01*
X15420280Y20598374D01*
X15466217Y20508219D01*
X15481472Y20478280D01*
X15576780Y20382972D01*
X15696873Y20321782D01*
X15696873Y20321781D01*
X15715075Y20318899D01*
X15830000Y20300696D01*
X15963126Y20321781D01*
X16083220Y20382972D01*
X16178528Y20478280D01*
X16239719Y20598374D01*
X16260804Y20731500D01*
X16239719Y20864626D01*
X16178528Y20984720D01*
X16178526Y20984722D01*
X16177669Y20986404D01*
X16173225Y21042867D01*
X16177669Y21053596D01*
X16178526Y21055279D01*
X16178528Y21055280D01*
X16239719Y21175374D01*
X16260804Y21308500D01*
X16239719Y21441626D01*
X16239719Y21441627D01*
X16178528Y21561720D01*
X16083219Y21657029D01*
X15963126Y21718219D01*
X15963126Y21718220D01*
X15830000Y21739304D01*
X15696873Y21718220D01*
X15696873Y21718219D01*
X15576780Y21657029D01*
X15481471Y21561720D01*
X15420281Y21441627D01*
X15420280Y21441627D01*
X15399196Y21308500D01*
X11733458Y21308500D01*
X11713844Y21328114D01*
X11586153Y21401837D01*
X11586148Y21401839D01*
X11443727Y21440000D01*
X10978500Y21440000D01*
X10978500Y21130012D01*
X10821500Y21130012D01*
X10821500Y21440000D01*
X10356273Y21440000D01*
X10213851Y21401839D01*
X10213846Y21401837D01*
X10086155Y21328114D01*
X9981886Y21223845D01*
X9908163Y21096154D01*
X9908161Y21096149D01*
X9871278Y20958501D01*
X8360849Y20958501D01*
X8379816Y20968165D01*
X8379815Y20968165D01*
X8379818Y20968166D01*
X8470646Y21058994D01*
X8488987Y21094990D01*
X8528959Y21173439D01*
X8528959Y21173441D01*
X8528961Y21173444D01*
X8549055Y21300312D01*
X8528961Y21427180D01*
X8528959Y21427183D01*
X8528959Y21427186D01*
X8470647Y21541629D01*
X8379816Y21632460D01*
X8265373Y21690772D01*
X8265368Y21690773D01*
X8138500Y21710867D01*
X8011631Y21690773D01*
X8011626Y21690772D01*
X7897185Y21632461D01*
X7893494Y21629779D01*
X7838421Y21616560D01*
X7806506Y21629779D01*
X7802814Y21632461D01*
X7688373Y21690772D01*
X7688368Y21690773D01*
X7561500Y21710867D01*
X7434631Y21690773D01*
X7434626Y21690772D01*
X7320183Y21632460D01*
X7229352Y21541629D01*
X7171040Y21427186D01*
X7171039Y21427181D01*
X7150945Y21300312D01*
X5641646Y21300312D01*
X5613844Y21328114D01*
X5486153Y21401837D01*
X5486148Y21401839D01*
X5343727Y21440000D01*
X4878500Y21440000D01*
X4878500Y21130012D01*
X4721500Y21130012D01*
X4721500Y21440000D01*
X4256273Y21440000D01*
X4113851Y21401839D01*
X4113846Y21401837D01*
X3986155Y21328114D01*
X3881886Y21223845D01*
X3808163Y21096154D01*
X3808161Y21096149D01*
X3771278Y20958501D01*
X560720Y20958501D01*
X561325Y21960000D01*
X9109819Y21960000D01*
X9128426Y21842518D01*
X9128426Y21842517D01*
X9134804Y21830000D01*
X9182427Y21736535D01*
X9266535Y21652427D01*
X9372518Y21598426D01*
X9490000Y21579819D01*
X9607482Y21598426D01*
X9713465Y21652427D01*
X9797573Y21736535D01*
X9851574Y21842518D01*
X9870181Y21960000D01*
X9851574Y22077482D01*
X9797573Y22183465D01*
X9713465Y22267573D01*
X9661484Y22294059D01*
X9607483Y22321574D01*
X9490000Y22340181D01*
X9372517Y22321574D01*
X9372516Y22321574D01*
X9266533Y22267572D01*
X9182428Y22183467D01*
X9128426Y22077484D01*
X9128426Y22077483D01*
X9109819Y21960000D01*
X561325Y21960000D01*
X561669Y22530004D01*
X10495373Y22530004D01*
X10495373Y22529997D01*
X10513812Y22378129D01*
X10513814Y22378125D01*
X10568065Y22235075D01*
X10631768Y22142786D01*
X10906141Y22417160D01*
X10918060Y22388386D01*
X10988386Y22318060D01*
X11017158Y22306143D01*
X10742574Y22031559D01*
X10769486Y22007716D01*
X10769489Y22007714D01*
X10904956Y21936615D01*
X11053502Y21900001D01*
X11053508Y21900000D01*
X11206492Y21900000D01*
X11206497Y21900001D01*
X11355043Y21936615D01*
X11490510Y22007714D01*
X11517424Y22031559D01*
X11242841Y22306143D01*
X11271614Y22318060D01*
X11341940Y22388386D01*
X11353857Y22417159D01*
X11628230Y22142786D01*
X11691935Y22235078D01*
X11746185Y22378125D01*
X11746187Y22378129D01*
X11754914Y22450000D01*
X23499819Y22450000D01*
X23518426Y22332518D01*
X23518426Y22332517D01*
X23528617Y22312517D01*
X23572427Y22226535D01*
X23656535Y22142427D01*
X23762518Y22088426D01*
X23880000Y22069819D01*
X23997482Y22088426D01*
X24069263Y22125000D01*
X32265226Y22125000D01*
X32284308Y21785211D01*
X32284310Y21785199D01*
X32341312Y21449704D01*
X32435528Y21122676D01*
X32565758Y20808270D01*
X32565762Y20808263D01*
X32730383Y20510405D01*
X32927324Y20232842D01*
X33101699Y20037718D01*
X33101699Y20037717D01*
X33936343Y20872362D01*
X34047359Y20761346D01*
X33212715Y19926701D01*
X33407841Y19752325D01*
X33685404Y19555384D01*
X33983262Y19390763D01*
X33983269Y19390759D01*
X34297675Y19260529D01*
X34624704Y19166313D01*
X34624702Y19166313D01*
X34960198Y19109311D01*
X34960210Y19109309D01*
X35300000Y19090227D01*
X35639789Y19109309D01*
X35639801Y19109311D01*
X35975296Y19166313D01*
X36005449Y19175000D01*
X48544819Y19175000D01*
X48563426Y19057518D01*
X48563426Y19057517D01*
X48583824Y19017484D01*
X48617427Y18951535D01*
X48701535Y18867427D01*
X48807518Y18813426D01*
X48925000Y18794819D01*
X49042482Y18813426D01*
X49148465Y18867427D01*
X49232573Y18951535D01*
X49286574Y19057518D01*
X49305181Y19175000D01*
X49286574Y19292482D01*
X49232573Y19398465D01*
X49148465Y19482573D01*
X49096484Y19509059D01*
X49042483Y19536574D01*
X48925000Y19555181D01*
X48807517Y19536574D01*
X48807516Y19536574D01*
X48701533Y19482572D01*
X48617428Y19398467D01*
X48563426Y19292484D01*
X48563426Y19292483D01*
X48544819Y19175000D01*
X36005449Y19175000D01*
X36302324Y19260529D01*
X36616730Y19390759D01*
X36616737Y19390763D01*
X36914595Y19555384D01*
X37083179Y19675000D01*
X49919819Y19675000D01*
X49938426Y19557518D01*
X49938426Y19557517D01*
X49949097Y19536574D01*
X49976612Y19482573D01*
X49992428Y19451534D01*
X50004136Y19439826D01*
X50025810Y19387500D01*
X50004136Y19335174D01*
X49992428Y19323467D01*
X49938426Y19217484D01*
X49938426Y19217483D01*
X49919819Y19100000D01*
X49938426Y18982518D01*
X49938426Y18982517D01*
X49954213Y18951534D01*
X49992427Y18876535D01*
X50076535Y18792427D01*
X50182518Y18738426D01*
X50300000Y18719819D01*
X50417482Y18738426D01*
X50523465Y18792427D01*
X50607573Y18876535D01*
X50661574Y18982518D01*
X50680181Y19100000D01*
X50661574Y19217482D01*
X50607573Y19323465D01*
X50595864Y19335174D01*
X50574190Y19387500D01*
X50595864Y19439826D01*
X50596038Y19440000D01*
X50606038Y19450000D01*
X51319819Y19450000D01*
X51338426Y19332518D01*
X51338426Y19332517D01*
X51392428Y19226533D01*
X51395853Y19221819D01*
X51394364Y19220738D01*
X51413310Y19175000D01*
X51394364Y19129263D01*
X51395853Y19128181D01*
X51392428Y19123468D01*
X51338426Y19017484D01*
X51338426Y19017483D01*
X51319819Y18900000D01*
X51338426Y18782518D01*
X51338426Y18782517D01*
X51392428Y18676533D01*
X51395853Y18671819D01*
X51394364Y18670738D01*
X51413310Y18625000D01*
X51394364Y18579263D01*
X51395853Y18578181D01*
X51392428Y18573468D01*
X51338426Y18467484D01*
X51338426Y18467483D01*
X51319819Y18350000D01*
X51338426Y18232518D01*
X51338426Y18232517D01*
X51392428Y18126533D01*
X51395853Y18121819D01*
X51394364Y18120738D01*
X51413310Y18075000D01*
X51394364Y18029263D01*
X51395853Y18028181D01*
X51392428Y18023468D01*
X51338426Y17917484D01*
X51338426Y17917483D01*
X51319819Y17800000D01*
X51338426Y17682518D01*
X51338426Y17682517D01*
X51344002Y17671574D01*
X51392427Y17576535D01*
X51476535Y17492427D01*
X51582518Y17438426D01*
X51700000Y17419819D01*
X51817482Y17438426D01*
X51923465Y17492427D01*
X52007573Y17576535D01*
X52061574Y17682518D01*
X52080181Y17800000D01*
X52061574Y17917482D01*
X52007573Y18023465D01*
X52007572Y18023466D01*
X52007571Y18023468D01*
X52004147Y18028181D01*
X52005635Y18029263D01*
X51986690Y18075000D01*
X52005635Y18120738D01*
X52004147Y18121819D01*
X52007571Y18126533D01*
X52007573Y18126535D01*
X52061574Y18232518D01*
X52080181Y18350000D01*
X52061574Y18467482D01*
X52007573Y18573465D01*
X52007572Y18573466D01*
X52007571Y18573468D01*
X52004147Y18578181D01*
X52005635Y18579263D01*
X51986690Y18625000D01*
X52005635Y18670738D01*
X52004147Y18671819D01*
X52007571Y18676533D01*
X52007573Y18676535D01*
X52061574Y18782518D01*
X52080181Y18900000D01*
X52061574Y19017482D01*
X52007573Y19123465D01*
X52007572Y19123466D01*
X52007571Y19123468D01*
X52004147Y19128181D01*
X52005635Y19129263D01*
X51986690Y19175000D01*
X52005635Y19220738D01*
X52004147Y19221819D01*
X52007571Y19226533D01*
X52007573Y19226535D01*
X52061574Y19332518D01*
X52078597Y19440000D01*
X52449819Y19440000D01*
X52468426Y19322518D01*
X52468426Y19322517D01*
X52483730Y19292482D01*
X52522427Y19216535D01*
X52606535Y19132427D01*
X52712518Y19078426D01*
X52830000Y19059819D01*
X52947482Y19078426D01*
X53053465Y19132427D01*
X53137573Y19216535D01*
X53191574Y19322518D01*
X53210181Y19440000D01*
X53191574Y19557482D01*
X53137573Y19663465D01*
X53053465Y19747573D01*
X52984356Y19782786D01*
X52947483Y19801574D01*
X52830000Y19820181D01*
X52712517Y19801574D01*
X52712516Y19801574D01*
X52606533Y19747572D01*
X52522428Y19663467D01*
X52468426Y19557484D01*
X52468426Y19557483D01*
X52449819Y19440000D01*
X52078597Y19440000D01*
X52080181Y19450000D01*
X52061574Y19567482D01*
X52007573Y19673465D01*
X51923465Y19757573D01*
X51854952Y19792482D01*
X51817483Y19811574D01*
X51700000Y19830181D01*
X51582517Y19811574D01*
X51582516Y19811574D01*
X51476533Y19757572D01*
X51392428Y19673467D01*
X51338426Y19567484D01*
X51338426Y19567483D01*
X51319819Y19450000D01*
X50606038Y19450000D01*
X50607573Y19451535D01*
X50661574Y19557518D01*
X50680181Y19675000D01*
X50661574Y19792482D01*
X50607573Y19898465D01*
X50523465Y19982573D01*
X50471484Y20009059D01*
X50417483Y20036574D01*
X50300000Y20055181D01*
X50182517Y20036574D01*
X50182516Y20036574D01*
X50076533Y19982572D01*
X49992428Y19898467D01*
X49938426Y19792484D01*
X49938426Y19792483D01*
X49919819Y19675000D01*
X37083179Y19675000D01*
X37192158Y19752324D01*
X37387282Y19926702D01*
X36552639Y20761345D01*
X36663655Y20872361D01*
X37498298Y20037718D01*
X37672676Y20232842D01*
X37869616Y20510405D01*
X38034237Y20808263D01*
X38034241Y20808270D01*
X38164471Y21122676D01*
X38186749Y21200004D01*
X42115373Y21200004D01*
X42115373Y21199997D01*
X42133812Y21048129D01*
X42133814Y21048125D01*
X42188065Y20905075D01*
X42251768Y20812786D01*
X42526141Y21087160D01*
X42538060Y21058386D01*
X42608386Y20988060D01*
X42637158Y20976143D01*
X42362574Y20701559D01*
X42389486Y20677716D01*
X42389489Y20677714D01*
X42524956Y20606615D01*
X42673502Y20570001D01*
X42673508Y20570000D01*
X42826492Y20570000D01*
X42826497Y20570001D01*
X42975043Y20606615D01*
X43110510Y20677714D01*
X43137424Y20701559D01*
X42862841Y20976143D01*
X42891614Y20988060D01*
X42961940Y21058386D01*
X42973857Y21087159D01*
X43248230Y20812786D01*
X43311935Y20905078D01*
X43366185Y21048125D01*
X43366187Y21048129D01*
X43384627Y21199997D01*
X43384627Y21200004D01*
X43366187Y21351872D01*
X43366185Y21351876D01*
X43311934Y21494926D01*
X43248231Y21587216D01*
X42973857Y21312843D01*
X42961940Y21341614D01*
X42891614Y21411940D01*
X42862840Y21423859D01*
X43137424Y21698442D01*
X43110513Y21722285D01*
X43110510Y21722287D01*
X42975043Y21793386D01*
X42826497Y21830000D01*
X42673502Y21830000D01*
X42524956Y21793386D01*
X42389490Y21722288D01*
X42362573Y21698443D01*
X42637158Y21423858D01*
X42608386Y21411940D01*
X42538060Y21341614D01*
X42526142Y21312842D01*
X42251767Y21587217D01*
X42188067Y21494930D01*
X42188066Y21494928D01*
X42133814Y21351876D01*
X42133812Y21351872D01*
X42115373Y21200004D01*
X38186749Y21200004D01*
X38258687Y21449704D01*
X38315689Y21785199D01*
X38315691Y21785211D01*
X38318768Y21840000D01*
X43369819Y21840000D01*
X43388426Y21722518D01*
X43388426Y21722517D01*
X43390616Y21718219D01*
X43442427Y21616535D01*
X43526535Y21532427D01*
X43632518Y21478426D01*
X43750000Y21459819D01*
X43867482Y21478426D01*
X43973465Y21532427D01*
X44057573Y21616535D01*
X44111574Y21722518D01*
X44130181Y21840000D01*
X44111574Y21957482D01*
X44057573Y22063465D01*
X43973465Y22147573D01*
X43903019Y22183467D01*
X43867483Y22201574D01*
X43750000Y22220181D01*
X43632517Y22201574D01*
X43632516Y22201574D01*
X43526533Y22147572D01*
X43442428Y22063467D01*
X43388426Y21957484D01*
X43388426Y21957483D01*
X43369819Y21840000D01*
X38318768Y21840000D01*
X38334773Y22125000D01*
X38326068Y22280000D01*
X44209819Y22280000D01*
X44228426Y22162518D01*
X44228426Y22162517D01*
X44236041Y22147572D01*
X44282427Y22056535D01*
X44366535Y21972427D01*
X44472518Y21918426D01*
X44590000Y21899819D01*
X44707482Y21918426D01*
X44813465Y21972427D01*
X44897573Y22056535D01*
X44951574Y22162518D01*
X44970181Y22280000D01*
X44951574Y22397482D01*
X44935005Y22430000D01*
X46219819Y22430000D01*
X46238426Y22312518D01*
X46238426Y22312517D01*
X46254995Y22280000D01*
X46282236Y22226535D01*
X46292428Y22206534D01*
X46311636Y22187326D01*
X46333310Y22135000D01*
X46311636Y22082674D01*
X46292428Y22063467D01*
X46238426Y21957484D01*
X46238426Y21957483D01*
X46219819Y21840000D01*
X46238426Y21722518D01*
X46238426Y21722517D01*
X46240616Y21718219D01*
X46292427Y21616535D01*
X46376535Y21532427D01*
X46482518Y21478426D01*
X46600000Y21459819D01*
X46717482Y21478426D01*
X46823465Y21532427D01*
X46907573Y21616535D01*
X46961574Y21722518D01*
X46980181Y21840000D01*
X46961574Y21957482D01*
X46907573Y22063465D01*
X46888364Y22082674D01*
X46866690Y22135000D01*
X46888364Y22187326D01*
X46907573Y22206535D01*
X46961574Y22312518D01*
X46980181Y22430000D01*
X46961574Y22547482D01*
X46907573Y22653465D01*
X46823465Y22737573D01*
X46771484Y22764059D01*
X46717483Y22791574D01*
X46600000Y22810181D01*
X46482517Y22791574D01*
X46482516Y22791574D01*
X46376533Y22737572D01*
X46292428Y22653467D01*
X46238426Y22547484D01*
X46238426Y22547483D01*
X46219819Y22430000D01*
X44935005Y22430000D01*
X44897573Y22503465D01*
X44813465Y22587573D01*
X44761484Y22614059D01*
X44707483Y22641574D01*
X44590000Y22660181D01*
X44472517Y22641574D01*
X44472516Y22641574D01*
X44366533Y22587572D01*
X44282428Y22503467D01*
X44228426Y22397484D01*
X44228426Y22397483D01*
X44209819Y22280000D01*
X38326068Y22280000D01*
X38315691Y22464790D01*
X38315689Y22464802D01*
X38258687Y22800297D01*
X38164471Y23127325D01*
X38080521Y23330000D01*
X51749819Y23330000D01*
X51768426Y23212518D01*
X51768426Y23212517D01*
X51795185Y23160000D01*
X51822427Y23106535D01*
X51906535Y23022427D01*
X52012518Y22968426D01*
X52130000Y22949819D01*
X52247482Y22968426D01*
X52353465Y23022427D01*
X52437573Y23106535D01*
X52491574Y23212518D01*
X52500678Y23270000D01*
X52689819Y23270000D01*
X52708426Y23152518D01*
X52708426Y23152517D01*
X52721262Y23127325D01*
X52762427Y23046535D01*
X52846535Y22962427D01*
X52952518Y22908426D01*
X53070000Y22889819D01*
X53187482Y22908426D01*
X53293465Y22962427D01*
X53377573Y23046535D01*
X53431574Y23152518D01*
X53450181Y23270000D01*
X53431574Y23387482D01*
X53377573Y23493465D01*
X53293465Y23577573D01*
X53241484Y23604059D01*
X53187483Y23631574D01*
X53070000Y23650181D01*
X52952517Y23631574D01*
X52952516Y23631574D01*
X52846533Y23577572D01*
X52762428Y23493467D01*
X52708426Y23387484D01*
X52708426Y23387483D01*
X52689819Y23270000D01*
X52500678Y23270000D01*
X52510181Y23330000D01*
X52491574Y23447482D01*
X52437573Y23553465D01*
X52353465Y23637573D01*
X52296655Y23666519D01*
X52247483Y23691574D01*
X52130000Y23710181D01*
X52012517Y23691574D01*
X52012516Y23691574D01*
X51906533Y23637572D01*
X51822428Y23553467D01*
X51768426Y23447484D01*
X51768426Y23447483D01*
X51749819Y23330000D01*
X38080521Y23330000D01*
X38034241Y23441731D01*
X38034237Y23441738D01*
X37869616Y23739596D01*
X37672675Y24017159D01*
X37498299Y24212284D01*
X37498299Y24212285D01*
X36663654Y23377641D01*
X36552638Y23488657D01*
X37387283Y24323301D01*
X37290267Y24410000D01*
X48299819Y24410000D01*
X48318426Y24292518D01*
X48318426Y24292517D01*
X48341372Y24247484D01*
X48372427Y24186535D01*
X48456535Y24102427D01*
X48562518Y24048426D01*
X48680000Y24029819D01*
X48797482Y24048426D01*
X48903465Y24102427D01*
X48987573Y24186535D01*
X49041574Y24292518D01*
X49060181Y24410000D01*
X49041574Y24527482D01*
X48987573Y24633465D01*
X48903465Y24717573D01*
X48851484Y24744059D01*
X48797483Y24771574D01*
X48680000Y24790181D01*
X48562517Y24771574D01*
X48562516Y24771574D01*
X48456533Y24717572D01*
X48372428Y24633467D01*
X48318426Y24527484D01*
X48318426Y24527483D01*
X48299819Y24410000D01*
X37290267Y24410000D01*
X37192158Y24497676D01*
X36914595Y24694617D01*
X36616737Y24859238D01*
X36616730Y24859242D01*
X36373476Y24960000D01*
X46079819Y24960000D01*
X46098426Y24842518D01*
X46098426Y24842517D01*
X46111631Y24816602D01*
X46152427Y24736535D01*
X46236535Y24652427D01*
X46342518Y24598426D01*
X46460000Y24579819D01*
X46577482Y24598426D01*
X46683465Y24652427D01*
X46767573Y24736535D01*
X46821574Y24842518D01*
X46840181Y24960000D01*
X46821574Y25077482D01*
X46767573Y25183465D01*
X46751038Y25200000D01*
X49929819Y25200000D01*
X49948426Y25082518D01*
X49948426Y25082517D01*
X49969680Y25040804D01*
X50002427Y24976535D01*
X50086535Y24892427D01*
X50192518Y24838426D01*
X50310000Y24819819D01*
X50427482Y24838426D01*
X50533465Y24892427D01*
X50617573Y24976535D01*
X50671574Y25082518D01*
X50690181Y25200000D01*
X50671574Y25317482D01*
X50617573Y25423465D01*
X50533465Y25507573D01*
X50481484Y25534059D01*
X50427483Y25561574D01*
X50310000Y25580181D01*
X50192517Y25561574D01*
X50192516Y25561574D01*
X50086533Y25507572D01*
X50002428Y25423467D01*
X49948426Y25317484D01*
X49948426Y25317483D01*
X49929819Y25200000D01*
X46751038Y25200000D01*
X46683465Y25267573D01*
X46617370Y25301250D01*
X46577483Y25321574D01*
X46460000Y25340181D01*
X46342517Y25321574D01*
X46342516Y25321574D01*
X46236533Y25267572D01*
X46152428Y25183467D01*
X46098426Y25077484D01*
X46098426Y25077483D01*
X46079819Y24960000D01*
X36373476Y24960000D01*
X36302324Y24989472D01*
X35975295Y25083688D01*
X35975297Y25083688D01*
X35639801Y25140690D01*
X35639789Y25140692D01*
X35300000Y25159774D01*
X34960210Y25140692D01*
X34960198Y25140690D01*
X34624703Y25083688D01*
X34297675Y24989472D01*
X33983269Y24859242D01*
X33983262Y24859238D01*
X33685404Y24694617D01*
X33407841Y24497676D01*
X33212716Y24323301D01*
X33212715Y24323301D01*
X34047360Y23488656D01*
X33936344Y23377640D01*
X33101699Y24212285D01*
X33101699Y24212284D01*
X32927324Y24017159D01*
X32730383Y23739596D01*
X32565762Y23441738D01*
X32565758Y23441731D01*
X32435528Y23127325D01*
X32341312Y22800297D01*
X32284310Y22464802D01*
X32284308Y22464790D01*
X32265226Y22125000D01*
X24069263Y22125000D01*
X24103465Y22142427D01*
X24187573Y22226535D01*
X24241574Y22332518D01*
X24260181Y22450000D01*
X24241574Y22567482D01*
X24187573Y22673465D01*
X24103465Y22757573D01*
X24047760Y22785956D01*
X23997483Y22811574D01*
X23880000Y22830181D01*
X23762517Y22811574D01*
X23762516Y22811574D01*
X23656533Y22757572D01*
X23572428Y22673467D01*
X23518426Y22567484D01*
X23518426Y22567483D01*
X23499819Y22450000D01*
X11754914Y22450000D01*
X11764627Y22529997D01*
X11764627Y22530004D01*
X11746187Y22681872D01*
X11746185Y22681876D01*
X11691934Y22824926D01*
X11628231Y22917216D01*
X11353857Y22642843D01*
X11341940Y22671614D01*
X11271614Y22741940D01*
X11242840Y22753859D01*
X11517424Y23028442D01*
X11490513Y23052285D01*
X11490510Y23052287D01*
X11355043Y23123386D01*
X11206497Y23160000D01*
X11053502Y23160000D01*
X10904956Y23123386D01*
X10769490Y23052288D01*
X10742573Y23028443D01*
X11017158Y22753858D01*
X10988386Y22741940D01*
X10918060Y22671614D01*
X10906142Y22642842D01*
X10631767Y22917217D01*
X10568067Y22824930D01*
X10568066Y22824928D01*
X10513814Y22681876D01*
X10513812Y22681872D01*
X10495373Y22530004D01*
X561669Y22530004D01*
X562617Y24100004D01*
X1015099Y24100004D01*
X1015099Y24099997D01*
X1034667Y23863830D01*
X1092848Y23634082D01*
X1188042Y23417063D01*
X1317662Y23218664D01*
X1317665Y23218661D01*
X1384759Y23145778D01*
X1616673Y23377692D01*
X1727689Y23266676D01*
X1493438Y23032424D01*
X1665181Y22898751D01*
X1873607Y22785956D01*
X2097754Y22709007D01*
X2331510Y22670001D01*
X2331513Y22670000D01*
X2568487Y22670000D01*
X2568489Y22670001D01*
X2802245Y22709007D01*
X3026392Y22785956D01*
X3234817Y22898751D01*
X3406559Y23032425D01*
X3172309Y23266675D01*
X3283325Y23377691D01*
X3515239Y23145777D01*
X3515239Y23145778D01*
X3582333Y23218661D01*
X3582346Y23218678D01*
X3711957Y23417063D01*
X3805360Y23630000D01*
X9679819Y23630000D01*
X9698426Y23512518D01*
X9698426Y23512517D01*
X9704896Y23499820D01*
X9752427Y23406535D01*
X9836535Y23322427D01*
X9942518Y23268426D01*
X10060000Y23249819D01*
X10177482Y23268426D01*
X10283465Y23322427D01*
X10367573Y23406535D01*
X10421574Y23512518D01*
X10440181Y23630000D01*
X10421574Y23747482D01*
X10367573Y23853465D01*
X10341038Y23880000D01*
X26229819Y23880000D01*
X26248426Y23762518D01*
X26248426Y23762517D01*
X26256087Y23747482D01*
X26302427Y23656535D01*
X26386535Y23572427D01*
X26492518Y23518426D01*
X26610000Y23499819D01*
X26727482Y23518426D01*
X26833465Y23572427D01*
X26917573Y23656535D01*
X26971574Y23762518D01*
X26990181Y23880000D01*
X26971574Y23997482D01*
X26917573Y24103465D01*
X26833465Y24187573D01*
X26781484Y24214059D01*
X26727483Y24241574D01*
X26610000Y24260181D01*
X26492517Y24241574D01*
X26492516Y24241574D01*
X26386533Y24187572D01*
X26302428Y24103467D01*
X26248426Y23997484D01*
X26248426Y23997483D01*
X26229819Y23880000D01*
X10341038Y23880000D01*
X10283465Y23937573D01*
X10231484Y23964059D01*
X10177483Y23991574D01*
X10060000Y24010181D01*
X9942517Y23991574D01*
X9942516Y23991574D01*
X9836533Y23937572D01*
X9752428Y23853467D01*
X9698426Y23747484D01*
X9698426Y23747483D01*
X9679819Y23630000D01*
X3805360Y23630000D01*
X3807151Y23634082D01*
X3865332Y23863830D01*
X3884901Y24099997D01*
X3884901Y24100004D01*
X3882416Y24130000D01*
X5829819Y24130000D01*
X5848426Y24012518D01*
X5848426Y24012517D01*
X5856087Y23997482D01*
X5902427Y23906535D01*
X5986535Y23822427D01*
X6092518Y23768426D01*
X6210000Y23749819D01*
X6327482Y23768426D01*
X6433465Y23822427D01*
X6517573Y23906535D01*
X6571574Y24012518D01*
X6590181Y24130000D01*
X6571574Y24247482D01*
X6517573Y24353465D01*
X6433465Y24437573D01*
X6381484Y24464059D01*
X6330572Y24490000D01*
X27409819Y24490000D01*
X27428426Y24372518D01*
X27428426Y24372517D01*
X27436035Y24357584D01*
X27482427Y24266535D01*
X27566535Y24182427D01*
X27672518Y24128426D01*
X27790000Y24109819D01*
X27907482Y24128426D01*
X28013465Y24182427D01*
X28097573Y24266535D01*
X28151574Y24372518D01*
X28170181Y24490000D01*
X28151574Y24607482D01*
X28097573Y24713465D01*
X28013465Y24797573D01*
X27961484Y24824059D01*
X27907483Y24851574D01*
X27790000Y24870181D01*
X27672517Y24851574D01*
X27672516Y24851574D01*
X27566533Y24797572D01*
X27482428Y24713467D01*
X27428426Y24607484D01*
X27428426Y24607483D01*
X27409819Y24490000D01*
X6330572Y24490000D01*
X6327483Y24491574D01*
X6210000Y24510181D01*
X6092517Y24491574D01*
X6092516Y24491574D01*
X5986533Y24437572D01*
X5902428Y24353467D01*
X5848426Y24247484D01*
X5848426Y24247483D01*
X5829819Y24130000D01*
X3882416Y24130000D01*
X3865332Y24336171D01*
X3807151Y24565919D01*
X3711957Y24782938D01*
X3582337Y24981337D01*
X3582334Y24981340D01*
X3515239Y25054224D01*
X3283325Y24822310D01*
X3172308Y24933327D01*
X3406560Y25167578D01*
X3234818Y25301250D01*
X3026392Y25414045D01*
X2834270Y25480000D01*
X11489819Y25480000D01*
X11508426Y25362518D01*
X11508426Y25362517D01*
X11519807Y25340181D01*
X11562427Y25256535D01*
X11646535Y25172427D01*
X11752518Y25118426D01*
X11870000Y25099819D01*
X11987482Y25118426D01*
X12093465Y25172427D01*
X12177573Y25256535D01*
X12231574Y25362518D01*
X12250181Y25480000D01*
X12231574Y25597482D01*
X12220101Y25620000D01*
X22909819Y25620000D01*
X22928426Y25502518D01*
X22928426Y25502517D01*
X22939899Y25480000D01*
X22982427Y25396535D01*
X23066535Y25312427D01*
X23172518Y25258426D01*
X23290000Y25239819D01*
X23407482Y25258426D01*
X23513465Y25312427D01*
X23597573Y25396535D01*
X23651574Y25502518D01*
X23665430Y25590000D01*
X51379819Y25590000D01*
X51398426Y25472518D01*
X51398426Y25472517D01*
X51423419Y25423467D01*
X51452427Y25366535D01*
X51536535Y25282427D01*
X51642518Y25228426D01*
X51760000Y25209819D01*
X51877482Y25228426D01*
X51983465Y25282427D01*
X52067573Y25366535D01*
X52121574Y25472518D01*
X52140181Y25590000D01*
X52121574Y25707482D01*
X52067573Y25813465D01*
X51983465Y25897573D01*
X51924587Y25927573D01*
X51877483Y25951574D01*
X51760000Y25970181D01*
X51642517Y25951574D01*
X51642516Y25951574D01*
X51536533Y25897572D01*
X51452428Y25813467D01*
X51398426Y25707484D01*
X51398426Y25707483D01*
X51379819Y25590000D01*
X23665430Y25590000D01*
X23670181Y25620000D01*
X23651574Y25737482D01*
X23597573Y25843465D01*
X23513465Y25927573D01*
X23461484Y25954059D01*
X23407483Y25981574D01*
X23290000Y26000181D01*
X23172517Y25981574D01*
X23172516Y25981574D01*
X23066533Y25927572D01*
X22982428Y25843467D01*
X22928426Y25737484D01*
X22928426Y25737483D01*
X22909819Y25620000D01*
X12220101Y25620000D01*
X12177573Y25703465D01*
X12093465Y25787573D01*
X12030911Y25819446D01*
X11987483Y25841574D01*
X11870000Y25860181D01*
X11752517Y25841574D01*
X11752516Y25841574D01*
X11646533Y25787572D01*
X11562428Y25703467D01*
X11508426Y25597484D01*
X11508426Y25597483D01*
X11489819Y25480000D01*
X2834270Y25480000D01*
X2802245Y25490994D01*
X2568489Y25530000D01*
X2331510Y25530000D01*
X2097754Y25490994D01*
X1873607Y25414045D01*
X1665191Y25301255D01*
X1665181Y25301249D01*
X1493438Y25167578D01*
X1727690Y24933326D01*
X1616674Y24822310D01*
X1384759Y25054224D01*
X1317664Y24981340D01*
X1317662Y24981337D01*
X1188042Y24782938D01*
X1092848Y24565919D01*
X1034667Y24336171D01*
X1015099Y24100004D01*
X562617Y24100004D01*
X563903Y26230000D01*
X19899445Y26230000D01*
X19919539Y26103132D01*
X19919540Y26103127D01*
X19977852Y25988684D01*
X20068683Y25897853D01*
X20183126Y25839541D01*
X20183129Y25839541D01*
X20183132Y25839539D01*
X20310000Y25819445D01*
X20436868Y25839539D01*
X20436871Y25839541D01*
X20436873Y25839541D01*
X20550765Y25897572D01*
X20551318Y25897854D01*
X20642146Y25988682D01*
X20648005Y26000181D01*
X20700459Y26103127D01*
X20700459Y26103129D01*
X20700461Y26103132D01*
X20720555Y26230000D01*
X20700461Y26356868D01*
X20700459Y26356871D01*
X20700459Y26356874D01*
X20642147Y26471317D01*
X20551316Y26562148D01*
X20436873Y26620460D01*
X20436868Y26620461D01*
X20310000Y26640555D01*
X20183131Y26620461D01*
X20183126Y26620460D01*
X20068683Y26562148D01*
X19977852Y26471317D01*
X19919540Y26356874D01*
X19919539Y26356869D01*
X19899445Y26230000D01*
X563903Y26230000D01*
X564308Y26900000D01*
X30319819Y26900000D01*
X30338426Y26782518D01*
X30338426Y26782517D01*
X30365941Y26728516D01*
X30392427Y26676535D01*
X30476535Y26592427D01*
X30582518Y26538426D01*
X30700000Y26519819D01*
X30817482Y26538426D01*
X30923465Y26592427D01*
X31007573Y26676535D01*
X31061574Y26782518D01*
X31080181Y26900000D01*
X31061574Y27017482D01*
X31007573Y27123465D01*
X30923465Y27207573D01*
X30871484Y27234059D01*
X30840198Y27250000D01*
X31819819Y27250000D01*
X31838426Y27132518D01*
X31838426Y27132517D01*
X31865941Y27078516D01*
X31892427Y27026535D01*
X31976535Y26942427D01*
X32082518Y26888426D01*
X32200000Y26869819D01*
X32317482Y26888426D01*
X32423465Y26942427D01*
X32507573Y27026535D01*
X32561574Y27132518D01*
X32580181Y27250000D01*
X32561574Y27367482D01*
X32507573Y27473465D01*
X32423465Y27557573D01*
X32371484Y27584059D01*
X32317483Y27611574D01*
X32200000Y27630181D01*
X32082517Y27611574D01*
X32082516Y27611574D01*
X31976533Y27557572D01*
X31892428Y27473467D01*
X31838426Y27367484D01*
X31838426Y27367483D01*
X31819819Y27250000D01*
X30840198Y27250000D01*
X30817483Y27261574D01*
X30700000Y27280181D01*
X30582517Y27261574D01*
X30582516Y27261574D01*
X30476533Y27207572D01*
X30392428Y27123467D01*
X30338426Y27017484D01*
X30338426Y27017483D01*
X30319819Y26900000D01*
X564308Y26900000D01*
X565243Y28448501D01*
X3771278Y28448501D01*
X3771279Y28448500D01*
X4111918Y28448500D01*
X4100001Y28419730D01*
X4100001Y28320270D01*
X4111918Y28291500D01*
X3771278Y28291500D01*
X3808161Y28153852D01*
X3808163Y28153847D01*
X3881886Y28026156D01*
X3986155Y27921887D01*
X4113846Y27848164D01*
X4113851Y27848162D01*
X4256272Y27810001D01*
X4256273Y27810000D01*
X4721500Y27810000D01*
X4721500Y28119988D01*
X4878500Y28119988D01*
X4878500Y27810000D01*
X5343727Y27810000D01*
X5343727Y27810001D01*
X5486148Y27848162D01*
X5486153Y27848164D01*
X5613844Y27921887D01*
X5718113Y28026156D01*
X5762237Y28102581D01*
X5807170Y28137059D01*
X5863323Y28129667D01*
X5897801Y28084734D01*
X5899412Y28054007D01*
X5894819Y28025003D01*
X5894819Y28025001D01*
X5913426Y27907518D01*
X5913426Y27907517D01*
X5940941Y27853516D01*
X5967427Y27801535D01*
X6051535Y27717427D01*
X6157518Y27663426D01*
X6275000Y27644819D01*
X6392482Y27663426D01*
X6498465Y27717427D01*
X6582573Y27801535D01*
X6636574Y27907518D01*
X6655181Y28025000D01*
X6636574Y28142482D01*
X6582573Y28248465D01*
X6519553Y28311485D01*
X6497879Y28363811D01*
X6505944Y28397404D01*
X6536574Y28457518D01*
X6555181Y28575000D01*
X6536574Y28692482D01*
X6532743Y28700000D01*
X7089445Y28700000D01*
X7109539Y28573132D01*
X7109540Y28573127D01*
X7167852Y28458684D01*
X7258683Y28367853D01*
X7373126Y28309541D01*
X7373129Y28309541D01*
X7373132Y28309539D01*
X7500000Y28289445D01*
X7626868Y28309539D01*
X7626871Y28309541D01*
X7626873Y28309541D01*
X7741316Y28367853D01*
X7741315Y28367853D01*
X7741318Y28367854D01*
X7832146Y28458682D01*
X7859577Y28512518D01*
X7890459Y28573127D01*
X7890459Y28573129D01*
X7890461Y28573132D01*
X7910555Y28700000D01*
X7902636Y28750000D01*
X8519819Y28750000D01*
X8538426Y28632518D01*
X8538426Y28632517D01*
X8544798Y28620012D01*
X8592427Y28526535D01*
X8676535Y28442427D01*
X8782518Y28388426D01*
X8900000Y28369819D01*
X9017482Y28388426D01*
X9023244Y28391363D01*
X9079704Y28395810D01*
X9122775Y28359031D01*
X9129932Y28313854D01*
X9121787Y28262427D01*
X9119819Y28250000D01*
X9126404Y28208426D01*
X9138426Y28132518D01*
X9138426Y28132517D01*
X9156208Y28097618D01*
X9192427Y28026535D01*
X9276535Y27942427D01*
X9382518Y27888426D01*
X9500000Y27869819D01*
X9617482Y27888426D01*
X9723465Y27942427D01*
X9807573Y28026535D01*
X9827314Y28065281D01*
X9870379Y28102061D01*
X9926842Y28097618D01*
X9957333Y28068683D01*
X9981886Y28026156D01*
X10086155Y27921887D01*
X10213846Y27848164D01*
X10213851Y27848162D01*
X10356272Y27810001D01*
X10356273Y27810000D01*
X10821500Y27810000D01*
X10821500Y28119988D01*
X10978500Y28119988D01*
X10978500Y27810000D01*
X11443727Y27810000D01*
X11443727Y27810001D01*
X11586148Y27848162D01*
X11586153Y27848164D01*
X11713844Y27921887D01*
X11818113Y28026156D01*
X11891836Y28153847D01*
X11891838Y28153852D01*
X11928721Y28291500D01*
X11588082Y28291500D01*
X11599999Y28320270D01*
X11599999Y28419730D01*
X11588082Y28448500D01*
X11928721Y28448500D01*
X11928721Y28448501D01*
X11896165Y28570000D01*
X31829819Y28570000D01*
X31848426Y28452518D01*
X31848426Y28452517D01*
X31865132Y28419730D01*
X31902427Y28346535D01*
X31986535Y28262427D01*
X32092518Y28208426D01*
X32210000Y28189819D01*
X32327482Y28208426D01*
X32433465Y28262427D01*
X32517573Y28346535D01*
X32571574Y28452518D01*
X32590181Y28570000D01*
X32580678Y28630000D01*
X33419819Y28630000D01*
X33438426Y28512518D01*
X33438426Y28512517D01*
X33440434Y28508577D01*
X33492427Y28406535D01*
X33576535Y28322427D01*
X33682518Y28268426D01*
X33800000Y28249819D01*
X33917482Y28268426D01*
X34023465Y28322427D01*
X34107573Y28406535D01*
X34161574Y28512518D01*
X34180181Y28630000D01*
X34161574Y28747482D01*
X34107573Y28853465D01*
X34023465Y28937573D01*
X33940551Y28979820D01*
X33917483Y28991574D01*
X33800000Y29010181D01*
X33682517Y28991574D01*
X33682516Y28991574D01*
X33576533Y28937572D01*
X33492428Y28853467D01*
X33438426Y28747484D01*
X33438426Y28747483D01*
X33419819Y28630000D01*
X32580678Y28630000D01*
X32571574Y28687482D01*
X32517573Y28793465D01*
X32433465Y28877573D01*
X32381484Y28904059D01*
X32327483Y28931574D01*
X32210000Y28950181D01*
X32092517Y28931574D01*
X32092516Y28931574D01*
X31986533Y28877572D01*
X31902428Y28793467D01*
X31848426Y28687484D01*
X31848426Y28687483D01*
X31829819Y28570000D01*
X11896165Y28570000D01*
X11891838Y28586149D01*
X11891836Y28586154D01*
X11818113Y28713845D01*
X11713844Y28818114D01*
X11586153Y28891837D01*
X11586148Y28891839D01*
X11443727Y28930000D01*
X10978500Y28930000D01*
X10978500Y28620012D01*
X10821500Y28620012D01*
X10821500Y28930000D01*
X10356273Y28930000D01*
X10213851Y28891839D01*
X10213846Y28891837D01*
X10086155Y28818114D01*
X9981886Y28713845D01*
X9908163Y28586154D01*
X9908161Y28586149D01*
X9896265Y28541750D01*
X9861787Y28496817D01*
X9805634Y28489425D01*
X9772461Y28508577D01*
X9723466Y28557572D01*
X9723465Y28557573D01*
X9667372Y28586154D01*
X9617483Y28611574D01*
X9500000Y28630181D01*
X9382517Y28611574D01*
X9382514Y28611574D01*
X9376750Y28608636D01*
X9320287Y28604193D01*
X9277221Y28640977D01*
X9270067Y28686145D01*
X9280181Y28750000D01*
X9261574Y28867482D01*
X9207573Y28973465D01*
X9123465Y29057573D01*
X9058919Y29090461D01*
X9017483Y29111574D01*
X8900000Y29130181D01*
X8782517Y29111574D01*
X8782516Y29111574D01*
X8676533Y29057572D01*
X8592428Y28973467D01*
X8538426Y28867484D01*
X8538426Y28867483D01*
X8519819Y28750000D01*
X7902636Y28750000D01*
X7890461Y28826868D01*
X7890459Y28826871D01*
X7890459Y28826874D01*
X7832147Y28941317D01*
X7741316Y29032148D01*
X7626873Y29090460D01*
X7626868Y29090461D01*
X7500000Y29110555D01*
X7373131Y29090461D01*
X7373126Y29090460D01*
X7258683Y29032148D01*
X7167852Y28941317D01*
X7109540Y28826874D01*
X7109539Y28826869D01*
X7089445Y28700000D01*
X6532743Y28700000D01*
X6482573Y28798465D01*
X6398465Y28882573D01*
X6346484Y28909059D01*
X6292483Y28936574D01*
X6175000Y28955181D01*
X6057517Y28936574D01*
X6057516Y28936574D01*
X5951533Y28882572D01*
X5867427Y28798466D01*
X5834704Y28734244D01*
X5791636Y28697461D01*
X5735174Y28701906D01*
X5716444Y28715514D01*
X5613844Y28818114D01*
X5486153Y28891837D01*
X5486148Y28891839D01*
X5343727Y28930000D01*
X4878500Y28930000D01*
X4878500Y28620012D01*
X4721500Y28620012D01*
X4721500Y28930000D01*
X4256273Y28930000D01*
X4113851Y28891839D01*
X4113846Y28891837D01*
X3986155Y28818114D01*
X3881886Y28713845D01*
X3808163Y28586154D01*
X3808161Y28586149D01*
X3771278Y28448501D01*
X565243Y28448501D01*
X565793Y29360000D01*
X39389819Y29360000D01*
X39408426Y29242518D01*
X39408426Y29242517D01*
X39427192Y29205687D01*
X39462427Y29136535D01*
X39546535Y29052427D01*
X39652518Y28998426D01*
X39770000Y28979819D01*
X39887482Y28998426D01*
X39993465Y29052427D01*
X40077573Y29136535D01*
X40094066Y29168906D01*
X40137133Y29205687D01*
X40193596Y29201243D01*
X40225933Y29168906D01*
X40242427Y29136535D01*
X40326535Y29052427D01*
X40432518Y28998426D01*
X40550000Y28979819D01*
X40667482Y28998426D01*
X40773465Y29052427D01*
X40857573Y29136535D01*
X40857579Y29136548D01*
X40859174Y29138742D01*
X40860740Y29139703D01*
X40861691Y29140653D01*
X40861919Y29140425D01*
X40907458Y29168345D01*
X40962534Y29155136D01*
X40971377Y29147585D01*
X40972427Y29146535D01*
X41056535Y29062427D01*
X41162518Y29008426D01*
X41280000Y28989819D01*
X41397482Y29008426D01*
X41503465Y29062427D01*
X41587573Y29146535D01*
X41641574Y29252518D01*
X41660181Y29370000D01*
X41641574Y29487482D01*
X41587573Y29593465D01*
X41581038Y29600000D01*
X49979819Y29600000D01*
X49998426Y29482518D01*
X49998426Y29482517D01*
X50000991Y29477483D01*
X50052427Y29376535D01*
X50136535Y29292427D01*
X50242518Y29238426D01*
X50360000Y29219819D01*
X50477482Y29238426D01*
X50583465Y29292427D01*
X50667573Y29376535D01*
X50721574Y29482518D01*
X50740181Y29600000D01*
X50721574Y29717482D01*
X50667573Y29823465D01*
X50583465Y29907573D01*
X50531484Y29934059D01*
X50477483Y29961574D01*
X50360000Y29980181D01*
X50242517Y29961574D01*
X50242516Y29961574D01*
X50136533Y29907572D01*
X50052428Y29823467D01*
X49998426Y29717484D01*
X49998426Y29717483D01*
X49979819Y29600000D01*
X41581038Y29600000D01*
X41503465Y29677573D01*
X41451484Y29704059D01*
X41397483Y29731574D01*
X41280000Y29750181D01*
X41162517Y29731574D01*
X41162516Y29731574D01*
X41056533Y29677572D01*
X40972427Y29593466D01*
X40970818Y29591250D01*
X40969252Y29590291D01*
X40968309Y29589347D01*
X40968082Y29589574D01*
X40922529Y29561654D01*
X40867456Y29574872D01*
X40858622Y29582416D01*
X40773466Y29667572D01*
X40773465Y29667573D01*
X40705060Y29702427D01*
X40667483Y29721574D01*
X40550000Y29740181D01*
X40432517Y29721574D01*
X40432516Y29721574D01*
X40326533Y29667572D01*
X40242427Y29583466D01*
X40225934Y29551096D01*
X40182866Y29514313D01*
X40126404Y29518758D01*
X40094066Y29551096D01*
X40077572Y29583466D01*
X39993466Y29667572D01*
X39993465Y29667573D01*
X39925060Y29702427D01*
X39887483Y29721574D01*
X39770000Y29740181D01*
X39652517Y29721574D01*
X39652516Y29721574D01*
X39546533Y29667572D01*
X39462428Y29583467D01*
X39408426Y29477484D01*
X39408426Y29477483D01*
X39389819Y29360000D01*
X565793Y29360000D01*
X566469Y30479060D01*
X3669500Y30479060D01*
X3669500Y30320941D01*
X3710421Y30168221D01*
X3710422Y30168219D01*
X3710423Y30168216D01*
X3789480Y30031284D01*
X3901284Y29919480D01*
X4038216Y29840423D01*
X4190940Y29799501D01*
X4190941Y29799500D01*
X4190943Y29799500D01*
X4349059Y29799500D01*
X4349059Y29799501D01*
X4501784Y29840423D01*
X4638716Y29919480D01*
X4750520Y30031284D01*
X4829577Y30168216D01*
X4870499Y30320941D01*
X4870500Y30320941D01*
X4870500Y30479059D01*
X4870499Y30479060D01*
X10829500Y30479060D01*
X10829500Y30320941D01*
X10870421Y30168221D01*
X10870422Y30168219D01*
X10870423Y30168216D01*
X10949480Y30031284D01*
X11061284Y29919480D01*
X11198216Y29840423D01*
X11350940Y29799501D01*
X11350941Y29799500D01*
X11350943Y29799500D01*
X11509059Y29799500D01*
X11509059Y29799501D01*
X11661784Y29840423D01*
X11798716Y29919480D01*
X11910520Y30031284D01*
X11989577Y30168216D01*
X12030499Y30320941D01*
X12030500Y30320941D01*
X12030500Y30479059D01*
X12030499Y30479060D01*
X12029825Y30481574D01*
X11989577Y30631784D01*
X11910520Y30768716D01*
X11798716Y30880520D01*
X11661784Y30959577D01*
X11661781Y30959578D01*
X11661779Y30959579D01*
X11509059Y31000500D01*
X11509057Y31000500D01*
X11350943Y31000500D01*
X11350941Y31000500D01*
X11198220Y30959579D01*
X11198214Y30959576D01*
X11061283Y30880520D01*
X10949480Y30768717D01*
X10870424Y30631786D01*
X10870421Y30631780D01*
X10829500Y30479060D01*
X4870499Y30479060D01*
X4869825Y30481574D01*
X4829577Y30631784D01*
X4750520Y30768716D01*
X4638716Y30880520D01*
X4501784Y30959577D01*
X4501781Y30959578D01*
X4501779Y30959579D01*
X4349059Y31000500D01*
X4349057Y31000500D01*
X4190943Y31000500D01*
X4190941Y31000500D01*
X4038220Y30959579D01*
X4038214Y30959576D01*
X3901283Y30880520D01*
X3789480Y30768717D01*
X3710424Y30631786D01*
X3710421Y30631780D01*
X3669500Y30479060D01*
X566469Y30479060D01*
X567094Y31514001D01*
X15235444Y31514001D01*
X15255538Y31387133D01*
X15255539Y31387128D01*
X15313851Y31272685D01*
X15404682Y31181854D01*
X15519125Y31123542D01*
X15519130Y31123540D01*
X15536097Y31120853D01*
X15590692Y31112207D01*
X15638983Y31082615D01*
X15652205Y31050695D01*
X15663540Y30979130D01*
X15663541Y30979126D01*
X15721853Y30864683D01*
X15812684Y30773852D01*
X15927127Y30715540D01*
X15927130Y30715540D01*
X15927133Y30715538D01*
X16054001Y30695444D01*
X16180869Y30715538D01*
X16180872Y30715540D01*
X16180874Y30715540D01*
X16295317Y30773852D01*
X16295316Y30773852D01*
X16295319Y30773853D01*
X16386147Y30864681D01*
X16409146Y30909819D01*
X16444460Y30979126D01*
X16444461Y30979130D01*
X16444462Y30979131D01*
X16464556Y31105999D01*
X16444462Y31232867D01*
X16444460Y31232870D01*
X16444460Y31232873D01*
X16413314Y31294001D01*
X29195195Y31294001D01*
X29216279Y31160875D01*
X29276586Y31042517D01*
X29277471Y31040781D01*
X29372779Y30945473D01*
X29489503Y30885999D01*
X29492871Y30884283D01*
X29492872Y30884282D01*
X29514275Y30880893D01*
X29553210Y30874726D01*
X29601502Y30845134D01*
X29614724Y30813214D01*
X29624281Y30752879D01*
X29624282Y30752873D01*
X29624282Y30752872D01*
X29624283Y30752871D01*
X29685010Y30633686D01*
X29685473Y30632779D01*
X29780781Y30537471D01*
X29900874Y30476281D01*
X29900874Y30476280D01*
X29919076Y30473398D01*
X30034001Y30455195D01*
X30167127Y30476280D01*
X30287221Y30537471D01*
X30363751Y30614001D01*
X31485195Y30614001D01*
X31506279Y30480875D01*
X31567470Y30360782D01*
X31567471Y30360781D01*
X31662779Y30265473D01*
X31779503Y30205999D01*
X31782871Y30204283D01*
X31782872Y30204282D01*
X31804275Y30200893D01*
X31843210Y30194726D01*
X31891502Y30165134D01*
X31904724Y30133214D01*
X31914281Y30072877D01*
X31914283Y30072871D01*
X31970991Y29961574D01*
X31975473Y29952779D01*
X32070781Y29857471D01*
X32190874Y29796281D01*
X32190874Y29796280D01*
X32209076Y29793398D01*
X32324001Y29775195D01*
X32457127Y29796280D01*
X32577221Y29857471D01*
X32672529Y29952779D01*
X32733720Y30072873D01*
X32741184Y30120000D01*
X42919819Y30120000D01*
X42938426Y30002518D01*
X42938426Y30002517D01*
X42949807Y29980181D01*
X42992427Y29896535D01*
X43076535Y29812427D01*
X43182518Y29758426D01*
X43300000Y29739819D01*
X43417482Y29758426D01*
X43523465Y29812427D01*
X43607573Y29896535D01*
X43661574Y30002518D01*
X43662759Y30010000D01*
X48929819Y30010000D01*
X48948426Y29892518D01*
X48948426Y29892517D01*
X48966283Y29857471D01*
X49002427Y29786535D01*
X49086535Y29702427D01*
X49192518Y29648426D01*
X49310000Y29629819D01*
X49427482Y29648426D01*
X49533465Y29702427D01*
X49617573Y29786535D01*
X49671574Y29892518D01*
X49688597Y30000000D01*
X51594819Y30000000D01*
X51613426Y29882518D01*
X51613426Y29882517D01*
X51626188Y29857471D01*
X51667427Y29776535D01*
X51751535Y29692427D01*
X51857518Y29638426D01*
X51975000Y29619819D01*
X52092482Y29638426D01*
X52198465Y29692427D01*
X52282573Y29776535D01*
X52336574Y29882518D01*
X52355181Y30000000D01*
X52336574Y30117482D01*
X52282573Y30223465D01*
X52198465Y30307573D01*
X52128019Y30343467D01*
X52092483Y30361574D01*
X51975000Y30380181D01*
X51857517Y30361574D01*
X51857516Y30361574D01*
X51751533Y30307572D01*
X51667428Y30223467D01*
X51613426Y30117484D01*
X51613426Y30117483D01*
X51594819Y30000000D01*
X49688597Y30000000D01*
X49690181Y30010000D01*
X49671574Y30127482D01*
X49617573Y30233465D01*
X49533465Y30317573D01*
X49481484Y30344059D01*
X49427483Y30371574D01*
X49310000Y30390181D01*
X49192517Y30371574D01*
X49192516Y30371574D01*
X49086533Y30317572D01*
X49002428Y30233467D01*
X48948426Y30127484D01*
X48948426Y30127483D01*
X48929819Y30010000D01*
X43662759Y30010000D01*
X43680181Y30120000D01*
X43661574Y30237482D01*
X43607573Y30343465D01*
X43523465Y30427573D01*
X43461356Y30459219D01*
X43417483Y30481574D01*
X43300000Y30500181D01*
X43182517Y30481574D01*
X43182516Y30481574D01*
X43076533Y30427572D01*
X42992428Y30343467D01*
X42938426Y30237484D01*
X42938426Y30237483D01*
X42919819Y30120000D01*
X32741184Y30120000D01*
X32754805Y30205999D01*
X32733720Y30339125D01*
X32733720Y30339126D01*
X32672529Y30459219D01*
X32577220Y30554528D01*
X32457129Y30615717D01*
X32457128Y30615718D01*
X32457127Y30615718D01*
X32457125Y30615719D01*
X32457123Y30615719D01*
X32396786Y30625276D01*
X32348495Y30654870D01*
X32335274Y30686790D01*
X32333903Y30695444D01*
X32325718Y30747127D01*
X32325718Y30747128D01*
X32325717Y30747129D01*
X32312100Y30773853D01*
X32264527Y30867221D01*
X32169219Y30962529D01*
X32169218Y30962530D01*
X32049125Y31023720D01*
X32049125Y31023721D01*
X31915999Y31044805D01*
X31782872Y31023721D01*
X31782872Y31023720D01*
X31662779Y30962530D01*
X31567470Y30867221D01*
X31506280Y30747128D01*
X31506279Y30747128D01*
X31485195Y30614001D01*
X30363751Y30614001D01*
X30382529Y30632779D01*
X30443720Y30752873D01*
X30464805Y30885999D01*
X30443720Y31019125D01*
X30443720Y31019126D01*
X30382529Y31139219D01*
X30287220Y31234528D01*
X30167129Y31295717D01*
X30167128Y31295718D01*
X30167127Y31295718D01*
X30167125Y31295719D01*
X30167123Y31295719D01*
X30106786Y31305276D01*
X30058495Y31334870D01*
X30045274Y31366790D01*
X30035718Y31427128D01*
X30035717Y31427129D01*
X30015110Y31467572D01*
X29974527Y31547221D01*
X29879219Y31642529D01*
X29879218Y31642530D01*
X29874370Y31645000D01*
X44304819Y31645000D01*
X44323426Y31527518D01*
X44323426Y31527517D01*
X44329190Y31516205D01*
X44377427Y31421535D01*
X44461535Y31337427D01*
X44567518Y31283426D01*
X44685000Y31264819D01*
X44802482Y31283426D01*
X44815384Y31290000D01*
X48539819Y31290000D01*
X48558426Y31172518D01*
X48558426Y31172517D01*
X48585941Y31118516D01*
X48612427Y31066535D01*
X48696535Y30982427D01*
X48802518Y30928426D01*
X48920000Y30909819D01*
X49037482Y30928426D01*
X49143465Y30982427D01*
X49227573Y31066535D01*
X49275196Y31160000D01*
X49889819Y31160000D01*
X49908426Y31042518D01*
X49908426Y31042517D01*
X49918004Y31023720D01*
X49962427Y30936535D01*
X50046535Y30852427D01*
X50152518Y30798426D01*
X50270000Y30779819D01*
X50387482Y30798426D01*
X50493465Y30852427D01*
X50577573Y30936535D01*
X50631574Y31042518D01*
X50650181Y31160000D01*
X50631574Y31277482D01*
X50577573Y31383465D01*
X50493465Y31467573D01*
X50414525Y31507795D01*
X50387483Y31521574D01*
X50270000Y31540181D01*
X50152517Y31521574D01*
X50152516Y31521574D01*
X50046533Y31467572D01*
X49962428Y31383467D01*
X49908426Y31277484D01*
X49908426Y31277483D01*
X49889819Y31160000D01*
X49275196Y31160000D01*
X49281574Y31172518D01*
X49300181Y31290000D01*
X49281574Y31407482D01*
X49227573Y31513465D01*
X49143465Y31597573D01*
X49138702Y31600000D01*
X51599819Y31600000D01*
X51618426Y31482518D01*
X51618426Y31482517D01*
X51626041Y31467572D01*
X51672427Y31376535D01*
X51756535Y31292427D01*
X51862518Y31238426D01*
X51980000Y31219819D01*
X52097482Y31238426D01*
X52203465Y31292427D01*
X52287573Y31376535D01*
X52341574Y31482518D01*
X52360181Y31600000D01*
X52341574Y31717482D01*
X52287573Y31823465D01*
X52203465Y31907573D01*
X52151484Y31934059D01*
X52097483Y31961574D01*
X51980000Y31980181D01*
X51862517Y31961574D01*
X51862516Y31961574D01*
X51756533Y31907572D01*
X51672428Y31823467D01*
X51618426Y31717484D01*
X51618426Y31717483D01*
X51599819Y31600000D01*
X49138702Y31600000D01*
X49058490Y31640870D01*
X49037483Y31651574D01*
X48920000Y31670181D01*
X48802517Y31651574D01*
X48802516Y31651574D01*
X48696533Y31597572D01*
X48612428Y31513467D01*
X48558426Y31407484D01*
X48558426Y31407483D01*
X48539819Y31290000D01*
X44815384Y31290000D01*
X44908465Y31337427D01*
X44992573Y31421535D01*
X45046574Y31527518D01*
X45065181Y31645000D01*
X45046574Y31762482D01*
X44992573Y31868465D01*
X44908465Y31952573D01*
X44850933Y31981887D01*
X44802483Y32006574D01*
X44685000Y32025181D01*
X44567517Y32006574D01*
X44567516Y32006574D01*
X44461533Y31952572D01*
X44377428Y31868467D01*
X44323426Y31762484D01*
X44323426Y31762483D01*
X44304819Y31645000D01*
X29874370Y31645000D01*
X29759125Y31703720D01*
X29759125Y31703721D01*
X29625999Y31724805D01*
X29492872Y31703721D01*
X29492872Y31703720D01*
X29372779Y31642530D01*
X29277470Y31547221D01*
X29216280Y31427128D01*
X29216279Y31427128D01*
X29195195Y31294001D01*
X16413314Y31294001D01*
X16386148Y31347316D01*
X16295317Y31438147D01*
X16180874Y31496459D01*
X16180870Y31496460D01*
X16109305Y31507795D01*
X16061014Y31537388D01*
X16047793Y31569308D01*
X16036460Y31640869D01*
X16036460Y31640870D01*
X16036458Y31640875D01*
X15978146Y31755318D01*
X15887315Y31846149D01*
X15772872Y31904461D01*
X15772867Y31904462D01*
X15645999Y31924556D01*
X15519130Y31904462D01*
X15519125Y31904461D01*
X15404682Y31846149D01*
X15313851Y31755318D01*
X15255539Y31640875D01*
X15255538Y31640870D01*
X15235444Y31514001D01*
X567094Y31514001D01*
X567694Y32508501D01*
X3771278Y32508501D01*
X3771279Y32508500D01*
X4111918Y32508500D01*
X4100001Y32479730D01*
X4100001Y32380270D01*
X4111918Y32351500D01*
X3771278Y32351500D01*
X3808161Y32213852D01*
X3808163Y32213847D01*
X3881886Y32086156D01*
X3986155Y31981887D01*
X4113846Y31908164D01*
X4113851Y31908162D01*
X4256272Y31870001D01*
X4256273Y31870000D01*
X4721500Y31870000D01*
X4721500Y32179988D01*
X4878500Y32179988D01*
X4878500Y31870000D01*
X5343727Y31870000D01*
X5343727Y31870001D01*
X5486148Y31908162D01*
X5486153Y31908164D01*
X5613844Y31981887D01*
X5718114Y32086157D01*
X5757627Y32154596D01*
X5802560Y32189075D01*
X5858712Y32181683D01*
X5874039Y32169923D01*
X5876535Y32167427D01*
X5982518Y32113426D01*
X6100000Y32094819D01*
X6217482Y32113426D01*
X6281901Y32146250D01*
X6338361Y32150694D01*
X6381429Y32113911D01*
X6388584Y32091891D01*
X6402492Y32004078D01*
X6402492Y32004077D01*
X6424149Y31961574D01*
X6456493Y31898095D01*
X6540601Y31813987D01*
X6646584Y31759986D01*
X6764066Y31741379D01*
X6881548Y31759986D01*
X6987531Y31813987D01*
X7071639Y31898095D01*
X7125640Y32004078D01*
X7144247Y32121560D01*
X7125640Y32239042D01*
X7071639Y32345025D01*
X6987531Y32429133D01*
X6935550Y32455619D01*
X6881549Y32483134D01*
X6764066Y32501741D01*
X6646583Y32483134D01*
X6582165Y32450311D01*
X6525703Y32445868D01*
X6482635Y32482651D01*
X6475482Y32504668D01*
X6461574Y32592482D01*
X6461574Y32592483D01*
X6461573Y32592485D01*
X6453223Y32608872D01*
X7150945Y32608872D01*
X7171039Y32482004D01*
X7171040Y32481999D01*
X7229352Y32367556D01*
X7320183Y32276725D01*
X7434626Y32218413D01*
X7434629Y32218413D01*
X7434632Y32218411D01*
X7561500Y32198317D01*
X7688368Y32218411D01*
X7688371Y32218413D01*
X7688373Y32218413D01*
X7791998Y32271214D01*
X7802818Y32276726D01*
X7802822Y32276731D01*
X7806502Y32279403D01*
X7861573Y32292626D01*
X7893498Y32279403D01*
X7897179Y32276729D01*
X7897182Y32276726D01*
X7897184Y32276725D01*
X7897187Y32276723D01*
X8011626Y32218413D01*
X8011629Y32218413D01*
X8011632Y32218411D01*
X8138500Y32198317D01*
X8265368Y32218411D01*
X8265371Y32218413D01*
X8265373Y32218413D01*
X8376431Y32275000D01*
X9144819Y32275000D01*
X9163426Y32157518D01*
X9163426Y32157517D01*
X9183455Y32118208D01*
X9217427Y32051535D01*
X9301535Y31967427D01*
X9407518Y31913426D01*
X9525000Y31894819D01*
X9642482Y31913426D01*
X9748465Y31967427D01*
X9832573Y32051535D01*
X9850067Y32085871D01*
X9893132Y32122651D01*
X9949595Y32118208D01*
X9980083Y32089277D01*
X9981882Y32086160D01*
X10086155Y31981887D01*
X10213846Y31908164D01*
X10213851Y31908162D01*
X10356272Y31870001D01*
X10356273Y31870000D01*
X10821500Y31870000D01*
X10821500Y32179988D01*
X10978500Y32179988D01*
X10978500Y31870000D01*
X11443727Y31870000D01*
X11443727Y31870001D01*
X11586148Y31908162D01*
X11586153Y31908164D01*
X11713844Y31981887D01*
X11818113Y32086156D01*
X11891836Y32213847D01*
X11891838Y32213852D01*
X11928721Y32351500D01*
X11588082Y32351500D01*
X11599999Y32380270D01*
X11599999Y32479730D01*
X11588082Y32508500D01*
X11928721Y32508500D01*
X11928721Y32508501D01*
X11891838Y32646149D01*
X11891836Y32646154D01*
X11818113Y32773845D01*
X11713844Y32878114D01*
X11586153Y32951837D01*
X11586148Y32951839D01*
X11443727Y32990000D01*
X10978500Y32990000D01*
X10978500Y32680012D01*
X10821500Y32680012D01*
X10821500Y32990000D01*
X10356273Y32990000D01*
X10213851Y32951839D01*
X10213846Y32951837D01*
X10086155Y32878114D01*
X9981886Y32773845D01*
X9908163Y32646154D01*
X9908162Y32646150D01*
X9894151Y32593863D01*
X9859672Y32548930D01*
X9803519Y32541539D01*
X9770347Y32560691D01*
X9748466Y32582572D01*
X9748465Y32582573D01*
X9696484Y32609059D01*
X9642483Y32636574D01*
X9525000Y32655181D01*
X9407517Y32636574D01*
X9407516Y32636574D01*
X9301533Y32582572D01*
X9217428Y32498467D01*
X9163426Y32392484D01*
X9163426Y32392483D01*
X9144819Y32275000D01*
X8376431Y32275000D01*
X8379816Y32276725D01*
X8379815Y32276725D01*
X8379818Y32276726D01*
X8470646Y32367554D01*
X8477408Y32380825D01*
X8528959Y32481999D01*
X8528959Y32482001D01*
X8528961Y32482004D01*
X8549055Y32608872D01*
X8528961Y32735740D01*
X8528959Y32735743D01*
X8528959Y32735746D01*
X8470647Y32850189D01*
X8379816Y32941020D01*
X8265373Y32999332D01*
X8265368Y32999333D01*
X8138500Y33019427D01*
X8011631Y32999333D01*
X8011626Y32999332D01*
X7897185Y32941021D01*
X7893494Y32938339D01*
X7838421Y32925120D01*
X7806506Y32938339D01*
X7802814Y32941021D01*
X7688373Y32999332D01*
X7688368Y32999333D01*
X7561500Y33019427D01*
X7434631Y32999333D01*
X7434626Y32999332D01*
X7320183Y32941020D01*
X7229352Y32850189D01*
X7171040Y32735746D01*
X7171039Y32735741D01*
X7150945Y32608872D01*
X6453223Y32608872D01*
X6415756Y32682405D01*
X6411312Y32738868D01*
X6429365Y32768327D01*
X6487571Y32826533D01*
X6487573Y32826535D01*
X6541574Y32932518D01*
X6560181Y33050000D01*
X6541574Y33167482D01*
X6535560Y33179286D01*
X14970729Y33179286D01*
X14990823Y33052418D01*
X14990824Y33052413D01*
X15049136Y32937970D01*
X15139967Y32847139D01*
X15254410Y32788827D01*
X15254415Y32788825D01*
X15271382Y32786138D01*
X15325977Y32777492D01*
X15374268Y32747900D01*
X15387490Y32715980D01*
X15398825Y32644415D01*
X15398826Y32644411D01*
X15457138Y32529968D01*
X15547969Y32439137D01*
X15662412Y32380825D01*
X15662415Y32380825D01*
X15662418Y32380823D01*
X15789286Y32360729D01*
X15916154Y32380823D01*
X15916157Y32380825D01*
X15916159Y32380825D01*
X16030602Y32439137D01*
X16030601Y32439137D01*
X16030604Y32439138D01*
X16121432Y32529966D01*
X16150732Y32587471D01*
X16179745Y32644411D01*
X16179746Y32644415D01*
X16179747Y32644416D01*
X16199841Y32771284D01*
X16179747Y32898152D01*
X16179745Y32898155D01*
X16179745Y32898158D01*
X16121433Y33012601D01*
X16030602Y33103432D01*
X15916159Y33161744D01*
X15916155Y33161745D01*
X15844590Y33173080D01*
X15796299Y33202673D01*
X15783078Y33234593D01*
X15771745Y33306154D01*
X15771745Y33306155D01*
X15771743Y33306160D01*
X15713431Y33420603D01*
X15622600Y33511434D01*
X15605233Y33520283D01*
X19839434Y33520283D01*
X19858041Y33402801D01*
X19858041Y33402800D01*
X19877971Y33363686D01*
X19912042Y33296818D01*
X19996150Y33212710D01*
X20102133Y33158709D01*
X20219615Y33140102D01*
X20337097Y33158709D01*
X20443080Y33212710D01*
X20527188Y33296818D01*
X20581189Y33402801D01*
X20599796Y33520283D01*
X20581189Y33637765D01*
X20527188Y33743748D01*
X20443080Y33827856D01*
X20391099Y33854342D01*
X20352516Y33874001D01*
X26015195Y33874001D01*
X26036279Y33740875D01*
X26088817Y33637765D01*
X26097471Y33620781D01*
X26192779Y33525473D01*
X26309503Y33465999D01*
X26312871Y33464283D01*
X26312872Y33464282D01*
X26334275Y33460893D01*
X26373210Y33454726D01*
X26421502Y33425134D01*
X26434724Y33393214D01*
X26444281Y33332877D01*
X26444283Y33332871D01*
X26494357Y33234594D01*
X26505473Y33212779D01*
X26600781Y33117471D01*
X26720874Y33056281D01*
X26720874Y33056280D01*
X26739076Y33053398D01*
X26854001Y33035195D01*
X26987127Y33056280D01*
X27107221Y33117471D01*
X27202529Y33212779D01*
X27263720Y33332873D01*
X27265482Y33344001D01*
X28055195Y33344001D01*
X28076279Y33210875D01*
X28137470Y33090782D01*
X28137471Y33090781D01*
X28232779Y32995473D01*
X28339647Y32941021D01*
X28352871Y32934283D01*
X28352872Y32934282D01*
X28374275Y32930893D01*
X28413210Y32924726D01*
X28461502Y32895134D01*
X28474724Y32863214D01*
X28484281Y32802877D01*
X28484283Y32802871D01*
X28537480Y32698465D01*
X28545473Y32682779D01*
X28640781Y32587471D01*
X28760874Y32526281D01*
X28760874Y32526280D01*
X28779076Y32523398D01*
X28894001Y32505195D01*
X29027127Y32526280D01*
X29147221Y32587471D01*
X29209750Y32650000D01*
X48944819Y32650000D01*
X48963426Y32532518D01*
X48963426Y32532517D01*
X48980776Y32498467D01*
X49017427Y32426535D01*
X49101535Y32342427D01*
X49207518Y32288426D01*
X49325000Y32269819D01*
X49442482Y32288426D01*
X49548465Y32342427D01*
X49632573Y32426535D01*
X49686574Y32532518D01*
X49705181Y32650000D01*
X49686574Y32767482D01*
X49632573Y32873465D01*
X49548465Y32957573D01*
X49496484Y32984059D01*
X49442483Y33011574D01*
X49389282Y33020000D01*
X51569819Y33020000D01*
X51588426Y32902518D01*
X51588426Y32902517D01*
X51600860Y32878114D01*
X51642427Y32796535D01*
X51726535Y32712427D01*
X51832518Y32658426D01*
X51950000Y32639819D01*
X52067482Y32658426D01*
X52173465Y32712427D01*
X52257573Y32796535D01*
X52311574Y32902518D01*
X52330181Y33020000D01*
X52311574Y33137482D01*
X52257573Y33243465D01*
X52173465Y33327573D01*
X52114587Y33357573D01*
X52067483Y33381574D01*
X51950000Y33400181D01*
X51832517Y33381574D01*
X51832516Y33381574D01*
X51726533Y33327572D01*
X51642428Y33243467D01*
X51588426Y33137484D01*
X51588426Y33137483D01*
X51569819Y33020000D01*
X49389282Y33020000D01*
X49325000Y33030181D01*
X49207517Y33011574D01*
X49207516Y33011574D01*
X49101533Y32957572D01*
X49017428Y32873467D01*
X48963426Y32767484D01*
X48963426Y32767483D01*
X48944819Y32650000D01*
X29209750Y32650000D01*
X29242529Y32682779D01*
X29303720Y32802873D01*
X29324805Y32935999D01*
X29303720Y33069125D01*
X29303720Y33069126D01*
X29242529Y33189219D01*
X29147220Y33284528D01*
X29027129Y33345717D01*
X29027128Y33345718D01*
X29027127Y33345718D01*
X29027125Y33345719D01*
X29027123Y33345719D01*
X28966786Y33355276D01*
X28918495Y33384870D01*
X28905274Y33416790D01*
X28895718Y33477128D01*
X28895717Y33477129D01*
X28894551Y33479417D01*
X28834527Y33597221D01*
X28739219Y33692529D01*
X28739218Y33692530D01*
X28619125Y33753720D01*
X28619125Y33753721D01*
X28485999Y33774805D01*
X28352872Y33753721D01*
X28352872Y33753720D01*
X28232779Y33692530D01*
X28137470Y33597221D01*
X28076280Y33477128D01*
X28076279Y33477128D01*
X28055195Y33344001D01*
X27265482Y33344001D01*
X27284805Y33465999D01*
X27266602Y33580924D01*
X27263720Y33599126D01*
X27202529Y33719219D01*
X27107220Y33814528D01*
X26987129Y33875717D01*
X26987128Y33875718D01*
X26987127Y33875718D01*
X26987125Y33875719D01*
X26987123Y33875719D01*
X26926786Y33885276D01*
X26878495Y33914870D01*
X26865274Y33946790D01*
X26855718Y34007128D01*
X26855717Y34007129D01*
X26851940Y34014541D01*
X26794527Y34127221D01*
X26699219Y34222529D01*
X26699218Y34222530D01*
X26579125Y34283720D01*
X26579125Y34283721D01*
X26445999Y34304805D01*
X26312872Y34283721D01*
X26312872Y34283720D01*
X26192779Y34222530D01*
X26097470Y34127221D01*
X26036280Y34007128D01*
X26036279Y34007128D01*
X26015195Y33874001D01*
X20352516Y33874001D01*
X20337098Y33881857D01*
X20219615Y33900464D01*
X20102132Y33881857D01*
X20102131Y33881857D01*
X19996148Y33827855D01*
X19912043Y33743750D01*
X19858041Y33637767D01*
X19858041Y33637766D01*
X19839434Y33520283D01*
X15605233Y33520283D01*
X15508157Y33569746D01*
X15508152Y33569747D01*
X15381284Y33589841D01*
X15254415Y33569747D01*
X15254410Y33569746D01*
X15139967Y33511434D01*
X15049136Y33420603D01*
X14990824Y33306160D01*
X14990823Y33306155D01*
X14970729Y33179286D01*
X6535560Y33179286D01*
X6487573Y33273465D01*
X6403465Y33357573D01*
X6333516Y33393214D01*
X6297483Y33411574D01*
X6180000Y33430181D01*
X6062517Y33411574D01*
X6062516Y33411574D01*
X5956533Y33357572D01*
X5872428Y33273467D01*
X5818426Y33167484D01*
X5818426Y33167483D01*
X5799819Y33050000D01*
X5818426Y32932518D01*
X5818427Y32932514D01*
X5864243Y32842595D01*
X5868687Y32786133D01*
X5850635Y32756674D01*
X5841097Y32747136D01*
X5788771Y32725462D01*
X5736445Y32747136D01*
X5724685Y32762462D01*
X5718113Y32773845D01*
X5613844Y32878114D01*
X5486153Y32951837D01*
X5486148Y32951839D01*
X5343727Y32990000D01*
X4878500Y32990000D01*
X4878500Y32680012D01*
X4721500Y32680012D01*
X4721500Y32990000D01*
X4256273Y32990000D01*
X4113851Y32951839D01*
X4113846Y32951837D01*
X3986155Y32878114D01*
X3881886Y32773845D01*
X3808163Y32646154D01*
X3808161Y32646149D01*
X3771278Y32508501D01*
X567694Y32508501D01*
X568839Y34405000D01*
X15248623Y34405000D01*
X15268717Y34278132D01*
X15268718Y34278127D01*
X15327030Y34163684D01*
X15417861Y34072853D01*
X15532304Y34014541D01*
X15532307Y34014541D01*
X15532310Y34014539D01*
X15659178Y33994445D01*
X15786046Y34014539D01*
X15786049Y34014541D01*
X15786051Y34014541D01*
X15900494Y34072853D01*
X15900493Y34072853D01*
X15900496Y34072854D01*
X15991324Y34163682D01*
X16021308Y34222529D01*
X16049637Y34278127D01*
X16049637Y34278129D01*
X16049639Y34278132D01*
X16069733Y34405000D01*
X16049639Y34531868D01*
X16049637Y34531871D01*
X16049637Y34531874D01*
X15991325Y34646317D01*
X15900494Y34737148D01*
X15786051Y34795460D01*
X15786046Y34795461D01*
X15659178Y34815555D01*
X15532309Y34795461D01*
X15532304Y34795460D01*
X15417861Y34737148D01*
X15327030Y34646317D01*
X15268718Y34531874D01*
X15268717Y34531869D01*
X15248623Y34405000D01*
X568839Y34405000D01*
X569572Y35618380D01*
X17232375Y35618380D01*
X17252469Y35491512D01*
X17252470Y35491507D01*
X17310782Y35377064D01*
X17401613Y35286233D01*
X17516056Y35227921D01*
X17516059Y35227921D01*
X17516062Y35227919D01*
X17642930Y35207825D01*
X17769798Y35227919D01*
X17769801Y35227921D01*
X17769803Y35227921D01*
X17884246Y35286233D01*
X17884245Y35286233D01*
X17884248Y35286234D01*
X17975076Y35377062D01*
X17987162Y35400782D01*
X18033389Y35491507D01*
X18033391Y35491512D01*
X18038041Y35520875D01*
X18044724Y35563076D01*
X18074316Y35611365D01*
X18106235Y35624587D01*
X18177800Y35635921D01*
X18177805Y35635923D01*
X18213285Y35654001D01*
X25475195Y35654001D01*
X25496279Y35520875D01*
X25557470Y35400782D01*
X25557471Y35400781D01*
X25652779Y35305473D01*
X25769503Y35245999D01*
X25772871Y35244283D01*
X25772872Y35244282D01*
X25794275Y35240893D01*
X25833210Y35234726D01*
X25881502Y35205134D01*
X25894724Y35173214D01*
X25904281Y35112877D01*
X25904282Y35112873D01*
X25965473Y34992779D01*
X26060781Y34897471D01*
X26180874Y34836281D01*
X26180874Y34836280D01*
X26199076Y34833398D01*
X26314001Y34815195D01*
X26447127Y34836280D01*
X26567221Y34897471D01*
X26662529Y34992779D01*
X26723720Y35112873D01*
X26744805Y35245999D01*
X26724047Y35377062D01*
X26723720Y35379126D01*
X26662529Y35499219D01*
X26567220Y35594528D01*
X26447129Y35655717D01*
X26447128Y35655718D01*
X26447127Y35655718D01*
X26447125Y35655719D01*
X26447123Y35655719D01*
X26386786Y35665276D01*
X26338495Y35694870D01*
X26325274Y35726790D01*
X26322797Y35742427D01*
X26316045Y35785064D01*
X26315718Y35787128D01*
X26315717Y35787129D01*
X26295639Y35826534D01*
X26254527Y35907221D01*
X26159219Y36002529D01*
X26159218Y36002530D01*
X26039125Y36063720D01*
X26039125Y36063721D01*
X25905999Y36084805D01*
X25772872Y36063721D01*
X25772872Y36063720D01*
X25652779Y36002530D01*
X25557470Y35907221D01*
X25496280Y35787128D01*
X25496279Y35787128D01*
X25475195Y35654001D01*
X18213285Y35654001D01*
X18292248Y35694235D01*
X18292247Y35694235D01*
X18292250Y35694236D01*
X18383078Y35785064D01*
X18404208Y35826534D01*
X18441391Y35899509D01*
X18441391Y35899511D01*
X18441393Y35899514D01*
X18461487Y36026382D01*
X18441393Y36153250D01*
X18441391Y36153253D01*
X18441391Y36153256D01*
X18383079Y36267699D01*
X18292248Y36358530D01*
X18177805Y36416842D01*
X18177800Y36416843D01*
X18050932Y36436937D01*
X17924063Y36416843D01*
X17924058Y36416842D01*
X17809615Y36358530D01*
X17718784Y36267699D01*
X17660472Y36153256D01*
X17660471Y36153252D01*
X17649136Y36081688D01*
X17619542Y36033397D01*
X17587624Y36020176D01*
X17516060Y36008841D01*
X17516056Y36008840D01*
X17401613Y35950528D01*
X17310782Y35859697D01*
X17252470Y35745254D01*
X17252469Y35745249D01*
X17232375Y35618380D01*
X569572Y35618380D01*
X569833Y36050000D01*
X3294819Y36050000D01*
X3313426Y35932518D01*
X3313426Y35932517D01*
X3326314Y35907223D01*
X3367427Y35826535D01*
X3451535Y35742427D01*
X3557518Y35688426D01*
X3675000Y35669819D01*
X3792482Y35688426D01*
X3898465Y35742427D01*
X3982573Y35826535D01*
X4036574Y35932518D01*
X4055181Y36050000D01*
X4036574Y36167482D01*
X3982573Y36273465D01*
X3898465Y36357573D01*
X3846484Y36384059D01*
X3792483Y36411574D01*
X3675000Y36430181D01*
X3557517Y36411574D01*
X3557516Y36411574D01*
X3451533Y36357572D01*
X3367428Y36273467D01*
X3313426Y36167484D01*
X3313426Y36167483D01*
X3294819Y36050000D01*
X569833Y36050000D01*
X570153Y36580546D01*
X591859Y36632857D01*
X644153Y36654500D01*
X4762920Y36654500D01*
X4815246Y36632826D01*
X4836920Y36580500D01*
X4836920Y36113786D01*
X6639632Y36113786D01*
X6639632Y36580500D01*
X6661306Y36632826D01*
X6713632Y36654500D01*
X10677315Y36654500D01*
X10677321Y36654500D01*
X10889771Y36685046D01*
X10889778Y36685048D01*
X11095706Y36745514D01*
X11095708Y36745515D01*
X11095712Y36745516D01*
X11290951Y36834679D01*
X11471514Y36950720D01*
X11633725Y37091276D01*
X11774281Y37253487D01*
X11890321Y37434050D01*
X11979484Y37629289D01*
X11982228Y37638632D01*
X12039952Y37835223D01*
X12039952Y37835224D01*
X12039954Y37835230D01*
X12070500Y38047681D01*
X12070500Y38154998D01*
X12070500Y38220891D01*
X12070500Y38220892D01*
X12070500Y39425000D01*
X21594819Y39425000D01*
X21613426Y39307518D01*
X21613426Y39307517D01*
X21627355Y39280181D01*
X21667427Y39201535D01*
X21751535Y39117427D01*
X21857518Y39063426D01*
X21975000Y39044819D01*
X22092482Y39063426D01*
X22129748Y39082415D01*
X22186209Y39086860D01*
X22229277Y39050078D01*
X22236433Y39004906D01*
X22219819Y38900002D01*
X22219819Y38900001D01*
X22238426Y38782518D01*
X22238426Y38782517D01*
X22265941Y38728516D01*
X22292427Y38676535D01*
X22376535Y38592427D01*
X22482518Y38538426D01*
X22600000Y38519819D01*
X22717482Y38538426D01*
X22823465Y38592427D01*
X22907573Y38676535D01*
X22961574Y38782518D01*
X22980181Y38900000D01*
X22961574Y39017482D01*
X22907573Y39123465D01*
X22823465Y39207573D01*
X22754748Y39242586D01*
X22717483Y39261574D01*
X22600000Y39280181D01*
X22482517Y39261574D01*
X22482513Y39261573D01*
X22445250Y39242586D01*
X22388788Y39238142D01*
X22345721Y39274925D01*
X22338566Y39320096D01*
X22355181Y39425000D01*
X22336574Y39542482D01*
X22282573Y39648465D01*
X22198465Y39732573D01*
X22146484Y39759059D01*
X22092483Y39786574D01*
X21975000Y39805181D01*
X21857517Y39786574D01*
X21857516Y39786574D01*
X21751533Y39732572D01*
X21667428Y39648467D01*
X21613426Y39542484D01*
X21613426Y39542483D01*
X21594819Y39425000D01*
X12070500Y39425000D01*
X12070500Y39890000D01*
X30079819Y39890000D01*
X30098426Y39772518D01*
X30098426Y39772517D01*
X30118779Y39732573D01*
X30152427Y39666535D01*
X30236535Y39582427D01*
X30342518Y39528426D01*
X30460000Y39509819D01*
X30577482Y39528426D01*
X30683465Y39582427D01*
X30767573Y39666535D01*
X30821574Y39772518D01*
X30840181Y39890000D01*
X30837013Y39910000D01*
X31219819Y39910000D01*
X31238426Y39792518D01*
X31238426Y39792517D01*
X31248617Y39772517D01*
X31292427Y39686535D01*
X31376535Y39602427D01*
X31482518Y39548426D01*
X31600000Y39529819D01*
X31717482Y39548426D01*
X31823465Y39602427D01*
X31907573Y39686535D01*
X31961574Y39792518D01*
X31980181Y39910000D01*
X31961574Y40027482D01*
X31907573Y40133465D01*
X31823465Y40217573D01*
X31771484Y40244059D01*
X31717483Y40271574D01*
X31600000Y40290181D01*
X31482517Y40271574D01*
X31482516Y40271574D01*
X31376533Y40217572D01*
X31292428Y40133467D01*
X31238426Y40027484D01*
X31238426Y40027483D01*
X31219819Y39910000D01*
X30837013Y39910000D01*
X30821574Y40007482D01*
X30767573Y40113465D01*
X30683465Y40197573D01*
X30631484Y40224059D01*
X30577483Y40251574D01*
X30460000Y40270181D01*
X30342517Y40251574D01*
X30342516Y40251574D01*
X30236533Y40197572D01*
X30152428Y40113467D01*
X30098426Y40007484D01*
X30098426Y40007483D01*
X30079819Y39890000D01*
X12070500Y39890000D01*
X12070500Y41568690D01*
X14869500Y41568690D01*
X14869500Y41391311D01*
X14904104Y41217340D01*
X14904107Y41217330D01*
X14971985Y41053456D01*
X14971986Y41053454D01*
X14971987Y41053453D01*
X15070536Y40905965D01*
X15195965Y40780536D01*
X15343453Y40681987D01*
X15507334Y40614106D01*
X15681309Y40579500D01*
X15681311Y40579500D01*
X15858689Y40579500D01*
X15858691Y40579500D01*
X16032666Y40614106D01*
X16196547Y40681987D01*
X16344035Y40780536D01*
X16469464Y40905965D01*
X16568013Y41053453D01*
X16635894Y41217334D01*
X16670500Y41391309D01*
X16670500Y41463500D01*
X24030779Y41463500D01*
X24051863Y41330377D01*
X24051863Y41330376D01*
X24051864Y41330374D01*
X24109458Y41217340D01*
X24113914Y41208595D01*
X24118357Y41152133D01*
X24113914Y41141405D01*
X24051863Y41019624D01*
X24030779Y40886500D01*
X24051863Y40753374D01*
X24113054Y40633281D01*
X24113055Y40633280D01*
X24208363Y40537972D01*
X24328456Y40476782D01*
X24328456Y40476781D01*
X24346658Y40473899D01*
X24461583Y40455696D01*
X24594709Y40476781D01*
X24714803Y40537972D01*
X24810111Y40633280D01*
X24871302Y40753374D01*
X24892387Y40886500D01*
X24871302Y41019626D01*
X24810111Y41139720D01*
X24810109Y41139722D01*
X24809252Y41141404D01*
X24804808Y41197867D01*
X24809252Y41208596D01*
X24810109Y41210279D01*
X24810111Y41210280D01*
X24871302Y41330374D01*
X24892387Y41463500D01*
X24871302Y41596626D01*
X24871302Y41596627D01*
X24810111Y41716720D01*
X24714805Y41812026D01*
X24714803Y41812028D01*
X24639085Y41850609D01*
X24602304Y41893674D01*
X24606747Y41950136D01*
X24639083Y41982473D01*
X24748007Y42037972D01*
X24843315Y42133280D01*
X24904506Y42253374D01*
X24925591Y42386500D01*
X24904506Y42519626D01*
X24843315Y42639720D01*
X24843313Y42639722D01*
X24842456Y42641404D01*
X24838012Y42697867D01*
X24842456Y42708596D01*
X24843313Y42710279D01*
X24843315Y42710280D01*
X24904506Y42830374D01*
X24925591Y42963500D01*
X24904506Y43096626D01*
X24904506Y43096627D01*
X24843315Y43216720D01*
X24748006Y43312029D01*
X24627913Y43373219D01*
X24627913Y43373220D01*
X24494787Y43394304D01*
X24361660Y43373220D01*
X24361660Y43373219D01*
X24241567Y43312029D01*
X24146258Y43216720D01*
X24085068Y43096627D01*
X24085067Y43096627D01*
X24063983Y42963500D01*
X24085067Y42830377D01*
X24085067Y42830376D01*
X24085068Y42830374D01*
X24146259Y42710280D01*
X24147118Y42708595D01*
X24151561Y42652133D01*
X24147118Y42641405D01*
X24085067Y42519624D01*
X24063983Y42386500D01*
X24085067Y42253374D01*
X24146258Y42133281D01*
X24146259Y42133280D01*
X24241567Y42037972D01*
X24317284Y41999392D01*
X24354065Y41956328D01*
X24349622Y41899865D01*
X24317283Y41867526D01*
X24208361Y41812027D01*
X24113054Y41716720D01*
X24051864Y41596627D01*
X24051863Y41596627D01*
X24030779Y41463500D01*
X16670500Y41463500D01*
X16670500Y41568691D01*
X16635894Y41742666D01*
X16635892Y41742671D01*
X16568014Y41906545D01*
X16538887Y41950136D01*
X16469464Y42054035D01*
X16344035Y42179464D01*
X16196547Y42278013D01*
X16196546Y42278014D01*
X16196544Y42278015D01*
X16032670Y42345893D01*
X16032660Y42345896D01*
X15916156Y42369070D01*
X15858691Y42380500D01*
X15681309Y42380500D01*
X15631989Y42370690D01*
X15507339Y42345896D01*
X15507329Y42345893D01*
X15343455Y42278015D01*
X15195968Y42179467D01*
X15070533Y42054032D01*
X14971985Y41906545D01*
X14904107Y41742671D01*
X14904104Y41742661D01*
X14869500Y41568690D01*
X12070500Y41568690D01*
X12070500Y47151000D01*
X23952945Y47151000D01*
X23974029Y47017877D01*
X23974029Y47017876D01*
X23974030Y47017874D01*
X24007832Y46951534D01*
X24036080Y46896095D01*
X24040523Y46839633D01*
X24036080Y46828905D01*
X23974029Y46707124D01*
X23952945Y46574000D01*
X23974029Y46440874D01*
X24035220Y46320781D01*
X24130529Y46225472D01*
X24248884Y46165167D01*
X24285667Y46122100D01*
X24281223Y46065638D01*
X24248884Y46033299D01*
X24182605Y45999529D01*
X24087296Y45904220D01*
X24026106Y45784127D01*
X24026105Y45784127D01*
X24005021Y45651000D01*
X24026105Y45517877D01*
X24026105Y45517876D01*
X24026106Y45517874D01*
X24074209Y45423467D01*
X24088156Y45396095D01*
X24092599Y45339633D01*
X24088156Y45328905D01*
X24087297Y45327221D01*
X24087297Y45327220D01*
X24026106Y45207126D01*
X24026105Y45207124D01*
X24005021Y45074000D01*
X24026105Y44940874D01*
X24087296Y44820781D01*
X24087297Y44820780D01*
X24182605Y44725472D01*
X24302698Y44664282D01*
X24302698Y44664281D01*
X24320900Y44661399D01*
X24435825Y44643196D01*
X24568951Y44664281D01*
X24689045Y44725472D01*
X24784353Y44820780D01*
X24845544Y44940874D01*
X24866629Y45074000D01*
X24846673Y45200000D01*
X46869819Y45200000D01*
X46888426Y45082518D01*
X46888426Y45082517D01*
X46915941Y45028516D01*
X46942427Y44976535D01*
X47026535Y44892427D01*
X47132518Y44838426D01*
X47250000Y44819819D01*
X47367482Y44838426D01*
X47473465Y44892427D01*
X47557573Y44976535D01*
X47611574Y45082518D01*
X47630181Y45200000D01*
X47611574Y45317482D01*
X47557573Y45423465D01*
X47473465Y45507573D01*
X47421484Y45534059D01*
X47367483Y45561574D01*
X47250000Y45580181D01*
X47132517Y45561574D01*
X47132516Y45561574D01*
X47026533Y45507572D01*
X46942428Y45423467D01*
X46888426Y45317484D01*
X46888426Y45317483D01*
X46869819Y45200000D01*
X24846673Y45200000D01*
X24845544Y45207126D01*
X24784353Y45327220D01*
X24784351Y45327222D01*
X24783494Y45328904D01*
X24779050Y45385367D01*
X24783494Y45396096D01*
X24784351Y45397779D01*
X24784353Y45397780D01*
X24845544Y45517874D01*
X24866629Y45651000D01*
X24845544Y45784126D01*
X24845544Y45784127D01*
X24784353Y45904220D01*
X24689046Y45999527D01*
X24689045Y45999528D01*
X24570688Y46059834D01*
X24533906Y46102901D01*
X24538350Y46159364D01*
X24570686Y46191700D01*
X24636969Y46225472D01*
X24732277Y46320780D01*
X24793468Y46440874D01*
X24814553Y46574000D01*
X24793468Y46707126D01*
X24732277Y46827220D01*
X24732275Y46827222D01*
X24731418Y46828904D01*
X24726974Y46885367D01*
X24731418Y46896096D01*
X24732275Y46897779D01*
X24732277Y46897780D01*
X24793468Y47017874D01*
X24814553Y47151000D01*
X24810752Y47175000D01*
X46569819Y47175000D01*
X46588426Y47057518D01*
X46588426Y47057517D01*
X46642428Y46951534D01*
X46666636Y46927326D01*
X46688310Y46875000D01*
X46666636Y46822674D01*
X46642428Y46798467D01*
X46588426Y46692484D01*
X46588426Y46692483D01*
X46569819Y46575000D01*
X46588426Y46457518D01*
X46588426Y46457517D01*
X46615941Y46403516D01*
X46642427Y46351535D01*
X46726535Y46267427D01*
X46832518Y46213426D01*
X46950000Y46194819D01*
X47067482Y46213426D01*
X47173465Y46267427D01*
X47257573Y46351535D01*
X47311574Y46457518D01*
X47330181Y46575000D01*
X47311574Y46692482D01*
X47257573Y46798465D01*
X47233364Y46822674D01*
X47211690Y46875000D01*
X47233364Y46927326D01*
X47257573Y46951535D01*
X47311574Y47057518D01*
X47330181Y47175000D01*
X47311574Y47292482D01*
X47257573Y47398465D01*
X47173465Y47482573D01*
X47121484Y47509059D01*
X47067483Y47536574D01*
X46950000Y47555181D01*
X46832517Y47536574D01*
X46832516Y47536574D01*
X46726533Y47482572D01*
X46642428Y47398467D01*
X46588426Y47292484D01*
X46588426Y47292483D01*
X46569819Y47175000D01*
X24810752Y47175000D01*
X24793468Y47284126D01*
X24793468Y47284127D01*
X24732277Y47404220D01*
X24636968Y47499529D01*
X24516875Y47560719D01*
X24516875Y47560720D01*
X24383749Y47581804D01*
X24250622Y47560720D01*
X24250622Y47560719D01*
X24130529Y47499529D01*
X24035220Y47404220D01*
X23974030Y47284127D01*
X23974029Y47284127D01*
X23952945Y47151000D01*
X12070500Y47151000D01*
X12070500Y48568690D01*
X14869500Y48568690D01*
X14869500Y48391311D01*
X14904104Y48217340D01*
X14904107Y48217330D01*
X14971985Y48053456D01*
X14971986Y48053454D01*
X14971987Y48053453D01*
X15070536Y47905965D01*
X15195965Y47780536D01*
X15343453Y47681987D01*
X15507334Y47614106D01*
X15681309Y47579500D01*
X15681311Y47579500D01*
X15858689Y47579500D01*
X15858691Y47579500D01*
X16032666Y47614106D01*
X16196547Y47681987D01*
X16344035Y47780536D01*
X16469464Y47905965D01*
X16568013Y48053453D01*
X16635894Y48217334D01*
X16668250Y48380000D01*
X44539819Y48380000D01*
X44558426Y48262518D01*
X44558426Y48262517D01*
X44581445Y48217340D01*
X44612427Y48156535D01*
X44696535Y48072427D01*
X44774753Y48032573D01*
X44802516Y48018427D01*
X44802517Y48018426D01*
X44812918Y48016779D01*
X44841231Y48012295D01*
X44889523Y47982703D01*
X44902745Y47927631D01*
X44895591Y47905611D01*
X44863426Y47842483D01*
X44844819Y47725000D01*
X44863426Y47607518D01*
X44863426Y47607517D01*
X44876528Y47581804D01*
X44917427Y47501535D01*
X45001535Y47417427D01*
X45107518Y47363426D01*
X45225000Y47344819D01*
X45342482Y47363426D01*
X45448465Y47417427D01*
X45532573Y47501535D01*
X45586574Y47607518D01*
X45605181Y47725000D01*
X45586574Y47842482D01*
X45532573Y47948465D01*
X45448465Y48032573D01*
X45396484Y48059059D01*
X45342483Y48086574D01*
X45303767Y48092706D01*
X45255476Y48122299D01*
X45242254Y48177371D01*
X45249409Y48199391D01*
X45281574Y48262518D01*
X45300181Y48380000D01*
X45281574Y48497482D01*
X45227573Y48603465D01*
X45143465Y48687573D01*
X45091484Y48714059D01*
X45037483Y48741574D01*
X44920000Y48760181D01*
X44802517Y48741574D01*
X44802516Y48741574D01*
X44696533Y48687572D01*
X44612428Y48603467D01*
X44558426Y48497484D01*
X44558426Y48497483D01*
X44539819Y48380000D01*
X16668250Y48380000D01*
X16670500Y48391309D01*
X16670500Y48568691D01*
X16635894Y48742666D01*
X16568013Y48906547D01*
X16469464Y49054035D01*
X16344663Y49178836D01*
X37807233Y49178836D01*
X37827327Y49051968D01*
X37827328Y49051963D01*
X37885640Y48937520D01*
X37976471Y48846689D01*
X38090914Y48788377D01*
X38090917Y48788377D01*
X38090920Y48788375D01*
X38217788Y48768281D01*
X38344656Y48788375D01*
X38344659Y48788377D01*
X38344661Y48788377D01*
X38459104Y48846689D01*
X38459103Y48846689D01*
X38459106Y48846690D01*
X38549934Y48937518D01*
X38585954Y49008211D01*
X38608247Y49051963D01*
X38608247Y49051965D01*
X38608249Y49051968D01*
X38628343Y49178836D01*
X38608249Y49305704D01*
X38608247Y49305707D01*
X38608247Y49305710D01*
X38549935Y49420153D01*
X38459104Y49510984D01*
X38344661Y49569296D01*
X38344656Y49569297D01*
X38217788Y49589391D01*
X38090919Y49569297D01*
X38090914Y49569296D01*
X37976471Y49510984D01*
X37885640Y49420153D01*
X37827328Y49305710D01*
X37827327Y49305705D01*
X37807233Y49178836D01*
X16344663Y49178836D01*
X16344035Y49179464D01*
X16309399Y49202607D01*
X16196544Y49278015D01*
X16032670Y49345893D01*
X16032660Y49345896D01*
X15902202Y49371845D01*
X15858691Y49380500D01*
X15681309Y49380500D01*
X15637798Y49371845D01*
X15507339Y49345896D01*
X15507329Y49345893D01*
X15343455Y49278015D01*
X15195968Y49179467D01*
X15070533Y49054032D01*
X14971985Y48906545D01*
X14904107Y48742671D01*
X14904104Y48742661D01*
X14869500Y48568690D01*
X12070500Y48568690D01*
X12070500Y50451380D01*
X24524500Y50451380D01*
X24524500Y50298621D01*
X24554300Y50148802D01*
X24554302Y50148795D01*
X24612760Y50007664D01*
X24693040Y49887517D01*
X24697630Y49880648D01*
X24805648Y49772630D01*
X24932663Y49687761D01*
X25073795Y49629302D01*
X25223620Y49599500D01*
X25223621Y49599500D01*
X25376379Y49599500D01*
X25376380Y49599500D01*
X25445059Y49613161D01*
X38860888Y49613161D01*
X38880982Y49486293D01*
X38880983Y49486288D01*
X38939295Y49371845D01*
X39030126Y49281014D01*
X39144569Y49222702D01*
X39144572Y49222702D01*
X39144575Y49222700D01*
X39271443Y49202606D01*
X39398311Y49222700D01*
X39398314Y49222702D01*
X39398316Y49222702D01*
X39512759Y49281014D01*
X39512758Y49281014D01*
X39512761Y49281015D01*
X39603589Y49371843D01*
X39617936Y49400000D01*
X42789819Y49400000D01*
X42808426Y49282518D01*
X42808426Y49282517D01*
X42809192Y49281014D01*
X42862427Y49176535D01*
X42946535Y49092427D01*
X43052518Y49038426D01*
X43170000Y49019819D01*
X43287482Y49038426D01*
X43393465Y49092427D01*
X43402672Y49101635D01*
X43454993Y49123311D01*
X43507321Y49101641D01*
X43576535Y49032427D01*
X43682518Y48978426D01*
X43800000Y48959819D01*
X43917482Y48978426D01*
X44023465Y49032427D01*
X44107573Y49116535D01*
X44161574Y49222518D01*
X44180181Y49340000D01*
X44161574Y49457482D01*
X44107573Y49563465D01*
X44023465Y49647573D01*
X43944592Y49687761D01*
X43917483Y49701574D01*
X43800000Y49720181D01*
X43682517Y49701574D01*
X43682513Y49701573D01*
X43576539Y49647577D01*
X43567324Y49638362D01*
X43514997Y49616690D01*
X43462674Y49638364D01*
X43393466Y49707572D01*
X43393465Y49707573D01*
X43341484Y49734059D01*
X43287483Y49761574D01*
X43170000Y49780181D01*
X43052517Y49761574D01*
X43052516Y49761574D01*
X42946533Y49707572D01*
X42862428Y49623467D01*
X42808426Y49517484D01*
X42808426Y49517483D01*
X42789819Y49400000D01*
X39617936Y49400000D01*
X39628205Y49420154D01*
X39661902Y49486288D01*
X39661902Y49486290D01*
X39661904Y49486293D01*
X39681998Y49613161D01*
X39661904Y49740029D01*
X39661902Y49740032D01*
X39661902Y49740035D01*
X39603590Y49854478D01*
X39512759Y49945309D01*
X39398316Y50003621D01*
X39398311Y50003622D01*
X39271443Y50023716D01*
X39144574Y50003622D01*
X39144569Y50003621D01*
X39030126Y49945309D01*
X38939295Y49854478D01*
X38880983Y49740035D01*
X38880982Y49740030D01*
X38860888Y49613161D01*
X25445059Y49613161D01*
X25526205Y49629302D01*
X25667337Y49687761D01*
X25794352Y49772630D01*
X25902370Y49880648D01*
X25985460Y50005000D01*
X26605997Y50005000D01*
X26624604Y49887518D01*
X26624604Y49887517D01*
X26628102Y49880652D01*
X26678605Y49781535D01*
X26762713Y49697427D01*
X26868696Y49643426D01*
X26986178Y49624819D01*
X27103660Y49643426D01*
X27209643Y49697427D01*
X27293751Y49781535D01*
X27347752Y49887518D01*
X27366359Y50005000D01*
X28679819Y50005000D01*
X28698426Y49887518D01*
X28698426Y49887517D01*
X28701924Y49880652D01*
X28752427Y49781535D01*
X28836535Y49697427D01*
X28942518Y49643426D01*
X29060000Y49624819D01*
X29177482Y49643426D01*
X29283465Y49697427D01*
X29367573Y49781535D01*
X29421574Y49887518D01*
X29440181Y50005000D01*
X29659819Y50005000D01*
X29678426Y49887518D01*
X29678426Y49887517D01*
X29681924Y49880652D01*
X29732427Y49781535D01*
X29816535Y49697427D01*
X29922518Y49643426D01*
X30040000Y49624819D01*
X30157482Y49643426D01*
X30263465Y49697427D01*
X30347573Y49781535D01*
X30401574Y49887518D01*
X30420181Y50005000D01*
X30401574Y50122482D01*
X30347573Y50228465D01*
X30263465Y50312573D01*
X30211484Y50339059D01*
X30157483Y50366574D01*
X30040000Y50385181D01*
X29922517Y50366574D01*
X29922516Y50366574D01*
X29816533Y50312572D01*
X29732428Y50228467D01*
X29678426Y50122484D01*
X29678426Y50122483D01*
X29659819Y50005000D01*
X29440181Y50005000D01*
X29421574Y50122482D01*
X29367573Y50228465D01*
X29283465Y50312573D01*
X29231484Y50339059D01*
X29177483Y50366574D01*
X29060000Y50385181D01*
X28942517Y50366574D01*
X28942516Y50366574D01*
X28836533Y50312572D01*
X28752428Y50228467D01*
X28698426Y50122484D01*
X28698426Y50122483D01*
X28679819Y50005000D01*
X27366359Y50005000D01*
X27347752Y50122482D01*
X27293751Y50228465D01*
X27209643Y50312573D01*
X27157662Y50339059D01*
X27103661Y50366574D01*
X26986178Y50385181D01*
X26868695Y50366574D01*
X26868694Y50366574D01*
X26762711Y50312572D01*
X26678606Y50228467D01*
X26624604Y50122484D01*
X26624604Y50122483D01*
X26605997Y50005000D01*
X25985460Y50005000D01*
X25987239Y50007663D01*
X26045698Y50148795D01*
X26075500Y50298620D01*
X26075500Y50451380D01*
X26051905Y50570000D01*
X37469445Y50570000D01*
X37489539Y50443132D01*
X37489540Y50443127D01*
X37547852Y50328684D01*
X37638683Y50237853D01*
X37753126Y50179541D01*
X37753129Y50179541D01*
X37753132Y50179539D01*
X37880000Y50159445D01*
X38006868Y50179539D01*
X38006871Y50179541D01*
X38006873Y50179541D01*
X38121316Y50237853D01*
X38121315Y50237853D01*
X38121318Y50237854D01*
X38212146Y50328682D01*
X38240934Y50385181D01*
X38270459Y50443127D01*
X38270459Y50443129D01*
X38270461Y50443132D01*
X38275667Y50476003D01*
X44274500Y50476003D01*
X44274500Y50273998D01*
X44313907Y50075880D01*
X44313909Y50075873D01*
X44391214Y49889244D01*
X44496292Y49731982D01*
X44503442Y49721282D01*
X44646282Y49578442D01*
X44814244Y49466214D01*
X45000873Y49388909D01*
X45198997Y49349500D01*
X45198998Y49349500D01*
X45401002Y49349500D01*
X45401003Y49349500D01*
X45599127Y49388909D01*
X45785756Y49466214D01*
X45953718Y49578442D01*
X46096558Y49721282D01*
X46208786Y49889244D01*
X46213807Y49901368D01*
X46253852Y49941417D01*
X46310489Y49941421D01*
X46344832Y49912423D01*
X46458211Y49731982D01*
X46671834Y49464107D01*
X46914107Y49221834D01*
X47181982Y49008211D01*
X47472090Y48825924D01*
X47723158Y48705016D01*
X47780791Y48677261D01*
X48071492Y48575542D01*
X48104183Y48564103D01*
X48438217Y48487861D01*
X48778688Y48449500D01*
X48778692Y48449500D01*
X49121308Y48449500D01*
X49121312Y48449500D01*
X49461783Y48487861D01*
X49795817Y48564103D01*
X49941463Y48615067D01*
X50119208Y48677261D01*
X50119212Y48677264D01*
X50119215Y48677264D01*
X50427910Y48825924D01*
X50718018Y49008211D01*
X50985893Y49221834D01*
X51228166Y49464107D01*
X51441789Y49731982D01*
X51624076Y50022090D01*
X51772736Y50330785D01*
X51772736Y50330788D01*
X51772739Y50330792D01*
X51867359Y50601205D01*
X51885897Y50654183D01*
X51962139Y50988217D01*
X52000500Y51328688D01*
X52000500Y51671312D01*
X51962139Y52011783D01*
X51895563Y52303467D01*
X51885898Y52345813D01*
X51885892Y52345831D01*
X51772739Y52669209D01*
X51624076Y52977909D01*
X51624076Y52977910D01*
X51441789Y53268018D01*
X51228166Y53535893D01*
X50985893Y53778166D01*
X50718018Y53991789D01*
X50427910Y54174076D01*
X50403451Y54185855D01*
X50119208Y54322740D01*
X49795830Y54435893D01*
X49795812Y54435899D01*
X49461786Y54512139D01*
X49315866Y54528580D01*
X49121312Y54550500D01*
X48778688Y54550500D01*
X48608452Y54531320D01*
X48438213Y54512139D01*
X48104187Y54435899D01*
X48104169Y54435893D01*
X47780791Y54322740D01*
X47472091Y54174077D01*
X47181981Y53991789D01*
X46914103Y53778163D01*
X46671837Y53535897D01*
X46458211Y53268019D01*
X46275923Y52977909D01*
X46127260Y52669209D01*
X46014107Y52345831D01*
X46014101Y52345813D01*
X45937861Y52011787D01*
X45921987Y51870892D01*
X45904809Y51718426D01*
X45899500Y51671309D01*
X45899500Y51346230D01*
X45877826Y51293904D01*
X45825500Y51272230D01*
X45789531Y51283135D01*
X45788964Y51282072D01*
X45785761Y51283784D01*
X45599127Y51361091D01*
X45599120Y51361093D01*
X45449862Y51390782D01*
X45401003Y51400500D01*
X45198997Y51400500D01*
X45159803Y51392704D01*
X45000879Y51361093D01*
X45000872Y51361091D01*
X44814243Y51283786D01*
X44646282Y51171559D01*
X44646281Y51171557D01*
X44503443Y51028719D01*
X44503441Y51028718D01*
X44391214Y50860757D01*
X44313909Y50674128D01*
X44313907Y50674121D01*
X44274500Y50476003D01*
X38275667Y50476003D01*
X38290555Y50570000D01*
X38270461Y50696868D01*
X38270459Y50696871D01*
X38270459Y50696874D01*
X38212147Y50811317D01*
X38121316Y50902148D01*
X38006873Y50960460D01*
X38006868Y50960461D01*
X37880000Y50980555D01*
X37753131Y50960461D01*
X37753126Y50960460D01*
X37638683Y50902148D01*
X37547852Y50811317D01*
X37489540Y50696874D01*
X37489539Y50696869D01*
X37469445Y50570000D01*
X26051905Y50570000D01*
X26045698Y50601205D01*
X25987239Y50742337D01*
X25902370Y50869352D01*
X25794352Y50977370D01*
X25794348Y50977373D01*
X25667336Y51062240D01*
X25526205Y51120698D01*
X25526198Y51120700D01*
X25413328Y51143151D01*
X25376380Y51150500D01*
X25223620Y51150500D01*
X25193981Y51144605D01*
X25073801Y51120700D01*
X25073794Y51120698D01*
X24932663Y51062240D01*
X24805651Y50977373D01*
X24697627Y50869349D01*
X24612760Y50742337D01*
X24554302Y50601206D01*
X24554300Y50601199D01*
X24524500Y50451380D01*
X12070500Y50451380D01*
X12070500Y51870892D01*
X12070500Y51912318D01*
X12046391Y52080000D01*
X21219819Y52080000D01*
X21238426Y51962518D01*
X21238426Y51962517D01*
X21262052Y51916149D01*
X21292427Y51856535D01*
X21376535Y51772427D01*
X21482518Y51718426D01*
X21600000Y51699819D01*
X21717482Y51718426D01*
X21823465Y51772427D01*
X21907573Y51856535D01*
X21961574Y51962518D01*
X21980181Y52080000D01*
X21961574Y52197482D01*
X21907573Y52303465D01*
X21823465Y52387573D01*
X21771484Y52414059D01*
X21717483Y52441574D01*
X21600000Y52460181D01*
X21482517Y52441574D01*
X21482516Y52441574D01*
X21376533Y52387572D01*
X21292428Y52303467D01*
X21238426Y52197484D01*
X21238426Y52197483D01*
X21219819Y52080000D01*
X12046391Y52080000D01*
X12039954Y52124769D01*
X12019178Y52195525D01*
X11979486Y52330705D01*
X11979484Y52330710D01*
X11953516Y52387572D01*
X11890321Y52525950D01*
X11879442Y52542878D01*
X11774285Y52706507D01*
X11774284Y52706508D01*
X11774281Y52706513D01*
X11633724Y52868724D01*
X11471513Y53009281D01*
X11471508Y53009285D01*
X11471506Y53009286D01*
X11290956Y53125318D01*
X11290948Y53125322D01*
X11095709Y53214485D01*
X11095704Y53214487D01*
X10889776Y53274953D01*
X10889764Y53274955D01*
X10677322Y53305500D01*
X10677318Y53305500D01*
X10635892Y53305500D01*
X634882Y53305500D01*
X582556Y53327174D01*
X560882Y53379500D01*
X560971Y53383130D01*
X563238Y53429300D01*
X567173Y53509397D01*
X567882Y53516593D01*
X617209Y53849131D01*
X618626Y53856249D01*
X618626Y53856250D01*
X660895Y54025000D01*
X3194819Y54025000D01*
X3213426Y53907518D01*
X3213426Y53907517D01*
X3223156Y53888421D01*
X3267427Y53801535D01*
X3351535Y53717427D01*
X3457518Y53663426D01*
X3575000Y53644819D01*
X3692482Y53663426D01*
X3798465Y53717427D01*
X3882573Y53801535D01*
X3936574Y53907518D01*
X3955181Y54025000D01*
X3936574Y54142482D01*
X3913127Y54188500D01*
X40659445Y54188500D01*
X40679539Y54061632D01*
X40679540Y54061627D01*
X40737851Y53947186D01*
X40740533Y53943494D01*
X40753752Y53888421D01*
X40740533Y53856506D01*
X40737851Y53852815D01*
X40679540Y53738374D01*
X40679539Y53738369D01*
X40659445Y53611500D01*
X40679539Y53484632D01*
X40679540Y53484627D01*
X40737852Y53370184D01*
X40828683Y53279353D01*
X40943126Y53221041D01*
X40943129Y53221041D01*
X40943132Y53221039D01*
X41070000Y53200945D01*
X41196868Y53221039D01*
X41196871Y53221041D01*
X41196873Y53221041D01*
X41311316Y53279353D01*
X41311315Y53279353D01*
X41311318Y53279354D01*
X41402146Y53370182D01*
X41408743Y53383130D01*
X41460459Y53484627D01*
X41460459Y53484629D01*
X41460461Y53484632D01*
X41480555Y53611500D01*
X41460461Y53738368D01*
X41460459Y53738371D01*
X41460459Y53738374D01*
X41402149Y53852813D01*
X41402147Y53852816D01*
X41402146Y53852818D01*
X41402143Y53852821D01*
X41399469Y53856502D01*
X41386246Y53911573D01*
X41399469Y53943498D01*
X41402141Y53947178D01*
X41402146Y53947182D01*
X41407658Y53958002D01*
X41460459Y54061627D01*
X41460459Y54061629D01*
X41460461Y54061632D01*
X41480555Y54188500D01*
X41460461Y54315368D01*
X41460459Y54315371D01*
X41460459Y54315374D01*
X41402147Y54429817D01*
X41311316Y54520648D01*
X41196873Y54578960D01*
X41196868Y54578961D01*
X41070000Y54599055D01*
X40943131Y54578961D01*
X40943126Y54578960D01*
X40828683Y54520648D01*
X40737852Y54429817D01*
X40679540Y54315374D01*
X40679539Y54315369D01*
X40659445Y54188500D01*
X3913127Y54188500D01*
X3882573Y54248465D01*
X3798465Y54332573D01*
X3729493Y54367716D01*
X3692483Y54386574D01*
X3575000Y54405181D01*
X3457517Y54386574D01*
X3457516Y54386574D01*
X3351533Y54332572D01*
X3267428Y54248467D01*
X3213426Y54142484D01*
X3213426Y54142483D01*
X3194819Y54025000D01*
X660895Y54025000D01*
X700307Y54182342D01*
X702404Y54189253D01*
X815663Y54505790D01*
X818433Y54512478D01*
X962168Y54816379D01*
X965574Y54822752D01*
X1005883Y54890004D01*
X51855373Y54890004D01*
X51855373Y54889997D01*
X51873812Y54738129D01*
X51873814Y54738125D01*
X51928065Y54595075D01*
X51991768Y54502786D01*
X52266141Y54777160D01*
X52278060Y54748386D01*
X52348386Y54678060D01*
X52377158Y54666143D01*
X52102574Y54391559D01*
X52129486Y54367716D01*
X52129489Y54367714D01*
X52264956Y54296615D01*
X52413502Y54260001D01*
X52413508Y54260000D01*
X52566492Y54260000D01*
X52566497Y54260001D01*
X52715043Y54296615D01*
X52850510Y54367714D01*
X52877424Y54391559D01*
X52602841Y54666143D01*
X52631614Y54678060D01*
X52701940Y54748386D01*
X52713857Y54777159D01*
X52988230Y54502786D01*
X53051935Y54595078D01*
X53106185Y54738125D01*
X53106187Y54738129D01*
X53124627Y54889997D01*
X53124627Y54890004D01*
X53106187Y55041872D01*
X53106185Y55041876D01*
X53051934Y55184926D01*
X52988231Y55277216D01*
X52713857Y55002843D01*
X52701940Y55031614D01*
X52631614Y55101940D01*
X52602840Y55113859D01*
X52877424Y55388442D01*
X52850513Y55412285D01*
X52850510Y55412287D01*
X52715043Y55483386D01*
X52566497Y55520000D01*
X52413502Y55520000D01*
X52264956Y55483386D01*
X52129490Y55412288D01*
X52102573Y55388443D01*
X52377158Y55113858D01*
X52348386Y55101940D01*
X52278060Y55031614D01*
X52266142Y55002842D01*
X51991767Y55277217D01*
X51928067Y55184930D01*
X51928066Y55184928D01*
X51873814Y55041876D01*
X51873812Y55041872D01*
X51855373Y54890004D01*
X1005883Y54890004D01*
X1138410Y55111112D01*
X1142434Y55117134D01*
X1342690Y55387148D01*
X1347294Y55392756D01*
X1573050Y55641840D01*
X1578160Y55646950D01*
X1827248Y55872711D01*
X1832857Y55877313D01*
X1880087Y55912341D01*
X2102866Y56077566D01*
X2108888Y56081590D01*
X2397248Y56254426D01*
X2403621Y56257832D01*
X2707522Y56401567D01*
X2714210Y56404337D01*
X3030747Y56517596D01*
X3037658Y56519693D01*
X3363755Y56601375D01*
X3370869Y56602791D01*
X3703407Y56652118D01*
X3710601Y56652827D01*
X4048188Y56669412D01*
X4051819Y56669500D01*
X4115892Y56669500D01*
X18676103Y56669500D01*
X18728429Y56647826D01*
G37*
%TD.AperFunction*%
%TD*%
M02*
